<svg width="120" height="120" viewBox="0 0 120 120" fill="none" xmlns="http://www.w3.org/2000/svg">
<path d="M42.1875 18.75C34.421 18.75 28.125 25.046 28.125 32.8125C28.125 33.091 28.1331 33.3673 28.149 33.6414C28.2089 34.6752 27.4195 35.5619 26.3857 35.6219C25.3519 35.6818 24.4652 34.8924 24.4053 33.8586C24.3852 33.5122 24.375 33.1635 24.375 32.8125C24.375 22.9749 32.3499 15 42.1875 15C42.5385 15 42.8872 15.0102 43.2336 15.0303C44.2674 15.0902 45.0568 15.9769 44.9969 17.0107C44.9369 18.0445 44.0502 18.8339 43.0164 18.774C42.7423 18.7581 42.466 18.75 42.1875 18.75Z" fill="white"/>
<path d="M44.9924 24.2487C45.0853 25.2801 44.3246 26.1915 43.2932 26.2844C39.2485 26.6489 36.0239 29.8735 35.6594 33.9182C35.5665 34.9496 34.6551 35.7103 33.6237 35.6174C32.5924 35.5245 31.8316 34.613 31.9246 33.5817C32.4517 27.7318 37.1068 23.0767 42.9567 22.5496C43.988 22.4566 44.8995 23.2174 44.9924 24.2487Z" fill="white"/>
<path fill-rule="evenodd" clip-rule="evenodd" d="M60.9375 49.6875C61.973 49.6875 62.8125 50.527 62.8125 51.5625V54.375H67.5C68.5355 54.375 69.375 55.2145 69.375 56.25C69.375 57.2855 68.5355 58.125 67.5 58.125H62.8125V61.875H63.75C64.675 61.875 66.0209 62.1371 67.1893 62.9784C68.4534 63.8885 69.375 65.3889 69.375 67.5C69.375 69.9277 68.4087 71.551 66.9068 72.4092C65.6477 73.1287 64.2865 73.126 63.7972 73.1251L63.75 73.125H62.8125V76.875C62.8125 77.9105 61.973 78.75 60.9375 78.75C59.902 78.75 59.0625 77.9105 59.0625 76.875V73.125H54.375C53.3395 73.125 52.5 72.2855 52.5 71.25C52.5 70.2145 53.3395 69.375 54.375 69.375H59.0625V65.625H58.125C57.2 65.625 55.8541 65.3629 54.6857 64.5216C53.4216 63.6115 52.5 62.1111 52.5 60C52.5 57.8889 53.4216 56.3885 54.6857 55.4784C55.8541 54.6371 57.2 54.375 58.125 54.375H59.0625V51.5625C59.0625 50.527 59.902 49.6875 60.9375 49.6875ZM58.125 58.125H59.0625V61.875H58.125C57.8 61.875 57.2709 61.7621 56.8768 61.4784C56.5784 61.2635 56.25 60.8889 56.25 60C56.25 59.1111 56.5784 58.7365 56.8768 58.5216C57.2709 58.2379 57.8 58.125 58.125 58.125ZM62.8125 69.375V65.625H63.75C64.075 65.625 64.6041 65.7379 64.9982 66.0216C65.2966 66.2365 65.625 66.6111 65.625 67.5C65.625 68.2054 65.4931 68.593 65.3877 68.7928C65.2896 68.9787 65.1743 69.0802 65.0463 69.1533C64.708 69.3466 64.2444 69.375 63.75 69.375H62.8125Z" fill="white"/>
<path d="M56.25 88.125C56.25 87.0895 57.0895 86.25 58.125 86.25H63.75C64.7855 86.25 65.625 87.0895 65.625 88.125C65.625 89.1605 64.7855 90 63.75 90H58.125C57.0895 90 56.25 89.1605 56.25 88.125Z" fill="white"/>
<path fill-rule="evenodd" clip-rule="evenodd" d="M41.25 37.5C41.25 34.3934 43.7684 31.875 46.875 31.875H75C78.1066 31.875 80.625 34.3934 80.625 37.5V45.614C81.4318 45.2216 82.3701 45 83.4375 45C85.0162 45 86.3126 45.4849 87.3188 46.2898C88.2955 47.0712 88.8967 48.0709 89.2698 48.9663C89.6437 49.8635 89.8216 50.7345 89.9089 51.3632C89.9533 51.6823 89.9759 51.9515 89.9875 52.1469C89.9934 52.2449 89.9965 52.3251 89.9981 52.3848L89.9995 52.6318L90 52.7271V60C90 61.0464 90.364 62.1133 91.0784 63.3859C91.61 64.3331 92.2544 65.2632 92.9904 66.3256L92.9918 66.3276C93.2798 66.7433 93.5818 67.1793 93.8966 67.6445C96.0682 70.8536 98.4375 74.8969 98.4375 80.625C98.4375 85.5114 96.7167 89.6316 94.4409 92.7289C92.1897 95.7927 89.3189 97.9579 86.852 98.876C86.453 99.0245 85.9464 99.4983 85.6529 100.116C84.7226 102.076 82.8474 103.52 80.6816 104.46C78.485 105.414 75.8028 105.938 72.9375 105.938C69.3215 105.938 67.6036 104.621 64.9062 102.805C63.5509 101.893 62.3609 100.815 61.4924 99.6401C61.0112 98.9894 60.5997 98.2685 60.3314 97.5H46.875C45.1398 97.5 43.5881 96.7143 42.5563 95.4793C42.2167 95.5807 41.8658 95.625 41.5179 95.625C38.3873 95.625 35.625 93.2263 35.625 90C35.625 89.1726 35.8067 88.3997 36.1296 87.7077C33.6438 86.7737 31.875 84.3747 31.875 81.5625C31.875 79.7262 32.6292 78.0661 33.8447 76.875C32.6292 75.6839 31.875 74.0238 31.875 72.1875C31.875 69.8381 33.1095 67.7771 34.9653 66.6178C34.2001 65.5445 33.75 64.2311 33.75 62.8125C33.75 59.1881 36.6881 56.25 40.3125 56.25C40.6305 56.25 40.9441 56.2729 41.25 56.3231V37.5ZM80.625 91.875V52.5074L80.6254 52.4889C80.6261 52.4661 80.6275 52.4255 80.6308 52.3697C80.6375 52.2575 80.6515 52.0872 80.6804 51.879C80.7396 51.453 80.8546 50.9177 81.0667 50.4087C81.2795 49.8978 81.5572 49.4913 81.8988 49.218C82.2111 48.9683 82.6725 48.75 83.4375 48.75C84.2025 48.75 84.6639 48.9683 84.9762 49.218C85.3178 49.4913 85.5955 49.8978 85.8083 50.4087C86.0204 50.9177 86.1354 51.453 86.1946 51.879C86.2235 52.0872 86.2375 52.2575 86.2442 52.3697C86.2475 52.4255 86.2489 52.4661 86.2496 52.4889L86.25 52.5079V60C86.25 61.9536 86.9407 63.6757 87.8083 65.2215C88.4335 66.3353 89.229 67.4833 90.0024 68.5993C90.2703 68.986 90.5363 69.37 90.7909 69.7461C92.838 72.7714 94.6875 76.0406 94.6875 80.625C94.6875 84.6013 93.2923 87.959 91.419 90.5084C89.5211 93.0913 87.2097 94.7416 85.544 95.3615C84.002 95.9353 82.86 97.2555 82.2653 98.5082C81.8625 99.3567 80.8754 100.288 79.1881 101.021C77.5315 101.74 75.3696 102.188 72.9375 102.188C70.1785 102.188 69.1777 101.16 67.0001 99.6945C65.9602 98.9946 65.1356 98.2318 64.5749 97.5H75C78.1066 97.5 80.625 94.9816 80.625 91.875ZM76.875 37.5V91.875C76.875 92.9105 76.0355 93.75 75 93.75H46.875C45.8395 93.75 45 92.9105 45 91.875V90.4732C45.0002 90.4197 45.0002 90.3668 45.0002 90.3146C45.0002 90.2589 45.0002 90.204 45.0001 90.1501L45 90L45.0001 89.8499C45.0002 89.7455 45.0003 89.6375 45 89.5268V37.5C45 36.4645 45.8395 35.625 46.875 35.625H75C76.0355 35.625 76.875 36.4645 76.875 37.5ZM41.25 72.1875C41.25 70.6342 39.9908 69.375 38.4375 69.375C36.8842 69.375 35.625 70.6342 35.625 72.1875C35.625 73.7408 36.8842 75 38.4375 75C39.9908 75 41.25 73.7408 41.25 72.1875ZM38.4375 78.75C36.8842 78.75 35.625 80.0092 35.625 81.5625C35.625 83.1158 36.8842 84.375 38.4375 84.375C39.9908 84.375 41.25 83.1158 41.25 81.5625C41.25 80.0092 39.9908 78.75 38.4375 78.75ZM41.2278 88.6451C41.2494 89.0313 41.25 89.4692 41.25 90C41.25 90.5308 41.2494 90.9687 41.2278 91.3549C41.2163 91.5614 41.1998 91.7248 41.181 91.853C40.0687 91.705 39.375 90.8345 39.375 90C39.375 89.1655 40.0687 88.295 41.181 88.147C41.1998 88.2752 41.2163 88.4386 41.2278 88.6451ZM40.9781 60.2637C41.1693 60.6912 41.25 61.4622 41.25 62.8125C41.25 64.1628 41.1693 64.9338 40.9781 65.3613C40.9137 65.5051 40.8695 65.5302 40.8615 65.5348C40.8446 65.5452 40.7087 65.625 40.3125 65.625C38.7592 65.625 37.5 64.3658 37.5 62.8125C37.5 61.2592 38.7592 60 40.3125 60C40.7087 60 40.8438 60.0793 40.8606 60.0897C40.8686 60.0943 40.9137 60.1199 40.9781 60.2637Z" fill="white"/>
<path d="M89.9995 52.6318C89.9995 52.6318 89.9998 52.4587 89.9983 52.3923L89.999 52.4217L89.9997 52.4587L89.9999 52.4835L90 52.4928L89.9995 52.6318Z" fill="white"/>
</svg>
