<svg width="120" height="120" viewBox="0 0 120 120" fill="none" xmlns="http://www.w3.org/2000/svg">
<path d="M59.7641 12.2144C59.4418 11.6343 58.8368 11.2677 58.1733 11.2506C57.5098 11.2335 56.8868 11.5685 56.535 12.1313C54.891 14.7617 51.6734 17.39 48.0996 19.6496C44.5741 21.8786 40.928 23.6094 38.6787 24.5091C37.7172 24.8937 37.2495 25.9849 37.6341 26.9464C38.0187 27.9078 39.1099 28.3755 40.0714 27.9909C42.5095 27.0156 46.3635 25.1839 50.1036 22.8192C52.9998 20.988 55.9711 18.7491 58.1339 16.2423C59.3117 17.5408 60.9218 18.965 62.8528 20.3797C66.0226 22.702 70.2309 25.1266 75.2644 27.0625C76.231 27.4343 77.3158 26.9521 77.6876 25.9856C78.0593 25.0191 77.5771 23.9342 76.6106 23.5625C71.8941 21.7484 67.9775 19.4855 65.0691 17.3547C62.1008 15.1799 60.3472 13.2641 59.7641 12.2144Z" fill="white"/>
<path fill-rule="evenodd" clip-rule="evenodd" d="M46.875 58.125C46.875 51.9118 51.9118 46.875 58.125 46.875C64.3382 46.875 69.375 51.9118 69.375 58.125C69.375 61.6866 67.7178 64.8623 65.1398 66.9206C64.1969 67.6735 63.75 68.4888 63.75 69.1738V78.75C63.75 81.8566 61.2316 84.375 58.125 84.375C55.0184 84.375 52.5 81.8566 52.5 78.75V69.1738C52.5 68.4888 52.0532 67.6735 51.1102 66.9206C48.5322 64.8623 46.875 61.6866 46.875 58.125ZM58.125 50.625C53.9829 50.625 50.625 53.9829 50.625 58.125C50.625 60.4979 51.7249 62.6128 53.45 63.9901C54.8367 65.0972 56.25 66.8778 56.25 69.1738V78.75C56.25 79.7855 57.0895 80.625 58.125 80.625C59.1606 80.625 60 79.7855 60 78.75V69.1738C60 66.8778 61.4134 65.0972 62.8001 63.9901C64.5252 62.6128 65.625 60.4979 65.625 58.125C65.625 53.9829 62.2672 50.625 58.125 50.625Z" fill="white"/>
<path fill-rule="evenodd" clip-rule="evenodd" d="M60.7273 22.3311C59.2298 21.0841 57.0212 21.0842 55.5237 22.331C51.5422 25.646 42.3933 31.2095 30.6544 32.1488C27.374 32.4113 24.3208 34.9212 24.3757 38.6526C24.7497 64.0337 28.3943 77.6999 34.1311 86.3176C38.6145 93.0525 44.3776 96.6028 50.1531 100.161C51.7273 101.131 53.3029 102.101 54.8533 103.137C56.8289 104.457 59.4212 104.457 61.3968 103.137C62.9473 102.101 64.5226 101.131 66.097 100.161C71.8725 96.6028 77.6355 93.0525 82.119 86.3176C87.8558 77.6999 91.5004 64.0337 91.8743 38.6526C91.9293 34.9212 88.8758 32.4113 85.5955 32.1488C73.8567 31.2095 64.7086 25.6461 60.7273 22.3311ZM56.25 26.5162C51.2777 30.1596 42.236 34.9841 30.9535 35.8869C29.2198 36.0256 28.1053 37.2403 28.1253 38.5973C28.2124 44.509 28.4793 49.7365 28.9031 54.375H41.25C42.2856 54.375 43.125 55.2145 43.125 56.25C43.125 57.2855 42.2856 58.125 41.25 58.125H29.2943C30.8126 70.9852 33.6668 78.8529 37.2527 84.2395C41.24 90.2292 46.1329 93.2531 51.7781 96.7419C53.2204 97.6332 54.7122 98.5552 56.25 99.5644V90C56.25 88.9645 57.0895 88.125 58.125 88.125C59.1606 88.125 60 88.9645 60 90V99.5644C61.5381 98.555 63.0296 97.6333 64.4719 96.7419C70.1172 93.2531 75.0101 90.2292 78.9974 84.2395C82.5833 78.8529 85.4375 70.9852 86.9557 58.125H75C73.9645 58.125 73.125 57.2855 73.125 56.25C73.125 55.2145 73.9645 54.375 75 54.375H87.347C87.7708 49.7365 88.0376 44.509 88.1247 38.5973C88.1447 37.2404 87.0302 36.0256 85.2964 35.8869C74.0133 34.984 64.9719 30.159 60 26.5156V41.25C60 42.2855 59.1606 43.125 58.125 43.125C57.0895 43.125 56.25 42.2855 56.25 41.25V26.5162Z" fill="white"/>
<path d="M55.0046 106.291C56.894 107.551 59.356 107.551 61.2455 106.291L68.3349 101.565C69.1966 100.991 70.3607 101.223 70.9351 102.085C71.5095 102.947 71.2761 104.111 70.4145 104.685L63.3256 109.411C60.1765 111.511 56.0735 111.511 52.9245 109.411L45.835 104.685C44.9734 104.111 44.7405 102.947 45.3149 102.085C45.8893 101.223 47.0541 100.991 47.9157 101.565L47.9174 101.566L55.0046 106.291Z" fill="white"/>
<path d="M80.625 28.125C80.625 27.0895 81.4645 26.25 82.5 26.25C87.4158 26.25 91.7587 27.232 95.0759 30.5492C96.1231 31.5964 96.7401 33.094 97.1307 34.635C97.5312 36.2153 97.7484 38.0675 97.8436 40.0397C98.0341 43.9878 97.7455 48.6608 97.2855 53.11C96.3659 62.0056 94.7319 70.2738 94.6542 70.6649L94.6537 70.6671L94.6512 70.6811C92.7192 81.2761 87.8502 93.0617 76.0401 100.935C75.1785 101.509 74.0143 101.277 73.4399 100.415C72.8655 99.5535 73.0984 98.3893 73.96 97.8149C84.6264 90.704 89.1363 80.0207 90.9621 70.0084L90.966 69.9864L90.9758 69.9356C91.0407 69.6092 92.6522 61.4616 93.5554 52.7244C94.0078 48.3485 94.2751 43.8916 94.098 40.2205C94.0093 38.3831 93.8117 36.8034 93.4956 35.5563C93.1696 34.27 92.7682 33.5448 92.4242 33.2008C90.1163 30.893 86.9593 30 82.5 30C81.4645 30 80.625 29.1605 80.625 28.125Z" fill="white"/>
<path d="M31.875 26.25C32.9106 26.25 33.75 27.0895 33.75 28.125C33.75 29.1605 32.9106 30 31.875 30C29.6358 30 28.4052 30.2289 27.4537 30.6559C26.4861 31.0902 25.6215 31.8083 24.2289 33.2008C23.8849 33.5448 23.4835 34.27 23.1575 35.5563C22.8414 36.8034 22.6438 38.3831 22.5551 40.2205C22.378 43.8916 22.6453 48.3485 23.0977 52.7244C24.0009 61.4616 25.6124 69.6092 25.6773 69.9356L25.6871 69.9865L25.6911 70.0085C27.5249 80.0693 31.6518 90.7227 42.2901 97.8149C43.1517 98.3893 43.3845 99.5535 42.8101 100.415C42.2357 101.277 41.0716 101.509 40.21 100.935C28.3717 93.0429 23.9242 81.2275 22.0019 70.681L21.9994 70.6671L21.9989 70.6649C21.9212 70.2738 20.2872 62.0056 19.3676 53.11C18.9076 48.6608 18.619 43.9878 18.8095 40.0397C18.9047 38.0675 19.1219 36.2153 19.5224 34.635C19.913 33.094 20.5301 31.5964 21.5773 30.5492C22.9972 29.1292 24.2748 27.9723 25.9182 27.2347C27.5777 26.4899 29.4267 26.25 31.875 26.25Z" fill="white"/>
</svg>
