<svg width="120" height="120" viewBox="0 0 120 120" fill="none" xmlns="http://www.w3.org/2000/svg">
<path d="M15 30C15 24.8223 19.1973 20.625 24.375 20.625H61.875C67.0527 20.625 71.25 24.8223 71.25 30V49.6875C71.25 50.723 70.4105 51.5625 69.375 51.5625C68.3395 51.5625 67.5 50.723 67.5 49.6875V30C67.5 26.8934 64.9816 24.375 61.875 24.375H24.375C21.2684 24.375 18.75 26.8934 18.75 30V91.875C18.75 94.9816 21.2684 97.5 24.375 97.5H60C61.0355 97.5 61.875 98.3395 61.875 99.375C61.875 100.411 61.0355 101.25 60 101.25H24.375C19.1973 101.25 15 97.0527 15 91.875V30Z" fill="white"/>
<path fill-rule="evenodd" clip-rule="evenodd" d="M50.625 60V63.75H54.375C55.4105 63.75 56.25 64.5895 56.25 65.625C56.25 66.6605 55.4105 67.5 54.375 67.5H28.125C25.0184 67.5 22.5 64.9816 22.5 61.875C22.5 58.7684 25.0184 56.25 28.125 56.25H58.125C59.1605 56.25 60 57.0895 60 58.125C60 59.1605 59.1605 60 58.125 60H50.625ZM35.625 60H28.125C27.0895 60 26.25 60.8395 26.25 61.875C26.25 62.9105 27.0895 63.75 28.125 63.75H35.625V60ZM39.375 63.75H46.875V60H39.375V63.75Z" fill="white"/>
<path fill-rule="evenodd" clip-rule="evenodd" d="M50.625 76.875V73.125H52.5C53.5355 73.125 54.375 72.2855 54.375 71.25C54.375 70.2145 53.5355 69.375 52.5 69.375H28.125C25.0184 69.375 22.5 71.8934 22.5 75C22.5 78.1066 25.0184 80.625 28.125 80.625H52.5C53.5355 80.625 54.375 79.7855 54.375 78.75C54.375 77.7145 53.5355 76.875 52.5 76.875H50.625ZM28.125 73.125H35.625V76.875H28.125C27.0895 76.875 26.25 76.0355 26.25 75C26.25 73.9645 27.0895 73.125 28.125 73.125ZM46.875 76.875H39.375V73.125H46.875V76.875Z" fill="white"/>
<path fill-rule="evenodd" clip-rule="evenodd" d="M50.625 86.25V90H56.25C57.2855 90 58.125 90.8395 58.125 91.875C58.125 92.9105 57.2855 93.75 56.25 93.75H28.125C25.0184 93.75 22.5 91.2316 22.5 88.125C22.5 85.0184 25.0184 82.5 28.125 82.5H52.5C53.5355 82.5 54.375 83.3395 54.375 84.375C54.375 85.4105 53.5355 86.25 52.5 86.25H50.625ZM35.625 86.25H28.125C27.0895 86.25 26.25 87.0895 26.25 88.125C26.25 89.1605 27.0895 90 28.125 90H35.625V86.25ZM39.375 90H46.875V86.25H39.375V90Z" fill="white"/>
<path fill-rule="evenodd" clip-rule="evenodd" d="M22.5 35.625C22.5 32.5184 25.0184 30 28.125 30H58.125C61.2316 30 63.75 32.5184 63.75 35.625V45C63.75 48.1066 61.2316 50.625 58.125 50.625H28.125C25.0184 50.625 22.5 48.1066 22.5 45V35.625ZM28.125 33.75C27.0895 33.75 26.25 34.5895 26.25 35.625V45C26.25 46.0355 27.0895 46.875 28.125 46.875H58.125C59.1605 46.875 60 46.0355 60 45V35.625C60 34.5895 59.1605 33.75 58.125 33.75H28.125Z" fill="white"/>
<path d="M66.8008 71.0423C67.2038 70.0884 66.7572 68.9884 65.8033 68.5854C64.8494 68.1823 63.7494 68.6289 63.3464 69.5828C62.3983 71.8268 61.875 74.2922 61.875 76.875C61.875 79.4579 62.3983 81.9233 63.3464 84.1673C63.7494 85.1212 64.8494 85.5678 65.8033 85.1647C66.7572 84.7617 67.2038 83.6617 66.8008 82.7078C66.0442 80.9173 65.625 78.9475 65.625 76.875C65.625 74.8026 66.0442 72.8328 66.8008 71.0423Z" fill="white"/>
<path d="M95.4467 68.5854C94.4928 68.9884 94.0462 70.0884 94.4492 71.0423C95.2058 72.8328 95.625 74.8026 95.625 76.875C95.625 78.9475 95.2058 80.9173 94.4492 82.7078C94.0462 83.6617 94.4928 84.7617 95.4467 85.1647C96.4006 85.5678 97.5006 85.1212 97.9036 84.1673C98.8517 81.9233 99.375 79.4579 99.375 76.875C99.375 74.2922 98.8517 71.8268 97.9036 69.5828C97.5006 68.6289 96.4006 68.1823 95.4467 68.5854Z" fill="white"/>
<path fill-rule="evenodd" clip-rule="evenodd" d="M82.5 60C82.5 58.9645 81.6605 58.125 80.625 58.125C79.5895 58.125 78.75 58.9645 78.75 60V62.0472C74.6195 62.8124 71.25 66.0552 71.25 70.3125C71.25 74.5698 74.6195 77.8126 78.75 78.5778V87.8573C77.3797 87.451 76.2838 86.6187 75.6459 85.6129C75.0914 84.7384 73.9328 84.479 73.0583 85.0336C72.1838 85.5882 71.9245 86.7467 72.4791 87.6212C73.8208 89.737 76.1082 91.2235 78.75 91.706V93.75C78.75 94.7855 79.5895 95.625 80.625 95.625C81.6605 95.625 82.5 94.7855 82.5 93.75V91.7028C86.6305 90.9376 90 87.6948 90 83.4375C90 79.1802 86.6305 75.9374 82.5 75.1722V65.8924C83.987 66.3332 85.1479 67.2755 85.7554 68.3946C86.2495 69.3047 87.3878 69.6419 88.2979 69.1478C89.2079 68.6537 89.5452 67.5154 89.0511 66.6054C87.7646 64.2358 85.3338 62.5621 82.5 62.0442V60ZM82.5 79.0119V87.8631C84.7953 87.1911 86.25 85.3257 86.25 83.4375C86.25 81.5493 84.7953 79.6838 82.5 79.0119ZM75 70.3125C75 68.4243 76.4547 66.5589 78.75 65.8869V74.7381C76.4547 74.0661 75 72.2007 75 70.3125Z" fill="white"/>
<path fill-rule="evenodd" clip-rule="evenodd" d="M56.25 76.875C56.25 63.4131 67.1631 52.5 80.625 52.5C94.0869 52.5 105 63.4131 105 76.875C105 90.3369 94.0869 101.25 80.625 101.25C67.1631 101.25 56.25 90.3369 56.25 76.875ZM80.625 56.25C69.2341 56.25 60 65.4841 60 76.875C60 88.2659 69.2341 97.5 80.625 97.5C92.0159 97.5 101.25 88.2659 101.25 76.875C101.25 65.4841 92.0159 56.25 80.625 56.25Z" fill="white"/>
</svg>
