<svg width="120" height="120" viewBox="0 0 120 120" fill="none" xmlns="http://www.w3.org/2000/svg">
<path fill-rule="evenodd" clip-rule="evenodd" d="M46.875 41.25C43.7684 41.25 41.25 43.7684 41.25 46.875V58.125C41.25 61.2316 43.7684 63.75 46.875 63.75H69.375C72.4816 63.75 75 61.2316 75 58.125V46.875C75 43.7684 72.4816 41.25 69.375 41.25H46.875ZM45 46.875C45 45.8395 45.8395 45 46.875 45H69.375C70.4105 45 71.25 45.8395 71.25 46.875V58.125C71.25 59.1605 70.4105 60 69.375 60H46.875C45.8395 60 45 59.1605 45 58.125V46.875Z" fill="white"/>
<path fill-rule="evenodd" clip-rule="evenodd" d="M43.125 73.125C43.125 70.0184 45.6434 67.5 48.75 67.5C50.7065 67.5 52.4298 68.4989 53.4375 70.0146C54.4452 68.4989 56.1685 67.5 58.125 67.5C60.0815 67.5 61.8048 68.4989 62.8125 70.0146C63.8202 68.4989 65.5435 67.5 67.5 67.5C70.6066 67.5 73.125 70.0184 73.125 73.125C73.125 75.0815 72.1261 76.8048 70.6104 77.8125C72.1261 78.8202 73.125 80.5435 73.125 82.5C73.125 84.4565 72.1261 86.1798 70.6104 87.1875C72.1261 88.1952 73.125 89.9185 73.125 91.875C73.125 94.9816 70.6066 97.5 67.5 97.5C65.5435 97.5 63.8202 96.5011 62.8125 94.9854C61.8048 96.5011 60.0815 97.5 58.125 97.5C56.1685 97.5 54.4452 96.5011 53.4375 94.9854C52.4298 96.5011 50.7065 97.5 48.75 97.5C45.6434 97.5 43.125 94.9816 43.125 91.875C43.125 89.9185 44.1239 88.1952 45.6396 87.1875C44.1239 86.1798 43.125 84.4565 43.125 82.5C43.125 80.5435 44.1239 78.8202 45.6396 77.8125C44.1239 76.8048 43.125 75.0815 43.125 73.125ZM62.8125 85.6104C63.2279 86.2352 63.7648 86.7721 64.3896 87.1875C63.7648 87.6029 63.2279 88.1398 62.8125 88.7646C62.3971 88.1398 61.8602 87.6029 61.2354 87.1875C61.8602 86.7721 62.3971 86.2352 62.8125 85.6104ZM62.8125 79.3896C63.2279 78.7648 63.7648 78.2279 64.3896 77.8125C63.7648 77.3971 63.2279 76.8602 62.8125 76.2354C62.3971 76.8602 61.8602 77.3971 61.2354 77.8125C61.8602 78.2279 62.3971 78.7648 62.8125 79.3896ZM53.4375 88.7646C53.8529 88.1398 54.3898 87.6029 55.0146 87.1875C54.3898 86.7721 53.8529 86.2352 53.4375 85.6104C53.0221 86.2352 52.4852 86.7721 51.8604 87.1875C52.4852 87.6029 53.0221 88.1398 53.4375 88.7646ZM53.4375 76.2354C53.8529 76.8602 54.3898 77.3971 55.0146 77.8125C54.3898 78.2279 53.8529 78.7648 53.4375 79.3896C53.0221 78.7648 52.4852 78.2279 51.8604 77.8125C52.4852 77.3971 53.0221 76.8602 53.4375 76.2354ZM48.75 71.25C47.7145 71.25 46.875 72.0895 46.875 73.125C46.875 74.1605 47.7145 75 48.75 75C49.7855 75 50.625 74.1605 50.625 73.125C50.625 72.0895 49.7855 71.25 48.75 71.25ZM46.875 82.5C46.875 81.4645 47.7145 80.625 48.75 80.625C49.7855 80.625 50.625 81.4645 50.625 82.5C50.625 83.5355 49.7855 84.375 48.75 84.375C47.7145 84.375 46.875 83.5355 46.875 82.5ZM48.75 90C47.7145 90 46.875 90.8395 46.875 91.875C46.875 92.9105 47.7145 93.75 48.75 93.75C49.7855 93.75 50.625 92.9105 50.625 91.875C50.625 90.8395 49.7855 90 48.75 90ZM56.25 73.125C56.25 72.0895 57.0895 71.25 58.125 71.25C59.1605 71.25 60 72.0895 60 73.125C60 74.1605 59.1605 75 58.125 75C57.0895 75 56.25 74.1605 56.25 73.125ZM58.125 80.625C57.0895 80.625 56.25 81.4645 56.25 82.5C56.25 83.5355 57.0895 84.375 58.125 84.375C59.1605 84.375 60 83.5355 60 82.5C60 81.4645 59.1605 80.625 58.125 80.625ZM56.25 91.875C56.25 90.8395 57.0895 90 58.125 90C59.1605 90 60 90.8395 60 91.875C60 92.9105 59.1605 93.75 58.125 93.75C57.0895 93.75 56.25 92.9105 56.25 91.875ZM67.5 71.25C66.4645 71.25 65.625 72.0895 65.625 73.125C65.625 74.1605 66.4645 75 67.5 75C68.5355 75 69.375 74.1605 69.375 73.125C69.375 72.0895 68.5355 71.25 67.5 71.25ZM65.625 82.5C65.625 81.4645 66.4645 80.625 67.5 80.625C68.5355 80.625 69.375 81.4645 69.375 82.5C69.375 83.5355 68.5355 84.375 67.5 84.375C66.4645 84.375 65.625 83.5355 65.625 82.5ZM67.5 90C66.4645 90 65.625 90.8395 65.625 91.875C65.625 92.9105 66.4645 93.75 67.5 93.75C68.5355 93.75 69.375 92.9105 69.375 91.875C69.375 90.8395 68.5355 90 67.5 90Z" fill="white"/>
<path fill-rule="evenodd" clip-rule="evenodd" d="M50.625 13.125C47.5184 13.125 45 15.6434 45 18.75V24.4454C38.6768 25.1141 33.75 30.4638 33.75 36.9643V63.8351L36.5776 94.9383C37.1921 101.699 42.8604 106.875 49.6487 106.875H66.6013C73.3896 106.875 79.0579 101.699 79.6724 94.9383L82.5 63.8351V37.5C82.5 30.8879 77.6105 25.4177 71.25 24.5079V18.75C71.25 15.6434 68.7316 13.125 65.625 13.125H50.625ZM60 18.75V16.875H56.25V18.75C56.25 19.7855 55.4105 20.625 54.375 20.625C53.3395 20.625 52.5 19.7855 52.5 18.75V16.875H50.625C49.5895 16.875 48.75 17.7145 48.75 18.75V33.75H67.5V18.75C67.5 17.7145 66.6605 16.875 65.625 16.875H63.75V18.75C63.75 19.7855 62.9105 20.625 61.875 20.625C60.8395 20.625 60 19.7855 60 18.75ZM71.25 33.75V28.3125C75.5292 29.1812 78.75 32.9645 78.75 37.5V63.6649L75.9378 94.5988C75.4988 99.4276 71.4501 103.125 66.6013 103.125H49.6487C44.7999 103.125 40.7512 99.4276 40.3122 94.5988L37.5 63.6649V36.9643C37.5 32.5378 40.7537 28.8712 45 28.2258V33.75H43.125C42.0895 33.75 41.25 34.5895 41.25 35.625C41.25 36.6605 42.0895 37.5 43.125 37.5H73.125C74.1605 37.5 75 36.6605 75 35.625C75 34.5895 74.1605 33.75 73.125 33.75H71.25Z" fill="white"/>
<path d="M88.1251 45C88.1251 43.9645 87.2856 43.125 86.2501 43.125C85.2146 43.125 84.3751 43.9645 84.3751 45V63.6565L82.1344 86.0634C82.0314 87.0938 82.7831 88.0127 83.8135 88.1157C84.8439 88.2187 85.7627 87.467 85.8658 86.4366L88.1251 63.8435V45Z" fill="white"/>
</svg>
