<svg width="120" height="120" viewBox="0 0 120 120" fill="none" xmlns="http://www.w3.org/2000/svg">
<path d="M51.4338 34.7221C52.1396 34.9321 52.5415 35.6746 52.3314 36.3803C52.1163 37.1032 52.0003 37.8702 52.0003 38.6667C52.0003 39.4632 52.1163 40.2302 52.3314 40.953C52.5415 41.6588 52.1396 42.4012 51.4338 42.6113C50.728 42.8213 49.9856 42.4195 49.7756 41.7137C49.4877 40.7466 49.3337 39.7235 49.3337 38.6667C49.3337 37.6099 49.4877 36.5867 49.7756 35.6197C49.9856 34.9139 50.728 34.512 51.4338 34.7221Z" fill="white"/>
<path d="M68.5668 34.7221C69.2726 34.512 70.015 34.9139 70.2251 35.6197C70.5129 36.5867 70.667 37.6099 70.667 38.6667C70.667 39.7235 70.5129 40.7466 70.2251 41.7137C70.015 42.4195 69.2726 42.8213 68.5668 42.6113C67.861 42.4012 67.4592 41.6588 67.6692 40.953C67.8843 40.2302 68.0003 39.4632 68.0003 38.6667C68.0003 37.8702 67.8843 37.1032 67.6692 36.3803C67.4592 35.6746 67.861 34.9321 68.5668 34.7221Z" fill="white"/>
<path d="M61.3337 29.3333C61.3337 28.597 60.7367 28 60.0003 28C59.2639 28 58.667 28.597 58.667 29.3333V29.5428C56.3883 30.1781 54.667 32.192 54.667 34.6667C54.667 37.3674 56.7171 39.5194 59.3045 39.9294C59.4392 39.9752 59.5835 40 59.7337 40C61.4361 40 62.667 41.2737 62.667 42.6667C62.667 44.0597 61.4361 45.3333 59.7337 45.3333C58.5888 45.3333 57.6307 44.7415 57.1477 43.9255C56.7727 43.2918 55.9549 43.0822 55.3212 43.4573C54.6875 43.8323 54.4778 44.6501 54.8529 45.2838C55.6546 46.6382 57.0452 47.6049 58.667 47.9031V48C58.667 48.7364 59.2639 49.3333 60.0003 49.3333C60.7367 49.3333 61.3337 48.7364 61.3337 48V47.7771C63.6066 47.1296 65.3337 45.1373 65.3337 42.6667C65.3337 39.9446 63.2371 37.8031 60.6238 37.4013C60.4914 37.3572 60.3497 37.3333 60.2025 37.3333C58.5554 37.3333 57.3337 36.0782 57.3337 34.6667C57.3337 33.2551 58.5554 32 60.2025 32C61.3805 32 62.3617 32.6548 62.8073 33.5478C63.1361 34.2067 63.9368 34.4742 64.5957 34.1454C65.2546 33.8166 65.5222 33.0159 65.1933 32.357C64.4507 30.869 63.0256 29.7839 61.3337 29.445V29.3333Z" fill="white"/>
<path fill-rule="evenodd" clip-rule="evenodd" d="M37.3337 51.219V58.8347C35.4595 59.3171 33.9841 60.7925 33.5017 62.6667H30.667C28.4579 62.6667 26.667 64.4575 26.667 66.6667V75.4477L23.0575 79.0572C22.5368 79.5779 22.5368 80.4221 23.0575 80.9428C23.5782 81.4635 24.4224 81.4635 24.9431 80.9428L26.667 79.219V88.2276C25.1134 88.7767 24.0003 90.2584 24.0003 92C24.0003 94.2091 25.7912 96 28.0003 96C30.2095 96 32.0003 94.2091 32.0003 92C32.0003 90.2584 30.8872 88.7767 29.3337 88.2276V79.219L31.0575 80.9428C31.5782 81.4635 32.4224 81.4635 32.9431 80.9428C33.4638 80.4221 33.4638 79.5779 32.9431 79.0572L29.3337 75.4477V66.6667C29.3337 65.9303 29.9306 65.3333 30.667 65.3333H33.5017C34.0937 67.6336 36.1819 69.3333 38.667 69.3333C41.1521 69.3333 43.2402 67.6336 43.8323 65.3333H46.667C47.4034 65.3333 48.0003 65.9303 48.0003 66.6667V75.4477L44.3908 79.0572C43.8701 79.5779 43.8701 80.4221 44.3908 80.9428C44.9115 81.4635 45.7558 81.4635 46.2765 80.9428L48.0003 79.219V88.2276C46.4467 88.7767 45.3337 90.2584 45.3337 92C45.3337 94.2091 47.1245 96 49.3337 96C51.5428 96 53.3337 94.2091 53.3337 92C53.3337 90.2584 52.2206 88.7767 50.667 88.2276V79.219L52.3908 80.9428C52.9115 81.4635 53.7558 81.4635 54.2765 80.9428C54.7972 80.4221 54.7972 79.5779 54.2765 79.0572L50.667 75.4477V66.6667C50.667 66.1992 50.5868 65.7504 50.4394 65.3333H69.5613C69.4139 65.7504 69.3337 66.1992 69.3337 66.6667V75.4477L65.7242 79.0572C65.2035 79.5779 65.2035 80.4221 65.7242 80.9428C66.2449 81.4635 67.0891 81.4635 67.6098 80.9428L69.3337 79.219V88.2276C67.7801 88.7767 66.667 90.2584 66.667 92C66.667 94.2091 68.4579 96 70.667 96C72.8761 96 74.667 94.2091 74.667 92C74.667 90.2584 73.5539 88.7767 72.0003 88.2276V79.219L73.7242 80.9428C74.2449 81.4635 75.0891 81.4635 75.6098 80.9428C76.1305 80.4221 76.1305 79.5779 75.6098 79.0572L72.0003 75.4477V66.6667C72.0003 65.9303 72.5973 65.3333 73.3337 65.3333H76.1683C76.7604 67.6336 78.8485 69.3333 81.3337 69.3333C83.8188 69.3333 85.9069 67.6336 86.499 65.3333H89.3337C90.07 65.3333 90.667 65.9303 90.667 66.6667V75.4477L87.0575 79.0572C86.5368 79.5779 86.5368 80.4221 87.0575 80.9428C87.5782 81.4635 88.4224 81.4635 88.9431 80.9428L90.667 79.219V88.2276C89.1134 88.7767 88.0003 90.2584 88.0003 92C88.0003 94.2091 89.7912 96 92.0003 96C94.2095 96 96.0003 94.2091 96.0003 92C96.0003 90.2584 94.8872 88.7767 93.3337 88.2276V79.219L95.0575 80.9428C95.5782 81.4635 96.4224 81.4635 96.9431 80.9428C97.4638 80.4221 97.4638 79.5779 96.9431 79.0572L93.3337 75.4477V66.6667C93.3337 64.4575 91.5428 62.6667 89.3337 62.6667H86.499C86.0166 60.7925 84.5411 59.3171 82.667 58.8347V51.219L84.3908 52.9428C84.9115 53.4635 85.7558 53.4635 86.2765 52.9428C86.7972 52.4221 86.7972 51.5779 86.2765 51.0572L82.667 47.4477V41.3333C82.667 39.1242 80.8761 37.3333 78.667 37.3333H74.6072C73.9336 29.858 67.6511 24 60.0003 24C52.3496 24 46.0671 29.858 45.3934 37.3333H41.3337C39.1245 37.3333 37.3337 39.1242 37.3337 41.3333V47.4477L33.7242 51.0572C33.2035 51.5779 33.2035 52.4221 33.7242 52.9428C34.2449 53.4635 35.0891 53.4635 35.6098 52.9428L37.3337 51.219ZM60.0003 26.6667C53.3729 26.6667 48.0003 32.0392 48.0003 38.6667C48.0003 45.2941 53.3729 50.6667 60.0003 50.6667C66.6277 50.6667 72.0003 45.2941 72.0003 38.6667C72.0003 32.0392 66.6277 26.6667 60.0003 26.6667ZM60.0003 53.3333C52.3496 53.3333 46.0671 47.4753 45.3934 40H41.3337C40.5973 40 40.0003 40.597 40.0003 41.3333V47.4477L43.6098 51.0572C44.1305 51.5779 44.1305 52.4221 43.6098 52.9428C43.0891 53.4635 42.2449 53.4635 41.7242 52.9428L40.0003 51.219V58.8347C41.8745 59.3171 43.3499 60.7925 43.8323 62.6667H76.1683C76.6507 60.7925 78.1262 59.3171 80.0003 58.8347V51.219L78.2765 52.9428C77.7558 53.4635 76.9115 53.4635 76.3908 52.9428C75.8702 52.4221 75.8702 51.5779 76.3908 51.0572L80.0003 47.4477V41.3333C80.0003 40.597 79.4034 40 78.667 40H74.6072C73.9336 47.4753 67.6511 53.3333 60.0003 53.3333ZM26.667 92C26.667 91.2636 27.2639 90.6667 28.0003 90.6667C28.7367 90.6667 29.3337 91.2636 29.3337 92C29.3337 92.7364 28.7367 93.3333 28.0003 93.3333C27.2639 93.3333 26.667 92.7364 26.667 92ZM69.3337 92C69.3337 91.2636 69.9306 90.6667 70.667 90.6667C71.4034 90.6667 72.0003 91.2636 72.0003 92C72.0003 92.7364 71.4034 93.3333 70.667 93.3333C69.9306 93.3333 69.3337 92.7364 69.3337 92ZM49.3337 90.6667C48.5973 90.6667 48.0003 91.2636 48.0003 92C48.0003 92.7364 48.5973 93.3333 49.3337 93.3333C50.07 93.3333 50.667 92.7364 50.667 92C50.667 91.2636 50.07 90.6667 49.3337 90.6667ZM92.0003 90.6667C91.2639 90.6667 90.667 91.2636 90.667 92C90.667 92.7364 91.2639 93.3333 92.0003 93.3333C92.7367 93.3333 93.3337 92.7364 93.3337 92C93.3337 91.2636 92.7367 90.6667 92.0003 90.6667ZM81.3337 61.3333C82.8064 61.3333 84.0003 62.5272 84.0003 64C84.0003 65.4728 82.8064 66.6667 81.3337 66.6667C79.8609 66.6667 78.667 65.4728 78.667 64C78.667 62.5272 79.8609 61.3333 81.3337 61.3333ZM36.0003 64C36.0003 65.4728 37.1942 66.6667 38.667 66.6667C40.1397 66.6667 41.3337 65.4728 41.3337 64C41.3337 62.5272 40.1397 61.3333 38.667 61.3333C37.1942 61.3333 36.0003 62.5272 36.0003 64Z" fill="white"/>
</svg>
