<svg width="1397" height="800" viewBox="0 0 1397 800" fill="none" xmlns="http://www.w3.org/2000/svg">
<g opacity="0.7" clip-path="url(#clip0_249_11280)">
<path opacity="0.49" d="M0 360C237 86.6664 474 99.9998 711 400C948 700 1185 686.666 1422 360" stroke="url(#paint0_linear_249_11280)" stroke-linecap="round"/>
<path opacity="0.75" d="M0 351C237 83.6664 474 99.9998 711 400C948 700 1185 683.666 1422 351" stroke="url(#paint1_linear_249_11280)" stroke-linecap="round"/>
<path opacity="0.1" d="M0 342C237 80.6664 474 99.9998 711 400C948 700 1185 680.666 1422 342" stroke="url(#paint2_linear_249_11280)" stroke-linecap="round"/>
<path opacity="0.61" d="M0 333C237 77.6665 474 99.9998 711 400C948 700 1185 677.666 1422 333" stroke="url(#paint3_linear_249_11280)" stroke-linecap="round"/>
<path opacity="0.22" d="M0 324C237 74.6667 474 100 711 400C948 700 1185 674.667 1422 324" stroke="url(#paint4_linear_249_11280)" stroke-linecap="round"/>
<path opacity="0.93" d="M0 315C237 71.6666 474 100 711 400C948 700 1185 671.667 1422 315" stroke="url(#paint5_linear_249_11280)" stroke-linecap="round"/>
<path opacity="0.48" d="M0 306C237 68.6666 474 100 711 400C948 700 1185 668.667 1422 306" stroke="url(#paint6_linear_249_11280)" stroke-linecap="round"/>
<path opacity="0.5" d="M0 297C237 65.6666 474 99.9999 711 400C948 700 1185 665.667 1422 297" stroke="url(#paint7_linear_249_11280)" stroke-linecap="round"/>
<path opacity="0.4" d="M0 288C237 62.6666 474 100 711 400C948 700 1185 662.667 1422 288" stroke="url(#paint8_linear_249_11280)" stroke-linecap="round"/>
<path opacity="0.53" d="M0 279C237 59.6666 474 99.9999 711 400C948 700 1185 659.667 1422 279" stroke="url(#paint9_linear_249_11280)" stroke-linecap="round"/>
<path opacity="0.62" d="M0 270C237 56.6666 474 99.9999 711 400C948 700 1185 656.667 1422 270" stroke="url(#paint10_linear_249_11280)" stroke-linecap="round"/>
<path opacity="0.52" d="M0 261C237 53.6665 474 99.9998 711 400C948 700 1185 653.666 1422 261" stroke="url(#paint11_linear_249_11280)" stroke-linecap="round"/>
<path opacity="0.31" d="M0 252C237 50.6666 474 99.9999 711 400C948 700 1185 650.667 1422 252" stroke="url(#paint12_linear_249_11280)" stroke-linecap="round"/>
<path opacity="0.29" d="M0 243C237 47.6665 474 99.9998 711 400C948 700 1185 647.666 1422 243" stroke="url(#paint13_linear_249_11280)" stroke-linecap="round"/>
<path opacity="0.9" d="M0 234C237 44.6665 474 99.9998 711 400C948 700 1185 644.666 1422 234" stroke="url(#paint14_linear_249_11280)" stroke-linecap="round"/>
<path opacity="0.98" d="M0 225C237 41.6665 474 99.9998 711 400C948 700 1185 641.666 1422 225" stroke="url(#paint15_linear_249_11280)" stroke-linecap="round"/>
<path opacity="0.95" d="M0 216C237 38.6666 474 99.9999 711 400C948 700 1185 638.667 1422 216" stroke="url(#paint16_linear_249_11280)" stroke-linecap="round"/>
<path opacity="0.28" d="M0 207C237 35.6665 474 99.9999 711 400C948 700 1185 635.667 1422 207" stroke="url(#paint17_linear_249_11280)" stroke-linecap="round"/>
<path opacity="0.73" d="M0 198C237 32.6665 474 99.9999 711 400C948 700 1185 632.667 1422 198" stroke="url(#paint18_linear_249_11280)" stroke-linecap="round"/>
<path opacity="0.47" d="M0 189C237 29.6666 474 99.9999 711 400C948 700 1185 629.667 1422 189" stroke="url(#paint19_linear_249_11280)" stroke-linecap="round"/>
<path opacity="0.46" d="M0 180C237 26.6666 474 99.9999 711 400C948 700 1185 626.667 1422 180" stroke="url(#paint20_linear_249_11280)" stroke-linecap="round"/>
<path opacity="0.62" d="M0 171C237 23.6665 474 99.9998 711 400C948 700 1185 623.666 1422 171" stroke="url(#paint21_linear_249_11280)" stroke-linecap="round"/>
<path d="M0 162C237 20.6665 474 99.9999 711 400C948 700 1185 620.667 1422 162" stroke="url(#paint22_linear_249_11280)" stroke-linecap="round"/>
<path opacity="0.58" d="M0 153C237 17.6664 474 99.9998 711 400C948 700 1185 617.666 1422 153" stroke="url(#paint23_linear_249_11280)" stroke-linecap="round"/>
<path opacity="0.25" d="M0 144C237 14.6665 474 99.9998 711 400C948 700 1185 614.666 1422 144" stroke="url(#paint24_linear_249_11280)" stroke-linecap="round"/>
<path opacity="0.39" d="M0 135C237 11.6666 474 99.9999 711 400C948 700 1185 611.667 1422 135" stroke="url(#paint25_linear_249_11280)" stroke-linecap="round"/>
<path opacity="0.56" d="M0 126C237 8.66667 474 100 711 400C948 700 1185 608.667 1422 126" stroke="url(#paint26_linear_249_11280)" stroke-linecap="round"/>
<path opacity="0.7" d="M0 117C237 5.66647 474 99.9998 711 400C948 700 1185 605.666 1422 117" stroke="url(#paint27_linear_249_11280)" stroke-linecap="round"/>
<path opacity="0.97" d="M0 108C237 2.66655 474 99.9999 711 400C948 700 1185 602.667 1422 108" stroke="url(#paint28_linear_249_11280)" stroke-linecap="round"/>
<path opacity="0.52" d="M0 99C237 -0.333374 474 100 711 400C948 700 1185 599.667 1422 99" stroke="url(#paint29_linear_249_11280)" stroke-linecap="round"/>
<path opacity="0.16" d="M0 89.9999C237 -3.33345 474 99.9999 711 400C948 700 1185 596.667 1422 89.9999" stroke="url(#paint30_linear_249_11280)" stroke-linecap="round"/>
<path opacity="0.22" d="M0 80.9999C237 -6.33344 474 99.9999 711 400C948 700 1185 593.667 1422 80.9999" stroke="url(#paint31_linear_249_11280)" stroke-linecap="round"/>
<path opacity="0.19" d="M0 72C237 -9.33335 474 100 711 400C948 700 1185 590.667 1422 72" stroke="url(#paint32_linear_249_11280)" stroke-linecap="round"/>
<path opacity="0.47" d="M0 62.9999C237 -12.3335 474 99.9999 711 400C948 700 1185 587.667 1422 62.9999" stroke="url(#paint33_linear_249_11280)" stroke-linecap="round"/>
<path opacity="0.5" d="M0 53.9998C237 -15.3336 474 99.9998 711 400C948 700 1185 584.666 1422 53.9998" stroke="url(#paint34_linear_249_11280)" stroke-linecap="round"/>
<path opacity="0.39" d="M0 44.9998C237 -18.3335 474 99.9998 711 400C948 700 1185 581.667 1422 44.9998" stroke="url(#paint35_linear_249_11280)" stroke-linecap="round"/>
<path opacity="0.92" d="M0 35.9999C237 -21.3334 474 99.9999 711 400C948 700 1185 578.667 1422 35.9999" stroke="url(#paint36_linear_249_11280)" stroke-linecap="round"/>
<path opacity="0.37" d="M0 27C237 -24.3333 474 100 711 400C948 700 1185 575.667 1422 27" stroke="url(#paint37_linear_249_11280)" stroke-linecap="round"/>
<path opacity="0.97" d="M0 17.9999C237 -27.3334 474 99.9999 711 400C948 700 1185 572.667 1422 17.9999" stroke="url(#paint38_linear_249_11280)" stroke-linecap="round"/>
</g>
<defs>
<linearGradient id="paint0_linear_249_11280" x1="71100" y1="164.535" x2="71100" y2="45253.6" gradientUnits="userSpaceOnUse">
<stop stop-color="#1F89DB"/>
<stop offset="1" stop-color="#F42A8B"/>
</linearGradient>
<linearGradient id="paint1_linear_249_11280" x1="71100" y1="162.044" x2="71100" y2="45295.8" gradientUnits="userSpaceOnUse">
<stop stop-color="#1F89DB"/>
<stop offset="1" stop-color="#F42A8B"/>
</linearGradient>
<linearGradient id="paint2_linear_249_11280" x1="71100" y1="159.501" x2="71100" y2="45347.2" gradientUnits="userSpaceOnUse">
<stop stop-color="#1F89DB"/>
<stop offset="1" stop-color="#F42A8B"/>
</linearGradient>
<linearGradient id="paint3_linear_249_11280" x1="71100" y1="156.903" x2="71100" y2="45407.7" gradientUnits="userSpaceOnUse">
<stop stop-color="#1F89DB"/>
<stop offset="1" stop-color="#F42A8B"/>
</linearGradient>
<linearGradient id="paint4_linear_249_11280" x1="71100" y1="154.248" x2="71100" y2="45477.4" gradientUnits="userSpaceOnUse">
<stop stop-color="#1F89DB"/>
<stop offset="1" stop-color="#F42A8B"/>
</linearGradient>
<linearGradient id="paint5_linear_249_11280" x1="71100" y1="151.534" x2="71100" y2="45556.5" gradientUnits="userSpaceOnUse">
<stop stop-color="#1F89DB"/>
<stop offset="1" stop-color="#F42A8B"/>
</linearGradient>
<linearGradient id="paint6_linear_249_11280" x1="71100" y1="148.759" x2="71100" y2="45645.1" gradientUnits="userSpaceOnUse">
<stop stop-color="#1F89DB"/>
<stop offset="1" stop-color="#F42A8B"/>
</linearGradient>
<linearGradient id="paint7_linear_249_11280" x1="71100" y1="145.922" x2="71100" y2="45743.1" gradientUnits="userSpaceOnUse">
<stop stop-color="#1F89DB"/>
<stop offset="1" stop-color="#F42A8B"/>
</linearGradient>
<linearGradient id="paint8_linear_249_11280" x1="71100" y1="143.02" x2="71100" y2="45850.9" gradientUnits="userSpaceOnUse">
<stop stop-color="#1F89DB"/>
<stop offset="1" stop-color="#F42A8B"/>
</linearGradient>
<linearGradient id="paint9_linear_249_11280" x1="71100" y1="140.051" x2="71100" y2="45968.4" gradientUnits="userSpaceOnUse">
<stop stop-color="#1F89DB"/>
<stop offset="1" stop-color="#F42A8B"/>
</linearGradient>
<linearGradient id="paint10_linear_249_11280" x1="71100" y1="137.013" x2="71100" y2="46095.9" gradientUnits="userSpaceOnUse">
<stop stop-color="#1F89DB"/>
<stop offset="1" stop-color="#F42A8B"/>
</linearGradient>
<linearGradient id="paint11_linear_249_11280" x1="71100" y1="133.903" x2="71100" y2="46233.5" gradientUnits="userSpaceOnUse">
<stop stop-color="#1F89DB"/>
<stop offset="1" stop-color="#F42A8B"/>
</linearGradient>
<linearGradient id="paint12_linear_249_11280" x1="71100" y1="130.718" x2="71100" y2="46381.4" gradientUnits="userSpaceOnUse">
<stop stop-color="#1F89DB"/>
<stop offset="1" stop-color="#F42A8B"/>
</linearGradient>
<linearGradient id="paint13_linear_249_11280" x1="71100" y1="127.456" x2="71100" y2="46539.8" gradientUnits="userSpaceOnUse">
<stop stop-color="#1F89DB"/>
<stop offset="1" stop-color="#F42A8B"/>
</linearGradient>
<linearGradient id="paint14_linear_249_11280" x1="71100" y1="124.114" x2="71100" y2="46708.9" gradientUnits="userSpaceOnUse">
<stop stop-color="#1F89DB"/>
<stop offset="1" stop-color="#F42A8B"/>
</linearGradient>
<linearGradient id="paint15_linear_249_11280" x1="71100" y1="120.689" x2="71100" y2="46888.9" gradientUnits="userSpaceOnUse">
<stop stop-color="#1F89DB"/>
<stop offset="1" stop-color="#F42A8B"/>
</linearGradient>
<linearGradient id="paint16_linear_249_11280" x1="71100" y1="117.179" x2="71100" y2="47080.1" gradientUnits="userSpaceOnUse">
<stop stop-color="#1F89DB"/>
<stop offset="1" stop-color="#F42A8B"/>
</linearGradient>
<linearGradient id="paint17_linear_249_11280" x1="71100" y1="113.578" x2="71100" y2="47282.7" gradientUnits="userSpaceOnUse">
<stop stop-color="#1F89DB"/>
<stop offset="1" stop-color="#F42A8B"/>
</linearGradient>
<linearGradient id="paint18_linear_249_11280" x1="71100" y1="109.885" x2="71100" y2="47497" gradientUnits="userSpaceOnUse">
<stop stop-color="#1F89DB"/>
<stop offset="1" stop-color="#F42A8B"/>
</linearGradient>
<linearGradient id="paint19_linear_249_11280" x1="71100" y1="106.096" x2="71100" y2="47723.3" gradientUnits="userSpaceOnUse">
<stop stop-color="#1F89DB"/>
<stop offset="1" stop-color="#F42A8B"/>
</linearGradient>
<linearGradient id="paint20_linear_249_11280" x1="71100" y1="102.206" x2="71100" y2="47962" gradientUnits="userSpaceOnUse">
<stop stop-color="#1F89DB"/>
<stop offset="1" stop-color="#F42A8B"/>
</linearGradient>
<linearGradient id="paint21_linear_249_11280" x1="71100" y1="98.2114" x2="71100" y2="48213.3" gradientUnits="userSpaceOnUse">
<stop stop-color="#1F89DB"/>
<stop offset="1" stop-color="#F42A8B"/>
</linearGradient>
<linearGradient id="paint22_linear_249_11280" x1="71100" y1="94.1086" x2="71100" y2="48477.6" gradientUnits="userSpaceOnUse">
<stop stop-color="#1F89DB"/>
<stop offset="1" stop-color="#F42A8B"/>
</linearGradient>
<linearGradient id="paint23_linear_249_11280" x1="71100" y1="89.8926" x2="71100" y2="48755.4" gradientUnits="userSpaceOnUse">
<stop stop-color="#1F89DB"/>
<stop offset="1" stop-color="#F42A8B"/>
</linearGradient>
<linearGradient id="paint24_linear_249_11280" x1="71100" y1="85.5588" x2="71100" y2="49047" gradientUnits="userSpaceOnUse">
<stop stop-color="#1F89DB"/>
<stop offset="1" stop-color="#F42A8B"/>
</linearGradient>
<linearGradient id="paint25_linear_249_11280" x1="71100" y1="81.1023" x2="71100" y2="49352.8" gradientUnits="userSpaceOnUse">
<stop stop-color="#1F89DB"/>
<stop offset="1" stop-color="#F42A8B"/>
</linearGradient>
<linearGradient id="paint26_linear_249_11280" x1="71100" y1="76.5176" x2="71100" y2="49673.5" gradientUnits="userSpaceOnUse">
<stop stop-color="#1F89DB"/>
<stop offset="1" stop-color="#F42A8B"/>
</linearGradient>
<linearGradient id="paint27_linear_249_11280" x1="71100" y1="71.7988" x2="71100" y2="50009.4" gradientUnits="userSpaceOnUse">
<stop stop-color="#1F89DB"/>
<stop offset="1" stop-color="#F42A8B"/>
</linearGradient>
<linearGradient id="paint28_linear_249_11280" x1="71100" y1="66.9407" x2="71100" y2="50361.1" gradientUnits="userSpaceOnUse">
<stop stop-color="#1F89DB"/>
<stop offset="1" stop-color="#F42A8B"/>
</linearGradient>
<linearGradient id="paint29_linear_249_11280" x1="71100" y1="61.9365" x2="71100" y2="50729.2" gradientUnits="userSpaceOnUse">
<stop stop-color="#1F89DB"/>
<stop offset="1" stop-color="#F42A8B"/>
</linearGradient>
<linearGradient id="paint30_linear_249_11280" x1="71100" y1="56.7795" x2="71100" y2="51114.4" gradientUnits="userSpaceOnUse">
<stop stop-color="#1F89DB"/>
<stop offset="1" stop-color="#F42A8B"/>
</linearGradient>
<linearGradient id="paint31_linear_249_11280" x1="71100" y1="51.4629" x2="71100" y2="51517.1" gradientUnits="userSpaceOnUse">
<stop stop-color="#1F89DB"/>
<stop offset="1" stop-color="#F42A8B"/>
</linearGradient>
<linearGradient id="paint32_linear_249_11280" x1="71100" y1="45.979" x2="71100" y2="51938.3" gradientUnits="userSpaceOnUse">
<stop stop-color="#1F89DB"/>
<stop offset="1" stop-color="#F42A8B"/>
</linearGradient>
<linearGradient id="paint33_linear_249_11280" x1="71100" y1="40.3196" x2="71100" y2="52378.6" gradientUnits="userSpaceOnUse">
<stop stop-color="#1F89DB"/>
<stop offset="1" stop-color="#F42A8B"/>
</linearGradient>
<linearGradient id="paint34_linear_249_11280" x1="71100" y1="34.4763" x2="71100" y2="52838.8" gradientUnits="userSpaceOnUse">
<stop stop-color="#1F89DB"/>
<stop offset="1" stop-color="#F42A8B"/>
</linearGradient>
<linearGradient id="paint35_linear_249_11280" x1="71100" y1="28.4402" x2="71100" y2="53319.9" gradientUnits="userSpaceOnUse">
<stop stop-color="#1F89DB"/>
<stop offset="1" stop-color="#F42A8B"/>
</linearGradient>
<linearGradient id="paint36_linear_249_11280" x1="71100" y1="22.2014" x2="71100" y2="53822.6" gradientUnits="userSpaceOnUse">
<stop stop-color="#1F89DB"/>
<stop offset="1" stop-color="#F42A8B"/>
</linearGradient>
<linearGradient id="paint37_linear_249_11280" x1="71100" y1="15.7495" x2="71100" y2="54348.1" gradientUnits="userSpaceOnUse">
<stop stop-color="#1F89DB"/>
<stop offset="1" stop-color="#F42A8B"/>
</linearGradient>
<linearGradient id="paint38_linear_249_11280" x1="71100" y1="9.07324" x2="71100" y2="54897.4" gradientUnits="userSpaceOnUse">
<stop stop-color="#1F89DB"/>
<stop offset="1" stop-color="#F42A8B"/>
</linearGradient>
<clipPath id="clip0_249_11280">
<rect width="1422" height="800" fill="white"/>
</clipPath>
</defs>
</svg>
