<svg width="1059" height="1212" viewBox="0 0 1059 1212" fill="none" xmlns="http://www.w3.org/2000/svg">
<g opacity="0.4" clip-path="url(#clip0_249_11321)">
<path opacity="0.49" d="M-147.248 841.899C-101.973 522.417 72.1051 443.688 374.985 605.713C677.866 767.738 839.962 666.614 861.274 302.341" stroke="url(#paint0_linear_249_11321)" stroke-linecap="round"/>
<path opacity="0.75" d="M-151.292 834.34C-103.32 519.898 72.1053 443.689 374.986 605.714C677.866 767.738 838.614 664.095 857.231 294.783" stroke="url(#paint1_linear_249_11321)" stroke-linecap="round"/>
<path opacity="0.1" d="M-155.335 826.782C-104.668 517.378 72.1055 443.689 374.986 605.714C677.866 767.739 837.267 661.575 853.187 287.224" stroke="url(#paint2_linear_249_11321)" stroke-linecap="round"/>
<path opacity="0.61" d="M-159.379 819.223C-106.016 514.859 72.1056 443.689 374.986 605.714C677.866 767.738 835.919 659.056 849.143 279.666" stroke="url(#paint3_linear_249_11321)" stroke-linecap="round"/>
<path opacity="0.22" d="M-163.423 811.665C-107.364 512.339 72.1052 443.689 374.986 605.714C677.866 767.739 834.571 656.536 845.099 272.107" stroke="url(#paint4_linear_249_11321)" stroke-linecap="round"/>
<path opacity="0.93" d="M-167.467 804.106C-108.712 509.82 72.1053 443.689 374.986 605.714C677.866 767.738 833.223 654.017 841.055 264.549" stroke="url(#paint5_linear_249_11321)" stroke-linecap="round"/>
<path opacity="0.48" d="M-171.511 796.548C-110.06 507.3 72.1053 443.689 374.986 605.713C677.866 767.738 831.875 651.497 837.012 256.99" stroke="url(#paint6_linear_249_11321)" stroke-linecap="round"/>
<path opacity="0.5" d="M-175.555 788.989C-111.408 504.78 72.1052 443.688 374.986 605.713C677.866 767.738 830.527 648.977 832.968 249.431" stroke="url(#paint7_linear_249_11321)" stroke-linecap="round"/>
<path opacity="0.4" d="M-179.598 781.431C-112.756 502.261 72.1053 443.689 374.986 605.714C677.866 767.738 829.179 646.458 828.924 241.873" stroke="url(#paint8_linear_249_11321)" stroke-linecap="round"/>
<path opacity="0.53" d="M-183.642 773.872C-114.104 499.742 72.1053 443.689 374.986 605.714C677.866 767.738 827.831 643.939 824.88 234.315" stroke="url(#paint9_linear_249_11321)" stroke-linecap="round"/>
<path opacity="0.62" d="M-187.686 766.314C-115.452 497.222 72.1052 443.689 374.986 605.714C677.866 767.738 826.483 641.419 820.836 226.756" stroke="url(#paint10_linear_249_11321)" stroke-linecap="round"/>
<path opacity="0.52" d="M-191.73 758.755C-116.8 494.703 72.1052 443.689 374.986 605.714C677.866 767.738 825.135 638.9 816.792 219.198" stroke="url(#paint11_linear_249_11321)" stroke-linecap="round"/>
<path opacity="0.31" d="M-195.774 751.196C-118.148 492.183 72.105 443.689 374.985 605.713C677.866 767.738 823.787 636.38 812.748 211.639" stroke="url(#paint12_linear_249_11321)" stroke-linecap="round"/>
<path opacity="0.29" d="M-199.817 743.638C-119.496 489.664 72.1052 443.689 374.986 605.714C677.866 767.738 822.439 633.861 808.705 204.08" stroke="url(#paint13_linear_249_11321)" stroke-linecap="round"/>
<path opacity="0.9" d="M-203.861 736.08C-120.844 487.144 72.1053 443.689 374.986 605.714C677.866 767.739 821.091 631.341 804.661 196.522" stroke="url(#paint14_linear_249_11321)" stroke-linecap="round"/>
<path opacity="0.98" d="M-207.905 728.521C-122.192 484.625 72.105 443.689 374.985 605.714C677.866 767.738 819.743 628.822 800.617 188.963" stroke="url(#paint15_linear_249_11321)" stroke-linecap="round"/>
<path opacity="0.95" d="M-211.949 720.963C-123.54 482.105 72.1049 443.689 374.985 605.714C677.866 767.739 818.395 626.302 796.573 181.405" stroke="url(#paint16_linear_249_11321)" stroke-linecap="round"/>
<path opacity="0.28" d="M-215.992 713.404C-124.887 479.586 72.1053 443.689 374.986 605.714C677.866 767.738 817.047 623.783 792.53 173.846" stroke="url(#paint17_linear_249_11321)" stroke-linecap="round"/>
<path opacity="0.73" d="M-220.037 705.845C-126.236 477.066 72.105 443.689 374.985 605.714C677.866 767.739 815.699 621.263 788.486 166.288" stroke="url(#paint18_linear_249_11321)" stroke-linecap="round"/>
<path opacity="0.47" d="M-224.08 698.287C-127.584 474.546 72.1051 443.689 374.986 605.713C677.866 767.738 814.351 618.743 784.442 158.729" stroke="url(#paint19_linear_249_11321)" stroke-linecap="round"/>
<path opacity="0.46" d="M-228.124 690.728C-128.931 472.027 72.1053 443.689 374.986 605.714C677.866 767.739 813.004 616.224 780.398 151.171" stroke="url(#paint20_linear_249_11321)" stroke-linecap="round"/>
<path opacity="0.62" d="M-232.168 683.17C-130.279 469.507 72.105 443.689 374.985 605.714C677.866 767.738 811.655 613.705 776.354 143.612" stroke="url(#paint21_linear_249_11321)" stroke-linecap="round"/>
<path d="M-236.212 675.611C-131.627 466.988 72.1052 443.689 374.986 605.714C677.866 767.739 810.308 611.185 772.311 136.054" stroke="url(#paint22_linear_249_11321)" stroke-linecap="round"/>
<path opacity="0.58" d="M-240.256 668.053C-132.975 464.469 72.105 443.689 374.985 605.714C677.866 767.738 808.96 608.666 768.267 128.495" stroke="url(#paint23_linear_249_11321)" stroke-linecap="round"/>
<path opacity="0.25" d="M-244.299 660.494C-134.323 461.949 72.1049 443.689 374.985 605.714C677.866 767.739 807.612 606.146 764.223 120.937" stroke="url(#paint24_linear_249_11321)" stroke-linecap="round"/>
<path opacity="0.39" d="M-248.343 652.936C-135.671 459.429 72.1049 443.689 374.985 605.714C677.866 767.738 806.264 603.627 760.179 113.378" stroke="url(#paint25_linear_249_11321)" stroke-linecap="round"/>
<path opacity="0.56" d="M-252.387 645.377C-137.019 456.91 72.1049 443.689 374.985 605.714C677.866 767.738 804.916 601.107 756.135 105.819" stroke="url(#paint26_linear_249_11321)" stroke-linecap="round"/>
<path opacity="0.7" d="M-256.43 637.819C-138.367 454.391 72.1053 443.689 374.986 605.714C677.866 767.738 803.568 598.588 752.092 98.261" stroke="url(#paint27_linear_249_11321)" stroke-linecap="round"/>
<path opacity="0.97" d="M-260.474 630.26C-139.715 451.871 72.1051 443.689 374.986 605.713C677.866 767.738 802.22 596.068 748.048 90.7023" stroke="url(#paint28_linear_249_11321)" stroke-linecap="round"/>
<path opacity="0.52" d="M-264.518 622.701C-141.062 449.351 72.1055 443.689 374.986 605.714C677.866 767.738 800.872 593.548 744.004 83.1439" stroke="url(#paint29_linear_249_11321)" stroke-linecap="round"/>
<path opacity="0.16" d="M-268.562 615.143C-142.411 446.832 72.1052 443.689 374.986 605.713C677.866 767.738 799.524 591.029 739.96 75.5852" stroke="url(#paint30_linear_249_11321)" stroke-linecap="round"/>
<path opacity="0.22" d="M-272.606 607.584C-143.759 444.312 72.1049 443.689 374.985 605.714C677.866 767.738 798.176 588.509 735.916 68.0267" stroke="url(#paint31_linear_249_11321)" stroke-linecap="round"/>
<path opacity="0.19" d="M-276.65 600.026C-145.107 441.793 72.105 443.689 374.985 605.713C677.866 767.738 796.828 585.99 731.872 60.4681" stroke="url(#paint32_linear_249_11321)" stroke-linecap="round"/>
<path opacity="0.47" d="M-280.693 592.467C-146.454 439.273 72.1053 443.689 374.986 605.714C677.866 767.739 795.481 583.471 727.829 52.9098" stroke="url(#paint33_linear_249_11321)" stroke-linecap="round"/>
<path opacity="0.5" d="M-284.737 584.909C-147.802 436.754 72.1052 443.689 374.986 605.714C677.866 767.739 794.133 580.951 723.785 45.3514" stroke="url(#paint34_linear_249_11321)" stroke-linecap="round"/>
<path opacity="0.39" d="M-288.781 577.35C-149.151 434.234 72.1049 443.689 374.985 605.714C677.866 767.738 792.784 578.431 719.741 37.7927" stroke="url(#paint35_linear_249_11321)" stroke-linecap="round"/>
<path opacity="0.92" d="M-292.825 569.792C-150.499 431.715 72.1049 443.689 374.985 605.713C677.866 767.738 791.436 575.912 715.697 30.234" stroke="url(#paint36_linear_249_11321)" stroke-linecap="round"/>
<path opacity="0.37" d="M-296.869 562.233C-151.846 429.195 72.1049 443.689 374.985 605.714C677.866 767.738 790.088 573.392 711.653 22.6756" stroke="url(#paint37_linear_249_11321)" stroke-linecap="round"/>
<path opacity="0.97" d="M-300.912 554.675C-153.194 426.676 72.1051 443.689 374.986 605.714C677.866 767.739 788.741 570.873 707.61 15.1173" stroke="url(#paint38_linear_249_11321)" stroke-linecap="round"/>
</g>
<defs>
<linearGradient id="paint0_linear_249_11321" x1="50191" y1="-26300.1" x2="70450.1" y2="11567.3" gradientUnits="userSpaceOnUse">
<stop stop-color="#1F89DB"/>
<stop offset="1" stop-color="#F42A8B"/>
</linearGradient>
<linearGradient id="paint1_linear_249_11321" x1="50189.9" y1="-26302.2" x2="70469" y2="11602.8" gradientUnits="userSpaceOnUse">
<stop stop-color="#1F89DB"/>
<stop offset="1" stop-color="#F42A8B"/>
</linearGradient>
<linearGradient id="paint2_linear_249_11321" x1="50188.8" y1="-26304.4" x2="70492.1" y2="11645.9" gradientUnits="userSpaceOnUse">
<stop stop-color="#1F89DB"/>
<stop offset="1" stop-color="#F42A8B"/>
</linearGradient>
<linearGradient id="paint3_linear_249_11321" x1="50187.6" y1="-26306.6" x2="70519.3" y2="11696.7" gradientUnits="userSpaceOnUse">
<stop stop-color="#1F89DB"/>
<stop offset="1" stop-color="#F42A8B"/>
</linearGradient>
<linearGradient id="paint4_linear_249_11321" x1="50186.4" y1="-26308.8" x2="70550.6" y2="11755.3" gradientUnits="userSpaceOnUse">
<stop stop-color="#1F89DB"/>
<stop offset="1" stop-color="#F42A8B"/>
</linearGradient>
<linearGradient id="paint5_linear_249_11321" x1="50185.2" y1="-26311.1" x2="70586.2" y2="11821.7" gradientUnits="userSpaceOnUse">
<stop stop-color="#1F89DB"/>
<stop offset="1" stop-color="#F42A8B"/>
</linearGradient>
<linearGradient id="paint6_linear_249_11321" x1="50184" y1="-26313.4" x2="70626" y2="11896.1" gradientUnits="userSpaceOnUse">
<stop stop-color="#1F89DB"/>
<stop offset="1" stop-color="#F42A8B"/>
</linearGradient>
<linearGradient id="paint7_linear_249_11321" x1="50182.7" y1="-26315.8" x2="70670" y2="11978.5" gradientUnits="userSpaceOnUse">
<stop stop-color="#1F89DB"/>
<stop offset="1" stop-color="#F42A8B"/>
</linearGradient>
<linearGradient id="paint8_linear_249_11321" x1="50181.4" y1="-26318.2" x2="70718.4" y2="12068.9" gradientUnits="userSpaceOnUse">
<stop stop-color="#1F89DB"/>
<stop offset="1" stop-color="#F42A8B"/>
</linearGradient>
<linearGradient id="paint9_linear_249_11321" x1="50180" y1="-26320.7" x2="70771.2" y2="12167.6" gradientUnits="userSpaceOnUse">
<stop stop-color="#1F89DB"/>
<stop offset="1" stop-color="#F42A8B"/>
</linearGradient>
<linearGradient id="paint10_linear_249_11321" x1="50178.7" y1="-26323.3" x2="70828.5" y2="12274.7" gradientUnits="userSpaceOnUse">
<stop stop-color="#1F89DB"/>
<stop offset="1" stop-color="#F42A8B"/>
</linearGradient>
<linearGradient id="paint11_linear_249_11321" x1="50177.3" y1="-26325.9" x2="70890.4" y2="12390.3" gradientUnits="userSpaceOnUse">
<stop stop-color="#1F89DB"/>
<stop offset="1" stop-color="#F42A8B"/>
</linearGradient>
<linearGradient id="paint12_linear_249_11321" x1="50175.8" y1="-26328.5" x2="70956.8" y2="12514.5" gradientUnits="userSpaceOnUse">
<stop stop-color="#1F89DB"/>
<stop offset="1" stop-color="#F42A8B"/>
</linearGradient>
<linearGradient id="paint13_linear_249_11321" x1="50174.4" y1="-26331.3" x2="71028" y2="12647.5" gradientUnits="userSpaceOnUse">
<stop stop-color="#1F89DB"/>
<stop offset="1" stop-color="#F42A8B"/>
</linearGradient>
<linearGradient id="paint14_linear_249_11321" x1="50172.9" y1="-26334.1" x2="71104" y2="12789.5" gradientUnits="userSpaceOnUse">
<stop stop-color="#1F89DB"/>
<stop offset="1" stop-color="#F42A8B"/>
</linearGradient>
<linearGradient id="paint15_linear_249_11321" x1="50171.3" y1="-26337" x2="71184.8" y2="12940.7" gradientUnits="userSpaceOnUse">
<stop stop-color="#1F89DB"/>
<stop offset="1" stop-color="#F42A8B"/>
</linearGradient>
<linearGradient id="paint16_linear_249_11321" x1="50169.8" y1="-26339.9" x2="71270.7" y2="13101.3" gradientUnits="userSpaceOnUse">
<stop stop-color="#1F89DB"/>
<stop offset="1" stop-color="#F42A8B"/>
</linearGradient>
<linearGradient id="paint17_linear_249_11321" x1="50168.1" y1="-26342.9" x2="71361.8" y2="13271.5" gradientUnits="userSpaceOnUse">
<stop stop-color="#1F89DB"/>
<stop offset="1" stop-color="#F42A8B"/>
</linearGradient>
<linearGradient id="paint18_linear_249_11321" x1="50166.5" y1="-26346" x2="71458.1" y2="13451.4" gradientUnits="userSpaceOnUse">
<stop stop-color="#1F89DB"/>
<stop offset="1" stop-color="#F42A8B"/>
</linearGradient>
<linearGradient id="paint19_linear_249_11321" x1="50164.8" y1="-26349.2" x2="71559.7" y2="13641.5" gradientUnits="userSpaceOnUse">
<stop stop-color="#1F89DB"/>
<stop offset="1" stop-color="#F42A8B"/>
</linearGradient>
<linearGradient id="paint20_linear_249_11321" x1="50163" y1="-26352.5" x2="71667" y2="13841.9" gradientUnits="userSpaceOnUse">
<stop stop-color="#1F89DB"/>
<stop offset="1" stop-color="#F42A8B"/>
</linearGradient>
<linearGradient id="paint21_linear_249_11321" x1="50161.2" y1="-26355.8" x2="71779.9" y2="14053" gradientUnits="userSpaceOnUse">
<stop stop-color="#1F89DB"/>
<stop offset="1" stop-color="#F42A8B"/>
</linearGradient>
<linearGradient id="paint22_linear_249_11321" x1="50159.4" y1="-26359.3" x2="71898.6" y2="14275" gradientUnits="userSpaceOnUse">
<stop stop-color="#1F89DB"/>
<stop offset="1" stop-color="#F42A8B"/>
</linearGradient>
<linearGradient id="paint23_linear_249_11321" x1="50157.5" y1="-26362.8" x2="72023.4" y2="14508.2" gradientUnits="userSpaceOnUse">
<stop stop-color="#1F89DB"/>
<stop offset="1" stop-color="#F42A8B"/>
</linearGradient>
<linearGradient id="paint24_linear_249_11321" x1="50155.6" y1="-26366.5" x2="72154.5" y2="14753.1" gradientUnits="userSpaceOnUse">
<stop stop-color="#1F89DB"/>
<stop offset="1" stop-color="#F42A8B"/>
</linearGradient>
<linearGradient id="paint25_linear_249_11321" x1="50153.6" y1="-26370.2" x2="72291.9" y2="15010" gradientUnits="userSpaceOnUse">
<stop stop-color="#1F89DB"/>
<stop offset="1" stop-color="#F42A8B"/>
</linearGradient>
<linearGradient id="paint26_linear_249_11321" x1="50151.5" y1="-26374.1" x2="72436" y2="15279.3" gradientUnits="userSpaceOnUse">
<stop stop-color="#1F89DB"/>
<stop offset="1" stop-color="#F42A8B"/>
</linearGradient>
<linearGradient id="paint27_linear_249_11321" x1="50149.4" y1="-26378" x2="72586.9" y2="15561.4" gradientUnits="userSpaceOnUse">
<stop stop-color="#1F89DB"/>
<stop offset="1" stop-color="#F42A8B"/>
</linearGradient>
<linearGradient id="paint28_linear_249_11321" x1="50147.2" y1="-26382.1" x2="72744.9" y2="15856.8" gradientUnits="userSpaceOnUse">
<stop stop-color="#1F89DB"/>
<stop offset="1" stop-color="#F42A8B"/>
</linearGradient>
<linearGradient id="paint29_linear_249_11321" x1="50144.9" y1="-26386.3" x2="72910.3" y2="16166" gradientUnits="userSpaceOnUse">
<stop stop-color="#1F89DB"/>
<stop offset="1" stop-color="#F42A8B"/>
</linearGradient>
<linearGradient id="paint30_linear_249_11321" x1="50142.6" y1="-26390.6" x2="73083.4" y2="16489.4" gradientUnits="userSpaceOnUse">
<stop stop-color="#1F89DB"/>
<stop offset="1" stop-color="#F42A8B"/>
</linearGradient>
<linearGradient id="paint31_linear_249_11321" x1="50140.2" y1="-26395.1" x2="73264.3" y2="16827.7" gradientUnits="userSpaceOnUse">
<stop stop-color="#1F89DB"/>
<stop offset="1" stop-color="#F42A8B"/>
</linearGradient>
<linearGradient id="paint32_linear_249_11321" x1="50137.8" y1="-26399.7" x2="73453.6" y2="17181.4" gradientUnits="userSpaceOnUse">
<stop stop-color="#1F89DB"/>
<stop offset="1" stop-color="#F42A8B"/>
</linearGradient>
<linearGradient id="paint33_linear_249_11321" x1="50135.2" y1="-26404.5" x2="73651.4" y2="17551.2" gradientUnits="userSpaceOnUse">
<stop stop-color="#1F89DB"/>
<stop offset="1" stop-color="#F42A8B"/>
</linearGradient>
<linearGradient id="paint34_linear_249_11321" x1="50132.6" y1="-26409.4" x2="73858.2" y2="17937.7" gradientUnits="userSpaceOnUse">
<stop stop-color="#1F89DB"/>
<stop offset="1" stop-color="#F42A8B"/>
</linearGradient>
<linearGradient id="paint35_linear_249_11321" x1="50129.9" y1="-26414.4" x2="74074.3" y2="18341.7" gradientUnits="userSpaceOnUse">
<stop stop-color="#1F89DB"/>
<stop offset="1" stop-color="#F42A8B"/>
</linearGradient>
<linearGradient id="paint36_linear_249_11321" x1="50127.1" y1="-26419.7" x2="74300.2" y2="18763.9" gradientUnits="userSpaceOnUse">
<stop stop-color="#1F89DB"/>
<stop offset="1" stop-color="#F42A8B"/>
</linearGradient>
<linearGradient id="paint37_linear_249_11321" x1="50124.2" y1="-26425.1" x2="74536.3" y2="19205.2" gradientUnits="userSpaceOnUse">
<stop stop-color="#1F89DB"/>
<stop offset="1" stop-color="#F42A8B"/>
</linearGradient>
<linearGradient id="paint38_linear_249_11321" x1="50121.2" y1="-26430.7" x2="74783.1" y2="19666.5" gradientUnits="userSpaceOnUse">
<stop stop-color="#1F89DB"/>
<stop offset="1" stop-color="#F42A8B"/>
</linearGradient>
<clipPath id="clip0_249_11321">
<rect width="1143.78" height="761.979" fill="white" transform="translate(-309 539.558) rotate(-28.1467)"/>
</clipPath>
</defs>
</svg>
