<svg width="488" height="615" viewBox="0 0 488 615" fill="none" xmlns="http://www.w3.org/2000/svg">
<path opacity="0.05" d="M-72.5001 796.154C208.422 796.154 436.154 568.422 436.154 287.5C436.154 6.57823 208.422 -221.154 -72.5001 -221.154C-353.422 -221.154 -581.154 6.57823 -581.154 287.5C-581.154 568.422 -353.422 796.154 -72.5001 796.154Z" stroke="white" stroke-width="9.80875" stroke-linecap="round" stroke-dasharray="1401.25 1401.25"/>
<path opacity="0.1" d="M69.456 751.818C325.892 673.418 470.218 401.98 391.817 145.544C313.417 -110.892 41.9792 -255.218 -214.456 -176.817C-470.892 -98.4173 -615.218 173.021 -536.818 429.456C-458.418 685.892 -186.98 830.218 69.456 751.818Z" stroke="white" stroke-width="9.80875" stroke-linecap="round" stroke-dasharray="1401.25 1401.25"/>
<path opacity="0.14" d="M186.077 670.858C397.8 528.049 453.665 240.645 310.857 28.9225C168.048 -182.8 -119.356 -238.666 -331.078 -95.8571C-542.801 46.9515 -598.666 334.356 -455.858 546.078C-313.049 757.8 -25.645 813.666 186.077 670.858Z" stroke="white" stroke-width="9.80875" stroke-linecap="round" stroke-dasharray="1401.25 1401.25"/>
<path opacity="0.19" d="M268.894 563.956C421.576 375.409 392.502 98.7885 203.955 -53.8935C15.4088 -206.576 -261.212 -177.502 -413.894 11.0451C-566.576 199.592 -537.502 476.212 -348.955 628.894C-160.409 781.576 116.212 752.502 268.894 563.956Z" stroke="white" stroke-width="9.80875" stroke-linecap="round" stroke-dasharray="1401.25 1401.25"/>
<path opacity="0.23" d="M316.029 436.643C398.398 222.064 291.221 -18.6599 76.6419 -101.029C-137.937 -183.398 -378.661 -76.2209 -461.03 138.358C-543.399 352.937 -436.222 593.661 -221.643 676.03C-7.06421 758.399 233.66 651.222 316.029 436.643Z" stroke="white" stroke-width="9.80875" stroke-linecap="round" stroke-dasharray="1401.25 1401.25"/>
<path opacity="0.28" d="M319.592 314.918C334.735 98.3706 171.464 -89.4508 -45.0829 -104.593C-261.63 -119.736 -449.451 43.535 -464.594 260.082C-479.736 476.629 -316.466 664.451 -99.9185 679.593C116.629 694.736 304.45 531.465 319.592 314.918Z" stroke="white" stroke-width="9.80875" stroke-linecap="round" stroke-dasharray="1401.25 1401.25"/>
<path opacity="0.32" d="M287.949 204.284C241.99 5.21371 43.3543 -118.908 -155.716 -72.9485C-354.786 -26.9895 -478.908 171.646 -432.949 370.716C-386.99 569.787 -188.354 693.908 10.7163 647.949C209.787 601.99 333.908 403.354 287.949 204.284Z" stroke="white" stroke-width="9.80875" stroke-linecap="round" stroke-dasharray="1401.25 1401.25"/>
<path opacity="0.37" d="M227.846 114.095C132.077 -51.781 -80.0282 -108.614 -245.905 -12.8457C-411.781 82.9231 -468.614 295.028 -372.846 460.905C-277.077 626.781 -64.9716 683.615 100.905 587.846C266.781 492.077 323.615 279.972 227.846 114.095Z" stroke="white" stroke-width="9.80875" stroke-linecap="round" stroke-dasharray="1234.5 1401.25"/>
<path opacity="0.41" d="M148.255 50.7692C17.5121 -71.1505 -187.311 -63.998 -309.231 66.745C-431.151 197.488 -423.998 402.311 -293.255 524.231C-162.512 646.151 42.3111 638.998 164.231 508.255C286.151 377.512 278.998 172.689 148.255 50.7692Z" stroke="white" stroke-width="9.80875" stroke-linecap="round" stroke-dasharray="1070.56 1401.25"/>
<path opacity="0.46" d="M59.2606 17.3516C-89.9385 -55.4177 -269.879 6.54095 -342.649 155.74C-415.418 304.939 -353.459 484.88 -204.26 557.649C-55.0611 630.419 124.88 568.46 197.649 419.261C270.418 270.062 208.46 90.1209 59.2606 17.3516Z" stroke="white" stroke-width="9.80875" stroke-linecap="round" stroke-dasharray="917.82 1401.25"/>
<path opacity="0.5" d="M-29.0981 13.4681C-180.442 -10.5023 -322.562 92.754 -346.532 244.097C-370.503 395.441 -267.246 537.561 -115.903 561.531C35.4408 585.502 177.561 482.246 201.531 330.902C225.502 179.559 122.245 37.4386 -29.0981 13.4681Z" stroke="white" stroke-width="9.80875" stroke-linecap="round" stroke-dasharray="776.29 1401.25"/>
<path opacity="0.55" d="M-112.286 36.3043C-251.017 58.2772 -345.669 188.554 -323.696 327.285C-301.723 466.017 -171.446 560.669 -32.7147 538.696C106.017 516.723 200.668 386.446 178.695 247.714C156.723 108.983 26.4458 14.3313 -112.286 36.3043Z" stroke="white" stroke-width="9.80875" stroke-linecap="round" stroke-dasharray="647.38 1401.25"/>
<path opacity="0.59" d="M-173.855 79.6932C-288.623 135.67 -336.284 274.086 -280.308 388.854C-224.331 503.623 -85.9152 551.283 28.8534 495.307C143.622 439.33 191.282 300.914 135.306 186.146C79.3296 71.3773 -59.0864 23.7168 -173.855 79.6932Z" stroke="white" stroke-width="9.80875" stroke-linecap="round" stroke-dasharray="529.67 1401.25"/>
<path opacity="0.64" d="M-214.414 135.316C-298.463 213.693 -303.061 345.365 -224.684 429.414C-146.307 513.463 -14.6351 518.061 69.4139 439.684C153.463 361.307 158.061 229.635 79.6841 145.586C1.30711 61.5371 -130.365 56.939 -214.414 135.316Z" stroke="white" stroke-width="9.80875" stroke-linecap="round" stroke-dasharray="423.18 1307.37"/>
<path opacity="0.68" d="M-232.684 195.018C-283.761 283.485 -253.45 396.608 -164.982 447.685C-76.515 498.761 36.6078 468.45 87.6845 379.983C138.761 291.515 108.45 178.393 19.9826 127.316C-68.4848 76.2392 -181.608 106.55 -232.684 195.018Z" stroke="white" stroke-width="9.80875" stroke-linecap="round" stroke-dasharray="329.29 1161.64"/>
<path opacity="0.73" d="M-230.197 251.093C-250.304 338.186 -196.001 425.089 -108.907 445.197C-21.8141 465.304 65.0889 411.001 85.196 323.907C105.303 236.814 51 149.911 -36.0933 129.804C-123.187 109.697 -210.09 164 -230.197 251.093Z" stroke="white" stroke-width="9.80875" stroke-linecap="round" stroke-dasharray="246.62 1017.31"/>
<path opacity="0.77" d="M-210.886 297.177C-205.542 373.605 -139.252 431.23 -62.8236 425.886C13.6048 420.542 71.2298 354.252 65.8854 277.823C60.541 201.395 -5.74895 143.77 -82.1773 149.114C-158.606 154.459 -216.231 220.749 -210.886 297.177Z" stroke="white" stroke-width="9.80875" stroke-linecap="round" stroke-dasharray="176.56 871.58"/>
<path opacity="0.82" d="M-180.425 328.928C-157.544 388.534 -90.6766 418.305 -31.0713 395.425C28.5339 372.545 58.3053 305.677 35.425 246.072C12.5447 186.466 -54.323 156.695 -113.928 179.575C-173.533 202.455 -203.305 269.323 -180.425 328.928Z" stroke="white" stroke-width="9.80875" stroke-linecap="round" stroke-dasharray="117.71 725.85"/>
<path opacity="0.86" d="M-144.373 345.701C-112.229 385.395 -53.9933 391.516 -14.2993 359.373C25.3948 327.229 31.5156 268.993 -0.62798 229.299C-32.7716 189.605 -91.0075 183.484 -130.702 215.628C-170.396 247.771 -176.516 306.007 -144.373 345.701Z" stroke="white" stroke-width="9.80875" stroke-linecap="round" stroke-dasharray="70.06 581.52"/>
<path opacity="0.91" d="M-111.287 345.004C-79.5287 366.425 -36.418 358.045 -14.9968 326.287C6.42453 294.529 -1.95533 251.418 -33.7137 229.997C-65.472 208.575 -108.583 216.955 -130.004 248.714C-151.425 280.472 -143.045 323.583 -111.287 345.004Z" stroke="white" stroke-width="9.80875" stroke-linecap="round" stroke-dasharray="35.03 435.79"/>
</svg>
