<svg width="545" height="800" viewBox="0 0 545 800" fill="none" xmlns="http://www.w3.org/2000/svg">
<g opacity="0.2" clip-path="url(#clip0_249_11362)">
<path d="M507.785 -443.271C535.177 -406.344 657.92 -328.243 639.266 -266.02C620.612 -203.798 430.7 -207.806 418.246 -144.601C405.791 -81.396 602.906 -24.105 579.483 37.3626C556.06 98.8302 327.332 88.6742 305.816 150.444C284.301 212.214 482.465 269.671 476.209 333.857C469.954 398.044 294.921 396.393 275.79 458.54C256.659 520.687 388.729 567.676 384.381 632.165C380.033 696.654 266.42 704.73 254.919 768.086C243.418 831.442 343.538 873.37 329.176 936.273C314.813 999.176 175.069 1003.11 185.98 1070.02C196.892 1136.92 340.808 1218.38 381.552 1257.42" stroke="url(#paint0_linear_249_11362)" stroke-linecap="round"/>
<path d="M461.58 -422.067C489.979 -387.698 612.803 -318.297 597.897 -257.096C582.99 -195.894 398.883 -190.138 390.03 -128.3C381.177 -66.4624 574.964 -20.9872 555.401 39.7248C535.839 100.437 313.83 102.21 296.13 163.118C278.43 224.025 473.242 269.608 470.442 332.082C467.642 394.556 298.061 401.839 282.689 462.992C267.318 524.144 397.595 562.944 396.657 625.614C395.719 688.283 286.11 701.87 278.188 763.806C270.266 825.741 369.347 861.262 358.632 922.904C347.916 984.546 212.791 995.451 226.753 1059.69C240.715 1123.92 384.213 1195.5 425.649 1231.23" stroke="url(#paint1_linear_249_11362)" stroke-linecap="round"/>
<path d="M417.894 -398.408C447.111 -366.598 569.453 -305.686 558.135 -245.723C546.817 -185.759 368.999 -170.856 363.57 -110.584C358.14 -50.3118 547.92 -16.1433 532.073 43.5827C516.226 103.309 301.539 116.28 287.504 176.101C273.469 235.922 464.245 270.143 464.704 330.723C465.162 391.304 301.476 406.948 289.705 466.887C277.934 526.827 405.935 557.758 408.205 618.433C410.475 679.109 305.126 697.81 300.602 758.13C296.078 818.449 393.732 847.789 386.491 907.966C379.25 968.143 249.08 985.544 265.844 1046.98C282.608 1108.41 425.059 1170.38 466.958 1202.85" stroke="url(#paint2_linear_249_11362)" stroke-linecap="round"/>
<path d="M376.856 -372.5C406.702 -343.239 528.02 -290.568 520.119 -232.046C512.219 -173.523 341.128 -150.114 338.933 -91.591C336.738 -33.0682 521.875 -9.65914 509.585 48.8636C497.296 107.386 290.476 130.795 279.942 189.318C269.408 247.841 455.51 271.25 459.022 329.773C462.533 388.295 305.136 411.705 296.797 470.227C288.457 528.75 413.725 552.159 418.992 610.682C424.259 669.204 323.395 692.614 322.079 751.136C320.762 809.659 416.622 833.068 412.672 891.591C408.721 950.114 283.805 973.523 303.117 1032.05C322.43 1090.57 463.235 1143.24 505.372 1172.5" stroke="url(#paint3_linear_249_11362)" stroke-linecap="round"/>
<path d="M338.576 -344.556C368.869 -317.819 488.646 -273.111 483.98 -216.217C479.314 -159.323 315.337 -128.069 316.179 -71.4639C317.021 -14.8584 496.926 -1.62698 488.023 55.4892C479.12 112.605 280.653 145.667 273.444 202.694C266.236 259.721 447.073 272.904 453.423 329.221C459.774 385.537 309.016 416.098 303.926 473.014C298.837 529.931 420.947 546.191 428.993 602.419C437.038 658.647 340.854 686.348 342.544 742.909C344.233 799.47 437.955 817.218 437.103 873.912C436.25 930.606 316.847 959.524 338.451 1015.04C360.055 1070.56 498.645 1114.28 540.802 1140.4" stroke="url(#paint4_linear_249_11362)" stroke-linecap="round"/>
<path d="M303.152 -314.792C333.711 -290.543 451.459 -253.489 449.835 -198.396C448.211 -143.304 291.684 -104.883 295.357 -50.3471C299.029 4.189 473.161 7.85589 467.462 63.3769C461.764 118.898 272.074 160.804 268.006 216.154C263.937 271.503 438.965 275.076 447.934 329.055C456.903 383.035 313.087 420.119 311.056 475.255C309.024 530.39 427.584 539.898 438.183 593.706C448.781 647.514 357.441 679.083 361.928 733.534C366.416 787.984 457.679 800.361 459.722 855.068C461.764 909.776 348.098 943.692 371.734 996.129C395.369 1048.57 531.207 1083.72 573.173 1106.77" stroke="url(#paint5_linear_249_11362)" stroke-linecap="round"/>
<path d="M270.666 -283.432C301.317 -261.623 416.574 -231.884 417.791 -178.749C419.007 -125.615 270.217 -80.7181 276.505 -28.3871C282.794 23.9439 450.661 18.6871 447.976 72.4394C445.291 126.192 264.741 176.119 263.617 229.624C262.492 283.129 431.218 277.736 442.579 329.264C453.939 380.791 317.322 423.76 318.148 476.956C318.975 530.153 433.624 533.325 446.545 584.605C459.467 635.886 373.102 670.895 380.171 723.103C387.24 775.31 475.748 782.623 480.476 835.201C485.204 887.779 377.459 926.175 402.866 975.478C428.272 1024.78 560.853 1051.78 602.428 1071.85" stroke="url(#paint6_linear_249_11362)" stroke-linecap="round"/>
<path d="M241.183 -250.7C271.757 -231.272 384.092 -208.482 387.94 -157.447C391.788 -106.412 250.967 -55.7385 259.652 -5.73174C268.337 44.2751 429.5 30.7598 429.627 82.5856C429.754 134.411 258.646 191.523 260.261 243.032C261.876 294.542 423.858 280.853 437.38 329.831C450.902 378.81 321.69 427.016 325.166 478.13C328.641 529.244 439.053 526.516 454.063 575.179C469.073 623.841 387.786 661.86 397.215 711.709C406.644 761.557 492.125 764.129 499.322 814.452C506.518 864.775 404.841 907.128 431.758 953.26C458.675 999.391 587.531 1018.67 628.523 1035.88" stroke="url(#paint7_linear_249_11362)" stroke-linecap="round"/>
<path d="M214.756 -216.823C245.092 -199.707 354.105 -183.476 360.368 -134.665C366.631 -85.8541 233.962 -30.1098 244.818 17.4707C255.673 65.0512 409.746 43.9633 412.476 93.7212C415.205 143.479 253.778 206.929 257.921 256.308C262.064 305.688 416.914 284.392 432.362 330.741C447.811 377.091 326.165 429.882 332.075 478.788C337.984 527.693 443.866 519.518 460.728 565.489C477.59 611.461 401.45 652.058 413.012 699.449C424.575 746.84 506.785 745.008 516.228 792.967C525.67 840.926 430.169 886.712 458.337 929.653C486.504 972.595 611.204 984.622 651.433 999.088" stroke="url(#paint8_linear_249_11362)" stroke-linecap="round"/>
<path d="M191.418 -182.031C221.361 -167.147 326.685 -157.064 335.142 -110.584C343.598 -64.1041 219.211 -3.99737 232.009 41.0719C244.807 86.1412 391.455 58.1836 396.572 105.749C401.689 153.313 250.118 222.253 256.571 269.384C263.024 316.515 410.406 288.318 427.545 331.977C444.684 375.636 330.717 432.357 338.839 478.945C346.962 525.534 448.058 512.376 466.533 555.601C485.008 598.826 414.053 641.571 427.519 686.424C440.985 731.276 519.707 725.389 531.169 770.892C542.631 816.395 453.376 865.087 482.537 904.84C511.699 944.592 631.851 949.857 671.144 961.704" stroke="url(#paint9_linear_249_11362)" stroke-linecap="round"/>
<path d="M171.191 -146.554C200.593 -133.811 301.897 -129.444 312.321 -85.3861C322.745 -41.3281 206.719 22.4339 221.227 64.9242C235.736 107.415 374.678 73.3035 381.961 118.567C389.243 163.831 247.645 237.41 256.184 282.191C264.724 326.973 404.357 292.596 422.949 333.519C441.542 374.442 335.317 434.441 345.427 478.62C355.537 522.798 451.629 505.136 471.478 545.576C491.327 586.017 425.565 630.484 440.702 672.733C455.839 714.982 530.882 705.399 544.133 748.372C557.385 791.345 474.408 842.42 504.31 879.002C534.212 915.583 649.464 914.595 687.662 923.962" stroke="url(#paint10_linear_249_11362)" stroke-linecap="round"/>
<path d="M154.079 -110.62C182.802 -99.9196 279.787 -100.82 291.95 -59.2569C304.112 -17.694 196.475 49.0205 212.461 88.8814C228.446 128.742 359.458 89.2035 368.68 132.076C377.903 174.948 246.33 252.319 256.728 294.667C267.127 337.016 398.785 297.189 418.594 335.348C438.402 373.507 339.939 436.136 351.808 477.83C363.676 519.524 454.58 497.842 475.564 535.478C496.549 573.113 435.959 618.881 452.532 658.48C469.106 698.079 540.308 685.169 555.118 725.553C569.927 765.938 493.223 818.88 523.617 852.326C554.011 885.772 664.052 879.059 701.008 886.094" stroke="url(#paint11_linear_249_11362)" stroke-linecap="round"/>
<path d="M140.07 -74.4568C167.985 -65.6914 260.389 -71.3946 274.06 -32.3829C287.73 6.62872 188.459 75.6007 205.689 112.799C222.918 149.997 345.828 105.763 356.761 146.169C367.694 186.576 246.139 266.902 258.167 306.75C270.195 346.599 393.707 302.057 414.495 337.442C435.283 372.827 344.553 437.447 357.95 476.598C371.347 515.749 456.916 490.54 478.799 525.368C500.683 560.195 445.213 606.849 462.989 643.768C480.766 680.688 547.994 664.824 564.128 702.58C580.263 740.337 509.791 794.635 540.434 824.998C571.078 855.362 675.637 843.465 711.217 848.325" stroke="url(#paint12_linear_249_11362)" stroke-linecap="round"/>
<path d="M129.138 -38.2885C156.124 -31.3433 243.723 -41.3732 258.67 -4.95153C273.616 31.4701 182.639 102.016 200.88 136.535C219.12 171.055 333.812 122.858 346.224 160.743C358.636 198.627 247.032 281.082 260.458 318.382C273.884 355.681 389.133 307.163 410.668 339.78C432.202 372.398 349.132 438.379 363.825 474.947C378.518 511.515 458.644 483.274 481.193 515.306C503.741 547.339 453.311 594.475 472.058 628.702C490.805 662.929 553.953 644.491 571.18 679.596C588.407 714.701 524.089 769.855 554.747 797.206C585.405 824.556 684.256 808.03 718.337 810.879" stroke="url(#paint13_linear_249_11362)" stroke-linecap="round"/>
<path d="M121.243 -2.3363C147.189 2.91088 229.796 -10.9598 245.786 22.8502C261.777 56.6602 178.975 128.11 197.996 159.952C217.017 191.794 323.428 140.367 337.087 175.691C350.746 211.015 248.967 294.789 263.559 329.507C278.15 364.226 385.075 312.466 407.126 342.339C429.178 372.213 353.65 438.939 369.407 472.9C385.164 506.862 459.776 476.086 482.761 505.354C505.745 534.622 460.245 581.848 479.732 613.387C499.22 644.926 558.211 624.294 576.3 656.741C594.388 689.189 536.112 744.711 566.557 769.135C597.002 793.558 689.96 772.965 722.434 773.973" stroke="url(#paint14_linear_249_11362)" stroke-linecap="round"/>
<path d="M116.327 33.1829C141.135 36.8606 218.599 19.6422 235.403 50.836C252.207 82.0298 177.414 153.732 196.988 182.913C216.562 212.095 314.685 158.165 329.358 190.907C344.032 223.649 251.895 307.951 267.421 340.074C282.947 372.196 381.539 317.927 403.883 345.096C426.226 372.265 358.08 439.137 374.671 470.486C391.262 501.834 460.325 469.019 483.52 495.569C506.716 522.119 466.012 569.054 486.012 597.926C506.012 626.798 560.799 604.354 579.521 634.154C598.243 663.955 545.863 719.372 575.876 740.969C605.89 762.566 692.814 738.474 723.587 737.818" stroke="url(#paint15_linear_249_11362)" stroke-linecap="round"/>
<path d="M114.323 68.0579C137.902 70.3004 210.111 50.2319 227.502 78.8217C244.893 107.412 177.895 178.734 197.799 205.289C217.702 231.844 307.581 176.131 323.039 206.286C338.497 236.441 255.766 320.505 271.997 350.034C288.228 379.563 378.532 323.505 400.948 348.025C423.365 372.545 362.398 438.984 379.595 467.731C396.793 496.477 460.307 462.114 483.496 486.008C506.686 509.902 470.615 556.18 490.905 582.422C511.196 608.664 561.759 584.788 580.889 611.969C600.02 639.15 553.357 694.007 582.732 712.892C612.106 731.777 692.898 704.759 721.889 702.619" stroke="url(#paint16_linear_249_11362)" stroke-linecap="round"/>
<path d="M115.145 102.084C137.417 103.03 204.297 80.611 222.051 106.626C239.805 132.64 180.348 202.976 200.363 226.954C220.378 250.932 302.11 194.141 318.124 221.722C334.138 249.303 260.52 332.388 277.23 359.343C293.94 386.297 376.054 329.161 398.331 351.103C420.608 373.045 366.579 438.493 384.158 464.664C401.738 490.835 459.741 455.409 482.714 476.725C505.686 498.04 474.063 543.314 494.426 566.979C514.79 590.644 561.137 565.712 580.457 590.317C599.776 614.922 558.62 668.779 587.159 685.082C615.699 701.385 690.303 672.011 717.446 668.572" stroke="url(#paint17_linear_249_11362)" stroke-linecap="round"/>
<path d="M118.698 135.063C139.596 134.856 201.11 110.585 219.007 134.069C236.905 157.554 184.691 226.32 204.606 247.787C224.521 269.254 298.253 212.074 314.599 237.11C330.945 262.146 266.1 343.544 283.066 367.959C300.033 392.375 374.106 334.854 396.039 354.304C417.971 373.753 370.599 437.678 388.342 461.317C406.084 484.956 458.649 448.944 481.202 467.772C503.756 486.601 476.371 530.538 496.596 551.695C516.822 572.851 558.99 547.236 578.284 569.323C597.578 591.411 561.69 643.852 589.209 657.715C616.728 671.578 685.132 640.417 710.375 635.865" stroke="url(#paint18_linear_249_11362)" stroke-linecap="round"/>
<path d="M124.869 166.805C144.337 165.591 200.486 139.965 218.314 160.979C236.143 181.994 190.836 248.638 210.447 267.673C230.057 286.709 295.986 229.813 312.444 252.349C328.903 274.886 272.439 353.921 289.446 375.848C306.452 397.776 372.683 340.545 394.075 357.602C415.467 374.659 374.437 436.554 392.128 457.72C409.82 478.887 457.054 442.753 478.995 459.201C500.935 475.649 477.558 517.938 497.442 536.669C517.327 555.4 555.379 529.466 574.441 549.11C593.503 568.754 562.615 619.385 588.941 630.962C615.267 642.539 677.501 610.154 700.807 604.679" stroke="url(#paint19_linear_249_11362)" stroke-linecap="round"/>
<path d="M133.539 197.129C151.532 195.058 202.354 168.566 219.907 187.186C237.461 205.806 198.687 269.807 217.797 286.506C236.907 303.204 295.278 247.241 311.634 267.339C327.991 287.437 279.474 363.47 296.309 382.977C313.145 402.484 371.78 346.195 392.445 360.972C413.111 375.749 378.072 435.138 395.506 453.906C412.94 472.674 454.984 436.872 476.129 451.058C497.274 465.244 477.651 505.595 497 521.998C516.349 538.401 550.374 512.502 569.005 529.792C587.636 547.082 561.454 595.533 586.429 604.989C611.404 614.445 667.54 581.39 688.885 575.18" stroke="url(#paint20_linear_249_11362)" stroke-linecap="round"/>
<path d="M144.572 225.864C161.058 223.085 206.626 196.21 223.707 212.526C240.788 228.842 208.137 289.712 226.56 304.182C244.982 318.651 296.086 264.244 312.135 281.98C328.183 299.717 287.133 372.149 303.594 389.317C320.056 406.486 371.386 351.766 391.15 364.389C410.914 377.012 381.483 433.451 398.461 449.909C415.439 466.367 452.466 431.333 472.643 443.388C492.82 455.443 476.68 493.587 495.309 507.773C513.938 521.959 544.051 496.441 562.061 511.479C580.071 526.517 558.276 572.445 581.755 579.955C605.234 587.465 655.384 554.282 674.76 547.527" stroke="url(#paint21_linear_249_11362)" stroke-linecap="round"/>
<path d="M157.824 252.848C172.783 249.513 213.207 222.725 229.626 236.842C246.044 250.958 219.076 308.246 236.634 320.608C254.192 332.969 298.363 280.712 313.905 296.179C329.447 311.645 295.344 379.919 311.237 394.846C327.129 409.772 371.493 357.218 390.191 367.825C408.888 378.433 384.655 431.509 400.986 445.761C417.317 460.012 449.531 426.166 468.58 436.233C487.628 446.3 474.684 481.992 492.417 494.084C510.151 506.176 536.493 481.373 553.701 494.274C570.908 507.176 553.161 550.264 575.014 556.013C596.867 561.761 641.183 528.98 658.596 521.866" stroke="url(#paint22_linear_249_11362)" stroke-linecap="round"/>
<path d="M173.141 277.931C186.563 274.192 221.987 247.949 237.564 259.984C253.142 272.018 231.384 325.309 247.912 335.697C264.441 346.084 302.054 296.541 316.9 309.843C331.746 323.144 304.034 386.749 319.172 399.544C334.31 412.339 372.085 362.517 389.564 371.257C407.044 379.997 387.568 429.336 403.073 441.497C418.577 453.658 446.212 421.398 463.984 429.631C481.756 437.864 471.703 470.883 488.378 481.017C505.052 491.151 527.787 467.38 544.022 478.274C560.258 489.168 546.196 529.13 566.309 533.309C586.422 537.487 625.094 505.619 640.564 498.332" stroke="url(#paint23_linear_249_11362)" stroke-linecap="round"/>
<path d="M190.357 300.974C202.243 296.981 232.845 271.727 247.412 281.809C261.98 291.892 244.935 340.813 260.279 349.37C275.624 357.927 307.096 311.628 321.065 322.884C335.035 334.14 313.124 392.611 327.332 403.397C341.541 414.184 373.145 367.627 389.266 374.659C405.388 381.691 390.208 426.951 404.715 437.151C419.223 447.351 442.541 417.055 458.902 423.618C475.262 430.18 467.782 460.33 483.246 468.652C498.71 476.975 518.023 454.54 533.129 463.566C548.234 472.593 537.478 509.171 555.751 511.98C574.025 514.788 607.281 484.324 620.842 477.046" stroke="url(#paint24_linear_249_11362)" stroke-linecap="round"/>
<path d="M209.299 321.85C219.665 317.753 245.654 293.912 259.054 302.184C272.454 310.456 259.6 354.675 273.619 361.557C287.638 368.439 313.421 325.877 326.345 335.218C339.269 344.56 322.539 397.483 335.653 406.396C348.768 415.31 374.656 372.512 389.293 378.005C403.931 383.497 392.562 424.38 405.914 432.759C419.267 441.138 438.556 413.16 453.384 418.224C468.212 423.289 462.975 450.4 477.089 457.068C491.203 463.736 507.303 442.923 521.132 450.232C534.96 457.542 527.114 490.513 543.465 492.155C559.817 493.798 587.92 465.209 599.619 458.118" stroke="url(#paint25_linear_249_11362)" stroke-linecap="round"/>
<path d="M229.786 340.446C238.656 336.391 260.274 314.368 272.362 320.983C284.45 327.597 275.243 366.824 287.807 372.196C300.372 377.568 320.952 339.196 332.673 346.767C344.394 354.337 332.199 401.347 344.067 408.536C355.934 415.724 376.595 377.142 389.637 381.271C402.679 385.399 394.617 421.643 406.668 428.354C418.719 435.064 434.293 409.734 447.482 413.48C460.67 417.226 457.336 441.155 469.974 446.336C482.612 451.516 495.727 432.592 508.145 438.346C520.563 444.1 515.217 473.269 529.58 473.956C543.943 474.642 567.191 448.374 577.089 441.642" stroke="url(#paint26_linear_249_11362)" stroke-linecap="round"/>
<path d="M251.632 356.659C259.042 352.79 276.559 332.97 287.202 338.089C297.845 343.209 291.724 377.199 302.72 381.234C313.716 385.268 329.611 351.5 339.983 357.454C350.355 363.409 342.026 404.195 352.506 409.815C362.987 415.436 378.941 381.484 390.29 384.433C401.639 387.382 396.364 418.768 406.98 423.971C417.596 429.174 429.791 406.793 441.248 409.408C452.705 412.023 450.924 432.656 461.975 436.523C473.025 440.39 483.402 423.603 494.29 427.972C505.177 432.34 501.91 457.547 514.235 457.491C526.56 457.434 545.281 433.907 553.451 427.7" stroke="url(#paint27_linear_249_11362)" stroke-linecap="round"/>
<path d="M274.639 370.403C280.637 366.86 294.35 349.602 303.43 353.398C312.511 357.194 308.899 385.748 318.226 388.625C327.553 391.503 339.308 362.708 348.199 367.211C357.09 371.714 351.937 406.019 360.904 410.24C369.871 414.46 381.668 385.51 391.241 387.469C400.814 389.428 397.793 415.777 406.854 419.644C415.916 423.511 425.088 404.354 434.737 406.031C444.386 407.707 443.803 424.955 453.168 427.691C462.532 430.428 470.436 416.005 479.687 419.166C488.938 422.326 487.318 443.446 497.573 442.861C507.827 442.277 522.38 421.881 528.909 416.359" stroke="url(#paint28_linear_249_11362)" stroke-linecap="round"/>
<path d="M298.609 381.604C303.253 378.522 313.485 364.16 320.899 366.813C328.312 369.466 326.622 392.428 334.194 394.337C341.766 396.245 349.951 372.749 357.243 375.974C364.535 379.199 361.854 406.821 369.195 409.818C376.535 412.814 384.747 389.191 392.477 390.356C400.207 391.52 398.897 412.697 406.298 415.407C413.699 418.117 420.225 402.428 428.003 403.364C435.782 404.299 436.039 418.103 443.635 419.897C451.231 421.691 456.941 409.838 464.464 411.975C471.987 414.113 471.577 431.053 479.745 430.157C487.913 429.26 498.686 412.357 503.67 407.672" stroke="url(#paint29_linear_249_11362)" stroke-linecap="round"/>
<path d="M323.339 390.201C326.696 387.711 333.796 376.553 339.453 378.249C345.109 379.944 344.745 397.209 350.491 398.341C356.237 399.474 361.445 381.554 367.033 383.683C372.621 385.813 371.698 406.606 377.313 408.562C382.929 410.518 388.152 392.503 393.987 393.072C399.822 393.641 399.672 409.553 405.322 411.292C410.972 413.031 415.243 401.025 421.106 401.42C426.969 401.815 427.703 412.144 433.462 413.189C439.222 414.235 443.034 405.133 448.752 406.439C454.471 407.744 454.828 420.448 460.911 419.456C466.993 418.464 474.398 405.381 477.947 401.677" stroke="url(#paint30_linear_249_11362)" stroke-linecap="round"/>
<path d="M348.621 396.151C350.769 394.376 355.107 386.7 358.932 387.631C362.757 388.563 363.117 400.07 366.982 400.623C370.846 401.176 373.689 389.065 377.483 390.287C381.278 391.51 381.388 405.386 385.195 406.492C389.002 407.598 391.851 395.422 395.755 395.597C399.66 395.772 400.115 406.371 403.937 407.332C407.759 408.293 410.184 400.15 414.101 400.209C418.018 400.267 418.867 407.118 422.738 407.613C426.609 408.108 428.829 401.916 432.682 402.585C436.534 403.255 437.216 411.7 441.231 410.828C445.245 409.955 449.719 400.987 451.952 398.397" stroke="url(#paint31_linear_249_11362)" stroke-linecap="round"/>
<path d="M374.245 399.423C375.271 398.48 377.236 394.534 379.17 394.899C381.104 395.264 381.585 401 383.529 401.175C385.473 401.35 386.576 395.228 388.502 395.74C390.429 396.251 390.847 403.176 392.777 403.629C394.707 404.082 395.811 397.928 397.765 397.913C399.719 397.898 400.224 403.178 402.157 403.558C404.091 403.938 405.089 399.809 407.046 399.735C409.003 399.662 409.606 403.061 411.552 403.206C413.498 403.352 414.444 400.202 416.386 400.436C418.327 400.669 418.888 404.868 420.87 404.328C422.852 403.787 424.851 399.192 425.898 397.84" stroke="url(#paint32_linear_249_11362)" stroke-linecap="round"/>
</g>
<defs>
<linearGradient id="paint0_linear_249_11362" x1="-12629.2" y1="83510.3" x2="-38810.3" y2="79363.6" gradientUnits="userSpaceOnUse">
<stop offset="0.45" stop-color="#1F89DB"/>
<stop offset="1" stop-color="#F42A8B"/>
</linearGradient>
<linearGradient id="paint1_linear_249_11362" x1="-7999.2" y1="81542.6" x2="-33562.6" y2="78855.7" gradientUnits="userSpaceOnUse">
<stop offset="0.45" stop-color="#1F89DB"/>
<stop offset="1" stop-color="#F42A8B"/>
</linearGradient>
<linearGradient id="paint2_linear_249_11362" x1="-3611.61" y1="79325" x2="-28478.4" y2="78021.7" gradientUnits="userSpaceOnUse">
<stop offset="0.45" stop-color="#1F89DB"/>
<stop offset="1" stop-color="#F42A8B"/>
</linearGradient>
<linearGradient id="paint3_linear_249_11362" x1="520.488" y1="76877.5" x2="-23577.2" y2="76877.5" gradientUnits="userSpaceOnUse">
<stop offset="0.45" stop-color="#1F89DB"/>
<stop offset="1" stop-color="#F42A8B"/>
</linearGradient>
<linearGradient id="paint4_linear_249_11362" x1="4385.42" y1="74220.8" x2="-18877.1" y2="75440" gradientUnits="userSpaceOnUse">
<stop offset="0.45" stop-color="#1F89DB"/>
<stop offset="1" stop-color="#F42A8B"/>
</linearGradient>
<linearGradient id="paint5_linear_249_11362" x1="7972.98" y1="71376.2" x2="-14395" y2="73727.2" gradientUnits="userSpaceOnUse">
<stop offset="0.45" stop-color="#1F89DB"/>
<stop offset="1" stop-color="#F42A8B"/>
</linearGradient>
<linearGradient id="paint6_linear_249_11362" x1="11274.4" y1="68365.4" x2="-10146.5" y2="71758.1" gradientUnits="userSpaceOnUse">
<stop offset="0.45" stop-color="#1F89DB"/>
<stop offset="1" stop-color="#F42A8B"/>
</linearGradient>
<linearGradient id="paint7_linear_249_11362" x1="14282.6" y1="65210.4" x2="-6145.66" y2="69552.6" gradientUnits="userSpaceOnUse">
<stop offset="0.45" stop-color="#1F89DB"/>
<stop offset="1" stop-color="#F42A8B"/>
</linearGradient>
<linearGradient id="paint8_linear_249_11362" x1="16991.8" y1="61933.7" x2="-2405.31" y2="67131.1" gradientUnits="userSpaceOnUse">
<stop offset="0.45" stop-color="#1F89DB"/>
<stop offset="1" stop-color="#F42A8B"/>
</linearGradient>
<linearGradient id="paint9_linear_249_11362" x1="19398" y1="58557.8" x2="1063.33" y2="64515" gradientUnits="userSpaceOnUse">
<stop offset="0.45" stop-color="#1F89DB"/>
<stop offset="1" stop-color="#F42A8B"/>
</linearGradient>
<linearGradient id="paint10_linear_249_11362" x1="21498.3" y1="55105.3" x2="4250.53" y2="61726.1" gradientUnits="userSpaceOnUse">
<stop offset="0.45" stop-color="#1F89DB"/>
<stop offset="1" stop-color="#F42A8B"/>
</linearGradient>
<linearGradient id="paint11_linear_249_11362" x1="23291.9" y1="51598.9" x2="7148.08" y2="58786.6" gradientUnits="userSpaceOnUse">
<stop offset="0.45" stop-color="#1F89DB"/>
<stop offset="1" stop-color="#F42A8B"/>
</linearGradient>
<linearGradient id="paint12_linear_249_11362" x1="24779.2" y1="48061.1" x2="9749.35" y2="55719.2" gradientUnits="userSpaceOnUse">
<stop offset="0.45" stop-color="#1F89DB"/>
<stop offset="1" stop-color="#F42A8B"/>
</linearGradient>
<linearGradient id="paint13_linear_249_11362" x1="25962.1" y1="44514.1" x2="12049.3" y2="52546.7" gradientUnits="userSpaceOnUse">
<stop offset="0.45" stop-color="#1F89DB"/>
<stop offset="1" stop-color="#F42A8B"/>
</linearGradient>
<linearGradient id="paint14_linear_249_11362" x1="26844" y1="40980.1" x2="14044.3" y2="49292.3" gradientUnits="userSpaceOnUse">
<stop offset="0.45" stop-color="#1F89DB"/>
<stop offset="1" stop-color="#F42A8B"/>
</linearGradient>
<linearGradient id="paint15_linear_249_11362" x1="27429.9" y1="37480.5" x2="15732.6" y2="45979" gradientUnits="userSpaceOnUse">
<stop offset="0.45" stop-color="#1F89DB"/>
<stop offset="1" stop-color="#F42A8B"/>
</linearGradient>
<linearGradient id="paint16_linear_249_11362" x1="27726.1" y1="34036.4" x2="17113.9" y2="42630" gradientUnits="userSpaceOnUse">
<stop offset="0.45" stop-color="#1F89DB"/>
<stop offset="1" stop-color="#F42A8B"/>
</linearGradient>
<linearGradient id="paint17_linear_249_11362" x1="27740.3" y1="30668.4" x2="18189.3" y2="39268.1" gradientUnits="userSpaceOnUse">
<stop offset="0.45" stop-color="#1F89DB"/>
<stop offset="1" stop-color="#F42A8B"/>
</linearGradient>
<linearGradient id="paint18_linear_249_11362" x1="27481.5" y1="27396.3" x2="18961.7" y2="35916.1" gradientUnits="userSpaceOnUse">
<stop offset="0.45" stop-color="#1F89DB"/>
<stop offset="1" stop-color="#F42A8B"/>
</linearGradient>
<linearGradient id="paint19_linear_249_11362" x1="26960.1" y1="24239.2" x2="19435.3" y2="32596.3" gradientUnits="userSpaceOnUse">
<stop offset="0.45" stop-color="#1F89DB"/>
<stop offset="1" stop-color="#F42A8B"/>
</linearGradient>
<linearGradient id="paint20_linear_249_11362" x1="26187.7" y1="21215.3" x2="19616.1" y2="29330.5" gradientUnits="userSpaceOnUse">
<stop offset="0.45" stop-color="#1F89DB"/>
<stop offset="1" stop-color="#F42A8B"/>
</linearGradient>
<linearGradient id="paint21_linear_249_11362" x1="25177" y1="18341.9" x2="19511.3" y2="26140.1" gradientUnits="userSpaceOnUse">
<stop offset="0.45" stop-color="#1F89DB"/>
<stop offset="1" stop-color="#F42A8B"/>
</linearGradient>
<linearGradient id="paint22_linear_249_11362" x1="23941.9" y1="15635.6" x2="19129.5" y2="23045.9" gradientUnits="userSpaceOnUse">
<stop offset="0.45" stop-color="#1F89DB"/>
<stop offset="1" stop-color="#F42A8B"/>
</linearGradient>
<linearGradient id="paint23_linear_249_11362" x1="22497.2" y1="13111.5" x2="18481" y2="20067.9" gradientUnits="userSpaceOnUse">
<stop offset="0.45" stop-color="#1F89DB"/>
<stop offset="1" stop-color="#F42A8B"/>
</linearGradient>
<linearGradient id="paint24_linear_249_11362" x1="20859" y1="10783.8" x2="17577" y2="17225.2" gradientUnits="userSpaceOnUse">
<stop offset="0.45" stop-color="#1F89DB"/>
<stop offset="1" stop-color="#F42A8B"/>
</linearGradient>
<linearGradient id="paint25_linear_249_11362" x1="19043.9" y1="8665.63" x2="16430.2" y2="14536.1" gradientUnits="userSpaceOnUse">
<stop offset="0.45" stop-color="#1F89DB"/>
<stop offset="1" stop-color="#F42A8B"/>
</linearGradient>
<linearGradient id="paint26_linear_249_11362" x1="17069.6" y1="6768.74" x2="15054.6" y2="12018.1" gradientUnits="userSpaceOnUse">
<stop offset="0.45" stop-color="#1F89DB"/>
<stop offset="1" stop-color="#F42A8B"/>
</linearGradient>
<linearGradient id="paint27_linear_249_11362" x1="14954.3" y1="5103.65" x2="13465" y2="9687.31" gradientUnits="userSpaceOnUse">
<stop offset="0.45" stop-color="#1F89DB"/>
<stop offset="1" stop-color="#F42A8B"/>
</linearGradient>
<linearGradient id="paint28_linear_249_11362" x1="12717.1" y1="3679.58" x2="11677.6" y2="7559.01" gradientUnits="userSpaceOnUse">
<stop offset="0.45" stop-color="#1F89DB"/>
<stop offset="1" stop-color="#F42A8B"/>
</linearGradient>
<linearGradient id="paint29_linear_249_11362" x1="10377.5" y1="2504.36" x2="9709.49" y2="5647.18" gradientUnits="userSpaceOnUse">
<stop offset="0.45" stop-color="#1F89DB"/>
<stop offset="1" stop-color="#F42A8B"/>
</linearGradient>
<linearGradient id="paint30_linear_249_11362" x1="7955.48" y1="1584.47" x2="7578.51" y2="3964.57" gradientUnits="userSpaceOnUse">
<stop offset="0.45" stop-color="#1F89DB"/>
<stop offset="1" stop-color="#F42A8B"/>
</linearGradient>
<linearGradient id="paint31_linear_249_11362" x1="5471.41" y1="924.95" x2="5303.48" y2="2522.66" gradientUnits="userSpaceOnUse">
<stop offset="0.45" stop-color="#1F89DB"/>
<stop offset="1" stop-color="#F42A8B"/>
</linearGradient>
<linearGradient id="paint32_linear_249_11362" x1="2945.97" y1="529.407" x2="2903.93" y2="1331.56" gradientUnits="userSpaceOnUse">
<stop offset="0.45" stop-color="#1F89DB"/>
<stop offset="1" stop-color="#F42A8B"/>
</linearGradient>
<clipPath id="clip0_249_11362">
<rect width="800" height="800" fill="white"/>
</clipPath>
</defs>
</svg>
