<svg width="126" height="90" viewBox="0 0 126 90" fill="none" xmlns="http://www.w3.org/2000/svg">
<circle cx="53.4781" cy="17.4244" r="7.2965" fill="#00587E" fill-opacity="0.2"/>
<circle cx="75.8531" cy="17.4244" r="7.2965" fill="#00587E" fill-opacity="0.2"/>
<circle cx="96.2848" cy="17.4244" r="7.2965" fill="#00587E" fill-opacity="0.2"/>
<circle cx="118.66" cy="17.4244" r="7.2965" fill="#00587E" fill-opacity="0.2"/>
<circle cx="7.2965" cy="7.2965" r="7.2965" transform="matrix(-1 0 0 1 16.9961 10.1279)" fill="#00587E" fill-opacity="0.2"/>
<circle cx="31.1012" cy="17.4244" r="7.2965" fill="#00587E" fill-opacity="0.2"/>
<circle cx="65.1539" cy="36.8815" r="7.2965" fill="#00587E" fill-opacity="0.2"/>
<circle cx="90.4469" cy="39.8004" r="7.2965" fill="#00587E" fill-opacity="0.2"/>
<circle cx="112.824" cy="41.7457" r="7.2965" fill="#00587E" fill-opacity="0.2"/>
<circle cx="7.2965" cy="7.2965" r="7.2965" transform="matrix(-1 0 0 1 1.42969 34.4492)" fill="#00587E" fill-opacity="0.2"/>
<circle cx="99.2027" cy="62.1764" r="7.2965" fill="#00587E" fill-opacity="0.2"/>
<circle cx="7.2965" cy="7.2965" r="7.2965" transform="matrix(-1 0 0 1 15.0508 54.8799)" fill="#00587E" fill-opacity="0.2"/>
<circle cx="77.8004" cy="76.7696" r="7.2965" fill="#00587E" fill-opacity="0.2"/>
<circle cx="7.2965" cy="7.2965" r="7.2965" transform="matrix(-1 0 0 1 36.4531 69.4731)" fill="#00587E" fill-opacity="0.2"/>
<circle cx="113.101" cy="-7.27671" r="7.2965" transform="rotate(-96.7617 113.101 -7.27671)" fill="#00587E" fill-opacity="0.2"/>
<circle cx="7.2965" cy="7.2965" r="7.2965" transform="matrix(0.117741 -0.993044 -0.993044 -0.117741 0.242188 0.828125)" fill="#00587E" fill-opacity="0.2"/>
<circle cx="7.2965" cy="7.2965" r="7.2965" transform="matrix(-1 0 0 1 23.8047 32.5039)" fill="#00587E" fill-opacity="0.2"/>
<circle cx="74.8824" cy="54.3927" r="7.2965" fill="#00587E" fill-opacity="0.2"/>
<circle cx="7.2965" cy="7.2965" r="7.2965" transform="matrix(-1 0 0 1 39.3711 47.0962)" fill="#00587E" fill-opacity="0.2"/>
<circle cx="90.4469" cy="-4.95204" r="7.2965" fill="#00587E" fill-opacity="0.2"/>
<circle cx="7.2965" cy="7.2965" r="7.2965" transform="matrix(-1 0 0 1 23.8047 -12.2485)" fill="#00587E" fill-opacity="0.2"/>
<circle cx="53.4781" cy="60.2306" r="7.2965" fill="#00587E" fill-opacity="0.2"/>
<circle cx="53.4781" cy="82.6066" r="7.2965" fill="#00587E" fill-opacity="0.2"/>
<circle cx="42.777" cy="36.8815" r="7.2965" fill="#00587E" fill-opacity="0.2"/>
<circle cx="65.1539" cy="-2.03309" r="7.2965" fill="#00587E" fill-opacity="0.2"/>
<circle cx="42.777" cy="-2.03309" r="7.2965" fill="#00587E" fill-opacity="0.2"/>
</svg>
