<svg width="1920" height="894" viewBox="0 0 1920 894" fill="none" xmlns="http://www.w3.org/2000/svg">
<g opacity="0.1">
<mask id="mask0_1_298" style="mask-type:luminance" maskUnits="userSpaceOnUse" x="0" y="0" width="2049" height="441">
<path d="M2049 37.6747C1959.22 54.6928 1876.38 115.001 1780.65 245.542C1743.99 295.534 1702.15 334.667 1657.08 364.247C1561.5 426.974 1451.31 446.761 1344.89 436.108C1238.44 425.454 1135.75 384.339 1055.21 325.275C1009.52 291.769 970.959 252.484 942.89 209.712C867.408 94.6925 799.066 13.809 721.57 2.09575C644.042 -9.62046 557.622 47.8891 446.154 209.691C396.444 281.856 336.317 327.064 272.062 351.436C203.398 377.483 129.995 379.746 59.5162 365.693C39.3802 361.677 19.4814 356.328 0.0012207 349.823V351.966C19.3584 358.401 39.1196 363.697 59.121 367.684C129.945 381.807 203.732 379.526 272.779 353.336C337.4 328.826 397.858 283.376 447.823 210.845C558.77 49.7891 644.548 -7.48918 721.268 4.107C798.024 15.709 866.005 96.2587 941.189 210.824C969.393 253.801 1008.13 293.262 1054.01 326.912C1134.83 386.181 1237.87 427.433 1344.69 438.128C1451.54 448.822 1562.19 428.947 1658.19 365.948C1703.46 336.242 1745.47 296.942 1782.29 246.743C1877.4 117.045 1959.76 56.9705 2049 39.8938V37.6747Z" fill="white"/>
</mask>
<g mask="url(#mask0_1_298)">
<path d="M2048.99 448.837H0.00219727V-9.62329H2048.99V448.837Z" fill="url(#paint0_linear_1_298)"/>
</g>
<mask id="mask1_1_298" style="mask-type:luminance" maskUnits="userSpaceOnUse" x="0" y="8" width="2049" height="465">
<path d="M2049 89.4697C1955.68 101.259 1868.82 158.335 1765.82 289.342C1727.5 338.081 1684.37 375.788 1638.33 403.84C1540.7 463.32 1429.91 479.398 1323.91 465.182C1217.88 450.957 1116.63 406.419 1038.11 344.688C993.572 309.665 956.345 269.107 929.73 225.418C858.154 107.934 792.564 24.8051 715.504 10.498C638.409 -3.8179 550.107 50.7611 433.278 208.731C381.17 279.186 319.565 322.354 254.529 344.553C185.031 368.282 111.589 368.08 41.6227 351.667C27.5879 348.377 13.6965 344.433 0.0012207 339.899V342.036C13.5472 346.5 27.2863 350.391 41.1602 353.647C111.472 370.138 185.294 370.334 255.179 346.477C320.59 324.148 382.535 280.753 434.909 209.937C551.199 52.6992 638.848 -1.6749 715.138 12.4917C791.46 26.6612 856.699 109.448 928 226.475C954.741 270.374 992.129 311.115 1036.86 346.284C1115.64 408.228 1217.24 452.918 1323.64 467.19C1430.08 481.465 1541.33 465.314 1639.39 405.57C1685.63 377.398 1728.94 339.533 1767.42 290.598C1869.8 160.379 1956.2 103.537 2049 91.683V89.4697Z" fill="white"/>
</mask>
<g mask="url(#mask1_1_298)">
<path d="M2048.99 481.48H0.00219727V-3.82672H2048.99V481.48Z" fill="url(#paint1_linear_1_298)"/>
</g>
<mask id="mask2_1_298" style="mask-type:luminance" maskUnits="userSpaceOnUse" x="0" y="16" width="2049" height="488">
<path d="M2049 142.181C1952.07 148.2 1861.18 201.649 1750.48 333.109C1710.54 380.533 1666.18 416.771 1619.22 443.26C1519.65 499.434 1408.39 511.783 1302.92 494.016C1197.41 476.242 1097.72 428.335 1021.32 364.001C977.977 327.503 942.137 285.72 917.001 241.166C849.406 121.342 786.641 36.0587 710.111 19.1724C633.54 2.28017 543.455 53.8643 421.39 207.823C366.948 276.493 303.926 317.57 238.184 337.574C167.931 358.954 94.5389 356.287 25.1581 337.536C16.709 335.252 8.31848 332.729 0.0012207 329.983V332.12C8.14868 334.799 16.3606 337.264 24.634 339.5C94.3486 358.339 168.121 361.012 238.77 339.512C304.895 319.391 368.266 278.1 422.979 209.085C544.48 55.8375 633.903 4.43488 709.675 21.1514C785.485 37.8767 847.91 122.806 915.239 242.158C940.495 286.93 976.493 328.902 1020.02 365.553C1096.68 430.106 1196.72 478.183 1302.58 496.015C1408.47 513.856 1520.2 501.446 1620.22 445.025C1667.38 418.419 1711.93 382.026 1752.03 334.412C1862.11 203.687 1952.56 150.451 2049 144.368V142.181Z" fill="white"/>
</mask>
<g mask="url(#mask2_1_298)">
<path d="M2048.99 513.859H0.00219727V2.29187H2048.99V513.859Z" fill="url(#paint2_linear_1_298)"/>
</g>
<mask id="mask3_1_298" style="mask-type:luminance" maskUnits="userSpaceOnUse" x="0" y="24" width="2049" height="512">
<path d="M2049 195.893C1948.39 195.536 1853.46 244.936 1734.62 376.818C1693.12 422.872 1647.57 457.602 1599.75 482.501C1498.34 535.3 1386.72 543.913 1281.91 522.615C1177.07 501.314 1079.04 450.087 1004.84 383.224C962.753 345.294 928.337 302.332 904.708 256.954C841.171 134.935 781.307 47.5935 705.377 28.1485C629.418 8.69465 537.653 57.2282 410.487 207.007C353.774 273.805 289.411 312.742 223.031 330.53C152.092 349.542 78.8324 344.416 10.1307 323.352C6.74255 322.312 3.36597 321.233 0.0012207 320.117V322.254C3.16895 323.3 6.34717 324.312 9.53638 325.29C78.5835 346.459 152.227 351.609 223.555 332.495C290.316 314.604 355.033 275.459 412.039 208.318C538.616 59.2307 629.711 10.8611 704.877 30.11C780.075 49.3706 839.613 136.346 902.902 257.894C926.642 303.485 961.214 346.641 1003.48 384.735C1077.93 451.823 1176.31 503.226 1281.52 524.603C1386.75 545.986 1498.84 537.335 1600.68 484.305C1648.71 459.297 1694.46 424.421 1736.13 378.177C1854.35 246.983 1948.85 197.779 2049 198.075V195.893Z" fill="white"/>
</mask>
<g mask="url(#mask3_1_298)">
<path d="M2048.99 545.975H0.00219727V8.70343H2048.99V545.975Z" fill="url(#paint3_linear_1_298)"/>
</g>
<mask id="mask4_1_298" style="mask-type:luminance" maskUnits="userSpaceOnUse" x="0" y="32" width="2049" height="536">
<path d="M2049 250.739C1944.65 243.338 1845.73 288.212 1718.26 420.46C1675.23 465.097 1628.54 498.281 1579.92 521.558C1476.8 570.923 1364.96 575.783 1260.92 550.978C1156.84 526.169 1060.59 471.684 988.68 402.373C947.881 363.047 914.922 318.954 892.834 272.813C833.427 148.727 776.527 59.4238 701.296 37.4434C626.031 15.4514 532.691 60.8788 400.574 206.304C341.651 271.165 276.014 307.92 209.078 323.472C138.757 339.808 66.9757 332.758 0.0012207 310.324V312.464C67.125 334.84 139.047 341.825 209.529 325.451C276.855 309.809 342.851 272.86 402.076 207.671C533.583 62.9164 626.253 17.6266 700.734 39.3903C775.247 61.1628 831.835 150.088 891.007 273.688C913.207 320.055 946.306 364.347 987.272 403.834C1059.43 473.388 1156.02 528.063 1260.45 552.957C1364.9 577.862 1477.22 572.97 1580.79 523.385C1629.63 500.005 1676.53 466.684 1719.73 421.865C1846.58 290.255 1945.08 245.569 2049 252.917V250.739Z" fill="white"/>
</mask>
<g mask="url(#mask4_1_298)">
<path d="M2048.99 577.856H0.00219727V15.466H2048.99V577.856Z" fill="url(#paint4_linear_1_298)"/>
</g>
<mask id="mask5_1_298" style="mask-type:luminance" maskUnits="userSpaceOnUse" x="0" y="40" width="2049" height="561">
<path d="M2049 306.899C1940.85 291.702 1838.02 331.473 1701.4 464.011C1656.9 507.178 1609.12 538.775 1559.74 560.407C1455.02 606.289 1343.08 607.392 1239.93 579.112C1136.75 550.825 1042.38 493.137 972.83 421.449C933.378 380.779 901.918 335.607 881.39 288.751C826.178 162.736 772.305 71.5763 697.862 47.0841C623.376 22.5773 528.566 64.8458 391.639 205.759C330.57 268.603 263.739 303.137 196.317 316.434C129.822 329.547 62.7278 322.014 0.0012207 300.628V302.777C62.8566 324.098 130.068 331.567 196.706 318.428C264.515 305.051 331.712 270.339 393.094 207.171C529.382 66.9127 623.519 24.7642 697.224 49.0134C770.967 73.2743 824.539 164.044 879.531 289.559C900.159 336.643 931.756 382.024 971.375 422.863C1041.16 494.794 1135.86 552.682 1239.4 581.067C1342.96 609.462 1455.37 608.347 1560.55 562.266C1610.15 540.538 1658.13 508.809 1702.81 465.466C1838.83 333.513 1941.26 293.927 2049 309.08V306.899Z" fill="white"/>
</mask>
<g mask="url(#mask5_1_298)">
<path d="M2048.99 609.474H0.00219727V22.5801H2048.99V609.474Z" fill="url(#paint5_linear_1_298)"/>
</g>
<mask id="mask6_1_298" style="mask-type:luminance" maskUnits="userSpaceOnUse" x="0" y="49" width="2049" height="584">
<path d="M2049 364.493C1937 340.666 1830.39 374.716 1684.03 507.456C1638.11 549.11 1589.3 579.083 1539.22 599.049C1433.02 641.388 1321.1 638.735 1218.96 607.009C1116.79 575.271 1024.4 514.453 957.302 440.473C919.238 398.503 889.312 352.3 870.365 304.779C819.416 176.984 768.631 84.0654 695.052 57.0877C621.432 30.0953 525.252 69.1611 383.676 205.396C320.534 266.161 252.579 298.432 184.75 309.458C121.766 319.695 58.8662 311.624 0.0012207 291.052V293.198C58.9775 313.706 121.973 321.718 185.072 311.46C253.293 300.37 321.617 267.933 385.082 206.86C526.001 71.2543 621.502 32.2881 694.349 58.9936C767.24 85.7195 817.735 178.237 868.482 305.523C887.517 353.275 917.575 399.686 955.803 441.831C1023.14 516.069 1115.84 577.101 1218.36 608.947C1320.91 640.799 1433.3 643.457 1539.96 600.931C1590.26 580.88 1639.28 550.779 1685.39 508.958C1831.15 376.757 1937.37 342.891 2049 366.695V364.493Z" fill="white"/>
</mask>
<g mask="url(#mask6_1_298)">
<path d="M2048.99 643.463H0.00219727V30.1041H2048.99V643.463Z" fill="url(#paint6_linear_1_298)"/>
</g>
<mask id="mask7_1_298" style="mask-type:luminance" maskUnits="userSpaceOnUse" x="0" y="57" width="2049" height="609">
<path d="M2049 423.689C1933.09 390.279 1822.88 417.945 1666.17 550.779C1618.87 590.869 1569.07 619.19 1518.36 637.461C1410.8 676.214 1299.03 669.805 1198.02 634.672C1096.97 599.526 1006.67 535.64 942.096 459.447C905.458 416.221 877.098 369.04 859.761 320.913C813.127 191.481 765.49 96.9086 692.853 67.4776C620.179 38.0319 522.746 73.848 376.677 205.256C311.529 263.866 242.531 293.839 174.371 302.583C114.569 310.254 55.3912 301.591 0.0012207 281.598V283.756C55.479 303.67 114.73 312.274 174.626 304.592C243.184 295.797 312.559 265.669 378.035 206.766C523.428 75.9646 620.179 40.2247 692.092 69.3629C764.043 98.5159 811.406 192.676 857.852 321.595C875.277 369.962 903.76 417.357 940.545 460.758C1005.35 537.212 1095.95 601.318 1197.35 636.586C1298.78 671.864 1411.01 678.29 1519.04 639.37C1569.99 621.014 1619.99 592.576 1667.48 552.33C1823.61 419.991 1933.42 392.51 2049 425.914V423.689Z" fill="white"/>
</mask>
<g mask="url(#mask7_1_298)">
<path d="M2048.99 678.301H0.00219727V38.0378H2048.99V678.301Z" fill="url(#paint7_linear_1_298)"/>
</g>
<mask id="mask8_1_298" style="mask-type:luminance" maskUnits="userSpaceOnUse" x="0" y="66" width="2049" height="634">
<path d="M2049 484.77C1929.1 440.728 1815.58 461.177 1647.81 593.969C1599.2 632.447 1548.48 659.079 1497.17 675.64C1388.38 710.76 1276.89 700.607 1177.11 662.1C1077.29 623.585 989.19 556.701 927.207 478.388C892.04 433.959 865.285 385.853 849.57 337.167C807.307 206.245 762.872 110.13 691.264 78.2774C619.62 46.4106 521.036 78.9333 370.643 205.367C303.566 261.755 233.599 289.398 165.182 295.847C108.211 301.219 52.2997 291.907 0.0012207 272.277V274.438C52.3671 293.988 108.337 303.242 165.372 297.864C234.179 291.377 304.526 263.594 371.946 206.916C521.645 81.0704 619.543 48.5946 690.438 80.1277C761.367 111.681 805.542 207.378 847.638 337.788C863.429 386.705 890.304 435.028 925.62 479.644C987.819 558.229 1076.22 625.344 1176.37 663.991C1276.56 702.653 1388.52 712.844 1497.79 677.57C1549.32 660.938 1600.25 634.194 1649.07 595.559C1816.27 463.22 1929.4 442.964 2049 487.03V484.77Z" fill="white"/>
</mask>
<g mask="url(#mask8_1_298)">
<path d="M2048.99 712.847H0.00219727V46.4108H2048.99V712.847Z" fill="url(#paint8_linear_1_298)"/>
</g>
<mask id="mask9_1_298" style="mask-type:luminance" maskUnits="userSpaceOnUse" x="0" y="76" width="2049" height="657">
<path d="M2049 547.91C1925.01 492.025 1808.55 504.409 1628.96 637.002C1579.09 673.822 1527.51 698.739 1475.67 713.57C1365.76 745.018 1254.67 731.13 1156.24 689.301C1057.77 647.454 971.967 577.654 912.645 497.303C878.992 451.721 853.865 402.745 839.792 353.559C801.947 221.29 760.761 123.74 690.259 89.4991C619.725 55.2463 520.105 84.4431 365.555 205.757C296.622 259.864 225.771 285.141 157.175 289.292C102.675 292.592 49.5858 282.559 0.0012207 263.067V265.245C49.6327 284.649 102.757 294.621 157.295 291.318C226.283 287.144 297.526 261.735 366.808 207.355C520.647 86.6007 619.578 57.4302 689.375 91.3259C759.204 125.239 800.14 222.368 837.836 354.112C851.976 403.53 877.215 452.731 911.014 498.51C970.541 579.138 1056.64 649.178 1155.44 691.165C1254.28 733.167 1365.83 747.112 1476.23 715.523C1528.28 700.627 1580.08 675.608 1630.17 638.63C1809.2 506.452 1925.28 494.288 2049 550.228V547.91Z" fill="white"/>
</mask>
<g mask="url(#mask9_1_298)">
<path d="M2048.99 747.1H0.00219727V55.252H2048.99V747.1Z" fill="url(#paint9_linear_1_298)"/>
</g>
<mask id="mask10_1_298" style="mask-type:luminance" maskUnits="userSpaceOnUse" x="0" y="85" width="2049" height="682">
<path d="M2049 613.461C1920.8 544.376 1801.88 547.658 1609.63 679.862C1558.55 714.987 1506.16 738.159 1453.85 751.242C1342.94 778.987 1232.39 761.378 1135.42 716.267C1038.41 671.138 954.998 598.499 898.405 516.204C866.301 469.521 842.83 419.728 830.415 370.094C797.031 236.631 759.142 137.755 689.829 101.169C620.486 64.5678 519.944 90.4038 361.406 206.465C290.696 258.231 219.038 281.113 150.345 282.963C97.9408 284.371 47.2438 273.542 0.0012207 253.959V256.152C47.2729 275.635 97.976 286.397 150.391 284.986C219.485 283.127 291.539 260.128 362.607 208.102C520.409 92.579 620.264 66.743 688.883 102.963C757.535 139.201 795.193 237.647 828.444 370.586C840.919 420.448 864.495 470.466 896.739 517.355C953.526 599.936 1037.23 672.827 1134.56 718.108C1231.93 763.404 1342.95 781.078 1454.35 753.216C1506.87 740.077 1559.48 716.805 1610.78 681.531C1802.49 549.699 1921.02 546.651 2049 615.836V613.461Z" fill="white"/>
</mask>
<g mask="url(#mask10_1_298)">
<path d="M2048.99 781.089H0.00219727V64.5618H2048.99V781.089Z" fill="url(#paint10_linear_1_298)"/>
</g>
<mask id="mask11_1_298" style="mask-type:luminance" maskUnits="userSpaceOnUse" x="0" y="95" width="2049" height="706">
<path d="M2049 681.759C1916.39 597.919 1795.66 590.942 1589.82 722.537C1537.59 755.929 1484.46 777.327 1431.74 788.648C1319.96 812.654 1210.06 791.347 1114.65 743.007C1019.21 694.649 938.288 619.252 884.49 535.104C853.97 487.37 832.183 436.816 821.442 386.796C792.555 252.287 758.004 152.193 689.961 113.303C621.883 74.3925 520.529 96.8442 358.186 207.519C285.778 256.881 213.39 277.348 144.671 276.891C93.9799 276.551 45.2646 264.826 0.0012207 244.916V247.135C45.2734 266.931 93.9768 278.577 144.662 278.917C213.777 279.374 286.559 258.804 359.331 209.193C520.919 99.0341 621.587 76.5648 688.951 115.066C756.352 153.587 790.681 253.239 819.454 387.217C830.248 437.472 852.132 488.251 882.781 536.193C936.768 620.637 1017.98 696.297 1113.74 744.819C1209.53 793.353 1319.9 814.747 1432.16 790.636C1485.1 779.268 1538.46 757.777 1590.91 724.244C1796.22 592.98 1916.57 600.22 2049 684.212V681.759Z" fill="white"/>
</mask>
<g mask="url(#mask11_1_298)">
<path d="M2048.99 814.756H0.00219727V74.3984H2048.99V814.756Z" fill="url(#paint11_linear_1_298)"/>
</g>
<mask id="mask12_1_298" style="mask-type:luminance" maskUnits="userSpaceOnUse" x="0" y="105" width="2049" height="730">
<path d="M2049 753.186C1911.71 652.814 1789.98 634.279 1569.54 765.005C1516.21 796.632 1462.39 816.238 1409.33 825.782C1296.82 846.023 1187.69 821.036 1093.96 769.519C1000.2 717.991 921.843 639.918 870.897 554.011C841.993 505.272 821.916 454.013 812.858 403.667C788.5 268.266 757.33 167.071 690.631 125.921C623.897 84.7476 521.85 103.783 355.885 208.948C281.861 255.851 208.826 273.879 140.16 271.115C90.774 269.127 43.637 256.386 0.0012207 235.902V238.142C43.6282 258.497 90.7332 271.153 140.083 273.141C209.142 275.919 282.575 257.803 356.971 210.663C522.169 105.984 623.531 86.9052 689.565 127.646C755.635 168.406 786.603 269.156 810.864 404.027C819.966 454.622 840.131 506.107 869.153 555.044C920.274 641.25 998.9 719.592 1092.98 771.302C1187.09 823.024 1296.67 848.105 1409.69 827.775C1462.99 818.188 1517.04 798.502 1570.58 766.753C1790.52 636.323 1911.84 655.177 2049 755.76V753.186Z" fill="white"/>
</mask>
<g mask="url(#mask12_1_298)">
<path d="M2048.99 848.102H0.00219727V84.7622H2048.99V848.102Z" fill="url(#paint12_linear_1_298)"/>
</g>
<mask id="mask13_1_298" style="mask-type:luminance" maskUnits="userSpaceOnUse" x="0" y="116" width="2049" height="754">
<path d="M2049 828.261C1906.63 709.322 1784.98 677.71 1548.8 807.259C1494.44 837.076 1439.99 854.862 1386.64 862.623C1273.51 879.076 1165.28 850.441 1073.33 795.809C981.352 741.163 905.665 660.505 857.632 572.938C830.38 523.259 812.035 471.359 804.672 420.735C784.873 284.591 757.117 182.403 691.831 139.037C626.517 95.6499 523.887 111.251 354.488 210.786C278.933 255.18 205.336 270.743 136.796 265.675C88.309 262.092 42.3429 248.177 0.0012207 226.847V229.122C42.3196 250.309 88.23 264.121 136.652 267.701C205.577 272.795 279.571 257.153 355.513 212.534C524.13 113.458 626.078 97.7929 690.71 140.729C755.372 183.685 782.941 285.416 802.664 421.019C810.062 471.892 828.485 524.026 855.853 573.915C904.052 661.784 980.003 742.72 1072.3 797.557C1164.62 852.408 1273.3 881.157 1386.93 864.631C1440.52 856.838 1495.2 838.976 1549.78 809.039C1785.47 679.754 1906.69 711.726 2049 830.94V828.261Z" fill="white"/>
</mask>
<g mask="url(#mask13_1_298)">
<path d="M2048.99 881.154H0.00219727V95.6527H2048.99V881.154Z" fill="url(#paint13_linear_1_298)"/>
</g>
<mask id="mask14_1_298" style="mask-type:luminance" maskUnits="userSpaceOnUse" x="0" y="127" width="2035" height="767">
<path d="M1230.16 893.857C1166.45 881.693 1106.56 856.322 1052.79 821.879C962.692 764.173 889.754 681.024 844.687 591.897C819.117 541.328 802.521 488.842 796.865 437.996C781.641 301.266 757.331 198.206 693.539 152.673C629.72 107.117 526.625 119.267 353.976 213.064C276.978 254.893 202.898 267.979 134.568 260.616C86.5586 255.443 41.3743 240.17 0.00158691 217.68V219.99C41.3333 242.31 86.4386 257.472 134.354 262.634C203.071 270.037 277.552 256.89 354.948 214.844C526.792 121.483 629.208 109.245 692.362 154.327C755.548 199.427 779.686 302.027 794.845 438.219C800.533 489.308 817.2 542.028 842.875 592.807C888.097 682.248 961.29 765.687 1051.69 823.589C1102.89 856.384 1159.62 880.984 1219.91 893.857H1230.16ZM2034.35 893.857C1892.85 764.744 1772.35 725.523 1527.6 849.275C1484.27 871.186 1441.13 885.718 1398.72 893.857H1408.91C1448.34 885.396 1488.35 871.399 1528.52 851.088C1771.07 728.442 1891.14 766.6 2031.32 893.857H2034.35Z" fill="white"/>
</mask>
<g mask="url(#mask14_1_298)">
<path d="M2034.35 893.86H0.00158691V107.129H2034.35V893.86Z" fill="url(#paint14_linear_1_298)"/>
</g>
<mask id="mask15_1_298" style="mask-type:luminance" maskUnits="userSpaceOnUse" x="0" y="138" width="1944" height="756">
<path d="M1113.46 893.857C1085.06 880.905 1057.93 865.371 1032.33 847.733C944.226 787.038 874.113 701.485 832.061 610.891C808.207 559.497 793.382 506.481 789.433 455.477C778.809 318.313 757.967 214.495 695.738 166.843C633.486 119.176 530.043 127.856 354.346 215.804C275.986 255.031 201.506 265.623 133.463 255.97C85.4883 249.167 40.705 232.295 0.00268555 208.303V210.654C40.6522 234.453 85.3361 251.193 133.185 257.979C201.611 267.687 276.49 257.042 355.251 217.616C530.133 130.078 632.901 121.284 694.509 168.459C756.143 215.652 776.827 319.001 787.407 455.626C791.377 506.879 806.263 560.129 830.22 611.74C872.415 702.647 942.768 788.496 1031.18 849.398C1055.67 866.276 1081.56 881.233 1108.61 893.857H1113.46ZM1943.58 893.857C1830.8 808.84 1713.5 794.708 1505.96 891.043C1503.91 891.998 1501.85 892.936 1499.8 893.857H1504.71L1506.81 892.888C1711.85 797.715 1828.47 810.874 1940.06 893.857H1943.58Z" fill="white"/>
</mask>
<g mask="url(#mask15_1_298)">
<path d="M1943.57 893.86H0.00292969V119.161H1943.57V893.86Z" fill="url(#paint15_linear_1_298)"/>
</g>
<mask id="mask16_1_298" style="mask-type:luminance" maskUnits="userSpaceOnUse" x="0" y="149" width="1828" height="745">
<path d="M1041.65 893.857C1031.53 887.352 1021.63 880.513 1011.96 873.367C925.946 809.747 858.744 721.89 819.757 629.941C797.639 577.774 784.602 524.293 782.366 473.18C776.349 335.736 759.006 231.279 698.414 181.569C637.793 131.835 534.115 137.043 355.567 219.045C275.937 255.616 201.146 263.702 133.463 251.772C85.0756 243.244 40.3156 224.481 0.00268555 198.584V200.993C40.2454 226.668 84.8851 245.273 133.111 253.775C201.175 265.772 276.37 257.645 356.41 220.886C534.132 139.262 637.137 133.922 697.126 183.135C757.145 232.374 774.347 336.362 780.34 473.268C782.588 524.621 795.677 578.342 817.889 630.728C857.013 723 924.444 811.161 1010.76 874.994C1019.61 881.546 1028.68 887.838 1037.92 893.857H1041.65ZM1827.71 893.857C1762.6 868.202 1688.47 866.279 1591.51 893.857H1599.1C1689.41 869.268 1759.67 870.916 1821.55 893.857H1827.71Z" fill="white"/>
</mask>
<g mask="url(#mask16_1_298)">
<path d="M1827.7 893.86H0.00378418V131.838H1827.7V893.86Z" fill="url(#paint16_linear_1_298)"/>
</g>
<mask id="mask17_1_298" style="mask-type:luminance" maskUnits="userSpaceOnUse" x="-1" y="161" width="987" height="733">
<path d="M985.572 893.857C904.73 827.898 842.764 739.974 807.765 649.052C787.41 596.171 776.177 542.28 775.655 491.123C774.259 353.556 760.429 248.575 701.538 196.86C642.62 145.12 538.825 146.842 357.628 222.804C276.809 256.688 201.789 262.259 134.549 248.066C85.2744 237.664 40.1631 216.644 -0.000427246 188.372V190.846C40.087 218.857 85.0519 239.69 134.136 250.051C201.757 264.329 277.184 258.734 358.407 224.68C538.773 149.067 641.9 147.184 700.203 198.385C758.535 249.606 772.236 354.115 773.629 491.141C774.153 542.54 785.434 596.672 805.877 649.775C840.721 740.296 902.192 827.854 982.364 893.857H985.572Z" fill="white"/>
</mask>
<g mask="url(#mask17_1_298)">
<path d="M985.572 893.86H-0.000427246V145.129H985.572V893.86Z" fill="url(#paint17_linear_1_298)"/>
</g>
<mask id="mask18_1_298" style="mask-type:luminance" maskUnits="userSpaceOnUse" x="0" y="173" width="939" height="721">
<path d="M938.74 893.857C873.531 829.093 824.277 749.474 796.096 668.234C777.527 614.7 768.106 560.46 769.303 509.312C772.521 371.777 762.221 266.393 705.104 212.733C647.955 159.044 544.16 157.281 360.515 227.122C278.607 258.272 203.438 261.325 136.716 244.884C86.0449 232.395 40.2252 208.664 6.10352e-05 177.455V180.023C40.1403 210.921 85.7902 234.423 136.23 246.854C203.336 263.392 278.909 260.33 361.232 229.022C544.031 159.504 647.161 161.084 703.713 214.211C760.295 267.365 770.483 372.275 767.28 509.271C766.077 560.656 775.536 615.133 794.182 668.892C822.254 749.82 871.16 829.137 935.871 893.857H938.74Z" fill="white"/>
</mask>
<g mask="url(#mask18_1_298)">
<path d="M938.732 893.86H0.0010376V157.279H938.732V893.86Z" fill="url(#paint18_linear_1_298)"/>
</g>
<mask id="mask19_1_298" style="mask-type:luminance" maskUnits="userSpaceOnUse" x="0" y="165" width="899" height="729">
<path d="M898.416 893.857C846.188 831.947 807.219 760.081 784.741 687.5C767.977 633.372 760.383 578.848 763.296 527.771C771.127 390.42 764.37 284.749 709.083 229.201C653.766 173.623 550.091 168.383 364.207 232.02C281.298 260.403 206.073 260.933 139.933 242.261C87.313 227.403 40.4364 200.39 0.000549316 165.584V168.254C40.3515 202.7 87.0406 229.435 139.386 244.213C205.898 262.991 281.532 262.47 364.857 233.943C549.887 170.596 652.908 175.637 707.646 230.629C762.409 285.653 769.072 390.844 761.27 527.659C758.346 578.977 765.969 633.741 782.803 688.094C805.202 760.42 843.913 832.032 895.764 893.857H898.416Z" fill="white"/>
</mask>
<g mask="url(#mask19_1_298)">
<path d="M898.42 893.86H0.00152588V165.593H898.42V893.86Z" fill="url(#paint19_linear_1_298)"/>
</g>
<mask id="mask20_1_298" style="mask-type:luminance" maskUnits="userSpaceOnUse" x="0" y="152" width="864" height="742">
<path d="M863.098 893.857C821.813 835.911 791.345 771.449 773.692 706.857C758.755 652.199 752.997 597.453 757.62 546.501C770.056 409.49 766.85 303.649 713.46 246.277C660.04 188.879 556.6 180.161 368.681 237.527C284.867 263.111 209.666 261.114 144.193 240.235C89.0168 222.637 40.7321 191.619 0.00354004 152.392V155.206C40.6472 193.996 88.7212 224.666 143.581 242.164C209.426 263.164 285.034 265.178 369.269 239.465C556.319 182.365 659.112 190.858 711.976 247.662C764.862 304.492 767.989 409.847 755.602 546.32C750.956 597.512 756.738 652.504 771.739 707.39C789.334 771.768 819.614 836.02 860.615 893.857H863.098Z" fill="white"/>
</mask>
<g mask="url(#mask20_1_298)">
<path d="M863.086 893.86H0.003479V152.389H863.086V893.86Z" fill="url(#paint20_linear_1_298)"/>
</g>
<mask id="mask21_1_298" style="mask-type:luminance" maskUnits="userSpaceOnUse" x="0" y="137" width="832" height="757">
<path d="M831.904 893.857C799.894 840.671 776.509 783.381 762.957 726.32C749.862 671.19 745.942 616.28 752.274 565.513C769.301 429 769.646 323.112 718.208 263.977C666.747 204.819 563.655 192.632 373.918 243.66C289.29 266.419 214.198 261.899 149.463 238.832C91.0195 218.008 40.9987 182.06 0.00360107 137.421V140.401C40.9343 184.528 90.7209 220.055 148.79 240.747C213.893 263.945 289.39 268.495 374.442 245.621C563.301 194.831 665.752 206.772 716.675 265.312C767.626 323.884 767.216 429.286 750.257 565.267C743.895 616.277 747.827 671.427 760.978 726.788C774.488 783.671 797.736 840.782 829.539 893.857H831.904Z" fill="white"/>
</mask>
<g mask="url(#mask21_1_298)">
<path d="M831.91 893.86H0.00646973V137.429H831.91V893.86Z" fill="url(#paint21_linear_1_298)"/>
</g>
<mask id="mask22_1_298" style="mask-type:luminance" maskUnits="userSpaceOnUse" x="0" y="119" width="805" height="775">
<path d="M804.232 893.857C780.068 846.017 762.596 795.747 752.514 745.899C741.275 690.36 739.199 635.351 747.229 584.823C768.829 448.957 772.729 343.139 723.305 282.316C673.858 221.46 571.231 205.824 379.893 250.455C294.551 270.359 219.654 263.324 155.73 238.097C93.1679 213.409 41.092 171.287 0.000305176 119.949V123.187C41.0539 173.895 92.8781 215.476 154.99 239.989C219.28 265.356 294.58 272.441 380.353 252.434C570.81 208.008 672.801 223.378 721.733 283.595C770.688 343.842 766.745 449.171 745.23 584.507C737.161 635.275 739.243 690.527 750.526 746.298C760.582 796.002 777.954 846.125 801.961 893.857H804.232Z" fill="white"/>
</mask>
<g mask="url(#mask22_1_298)">
<path d="M804.238 893.86H0.000305176V119.952H804.238V893.86Z" fill="url(#paint22_linear_1_298)"/>
</g>
<mask id="mask23_1_298" style="mask-type:luminance" maskUnits="userSpaceOnUse" x="0" y="98" width="780" height="796">
<path d="M779.688 893.857C762.119 851.811 749.56 808.462 742.372 765.599C733.007 709.717 732.779 654.667 742.504 604.438C768.647 469.374 776.095 363.75 728.739 301.298C681.358 238.818 579.32 219.744 386.591 257.929C300.626 274.962 226.007 265.418 162.967 238.059C95.5978 208.827 41.4228 159.243 0.729309 100.015L0.000244141 98.9492V102.521C40.7933 161.444 94.9391 210.748 162.162 239.918C225.568 267.435 300.587 277.04 386.981 259.923C578.823 221.914 680.243 240.7 727.126 302.525C774.031 364.379 766.554 469.518 740.51 604.058C730.741 654.524 730.967 709.817 740.373 765.933C747.537 808.679 760.035 851.907 777.495 893.857H779.688Z" fill="white"/>
</mask>
<g mask="url(#mask23_1_298)">
<path d="M779.676 893.86H0.000366211V98.9608H779.676V893.86Z" fill="url(#paint23_linear_1_298)"/>
</g>
<mask id="mask24_1_298" style="mask-type:luminance" maskUnits="userSpaceOnUse" x="0" y="72" width="765" height="822">
<path d="M757.999 893.857C745.888 857.953 737.336 821.46 732.532 785.436C725.046 729.274 726.668 674.25 738.071 624.372C768.732 490.259 779.725 384.942 734.49 320.942C689.236 256.907 587.892 234.42 393.986 266.114C307.502 280.252 233.246 268.208 171.155 238.747C104.807 207.27 52.3273 155.9 13.6422 95.3424C8.8877 87.8975 4.34406 80.318 0.00537109 72.6155V76.717C3.82495 83.3841 7.80157 89.9546 11.9353 96.4285C50.8137 157.293 103.572 208.93 170.289 240.583C232.731 270.207 307.388 282.325 394.311 268.117C587.318 236.566 688.05 258.746 732.831 322.11C777.634 385.504 766.633 490.333 736.092 623.919C724.636 674.027 723.006 729.297 730.521 785.7C735.313 821.636 743.818 858.035 755.859 893.857H757.999Z" fill="white"/>
</mask>
<g mask="url(#mask24_1_298)">
<path d="M779.711 893.86H0.00634766V72.6125H779.711V893.86Z" fill="url(#paint24_linear_1_298)"/>
</g>
<mask id="mask25_1_298" style="mask-type:luminance" maskUnits="userSpaceOnUse" x="0" y="37" width="768" height="857">
<path d="M738.949 893.857C731.229 864.364 725.881 834.696 722.971 805.417C717.376 749.032 720.842 694.093 733.914 644.628C769.057 511.622 783.575 406.735 740.516 341.248C697.433 275.732 596.903 249.858 402.045 275.029C315.137 286.253 241.327 271.724 180.26 240.199C115.004 206.512 64.2778 153.408 27.6479 91.5834C17.3135 74.1408 8.10034 56.0044 -0.000244141 37.4142V42.4379C7.67584 59.6317 16.3035 76.4214 25.9001 92.6168C62.7146 154.749 113.71 208.128 179.329 242.003C240.741 273.706 314.947 288.323 402.3 277.037C596.259 251.983 696.192 277.529 738.824 342.361C781.473 407.224 766.958 511.625 731.95 644.113C718.819 693.809 715.336 748.991 720.954 805.616C723.855 834.828 729.183 864.429 736.856 893.857H738.949Z" fill="white"/>
</mask>
<g mask="url(#mask25_1_298)">
<path d="M783.568 893.86H-0.000732422V37.423H783.568V893.86Z" fill="url(#paint25_linear_1_298)"/>
</g>
</g>
<defs>
<linearGradient id="paint0_linear_1_298" x1="-520661" y1="1.11201e+06" x2="-1.41073e+07" y2="-5.26055e+06" gradientUnits="userSpaceOnUse">
<stop stop-color="#0131B8"/>
<stop offset="0.45" stop-color="#39D4FF"/>
<stop offset="1" stop-color="#FA00FF"/>
</linearGradient>
<linearGradient id="paint1_linear_1_298" x1="-539040" y1="1.15119e+06" x2="-1.41257e+07" y2="-5.22138e+06" gradientUnits="userSpaceOnUse">
<stop stop-color="#0131B8"/>
<stop offset="0.45" stop-color="#39D4FF"/>
<stop offset="1" stop-color="#FA00FF"/>
</linearGradient>
<linearGradient id="paint2_linear_1_298" x1="-558136" y1="1.19191e+06" x2="-1.41447e+07" y2="-5.18064e+06" gradientUnits="userSpaceOnUse">
<stop stop-color="#0131B8"/>
<stop offset="0.45" stop-color="#39D4FF"/>
<stop offset="1" stop-color="#FA00FF"/>
</linearGradient>
<linearGradient id="paint3_linear_1_298" x1="-577906" y1="1.23406e+06" x2="-1.41645e+07" y2="-5.13851e+06" gradientUnits="userSpaceOnUse">
<stop stop-color="#0131B8"/>
<stop offset="0.45" stop-color="#39D4FF"/>
<stop offset="1" stop-color="#FA00FF"/>
</linearGradient>
<linearGradient id="paint4_linear_1_298" x1="-598468" y1="1.2779e+06" x2="-1.41851e+07" y2="-5.09469e+06" gradientUnits="userSpaceOnUse">
<stop stop-color="#0131B8"/>
<stop offset="0.45" stop-color="#39D4FF"/>
<stop offset="1" stop-color="#FA00FF"/>
</linearGradient>
<linearGradient id="paint5_linear_1_298" x1="-619824" y1="1.32343e+06" x2="-1.42065e+07" y2="-5.04914e+06" gradientUnits="userSpaceOnUse">
<stop stop-color="#0131B8"/>
<stop offset="0.45" stop-color="#39D4FF"/>
<stop offset="1" stop-color="#FA00FF"/>
</linearGradient>
<linearGradient id="paint6_linear_1_298" x1="-642852" y1="1.37253e+06" x2="-1.42294e+07" y2="-5.00002e+06" gradientUnits="userSpaceOnUse">
<stop stop-color="#0131B8"/>
<stop offset="0.45" stop-color="#39D4FF"/>
<stop offset="1" stop-color="#FA00FF"/>
</linearGradient>
<linearGradient id="paint7_linear_1_298" x1="-667157" y1="1.42434e+06" x2="-1.42538e+07" y2="-4.94821e+06" gradientUnits="userSpaceOnUse">
<stop stop-color="#0131B8"/>
<stop offset="0.45" stop-color="#39D4FF"/>
<stop offset="1" stop-color="#FA00FF"/>
</linearGradient>
<linearGradient id="paint8_linear_1_298" x1="-692495" y1="1.47837e+06" x2="-1.42791e+07" y2="-4.8942e+06" gradientUnits="userSpaceOnUse">
<stop stop-color="#0131B8"/>
<stop offset="0.45" stop-color="#39D4FF"/>
<stop offset="1" stop-color="#FA00FF"/>
</linearGradient>
<linearGradient id="paint9_linear_1_298" x1="-718943" y1="1.53475e+06" x2="-1.43056e+07" y2="-4.83781e+06" gradientUnits="userSpaceOnUse">
<stop stop-color="#0131B8"/>
<stop offset="0.45" stop-color="#39D4FF"/>
<stop offset="1" stop-color="#FA00FF"/>
</linearGradient>
<linearGradient id="paint10_linear_1_298" x1="-746503" y1="1.59351e+06" x2="-1.43331e+07" y2="-4.77905e+06" gradientUnits="userSpaceOnUse">
<stop stop-color="#0131B8"/>
<stop offset="0.45" stop-color="#39D4FF"/>
<stop offset="1" stop-color="#FA00FF"/>
</linearGradient>
<linearGradient id="paint11_linear_1_298" x1="-775312" y1="1.65494e+06" x2="-1.43619e+07" y2="-4.71763e+06" gradientUnits="userSpaceOnUse">
<stop stop-color="#0131B8"/>
<stop offset="0.45" stop-color="#39D4FF"/>
<stop offset="1" stop-color="#FA00FF"/>
</linearGradient>
<linearGradient id="paint12_linear_1_298" x1="-805374" y1="1.71903e+06" x2="-1.4392e+07" y2="-4.65353e+06" gradientUnits="userSpaceOnUse">
<stop stop-color="#0131B8"/>
<stop offset="0.45" stop-color="#39D4FF"/>
<stop offset="1" stop-color="#FA00FF"/>
</linearGradient>
<linearGradient id="paint13_linear_1_298" x1="-836696" y1="1.78581e+06" x2="-1.44233e+07" y2="-4.58676e+06" gradientUnits="userSpaceOnUse">
<stop stop-color="#0131B8"/>
<stop offset="0.45" stop-color="#39D4FF"/>
<stop offset="1" stop-color="#FA00FF"/>
</linearGradient>
<linearGradient id="paint14_linear_1_298" x1="-961801" y1="1.80007e+06" x2="-1.44514e+07" y2="-4.52697e+06" gradientUnits="userSpaceOnUse">
<stop stop-color="#0131B8"/>
<stop offset="0.45" stop-color="#39D4FF"/>
<stop offset="1" stop-color="#FA00FF"/>
</linearGradient>
<linearGradient id="paint15_linear_1_298" x1="-1.59904e+06" y1="1.59288e+06" x2="-1.44866e+07" y2="-4.45182e+06" gradientUnits="userSpaceOnUse">
<stop stop-color="#0131B8"/>
<stop offset="0.45" stop-color="#39D4FF"/>
<stop offset="1" stop-color="#FA00FF"/>
</linearGradient>
<linearGradient id="paint16_linear_1_298" x1="-2.40904e+06" y1="1.32132e+06" x2="-1.45283e+07" y2="-4.36301e+06" gradientUnits="userSpaceOnUse">
<stop stop-color="#0131B8"/>
<stop offset="0.45" stop-color="#39D4FF"/>
<stop offset="1" stop-color="#FA00FF"/>
</linearGradient>
<linearGradient id="paint17_linear_1_298" x1="-8.24028e+06" y1="-770691" x2="-1.47755e+07" y2="-3.83593e+06" gradientUnits="userSpaceOnUse">
<stop stop-color="#0131B8"/>
<stop offset="0.45" stop-color="#39D4FF"/>
<stop offset="1" stop-color="#FA00FF"/>
</linearGradient>
<linearGradient id="paint18_linear_1_298" x1="-8.59925e+06" y1="-813166" x2="-1.48239e+07" y2="-3.73271e+06" gradientUnits="userSpaceOnUse">
<stop stop-color="#0131B8"/>
<stop offset="0.45" stop-color="#39D4FF"/>
<stop offset="1" stop-color="#FA00FF"/>
</linearGradient>
<linearGradient id="paint19_linear_1_298" x1="-8.90506e+06" y1="-856504" x2="-1.48624e+07" y2="-3.65068e+06" gradientUnits="userSpaceOnUse">
<stop stop-color="#0131B8"/>
<stop offset="0.45" stop-color="#39D4FF"/>
<stop offset="1" stop-color="#FA00FF"/>
</linearGradient>
<linearGradient id="paint20_linear_1_298" x1="-9.12736e+06" y1="-991997" x2="-1.48504e+07" y2="-3.67627e+06" gradientUnits="userSpaceOnUse">
<stop stop-color="#0131B8"/>
<stop offset="0.45" stop-color="#39D4FF"/>
<stop offset="1" stop-color="#FA00FF"/>
</linearGradient>
<linearGradient id="paint21_linear_1_298" x1="-9.31528e+06" y1="-1.1291e+06" x2="-1.48315e+07" y2="-3.7164e+06" gradientUnits="userSpaceOnUse">
<stop stop-color="#0131B8"/>
<stop offset="0.45" stop-color="#39D4FF"/>
<stop offset="1" stop-color="#FA00FF"/>
</linearGradient>
<linearGradient id="paint22_linear_1_298" x1="-9.47087e+06" y1="-1.27456e+06" x2="-1.48037e+07" y2="-3.77582e+06" gradientUnits="userSpaceOnUse">
<stop stop-color="#0131B8"/>
<stop offset="0.45" stop-color="#39D4FF"/>
<stop offset="1" stop-color="#FA00FF"/>
</linearGradient>
<linearGradient id="paint23_linear_1_298" x1="-9.59369e+06" y1="-1.43636e+06" x2="-1.47636e+07" y2="-3.86123e+06" gradientUnits="userSpaceOnUse">
<stop stop-color="#0131B8"/>
<stop offset="0.45" stop-color="#39D4FF"/>
<stop offset="1" stop-color="#FA00FF"/>
</linearGradient>
<linearGradient id="paint24_linear_1_298" x1="-9.52388e+06" y1="-1.5846e+06" x2="-1.4694e+07" y2="-4.00956e+06" gradientUnits="userSpaceOnUse">
<stop stop-color="#0131B8"/>
<stop offset="0.45" stop-color="#39D4FF"/>
<stop offset="1" stop-color="#FA00FF"/>
</linearGradient>
<linearGradient id="paint25_linear_1_298" x1="-9.40016e+06" y1="-1.78178e+06" x2="-1.45959e+07" y2="-4.21876e+06" gradientUnits="userSpaceOnUse">
<stop stop-color="#0131B8"/>
<stop offset="0.45" stop-color="#39D4FF"/>
<stop offset="1" stop-color="#FA00FF"/>
</linearGradient>
</defs>
</svg>
