<svg width="696" height="945" viewBox="0 0 696 945" fill="none" xmlns="http://www.w3.org/2000/svg">
<path opacity="0.89" d="M574.493 549.399C574.99 549.399 575.393 548.996 575.393 548.499C575.393 548.003 574.99 547.6 574.493 547.6C573.996 547.6 573.594 548.003 573.594 548.499C573.594 548.996 573.996 549.399 574.493 549.399Z" fill="white"/>
<path opacity="0.11" d="M574.493 554.795C574.99 554.795 575.393 554.393 575.393 553.896C575.393 553.399 574.99 552.997 574.493 552.997C573.996 552.997 573.594 553.399 573.594 553.896C573.594 554.393 573.996 554.795 574.493 554.795Z" fill="white"/>
<path opacity="0.96" d="M569.098 560.192C569.594 560.192 569.997 559.789 569.997 559.292C569.997 558.796 569.594 558.393 569.098 558.393C568.601 558.393 568.198 558.796 568.198 559.292C568.198 559.789 568.601 560.192 569.098 560.192Z" fill="white"/>
<path opacity="0.13" d="M561.903 561.99C562.4 561.99 562.803 561.587 562.803 561.091C562.803 560.594 562.4 560.191 561.903 560.191C561.407 560.191 561.004 560.594 561.004 561.091C561.004 561.587 561.407 561.99 561.903 561.99Z" fill="white"/>
<path opacity="0.35" d="M556.505 558.393C557.002 558.393 557.404 557.99 557.404 557.494C557.404 556.997 557.002 556.594 556.505 556.594C556.008 556.594 555.605 556.997 555.605 557.494C555.605 557.99 556.008 558.393 556.505 558.393Z" fill="white"/>
<path opacity="0.31" d="M551.111 551.198C551.608 551.198 552.011 550.795 552.011 550.298C552.011 549.802 551.608 549.399 551.111 549.399C550.615 549.399 550.212 549.802 550.212 550.298C550.212 550.795 550.615 551.198 551.111 551.198Z" fill="white"/>
<path opacity="0.23" d="M551.111 542.204C551.608 542.204 552.011 541.801 552.011 541.305C552.011 540.808 551.608 540.405 551.111 540.405C550.615 540.405 550.212 540.808 550.212 541.305C550.212 541.801 550.615 542.204 551.111 542.204Z" fill="white"/>
<path opacity="0.89" d="M556.505 535.009C557.002 535.009 557.404 534.606 557.404 534.11C557.404 533.613 557.002 533.21 556.505 533.21C556.008 533.21 555.605 533.613 555.605 534.11C555.605 534.606 556.008 535.009 556.505 535.009Z" fill="white"/>
<path opacity="0.18" d="M567.3 531.412C567.796 531.412 568.199 531.009 568.199 530.512C568.199 530.015 567.796 529.613 567.3 529.613C566.803 529.613 566.4 530.015 566.4 530.512C566.4 531.009 566.803 531.412 567.3 531.412Z" fill="white"/>
<path opacity="0.57" d="M578.092 535.009C578.588 535.009 578.991 534.606 578.991 534.11C578.991 533.613 578.588 533.21 578.092 533.21C577.595 533.21 577.192 533.613 577.192 534.11C577.192 534.606 577.595 535.009 578.092 535.009Z" fill="white"/>
<path opacity="0.52" d="M585.288 544.003C585.785 544.003 586.187 543.6 586.187 543.103C586.187 542.607 585.785 542.204 585.288 542.204C584.791 542.204 584.389 542.607 584.389 543.103C584.389 543.6 584.791 544.003 585.288 544.003Z" fill="white"/>
<path opacity="0.1" d="M585.288 556.594C585.785 556.594 586.187 556.191 586.187 555.695C586.187 555.198 585.785 554.795 585.288 554.795C584.791 554.795 584.389 555.198 584.389 555.695C584.389 556.191 584.791 556.594 585.288 556.594Z" fill="white"/>
<path opacity="0.91" d="M578.092 567.387C578.588 567.387 578.991 566.984 578.991 566.487C578.991 565.991 578.588 565.588 578.092 565.588C577.595 565.588 577.192 565.991 577.192 566.487C577.192 566.984 577.595 567.387 578.092 567.387Z" fill="white"/>
<path opacity="0.69" d="M567.3 572.783C567.796 572.783 568.199 572.38 568.199 571.884C568.199 571.387 567.796 570.984 567.3 570.984C566.803 570.984 566.4 571.387 566.4 571.884C566.4 572.38 566.803 572.783 567.3 572.783Z" fill="white"/>
<path opacity="0.39" d="M552.909 569.185C553.406 569.185 553.809 568.782 553.809 568.286C553.809 567.789 553.406 567.386 552.909 567.386C552.412 567.386 552.01 567.789 552.01 568.286C552.01 568.782 552.412 569.185 552.909 569.185Z" fill="white"/>
<path opacity="0.46" d="M542.115 560.192C542.612 560.192 543.015 559.789 543.015 559.292C543.015 558.796 542.612 558.393 542.115 558.393C541.618 558.393 541.216 558.796 541.216 559.292C541.216 559.789 541.618 560.192 542.115 560.192Z" fill="white"/>
<path opacity="0.64" d="M540.319 544.003C540.816 544.003 541.219 543.6 541.219 543.103C541.219 542.607 540.816 542.204 540.319 542.204C539.823 542.204 539.42 542.607 539.42 543.103C539.42 543.6 539.823 544.003 540.319 544.003Z" fill="white"/>
<path opacity="0.29" d="M545.715 529.613C546.212 529.613 546.614 529.21 546.614 528.714C546.614 528.217 546.212 527.814 545.715 527.814C545.218 527.814 544.815 528.217 544.815 528.714C544.815 529.21 545.218 529.613 545.715 529.613Z" fill="white"/>
<path opacity="0.47" d="M560.103 522.418C560.6 522.418 561.003 522.015 561.003 521.519C561.003 521.022 560.6 520.619 560.103 520.619C559.607 520.619 559.204 521.022 559.204 521.519C559.204 522.015 559.607 522.418 560.103 522.418Z" fill="white"/>
<path opacity="0.79" d="M576.294 522.418C576.791 522.418 577.193 522.015 577.193 521.519C577.193 521.022 576.791 520.619 576.294 520.619C575.797 520.619 575.395 521.022 575.395 521.519C575.395 522.015 575.797 522.418 576.294 522.418Z" fill="white"/>
<path opacity="0.67" d="M590.684 533.21C591.18 533.21 591.583 532.808 591.583 532.311C591.583 531.814 591.18 531.412 590.684 531.412C590.187 531.412 589.784 531.814 589.784 532.311C589.784 532.808 590.187 533.21 590.684 533.21Z" fill="white"/>
<path opacity="0.17" d="M597.878 551.198C598.375 551.198 598.777 550.795 598.777 550.298C598.777 549.802 598.375 549.399 597.878 549.399C597.381 549.399 596.979 549.802 596.979 550.298C596.979 550.795 597.381 551.198 597.878 551.198Z" fill="white"/>
<path opacity="0.45" d="M592.479 569.185C592.976 569.185 593.379 568.782 593.379 568.286C593.379 567.789 592.976 567.386 592.479 567.386C591.983 567.386 591.58 567.789 591.58 568.286C591.58 568.782 591.983 569.185 592.479 569.185Z" fill="white"/>
<path opacity="0.82" d="M576.294 581.776C576.791 581.776 577.193 581.374 577.193 580.877C577.193 580.38 576.791 579.978 576.294 579.978C575.797 579.978 575.395 580.38 575.395 580.877C575.395 581.374 575.797 581.776 576.294 581.776Z" fill="white"/>
<path opacity="0.99" d="M556.505 583.575C557.002 583.575 557.404 583.173 557.404 582.676C557.404 582.179 557.002 581.777 556.505 581.777C556.008 581.777 555.605 582.179 555.605 582.676C555.605 583.173 556.008 583.575 556.505 583.575Z" fill="white"/>
<path opacity="0.84" d="M538.519 572.783C539.015 572.783 539.418 572.38 539.418 571.884C539.418 571.387 539.015 570.984 538.519 570.984C538.022 570.984 537.619 571.387 537.619 571.884C537.619 572.38 538.022 572.783 538.519 572.783Z" fill="white"/>
<path opacity="0.76" d="M529.524 552.996C530.021 552.996 530.424 552.594 530.424 552.097C530.424 551.6 530.021 551.198 529.524 551.198C529.028 551.198 528.625 551.6 528.625 552.097C528.625 552.594 529.028 552.996 529.524 552.996Z" fill="white"/>
<path opacity="0.48" d="M531.325 531.412C531.822 531.412 532.225 531.009 532.225 530.512C532.225 530.015 531.822 529.613 531.325 529.613C530.828 529.613 530.426 530.015 530.426 530.512C530.426 531.009 530.828 531.412 531.325 531.412Z" fill="white"/>
<path opacity="0.37" d="M547.511 515.223C548.007 515.223 548.41 514.82 548.41 514.324C548.41 513.827 548.007 513.424 547.511 513.424C547.014 513.424 546.611 513.827 546.611 514.324C546.611 514.82 547.014 515.223 547.511 515.223Z" fill="white"/>
<path opacity="0.58" d="M570.894 510.726C571.888 510.726 572.693 509.921 572.693 508.927C572.693 507.934 571.888 507.128 570.894 507.128C569.901 507.128 569.096 507.934 569.096 508.927C569.096 509.921 569.901 510.726 570.894 510.726Z" fill="white"/>
<path opacity="0.84" d="M592.481 519.72C593.475 519.72 594.28 518.914 594.28 517.921C594.28 516.927 593.475 516.122 592.481 516.122C591.488 516.122 590.683 516.927 590.683 517.921C590.683 518.914 591.488 519.72 592.481 519.72Z" fill="white"/>
<path opacity="0.48" d="M606.871 539.506C607.864 539.506 608.67 538.701 608.67 537.707C608.67 536.714 607.864 535.909 606.871 535.909C605.878 535.909 605.072 536.714 605.072 537.707C605.072 538.701 605.878 539.506 606.871 539.506Z" fill="white"/>
<path opacity="0.26" d="M606.871 564.688C607.864 564.688 608.67 563.883 608.67 562.89C608.67 561.896 607.864 561.091 606.871 561.091C605.878 561.091 605.072 561.896 605.072 562.89C605.072 563.883 605.878 564.688 606.871 564.688Z" fill="white"/>
<path opacity="0.75" d="M590.684 586.273C591.677 586.273 592.482 585.468 592.482 584.474C592.482 583.481 591.677 582.676 590.684 582.676C589.69 582.676 588.885 583.481 588.885 584.474C588.885 585.468 589.69 586.273 590.684 586.273Z" fill="white"/>
<path opacity="0.33" d="M567.301 595.267C568.294 595.267 569.099 594.461 569.099 593.468C569.099 592.475 568.294 591.669 567.301 591.669C566.307 591.669 565.502 592.475 565.502 593.468C565.502 594.461 566.307 595.267 567.301 595.267Z" fill="white"/>
<path opacity="0.44" d="M540.318 589.871C541.312 589.871 542.117 589.066 542.117 588.072C542.117 587.079 541.312 586.274 540.318 586.274C539.325 586.274 538.52 587.079 538.52 588.072C538.52 589.066 539.325 589.871 540.318 589.871Z" fill="white"/>
<path opacity="0.32" d="M520.53 568.286C521.524 568.286 522.329 567.48 522.329 566.487C522.329 565.494 521.524 564.688 520.53 564.688C519.537 564.688 518.731 565.494 518.731 566.487C518.731 567.48 519.537 568.286 520.53 568.286Z" fill="white"/>
<path opacity="0.62" d="M516.934 539.506C517.927 539.506 518.732 538.701 518.732 537.707C518.732 536.714 517.927 535.909 516.934 535.909C515.94 535.909 515.135 536.714 515.135 537.707C515.135 538.701 515.94 539.506 516.934 539.506Z" fill="white"/>
<path opacity="0.14" d="M531.324 514.323C532.318 514.323 533.123 513.518 533.123 512.525C533.123 511.531 532.318 510.726 531.324 510.726C530.331 510.726 529.525 511.531 529.525 512.525C529.525 513.518 530.331 514.323 531.324 514.323Z" fill="white"/>
<path opacity="0.85" d="M556.507 499.934C557.5 499.934 558.306 499.128 558.306 498.135C558.306 497.142 557.5 496.336 556.507 496.336C555.513 496.336 554.708 497.142 554.708 498.135C554.708 499.128 555.513 499.934 556.507 499.934Z" fill="white"/>
<path opacity="0.1" d="M587.085 503.531C588.078 503.531 588.884 502.725 588.884 501.732C588.884 500.738 588.078 499.933 587.085 499.933C586.091 499.933 585.286 500.738 585.286 501.732C585.286 502.725 586.091 503.531 587.085 503.531Z" fill="white"/>
<path opacity="0.37" d="M610.468 523.317C611.461 523.317 612.266 522.512 612.266 521.518C612.266 520.525 611.461 519.719 610.468 519.719C609.474 519.719 608.669 520.525 608.669 521.518C608.669 522.512 609.474 523.317 610.468 523.317Z" fill="white"/>
<path opacity="0.49" d="M619.464 553.896C620.457 553.896 621.263 553.091 621.263 552.097C621.263 551.104 620.457 550.299 619.464 550.299C618.47 550.299 617.665 551.104 617.665 552.097C617.665 553.091 618.47 553.896 619.464 553.896Z" fill="white"/>
<path opacity="0.98" d="M608.672 584.475C609.665 584.475 610.471 583.67 610.471 582.676C610.471 581.683 609.665 580.877 608.672 580.877C607.678 580.877 606.873 581.683 606.873 582.676C606.873 583.67 607.678 584.475 608.672 584.475Z" fill="white"/>
<path opacity="0.49" d="M581.689 604.261C582.683 604.261 583.488 603.456 583.488 602.462C583.488 601.469 582.683 600.663 581.689 600.663C580.696 600.663 579.891 601.469 579.891 602.462C579.891 603.456 580.696 604.261 581.689 604.261Z" fill="white"/>
<path opacity="0.14" d="M549.312 606.059C550.306 606.059 551.111 605.254 551.111 604.261C551.111 603.267 550.306 602.462 549.312 602.462C548.319 602.462 547.514 603.267 547.514 604.261C547.514 605.254 548.319 606.059 549.312 606.059Z" fill="white"/>
<path opacity="0.59" d="M520.53 586.273C521.524 586.273 522.329 585.468 522.329 584.474C522.329 583.481 521.524 582.676 520.53 582.676C519.537 582.676 518.731 583.481 518.731 584.474C518.731 585.468 519.537 586.273 520.53 586.273Z" fill="white"/>
<path opacity="0.27" d="M506.142 553.896C507.135 553.896 507.94 553.091 507.94 552.097C507.94 551.104 507.135 550.299 506.142 550.299C505.148 550.299 504.343 551.104 504.343 552.097C504.343 553.091 505.148 553.896 506.142 553.896Z" fill="white"/>
<path opacity="0.78" d="M513.338 519.72C514.331 519.72 515.137 518.914 515.137 517.921C515.137 516.927 514.331 516.122 513.338 516.122C512.344 516.122 511.539 516.927 511.539 517.921C511.539 518.914 512.344 519.72 513.338 519.72Z" fill="white"/>
<path opacity="0.93" d="M538.518 494.537C539.512 494.537 540.317 493.732 540.317 492.739C540.317 491.745 539.512 490.94 538.518 490.94C537.525 490.94 536.72 491.745 536.72 492.739C536.72 493.732 537.525 494.537 538.518 494.537Z" fill="white"/>
<path opacity="0.99" d="M574.495 487.342C575.488 487.342 576.294 486.537 576.294 485.543C576.294 484.55 575.488 483.744 574.495 483.744C573.502 483.744 572.696 484.55 572.696 485.543C572.696 486.537 573.502 487.342 574.495 487.342Z" fill="white"/>
<path opacity="0.51" d="M608.672 503.531C609.665 503.531 610.471 502.725 610.471 501.732C610.471 500.738 609.665 499.933 608.672 499.933C607.678 499.933 606.873 500.738 606.873 501.732C606.873 502.725 607.678 503.531 608.672 503.531Z" fill="white"/>
<path opacity="0.19" d="M628.456 535.908C629.449 535.908 630.255 535.103 630.255 534.11C630.255 533.116 629.449 532.311 628.456 532.311C627.463 532.311 626.657 533.116 626.657 534.11C626.657 535.103 627.463 535.908 628.456 535.908Z" fill="white"/>
<path opacity="0.22" d="M626.658 575.481C627.652 575.481 628.457 574.675 628.457 573.682C628.457 572.689 627.652 571.883 626.658 571.883C625.665 571.883 624.859 572.689 624.859 573.682C624.859 574.675 625.665 575.481 626.658 575.481Z" fill="white"/>
<path opacity="0.41" d="M603.275 606.059C604.269 606.059 605.074 605.254 605.074 604.261C605.074 603.267 604.269 602.462 603.275 602.462C602.282 602.462 601.477 603.267 601.477 604.261C601.477 605.254 602.282 606.059 603.275 606.059Z" fill="white"/>
<path opacity="0.98" d="M563.703 618.651C564.696 618.651 565.502 617.845 565.502 616.852C565.502 615.859 564.696 615.053 563.703 615.053C562.71 615.053 561.904 615.859 561.904 616.852C561.904 617.845 562.71 618.651 563.703 618.651Z" fill="white"/>
<path opacity="0.17" d="M525.926 607.858C526.919 607.858 527.724 607.053 527.724 606.06C527.724 605.066 526.919 604.261 525.926 604.261C524.932 604.261 524.127 605.066 524.127 606.06C524.127 607.053 524.932 607.858 525.926 607.858Z" fill="white"/>
<path opacity="0.73" d="M498.945 575.481C499.939 575.481 500.744 574.675 500.744 573.682C500.744 572.689 499.939 571.883 498.945 571.883C497.952 571.883 497.146 572.689 497.146 573.682C497.146 574.675 497.952 575.481 498.945 575.481Z" fill="white"/>
<path opacity="0.94" d="M495.35 532.311C496.343 532.311 497.148 531.505 497.148 530.512C497.148 529.518 496.343 528.713 495.35 528.713C494.356 528.713 493.551 529.518 493.551 530.512C493.551 531.505 494.356 532.311 495.35 532.311Z" fill="white"/>
<path opacity="0.36" d="M516.934 496.336C517.927 496.336 518.732 495.53 518.732 494.537C518.732 493.543 517.927 492.738 516.934 492.738C515.94 492.738 515.135 493.543 515.135 494.537C515.135 495.53 515.94 496.336 516.934 496.336Z" fill="white"/>
<path opacity="0.57" d="M556.507 476.55C557.5 476.55 558.306 475.744 558.306 474.751C558.306 473.757 557.5 472.952 556.507 472.952C555.513 472.952 554.708 473.757 554.708 474.751C554.708 475.744 555.513 476.55 556.507 476.55Z" fill="white"/>
<path opacity="0.54" d="M599.678 483.744C600.671 483.744 601.476 482.939 601.476 481.946C601.476 480.952 600.671 480.147 599.678 480.147C598.684 480.147 597.879 480.952 597.879 481.946C597.879 482.939 598.684 483.744 599.678 483.744Z" fill="white"/>
<path opacity="0.81" d="M632.054 514.323C633.047 514.323 633.852 513.518 633.852 512.525C633.852 511.531 633.047 510.726 632.054 510.726C631.06 510.726 630.255 511.531 630.255 512.525C630.255 513.518 631.06 514.323 632.054 514.323Z" fill="white"/>
<path opacity="0.7" d="M642.846 557.493C643.839 557.493 644.644 556.688 644.644 555.695C644.644 554.701 643.839 553.896 642.846 553.896C641.852 553.896 641.047 554.701 641.047 555.695C641.047 556.688 641.852 557.493 642.846 557.493Z" fill="white"/>
<path opacity="0.67" d="M624.857 600.663C625.851 600.663 626.656 599.858 626.656 598.865C626.656 597.871 625.851 597.066 624.857 597.066C623.864 597.066 623.059 597.871 623.059 598.865C623.059 599.858 623.864 600.663 624.857 600.663Z" fill="white"/>
<path opacity="0.39" d="M587.085 625.846C588.078 625.846 588.884 625.04 588.884 624.047C588.884 623.054 588.078 622.248 587.085 622.248C586.091 622.248 585.286 623.054 585.286 624.047C585.286 625.04 586.091 625.846 587.085 625.846Z" fill="white"/>
<path opacity="0.99" d="M540.318 625.846C541.312 625.846 542.117 625.04 542.117 624.047C542.117 623.054 541.312 622.248 540.318 622.248C539.325 622.248 538.52 623.054 538.52 624.047C538.52 625.04 539.325 625.846 540.318 625.846Z" fill="white"/>
<path opacity="0.77" d="M500.746 598.865C501.739 598.865 502.545 598.06 502.545 597.066C502.545 596.073 501.739 595.267 500.746 595.267C499.753 595.267 498.947 596.073 498.947 597.066C498.947 598.06 499.753 598.865 500.746 598.865Z" fill="white"/>
<path opacity="0.93" d="M482.758 553.896C483.751 553.896 484.556 553.091 484.556 552.097C484.556 551.104 483.751 550.299 482.758 550.299C481.764 550.299 480.959 551.104 480.959 552.097C480.959 553.091 481.764 553.896 482.758 553.896Z" fill="white"/>
<path opacity="0.98" d="M495.35 505.329C496.343 505.329 497.148 504.524 497.148 503.53C497.148 502.537 496.343 501.732 495.35 501.732C494.356 501.732 493.551 502.537 493.551 503.53C493.551 504.524 494.356 505.329 495.35 505.329Z" fill="white"/>
<path opacity="0.81" d="M531.324 472.952C532.318 472.952 533.123 472.147 533.123 471.153C533.123 470.16 532.318 469.355 531.324 469.355C530.331 469.355 529.525 470.16 529.525 471.153C529.525 472.147 530.331 472.952 531.324 472.952Z" fill="white"/>
<path opacity="0.42" d="M581.689 465.757C582.683 465.757 583.488 464.952 583.488 463.958C583.488 462.965 582.683 462.16 581.689 462.16C580.696 462.16 579.891 462.965 579.891 463.958C579.891 464.952 580.696 465.757 581.689 465.757Z" fill="white"/>
<path opacity="0.93" d="M626.658 489.141C627.652 489.141 628.457 488.336 628.457 487.342C628.457 486.349 627.652 485.543 626.658 485.543C625.665 485.543 624.859 486.349 624.859 487.342C624.859 488.336 625.665 489.141 626.658 489.141Z" fill="white"/>
<path opacity="0.64" d="M651.84 534.11C652.833 534.11 653.639 533.304 653.639 532.311C653.639 531.318 652.833 530.512 651.84 530.512C650.846 530.512 650.041 531.318 650.041 532.311C650.041 533.304 650.846 534.11 651.84 534.11Z" fill="white"/>
<path opacity="0.16" d="M646.444 586.273C647.438 586.273 648.243 585.468 648.243 584.474C648.243 583.481 647.438 582.676 646.444 582.676C645.451 582.676 644.646 583.481 644.646 584.474C644.646 585.468 645.451 586.273 646.444 586.273Z" fill="white"/>
<path opacity="0.15" d="M612.269 627.645C613.263 627.645 614.068 626.84 614.068 625.846C614.068 624.853 613.263 624.047 612.269 624.047C611.276 624.047 610.471 624.853 610.471 625.846C610.471 626.84 611.276 627.645 612.269 627.645Z" fill="white"/>
<path opacity="0.96" d="M561.902 642.035C562.896 642.035 563.701 641.23 563.701 640.236C563.701 639.243 562.896 638.438 561.902 638.438C560.909 638.438 560.104 639.243 560.104 640.236C560.104 641.23 560.909 642.035 561.902 642.035Z" fill="white"/>
<path opacity="0.3" d="M509.74 624.047C510.734 624.047 511.539 623.242 511.539 622.248C511.539 621.255 510.734 620.45 509.74 620.45C508.747 620.45 507.941 621.255 507.941 622.248C507.941 623.242 508.747 624.047 509.74 624.047Z" fill="white"/>
<path opacity="0.88" d="M477.363 579.078C478.357 579.078 479.162 578.273 479.162 577.28C479.162 576.286 478.357 575.481 477.363 575.481C476.37 575.481 475.564 576.286 475.564 577.28C475.564 578.273 476.37 579.078 477.363 579.078Z" fill="white"/>
<path opacity="0.42" d="M475.561 525.116C476.555 525.116 477.36 524.311 477.36 523.317C477.36 522.324 476.555 521.519 475.561 521.519C474.568 521.519 473.763 522.324 473.763 523.317C473.763 524.311 474.568 525.116 475.561 525.116Z" fill="white"/>
<path opacity="0.59" d="M504.344 476.55C505.337 476.55 506.142 475.744 506.142 474.751C506.142 473.757 505.337 472.952 504.344 472.952C503.35 472.952 502.545 473.757 502.545 474.751C502.545 475.744 503.35 476.55 504.344 476.55Z" fill="white"/>
<path opacity="0.28" d="M556.507 454.965C557.5 454.965 558.306 454.16 558.306 453.166C558.306 452.173 557.5 451.367 556.507 451.367C555.513 451.367 554.708 452.173 554.708 453.166C554.708 454.16 555.513 454.965 556.507 454.965Z" fill="white"/>
<path opacity="0.13" d="M612.269 465.757C613.263 465.757 614.068 464.952 614.068 463.958C614.068 462.965 613.263 462.16 612.269 462.16C611.276 462.16 610.471 462.965 610.471 463.958C610.471 464.952 611.276 465.757 612.269 465.757Z" fill="white"/>
<path opacity="0.44" d="M653.641 505.329C654.634 505.329 655.439 504.524 655.439 503.53C655.439 502.537 654.634 501.732 653.641 501.732C652.647 501.732 651.842 502.537 651.842 503.53C651.842 504.524 652.647 505.329 653.641 505.329Z" fill="white"/>
<path opacity="0.59" d="M664.433 562.89C665.426 562.89 666.231 562.084 666.231 561.091C666.231 560.098 665.426 559.292 664.433 559.292C663.439 559.292 662.634 560.098 662.634 561.091C662.634 562.084 663.439 562.89 664.433 562.89Z" fill="white"/>
<path opacity="0.66" d="M641.048 618.651C642.041 618.651 642.847 617.845 642.847 616.852C642.847 615.859 642.041 615.053 641.048 615.053C640.054 615.053 639.249 615.859 639.249 616.852C639.249 617.845 640.054 618.651 641.048 618.651Z" fill="white"/>
<path opacity="0.69" d="M588.883 650.129C590.373 650.129 591.581 648.921 591.581 647.431C591.581 645.941 590.373 644.733 588.883 644.733C587.393 644.733 586.185 645.941 586.185 647.431C586.185 648.921 587.393 650.129 588.883 650.129Z" fill="white"/>
<path opacity="0.91" d="M529.525 646.531C531.015 646.531 532.223 645.323 532.223 643.833C532.223 642.343 531.015 641.135 529.525 641.135C528.035 641.135 526.827 642.343 526.827 643.833C526.827 645.323 528.035 646.531 529.525 646.531Z" fill="white"/>
<path opacity="0.98" d="M480.959 610.556C482.449 610.556 483.657 609.348 483.657 607.858C483.657 606.368 482.449 605.16 480.959 605.16C479.469 605.16 478.261 606.368 478.261 607.858C478.261 609.348 479.469 610.556 480.959 610.556Z" fill="white"/>
<path opacity="0.14" d="M461.173 551.198C462.663 551.198 463.871 549.99 463.871 548.5C463.871 547.01 462.663 545.802 461.173 545.802C459.683 545.802 458.475 547.01 458.475 548.5C458.475 549.99 459.683 551.198 461.173 551.198Z" fill="white"/>
<path opacity="0.25" d="M477.36 491.839C478.85 491.839 480.058 490.631 480.058 489.141C480.058 487.651 478.85 486.443 477.36 486.443C475.87 486.443 474.662 487.651 474.662 489.141C474.662 490.631 475.87 491.839 477.36 491.839Z" fill="white"/>
<path opacity="0.73" d="M525.928 452.267C527.418 452.267 528.626 451.059 528.626 449.568C528.626 448.078 527.418 446.87 525.928 446.87C524.437 446.87 523.229 448.078 523.229 449.568C523.229 451.059 524.437 452.267 525.928 452.267Z" fill="white"/>
<path opacity="0.28" d="M588.883 445.072C590.373 445.072 591.581 443.864 591.581 442.373C591.581 440.883 590.373 439.675 588.883 439.675C587.393 439.675 586.185 440.883 586.185 442.373C586.185 443.864 587.393 445.072 588.883 445.072Z" fill="white"/>
<path opacity="0.21" d="M646.443 477.449C647.933 477.449 649.141 476.241 649.141 474.751C649.141 473.261 647.933 472.053 646.443 472.053C644.953 472.053 643.745 473.261 643.745 474.751C643.745 476.241 644.953 477.449 646.443 477.449Z" fill="white"/>
<path opacity="0.45" d="M675.224 535.009C676.714 535.009 677.922 533.801 677.922 532.311C677.922 530.821 676.714 529.613 675.224 529.613C673.733 529.613 672.525 530.821 672.525 532.311C672.525 533.801 673.733 535.009 675.224 535.009Z" fill="white"/>
<path opacity="0.49" d="M666.229 599.764C667.72 599.764 668.927 598.556 668.927 597.066C668.927 595.576 667.72 594.368 666.229 594.368C664.739 594.368 663.531 595.576 663.531 597.066C663.531 598.556 664.739 599.764 666.229 599.764Z" fill="white"/>
<path opacity="0.18" d="M621.261 648.33C622.751 648.33 623.959 647.122 623.959 645.632C623.959 644.142 622.751 642.934 621.261 642.934C619.77 642.934 618.562 644.142 618.562 645.632C618.562 647.122 619.77 648.33 621.261 648.33Z" fill="white"/>
<path opacity="0.43" d="M556.506 664.519C557.996 664.519 559.204 663.311 559.204 661.82C559.204 660.33 557.996 659.122 556.506 659.122C555.016 659.122 553.808 660.33 553.808 661.82C553.808 663.311 555.016 664.519 556.506 664.519Z" fill="white"/>
<path opacity="0.99" d="M493.549 641.136C495.039 641.136 496.247 639.928 496.247 638.438C496.247 636.947 495.039 635.74 493.549 635.74C492.059 635.74 490.851 636.947 490.851 638.438C490.851 639.928 492.059 641.136 493.549 641.136Z" fill="white"/>
<path opacity="0.37" d="M453.976 583.575C455.467 583.575 456.675 582.367 456.675 580.877C456.675 579.387 455.467 578.179 453.976 578.179C452.486 578.179 451.278 579.387 451.278 580.877C451.278 582.367 452.486 583.575 453.976 583.575Z" fill="white"/>
<path opacity="0.43" d="M453.976 515.223C455.467 515.223 456.675 514.015 456.675 512.525C456.675 511.034 455.467 509.826 453.976 509.826C452.486 509.826 451.278 511.034 451.278 512.525C451.278 514.015 452.486 515.223 453.976 515.223Z" fill="white"/>
<path opacity="0.45" d="M493.549 457.663C495.039 457.663 496.247 456.455 496.247 454.964C496.247 453.474 495.039 452.266 493.549 452.266C492.059 452.266 490.851 453.474 490.851 454.964C490.851 456.455 492.059 457.663 493.549 457.663Z" fill="white"/>
<path opacity="0.87" d="M558.304 432.48C559.794 432.48 561.002 431.272 561.002 429.782C561.002 428.292 559.794 427.084 558.304 427.084C556.813 427.084 555.605 428.292 555.605 429.782C555.605 431.272 556.813 432.48 558.304 432.48Z" fill="white"/>
<path opacity="0.57" d="M626.659 448.669C628.149 448.669 629.357 447.461 629.357 445.971C629.357 444.481 628.149 443.273 626.659 443.273C625.169 443.273 623.961 444.481 623.961 445.971C623.961 447.461 625.169 448.669 626.659 448.669Z" fill="white"/>
<path opacity="0.41" d="M675.224 500.833C676.714 500.833 677.922 499.625 677.922 498.135C677.922 496.645 676.714 495.437 675.224 495.437C673.733 495.437 672.525 496.645 672.525 498.135C672.525 499.625 673.733 500.833 675.224 500.833Z" fill="white"/>
<path opacity="0.49" d="M686.016 570.984C687.507 570.984 688.715 569.776 688.715 568.286C688.715 566.796 687.507 565.588 686.016 565.588C684.526 565.588 683.318 566.796 683.318 568.286C683.318 569.776 684.526 570.984 686.016 570.984Z" fill="white"/>
<path opacity="0.97" d="M653.64 637.538C655.13 637.538 656.338 636.33 656.338 634.839C656.338 633.349 655.13 632.141 653.64 632.141C652.149 632.141 650.941 633.349 650.941 634.839C650.941 636.33 652.149 637.538 653.64 637.538Z" fill="white"/>
<path opacity="0.39" d="M590.684 673.513C592.175 673.513 593.383 672.305 593.383 670.815C593.383 669.324 592.175 668.116 590.684 668.116C589.194 668.116 587.986 669.324 587.986 670.815C587.986 672.305 589.194 673.513 590.684 673.513Z" fill="white"/>
<path opacity="0.2" d="M516.933 666.318C518.424 666.318 519.632 665.11 519.632 663.62C519.632 662.13 518.424 660.922 516.933 660.922C515.443 660.922 514.235 662.13 514.235 663.62C514.235 665.11 515.443 666.318 516.933 666.318Z" fill="white"/>
<path opacity="0.64" d="M459.372 619.55C460.862 619.55 462.07 618.342 462.07 616.852C462.07 615.362 460.862 614.154 459.372 614.154C457.882 614.154 456.674 615.362 456.674 616.852C456.674 618.342 457.882 619.55 459.372 619.55Z" fill="white"/>
<path opacity="0.57" d="M437.79 547.6C439.28 547.6 440.488 546.392 440.488 544.902C440.488 543.412 439.28 542.204 437.79 542.204C436.3 542.204 435.092 543.412 435.092 544.902C435.092 546.392 436.3 547.6 437.79 547.6Z" fill="white"/>
<path opacity="0.74" d="M461.173 475.65C462.663 475.65 463.871 474.442 463.871 472.952C463.871 471.462 462.663 470.254 461.173 470.254C459.683 470.254 458.475 471.462 458.475 472.952C458.475 474.442 459.683 475.65 461.173 475.65Z" fill="white"/>
<path opacity="0.84" d="M522.329 428.883C523.819 428.883 525.027 427.675 525.027 426.185C525.027 424.695 523.819 423.487 522.329 423.487C520.839 423.487 519.631 424.695 519.631 426.185C519.631 427.675 520.839 428.883 522.329 428.883Z" fill="white"/>
<path opacity="0.3" d="M597.879 425.285C599.369 425.285 600.577 424.077 600.577 422.587C600.577 421.097 599.369 419.889 597.879 419.889C596.389 419.889 595.181 421.097 595.181 422.587C595.181 424.077 596.389 425.285 597.879 425.285Z" fill="white"/>
<path opacity="0.81" d="M664.432 464.858C665.922 464.858 667.13 463.65 667.13 462.16C667.13 460.669 665.922 459.461 664.432 459.461C662.941 459.461 661.733 460.669 661.733 462.16C661.733 463.65 662.941 464.858 664.432 464.858Z" fill="white"/>
<path opacity="0.25" d="M698.608 536.808C700.098 536.808 701.306 535.6 701.306 534.11C701.306 532.62 700.098 531.412 698.608 531.412C697.118 531.412 695.91 532.62 695.91 534.11C695.91 535.6 697.118 536.808 698.608 536.808Z" fill="white"/>
<path opacity="0.44" d="M684.216 614.154C685.706 614.154 686.914 612.946 686.914 611.456C686.914 609.966 685.706 608.758 684.216 608.758C682.726 608.758 681.518 609.966 681.518 611.456C681.518 612.946 682.726 614.154 684.216 614.154Z" fill="white"/>
<path opacity="0.87" d="M628.455 669.915C629.945 669.915 631.153 668.707 631.153 667.217C631.153 665.727 629.945 664.519 628.455 664.519C626.965 664.519 625.757 665.727 625.757 667.217C625.757 668.707 626.965 669.915 628.455 669.915Z" fill="white"/>
<path opacity="0.46" d="M549.309 686.105C550.8 686.105 552.008 684.897 552.008 683.406C552.008 681.916 550.8 680.708 549.309 680.708C547.819 680.708 546.611 681.916 546.611 683.406C546.611 684.897 547.819 686.105 549.309 686.105Z" fill="white"/>
<path opacity="0.27" d="M475.562 655.525C477.053 655.525 478.261 654.317 478.261 652.827C478.261 651.337 477.053 650.129 475.562 650.129C474.072 650.129 472.864 651.337 472.864 652.827C472.864 654.317 474.072 655.525 475.562 655.525Z" fill="white"/>
<path opacity="0.34" d="M432.391 587.173C433.882 587.173 435.09 585.965 435.09 584.475C435.09 582.985 433.882 581.777 432.391 581.777C430.901 581.777 429.693 582.985 429.693 584.475C429.693 585.965 430.901 587.173 432.391 587.173Z" fill="white"/>
<path opacity="0.24" d="M434.192 504.43C435.682 504.43 436.89 503.222 436.89 501.732C436.89 500.242 435.682 499.034 434.192 499.034C432.702 499.034 431.494 500.242 431.494 501.732C431.494 503.222 432.702 504.43 434.192 504.43Z" fill="white"/>
<path opacity="0.61" d="M482.759 437.876C484.249 437.876 485.457 436.668 485.457 435.178C485.457 433.688 484.249 432.48 482.759 432.48C481.269 432.48 480.061 433.688 480.061 435.178C480.061 436.668 481.269 437.876 482.759 437.876Z" fill="white"/>
<path opacity="0.47" d="M561.902 409.096C563.392 409.096 564.6 407.888 564.6 406.398C564.6 404.908 563.392 403.7 561.902 403.7C560.412 403.7 559.204 404.908 559.204 406.398C559.204 407.888 560.412 409.096 561.902 409.096Z" fill="white"/>
<path opacity="0.66" d="M642.848 430.681C644.338 430.681 645.546 429.473 645.546 427.983C645.546 426.493 644.338 425.285 642.848 425.285C641.357 425.285 640.149 426.493 640.149 427.983C640.149 429.473 641.357 430.681 642.848 430.681Z" fill="white"/>
<path opacity="0.69" d="M698.608 495.436C700.098 495.436 701.306 494.228 701.306 492.738C701.306 491.248 700.098 490.04 698.608 490.04C697.118 490.04 695.91 491.248 695.91 492.738C695.91 494.228 697.118 495.436 698.608 495.436Z" fill="white"/>
<path opacity="0.87" d="M666.229 655.525C667.72 655.525 668.927 654.317 668.927 652.827C668.927 651.337 667.72 650.129 666.229 650.129C664.739 650.129 663.531 651.337 663.531 652.827C663.531 654.317 664.739 655.525 666.229 655.525Z" fill="white"/>
<path opacity="0.46" d="M590.684 696.897C592.175 696.897 593.383 695.689 593.383 694.199C593.383 692.708 592.175 691.5 590.684 691.5C589.194 691.5 587.986 692.708 587.986 694.199C587.986 695.689 589.194 696.897 590.684 696.897Z" fill="white"/>
<path opacity="0.43" d="M504.341 686.105C505.831 686.105 507.039 684.897 507.039 683.406C507.039 681.916 505.831 680.708 504.341 680.708C502.851 680.708 501.643 681.916 501.643 683.406C501.643 684.897 502.851 686.105 504.341 686.105Z" fill="white"/>
<path opacity="0.56" d="M437.79 628.544C439.28 628.544 440.488 627.336 440.488 625.846C440.488 624.356 439.28 623.148 437.79 623.148C436.3 623.148 435.092 624.356 435.092 625.846C435.092 627.336 436.3 628.544 437.79 628.544Z" fill="white"/>
<path opacity="0.65" d="M416.204 542.204C417.694 542.204 418.902 540.996 418.902 539.506C418.902 538.016 417.694 536.808 416.204 536.808C414.714 536.808 413.506 538.016 413.506 539.506C413.506 540.996 414.714 542.204 416.204 542.204Z" fill="white"/>
<path opacity="0.38" d="M444.984 457.663C446.474 457.663 447.682 456.455 447.682 454.964C447.682 453.474 446.474 452.266 444.984 452.266C443.494 452.266 442.286 453.474 442.286 454.964C442.286 456.455 443.494 457.663 444.984 457.663Z" fill="white"/>
<path opacity="0.31" d="M518.733 405.499C520.223 405.499 521.431 404.291 521.431 402.801C521.431 401.311 520.223 400.103 518.733 400.103C517.243 400.103 516.035 401.311 516.035 402.801C516.035 404.291 517.243 405.499 518.733 405.499Z" fill="white"/>
<path opacity="0.75" d="M608.671 403.7C610.161 403.7 611.369 402.492 611.369 401.002C611.369 399.512 610.161 398.304 608.671 398.304C607.181 398.304 605.973 399.512 605.973 401.002C605.973 402.492 607.181 403.7 608.671 403.7Z" fill="white"/>
<path opacity="0.78" d="M686.016 454.065C687.507 454.065 688.715 452.857 688.715 451.367C688.715 449.877 687.507 448.669 686.016 448.669C684.526 448.669 683.318 449.877 683.318 451.367C683.318 452.857 684.526 454.065 686.016 454.065Z" fill="white"/>
<path opacity="0.61" d="M633.851 693.299C635.342 693.299 636.55 692.091 636.55 690.601C636.55 689.111 635.342 687.903 633.851 687.903C632.361 687.903 631.153 689.111 631.153 690.601C631.153 692.091 632.361 693.299 633.851 693.299Z" fill="white"/>
<path opacity="0.25" d="M542.118 707.689C543.608 707.689 544.816 706.481 544.816 704.991C544.816 703.5 543.608 702.292 542.118 702.292C540.628 702.292 539.42 703.5 539.42 704.991C539.42 706.481 540.628 707.689 542.118 707.689Z" fill="white"/>
<path opacity="0.83" d="M455.778 668.117C457.268 668.117 458.476 666.909 458.476 665.419C458.476 663.928 457.268 662.72 455.778 662.72C454.288 662.72 453.08 663.928 453.08 665.419C453.08 666.909 454.288 668.117 455.778 668.117Z" fill="white"/>
<path opacity="0.45" d="M409.008 587.173C410.498 587.173 411.706 585.965 411.706 584.475C411.706 582.985 410.498 581.777 409.008 581.777C407.518 581.777 406.31 582.985 406.31 584.475C406.31 585.965 407.518 587.173 409.008 587.173Z" fill="white"/>
<path opacity="0.15" d="M414.403 491.839C415.893 491.839 417.101 490.631 417.101 489.141C417.101 487.651 415.893 486.443 414.403 486.443C412.913 486.443 411.705 487.651 411.705 489.141C411.705 490.631 412.913 491.839 414.403 491.839Z" fill="white"/>
<path opacity="0.27" d="M473.764 417.191C475.75 417.191 477.361 415.58 477.361 413.593C477.361 411.606 475.75 409.996 473.764 409.996C471.777 409.996 470.166 411.606 470.166 413.593C470.166 415.58 471.777 417.191 473.764 417.191Z" fill="white"/>
<path opacity="0.82" d="M567.298 388.411C569.285 388.411 570.895 386.8 570.895 384.813C570.895 382.826 569.285 381.216 567.298 381.216C565.311 381.216 563.7 382.826 563.7 384.813C563.7 386.8 565.311 388.411 567.298 388.411Z" fill="white"/>
<path opacity="0.95" d="M659.037 415.392C661.024 415.392 662.634 413.782 662.634 411.795C662.634 409.808 661.024 408.197 659.037 408.197C657.05 408.197 655.439 409.808 655.439 411.795C655.439 413.782 657.05 415.392 659.037 415.392Z" fill="white"/>
<path opacity="0.33" d="M678.821 678.01C680.808 678.01 682.419 676.399 682.419 674.412C682.419 672.426 680.808 670.815 678.821 670.815C676.834 670.815 675.224 672.426 675.224 674.412C675.224 676.399 676.834 678.01 678.821 678.01Z" fill="white"/>
<path opacity="0.85" d="M588.884 721.18C590.87 721.18 592.481 719.569 592.481 717.582C592.481 715.596 590.87 713.985 588.884 713.985C586.897 713.985 585.286 715.596 585.286 717.582C585.286 719.569 586.897 721.18 588.884 721.18Z" fill="white"/>
<path opacity="0.26" d="M488.154 704.991C490.141 704.991 491.752 703.38 491.752 701.393C491.752 699.407 490.141 697.796 488.154 697.796C486.167 697.796 484.557 699.407 484.557 701.393C484.557 703.38 486.167 704.991 488.154 704.991Z" fill="white"/>
<path opacity="0.68" d="M414.405 634.839C416.392 634.839 418.003 633.229 418.003 631.242C418.003 629.255 416.392 627.644 414.405 627.644C412.418 627.644 410.808 629.255 410.808 631.242C410.808 633.229 412.418 634.839 414.405 634.839Z" fill="white"/>
<path opacity="0.1" d="M392.818 535.908C394.805 535.908 396.416 534.297 396.416 532.311C396.416 530.324 394.805 528.713 392.818 528.713C390.831 528.713 389.221 530.324 389.221 532.311C389.221 534.297 390.831 535.908 392.818 535.908Z" fill="white"/>
<path opacity="0.44" d="M432.391 440.575C434.378 440.575 435.989 438.964 435.989 436.978C435.989 434.991 434.378 433.38 432.391 433.38C430.405 433.38 428.794 434.991 428.794 436.978C428.794 438.964 430.405 440.575 432.391 440.575Z" fill="white"/>
<path opacity="0.12" d="M516.932 383.015C518.919 383.015 520.53 381.404 520.53 379.417C520.53 377.43 518.919 375.82 516.932 375.82C514.946 375.82 513.335 377.43 513.335 379.417C513.335 381.404 514.946 383.015 516.932 383.015Z" fill="white"/>
<path opacity="0.94" d="M621.263 384.813C623.249 384.813 624.86 383.203 624.86 381.216C624.86 379.229 623.249 377.618 621.263 377.618C619.276 377.618 617.665 379.229 617.665 381.216C617.665 383.203 619.276 384.813 621.263 384.813Z" fill="white"/>
<path opacity="0.85" d="M639.249 717.582C641.236 717.582 642.846 715.972 642.846 713.985C642.846 711.998 641.236 710.387 639.249 710.387C637.262 710.387 635.651 711.998 635.651 713.985C635.651 715.972 637.262 717.582 639.249 717.582Z" fill="white"/>
<path opacity="0.17" d="M533.123 730.174C535.11 730.174 536.72 728.563 536.72 726.576C536.72 724.589 535.11 722.979 533.123 722.979C531.136 722.979 529.525 724.589 529.525 726.576C529.525 728.563 531.136 730.174 533.123 730.174Z" fill="white"/>
<path opacity="0.95" d="M435.991 681.607C437.978 681.607 439.589 679.996 439.589 678.01C439.589 676.023 437.978 674.412 435.991 674.412C434.004 674.412 432.394 676.023 432.394 678.01C432.394 679.996 434.004 681.607 435.991 681.607Z" fill="white"/>
<path opacity="0.34" d="M385.627 586.274C387.614 586.274 389.224 584.663 389.224 582.676C389.224 580.689 387.614 579.079 385.627 579.079C383.64 579.079 382.029 580.689 382.029 582.676C382.029 584.663 383.64 586.274 385.627 586.274Z" fill="white"/>
<path opacity="0.66" d="M396.419 478.348C398.406 478.348 400.016 476.738 400.016 474.751C400.016 472.764 398.406 471.153 396.419 471.153C394.432 471.153 392.821 472.764 392.821 474.751C392.821 476.738 394.432 478.348 396.419 478.348Z" fill="white"/>
<path opacity="0.85" d="M466.57 393.807C468.557 393.807 470.168 392.197 470.168 390.21C470.168 388.223 468.557 386.612 466.57 386.612C464.583 386.612 462.973 388.223 462.973 390.21C462.973 392.197 464.583 393.807 466.57 393.807Z" fill="white"/>
<path d="M572.693 365.027C574.68 365.027 576.291 363.416 576.291 361.429C576.291 359.442 574.68 357.832 572.693 357.832C570.706 357.832 569.096 359.442 569.096 361.429C569.096 363.416 570.706 365.027 572.693 365.027Z" fill="white"/>
<path opacity="0.98" d="M677.023 401.002C679.01 401.002 680.621 399.391 680.621 397.404C680.621 395.418 679.01 393.807 677.023 393.807C675.036 393.807 673.426 395.418 673.426 397.404C673.426 399.391 675.036 401.002 677.023 401.002Z" fill="white"/>
<path opacity="0.2" d="M689.613 697.796C691.6 697.796 693.211 696.185 693.211 694.198C693.211 692.211 691.6 690.601 689.613 690.601C687.626 690.601 686.016 692.211 686.016 694.198C686.016 696.185 687.626 697.796 689.613 697.796Z" fill="white"/>
<path opacity="0.24" d="M585.286 742.765C587.273 742.765 588.883 741.154 588.883 739.167C588.883 737.18 587.273 735.57 585.286 735.57C583.299 735.57 581.688 737.18 581.688 739.167C581.688 741.154 583.299 742.765 585.286 742.765Z" fill="white"/>
<path opacity="0.12" d="M473.764 722.979C475.75 722.979 477.361 721.368 477.361 719.381C477.361 717.394 475.75 715.784 473.764 715.784C471.777 715.784 470.166 717.394 470.166 719.381C470.166 721.368 471.777 722.979 473.764 722.979Z" fill="white"/>
<path opacity="0.52" d="M392.818 640.236C394.805 640.236 396.416 638.625 396.416 636.639C396.416 634.652 394.805 633.041 392.818 633.041C390.831 633.041 389.221 634.652 389.221 636.639C389.221 638.625 390.831 640.236 392.818 640.236Z" fill="white"/>
<path opacity="0.76" d="M371.236 526.914C373.223 526.914 374.834 525.304 374.834 523.317C374.834 521.33 373.223 519.719 371.236 519.719C369.249 519.719 367.639 521.33 367.639 523.317C367.639 525.304 369.249 526.914 371.236 526.914Z" fill="white"/>
<path opacity="0.58" d="M418.003 420.789C419.99 420.789 421.6 419.178 421.6 417.191C421.6 415.204 419.99 413.594 418.003 413.594C416.016 413.594 414.405 415.204 414.405 417.191C414.405 419.178 416.016 420.789 418.003 420.789Z" fill="white"/>
<path opacity="0.91" d="M516.932 359.631C518.919 359.631 520.53 358.02 520.53 356.033C520.53 354.046 518.919 352.436 516.932 352.436C514.946 352.436 513.335 354.046 513.335 356.033C513.335 358.02 514.946 359.631 516.932 359.631Z" fill="white"/>
<path opacity="0.15" d="M635.65 365.027C637.637 365.027 639.248 363.416 639.248 361.429C639.248 359.442 637.637 357.832 635.65 357.832C633.663 357.832 632.053 359.442 632.053 361.429C632.053 363.416 633.663 365.027 635.65 365.027Z" fill="white"/>
<path opacity="0.29" d="M641.049 740.966C643.036 740.966 644.646 739.355 644.646 737.368C644.646 735.382 643.036 733.771 641.049 733.771C639.062 733.771 637.451 735.382 637.451 737.368C637.451 739.355 639.062 740.966 641.049 740.966Z" fill="white"/>
<path opacity="0.86" d="M522.329 751.758C524.316 751.758 525.926 750.148 525.926 748.161C525.926 746.174 524.316 744.563 522.329 744.563C520.342 744.563 518.731 746.174 518.731 748.161C518.731 750.148 520.342 751.758 522.329 751.758Z" fill="white"/>
<path opacity="0.24" d="M416.205 692.4C418.192 692.4 419.802 690.789 419.802 688.802C419.802 686.815 418.192 685.205 416.205 685.205C414.218 685.205 412.607 686.815 412.607 688.802C412.607 690.789 414.218 692.4 416.205 692.4Z" fill="white"/>
<path opacity="0.91" d="M362.242 584.475C364.229 584.475 365.84 582.864 365.84 580.877C365.84 578.89 364.229 577.28 362.242 577.28C360.255 577.28 358.645 578.89 358.645 580.877C358.645 582.864 360.255 584.475 362.242 584.475Z" fill="white"/>
<path opacity="0.78" d="M378.431 462.159C380.417 462.159 382.028 460.549 382.028 458.562C382.028 456.575 380.417 454.964 378.431 454.964C376.444 454.964 374.833 456.575 374.833 458.562C374.833 460.549 376.444 462.159 378.431 462.159Z" fill="white"/>
<path opacity="0.2" d="M461.174 372.222C463.161 372.222 464.771 370.611 464.771 368.624C464.771 366.638 463.161 365.027 461.174 365.027C459.187 365.027 457.576 366.638 457.576 368.624C457.576 370.611 459.187 372.222 461.174 372.222Z" fill="white"/>
<path opacity="0.73" d="M581.687 343.442C583.674 343.442 585.285 341.831 585.285 339.845C585.285 337.858 583.674 336.247 581.687 336.247C579.7 336.247 578.09 337.858 578.09 339.845C578.09 341.831 579.7 343.442 581.687 343.442Z" fill="white"/>
<path opacity="0.6" d="M696.807 386.612C698.794 386.612 700.405 385.002 700.405 383.015C700.405 381.028 698.794 379.417 696.807 379.417C694.821 379.417 693.21 381.028 693.21 383.015C693.21 385.002 694.821 386.612 696.807 386.612Z" fill="white"/>
<path opacity="0.13" d="M698.607 719.381C700.594 719.381 702.205 717.77 702.205 715.783C702.205 713.796 700.594 712.186 698.607 712.186C696.62 712.186 695.01 713.796 695.01 715.783C695.01 717.77 696.62 719.381 698.607 719.381Z" fill="white"/>
<path opacity="0.73" d="M579.889 766.149C581.876 766.149 583.487 764.538 583.487 762.551C583.487 760.564 581.876 758.954 579.889 758.954C577.903 758.954 576.292 760.564 576.292 762.551C576.292 764.538 577.903 766.149 579.889 766.149Z" fill="white"/>
<path opacity="0.16" d="M455.775 739.168C457.762 739.168 459.373 737.557 459.373 735.57C459.373 733.583 457.762 731.973 455.775 731.973C453.788 731.973 452.178 733.583 452.178 735.57C452.178 737.557 453.788 739.168 455.775 739.168Z" fill="white"/>
<path opacity="0.87" d="M369.436 643.833C371.423 643.833 373.034 642.222 373.034 640.235C373.034 638.249 371.423 636.638 369.436 636.638C367.45 636.638 365.839 638.249 365.839 640.235C365.839 642.222 367.45 643.833 369.436 643.833Z" fill="white"/>
<path opacity="0.5" d="M349.65 517.921C351.637 517.921 353.248 516.31 353.248 514.323C353.248 512.336 351.637 510.726 349.65 510.726C347.663 510.726 346.053 512.336 346.053 514.323C346.053 516.31 347.663 517.921 349.65 517.921Z" fill="white"/>
<path opacity="0.9" d="M407.211 401.002C409.198 401.002 410.808 399.391 410.808 397.404C410.808 395.418 409.198 393.807 407.211 393.807C405.224 393.807 403.613 395.418 403.613 397.404C403.613 399.391 405.224 401.002 407.211 401.002Z" fill="white"/>
<path opacity="0.37" d="M518.732 336.247C520.719 336.247 522.33 334.637 522.33 332.65C522.33 330.663 520.719 329.052 518.732 329.052C516.745 329.052 515.135 330.663 515.135 332.65C515.135 334.637 516.745 336.247 518.732 336.247Z" fill="white"/>
<path opacity="0.2" d="M650.043 347.04C652.03 347.04 653.64 345.429 653.64 343.442C653.64 341.456 652.03 339.845 650.043 339.845C648.056 339.845 646.445 341.456 646.445 343.442C646.445 345.429 648.056 347.04 650.043 347.04Z" fill="white"/>
<path opacity="0.9" d="M642.846 765.249C645.33 765.249 647.343 763.236 647.343 760.752C647.343 758.269 645.33 756.255 642.846 756.255C640.363 756.255 638.35 758.269 638.35 760.752C638.35 763.236 640.363 765.249 642.846 765.249Z" fill="white"/>
<path opacity="0.41" d="M509.74 772.444C512.224 772.444 514.237 770.431 514.237 767.947C514.237 765.464 512.224 763.45 509.74 763.45C507.256 763.45 505.243 765.464 505.243 767.947C505.243 770.431 507.256 772.444 509.74 772.444Z" fill="white"/>
<path opacity="0.99" d="M394.62 704.091C397.103 704.091 399.117 702.078 399.117 699.594C399.117 697.111 397.103 695.097 394.62 695.097C392.136 695.097 390.123 697.111 390.123 699.594C390.123 702.078 392.136 704.091 394.62 704.091Z" fill="white"/>
<path opacity="0.69" d="M338.857 581.777C341.341 581.777 343.354 579.763 343.354 577.28C343.354 574.796 341.341 572.783 338.857 572.783C336.374 572.783 334.36 574.796 334.36 577.28C334.36 579.763 336.374 581.777 338.857 581.777Z" fill="white"/>
<path opacity="0.35" d="M360.441 446.87C362.925 446.87 364.938 444.857 364.938 442.374C364.938 439.89 362.925 437.877 360.441 437.877C357.958 437.877 355.944 439.89 355.944 442.374C355.944 444.857 357.958 446.87 360.441 446.87Z" fill="white"/>
<path opacity="0.59" d="M455.775 349.738C458.259 349.738 460.272 347.725 460.272 345.241C460.272 342.757 458.259 340.744 455.775 340.744C453.292 340.744 451.278 342.757 451.278 345.241C451.278 347.725 453.292 349.738 455.775 349.738Z" fill="white"/>
<path opacity="0.37" d="M590.681 322.756C593.165 322.756 595.178 320.743 595.178 318.26C595.178 315.776 593.165 313.763 590.681 313.763C588.198 313.763 586.185 315.776 586.185 318.26C586.185 320.743 588.198 322.756 590.681 322.756Z" fill="white"/>
<path opacity="0.73" d="M574.495 790.432C576.978 790.432 578.992 788.418 578.992 785.935C578.992 783.451 576.978 781.438 574.495 781.438C572.011 781.438 569.998 783.451 569.998 785.935C569.998 788.418 572.011 790.432 574.495 790.432Z" fill="white"/>
<path opacity="0.54" d="M437.789 754.457C440.272 754.457 442.286 752.443 442.286 749.96C442.286 747.476 440.272 745.463 437.789 745.463C435.305 745.463 433.292 747.476 433.292 749.96C433.292 752.443 435.305 754.457 437.789 754.457Z" fill="white"/>
<path opacity="0.31" d="M344.253 648.33C346.736 648.33 348.75 646.317 348.75 643.833C348.75 641.35 346.736 639.336 344.253 639.336C341.769 639.336 339.756 641.35 339.756 643.833C339.756 646.317 341.769 648.33 344.253 648.33Z" fill="white"/>
<path opacity="0.26" d="M329.865 506.229C332.349 506.229 334.362 504.216 334.362 501.732C334.362 499.248 332.349 497.235 329.865 497.235C327.381 497.235 325.368 499.248 325.368 501.732C325.368 504.216 327.381 506.229 329.865 506.229Z" fill="white"/>
<path opacity="0.32" d="M396.418 380.316C398.901 380.316 400.915 378.303 400.915 375.819C400.915 373.336 398.901 371.323 396.418 371.323C393.934 371.323 391.921 373.336 391.921 375.819C391.921 378.303 393.934 380.316 396.418 380.316Z" fill="white"/>
<path d="M522.33 313.763C524.813 313.763 526.827 311.749 526.827 309.266C526.827 306.782 524.813 304.769 522.33 304.769C519.846 304.769 517.833 306.782 517.833 309.266C517.833 311.749 519.846 313.763 522.33 313.763Z" fill="white"/>
<path opacity="0.2" d="M666.23 329.952C668.714 329.952 670.727 327.939 670.727 325.455C670.727 322.972 668.714 320.958 666.23 320.958C663.747 320.958 661.733 322.972 661.733 325.455C661.733 327.939 663.747 329.952 666.23 329.952Z" fill="white"/>
<path opacity="0.83" d="M642.846 788.633C645.33 788.633 647.343 786.619 647.343 784.136C647.343 781.652 645.33 779.639 642.846 779.639C640.363 779.639 638.35 781.652 638.35 784.136C638.35 786.619 640.363 788.633 642.846 788.633Z" fill="white"/>
<path opacity="0.5" d="M495.347 792.231C497.831 792.231 499.844 790.217 499.844 787.734C499.844 785.25 497.831 783.237 495.347 783.237C492.864 783.237 490.851 785.25 490.851 787.734C490.851 790.217 492.864 792.231 495.347 792.231Z" fill="white"/>
<path opacity="0.3" d="M371.233 713.085C373.717 713.085 375.73 711.071 375.73 708.588C375.73 706.104 373.717 704.091 371.233 704.091C368.75 704.091 366.736 706.104 366.736 708.588C366.736 711.071 368.75 713.085 371.233 713.085Z" fill="white"/>
<path opacity="0.52" d="M315.472 574.582C317.956 574.582 319.969 572.568 319.969 570.085C319.969 567.601 317.956 565.588 315.472 565.588C312.989 565.588 310.976 567.601 310.976 570.085C310.976 572.568 312.989 574.582 315.472 574.582Z" fill="white"/>
<path opacity="0.49" d="M344.253 428.883C346.736 428.883 348.75 426.869 348.75 424.386C348.75 421.902 346.736 419.889 344.253 419.889C341.769 419.889 339.756 421.902 339.756 424.386C339.756 426.869 341.769 428.883 344.253 428.883Z" fill="white"/>
<path opacity="0.48" d="M452.179 324.555C454.662 324.555 456.675 322.542 456.675 320.058C456.675 317.575 454.662 315.562 452.179 315.562C449.695 315.562 447.682 317.575 447.682 320.058C447.682 322.542 449.695 324.555 452.179 324.555Z" fill="white"/>
<path opacity="0.84" d="M601.475 301.171C603.959 301.171 605.972 299.158 605.972 296.675C605.972 294.191 603.959 292.178 601.475 292.178C598.992 292.178 596.979 294.191 596.979 296.675C596.979 299.158 598.992 301.171 601.475 301.171Z" fill="white"/>
<path opacity="0.75" d="M565.501 813.815C567.984 813.815 569.998 811.802 569.998 809.318C569.998 806.835 567.984 804.821 565.501 804.821C563.017 804.821 561.004 806.835 561.004 809.318C561.004 811.802 563.017 813.815 565.501 813.815Z" fill="white"/>
<path d="M418.003 768.846C420.486 768.846 422.5 766.833 422.5 764.349C422.5 761.866 420.486 759.853 418.003 759.853C415.519 759.853 413.506 761.866 413.506 764.349C413.506 766.833 415.519 768.846 418.003 768.846Z" fill="white"/>
<path opacity="0.63" d="M320.869 648.33C323.353 648.33 325.366 646.317 325.366 643.833C325.366 641.35 323.353 639.336 320.869 639.336C318.385 639.336 316.372 641.35 316.372 643.833C316.372 646.317 318.385 648.33 320.869 648.33Z" fill="white"/>
<path opacity="0.11" d="M308.278 493.638C310.762 493.638 312.775 491.624 312.775 489.141C312.775 486.657 310.762 484.644 308.278 484.644C305.795 484.644 303.781 486.657 303.781 489.141C303.781 491.624 305.795 493.638 308.278 493.638Z" fill="white"/>
<path opacity="0.6" d="M385.626 358.732C388.109 358.732 390.123 356.718 390.123 354.235C390.123 351.751 388.109 349.738 385.626 349.738C383.142 349.738 381.129 351.751 381.129 354.235C381.129 356.718 383.142 358.732 385.626 358.732Z" fill="white"/>
<path opacity="0.74" d="M527.726 290.379C530.21 290.379 532.223 288.365 532.223 285.882C532.223 283.398 530.21 281.385 527.726 281.385C525.243 281.385 523.229 283.398 523.229 285.882C523.229 288.365 525.243 290.379 527.726 290.379Z" fill="white"/>
<path opacity="0.96" d="M684.219 313.763C686.702 313.763 688.715 311.749 688.715 309.266C688.715 306.782 686.702 304.769 684.219 304.769C681.735 304.769 679.722 306.782 679.722 309.266C679.722 311.749 681.735 313.763 684.219 313.763Z" fill="white"/>
<path opacity="0.76" d="M641.046 813.815C643.529 813.815 645.543 811.802 645.543 809.318C645.543 806.835 643.529 804.821 641.046 804.821C638.562 804.821 636.549 806.835 636.549 809.318C636.549 811.802 638.562 813.815 641.046 813.815Z" fill="white"/>
<path opacity="0.32" d="M480.96 812.016C483.443 812.016 485.457 810.003 485.457 807.52C485.457 805.036 483.443 803.023 480.96 803.023C478.476 803.023 476.463 805.036 476.463 807.52C476.463 810.003 478.476 812.016 480.96 812.016Z" fill="white"/>
<path opacity="0.94" d="M347.851 720.28C350.335 720.28 352.348 718.267 352.348 715.783C352.348 713.3 350.335 711.287 347.851 711.287C345.368 711.287 343.354 713.3 343.354 715.783C343.354 718.267 345.368 720.28 347.851 720.28Z" fill="white"/>
<path opacity="0.41" d="M292.091 567.387C294.574 567.387 296.588 565.373 296.588 562.89C296.588 560.406 294.574 558.393 292.091 558.393C289.607 558.393 287.594 560.406 287.594 562.89C287.594 565.373 289.607 567.387 292.091 567.387Z" fill="white"/>
<path opacity="0.92" d="M329.865 410.895C332.349 410.895 334.362 408.882 334.362 406.398C334.362 403.915 332.349 401.902 329.865 401.902C327.381 401.902 325.368 403.915 325.368 406.398C325.368 408.882 327.381 410.895 329.865 410.895Z" fill="white"/>
<path opacity="0.96" d="M450.379 301.171C452.862 301.171 454.876 299.158 454.876 296.675C454.876 294.191 452.862 292.178 450.379 292.178C447.895 292.178 445.882 294.191 445.882 296.675C445.882 299.158 447.895 301.171 450.379 301.171Z" fill="white"/>
<path opacity="0.7" d="M614.065 279.587C616.549 279.587 618.562 277.573 618.562 275.09C618.562 272.606 616.549 270.593 614.065 270.593C611.582 270.593 609.568 272.606 609.568 275.09C609.568 277.573 611.582 279.587 614.065 279.587Z" fill="white"/>
<path opacity="0.12" d="M556.507 835.4C558.99 835.4 561.004 833.387 561.004 830.904C561.004 828.42 558.99 826.407 556.507 826.407C554.023 826.407 552.01 828.42 552.01 830.904C552.01 833.387 554.023 835.4 556.507 835.4Z" fill="white"/>
<path opacity="0.88" d="M398.216 781.438C400.699 781.438 402.713 779.424 402.713 776.941C402.713 774.457 400.699 772.444 398.216 772.444C395.732 772.444 393.719 774.457 393.719 776.941C393.719 779.424 395.732 781.438 398.216 781.438Z" fill="white"/>
<path opacity="0.74" d="M295.687 649.23C298.668 649.23 301.084 646.814 301.084 643.834C301.084 640.853 298.668 638.438 295.687 638.438C292.707 638.438 290.291 640.853 290.291 643.834C290.291 646.814 292.707 649.23 295.687 649.23Z" fill="white"/>
<path opacity="0.37" d="M288.494 480.147C291.474 480.147 293.89 477.731 293.89 474.751C293.89 471.771 291.474 469.355 288.494 469.355C285.514 469.355 283.098 471.771 283.098 474.751C283.098 477.731 285.514 480.147 288.494 480.147Z" fill="white"/>
<path opacity="0.27" d="M378.431 336.247C381.412 336.247 383.828 333.831 383.828 330.85C383.828 327.87 381.412 325.454 378.431 325.454C375.451 325.454 373.035 327.87 373.035 330.85C373.035 333.831 375.451 336.247 378.431 336.247Z" fill="white"/>
<path opacity="0.81" d="M534.922 267.895C537.902 267.895 540.318 265.479 540.318 262.498C540.318 259.518 537.902 257.102 534.922 257.102C531.941 257.102 529.525 259.518 529.525 262.498C529.525 265.479 531.941 267.895 534.922 267.895Z" fill="white"/>
<path opacity="0.62" d="M637.449 838.098C640.429 838.098 642.845 835.682 642.845 832.702C642.845 829.722 640.429 827.306 637.449 827.306C634.469 827.306 632.053 829.722 632.053 832.702C632.053 835.682 634.469 838.098 637.449 838.098Z" fill="white"/>
<path opacity="0.4" d="M464.77 830.904C467.751 830.904 470.167 828.488 470.167 825.507C470.167 822.527 467.751 820.111 464.77 820.111C461.79 820.111 459.374 822.527 459.374 825.507C459.374 828.488 461.79 830.904 464.77 830.904Z" fill="white"/>
<path opacity="0.2" d="M324.469 726.576C327.449 726.576 329.865 724.16 329.865 721.18C329.865 718.2 327.449 715.784 324.469 715.784C321.488 715.784 319.072 718.2 319.072 721.18C319.072 724.16 321.488 726.576 324.469 726.576Z" fill="white"/>
<path opacity="0.4" d="M268.707 561.091C271.687 561.091 274.103 558.675 274.103 555.695C274.103 552.715 271.687 550.299 268.707 550.299C265.727 550.299 263.311 552.715 263.311 555.695C263.311 558.675 265.727 561.091 268.707 561.091Z" fill="white"/>
<path opacity="0.29" d="M315.474 390.21C318.455 390.21 320.871 387.794 320.871 384.813C320.871 381.833 318.455 379.417 315.474 379.417C312.494 379.417 310.078 381.833 310.078 384.813C310.078 387.794 312.494 390.21 315.474 390.21Z" fill="white"/>
<path opacity="0.74" d="M450.381 276.889C453.361 276.889 455.777 274.473 455.777 271.492C455.777 268.512 453.361 266.096 450.381 266.096C447.4 266.096 444.984 268.512 444.984 271.492C444.984 274.473 447.4 276.889 450.381 276.889Z" fill="white"/>
<path opacity="0.63" d="M626.657 260.7C629.637 260.7 632.053 258.284 632.053 255.304C632.053 252.323 629.637 249.907 626.657 249.907C623.677 249.907 621.261 252.323 621.261 255.304C621.261 258.284 623.677 260.7 626.657 260.7Z" fill="white"/>
<path opacity="0.5" d="M545.714 859.684C548.694 859.684 551.11 857.268 551.11 854.287C551.11 851.307 548.694 848.891 545.714 848.891C542.733 848.891 540.317 851.307 540.317 854.287C540.317 857.268 542.733 859.684 545.714 859.684Z" fill="white"/>
<path opacity="0.26" d="M376.631 794.928C379.611 794.928 382.027 792.513 382.027 789.532C382.027 786.552 379.611 784.136 376.631 784.136C373.65 784.136 371.234 786.552 371.234 789.532C371.234 792.513 373.65 794.928 376.631 794.928Z" fill="white"/>
<path opacity="0.58" d="M272.303 645.632C275.284 645.632 277.7 643.216 277.7 640.236C277.7 637.255 275.284 634.839 272.303 634.839C269.323 634.839 266.907 637.255 266.907 640.236C266.907 643.216 269.323 645.632 272.303 645.632Z" fill="white"/>
<path opacity="0.88" d="M270.506 463.959C273.486 463.959 275.902 461.543 275.902 458.562C275.902 455.582 273.486 453.166 270.506 453.166C267.525 453.166 265.109 455.582 265.109 458.562C265.109 461.543 267.525 463.959 270.506 463.959Z" fill="white"/>
<path opacity="0.16" d="M371.235 311.064C374.215 311.064 376.631 308.648 376.631 305.668C376.631 302.688 374.215 300.272 371.235 300.272C368.255 300.272 365.839 302.688 365.839 305.668C365.839 308.648 368.255 311.064 371.235 311.064Z" fill="white"/>
<path opacity="0.89" d="M542.116 242.712C545.096 242.712 547.512 240.296 547.512 237.316C547.512 234.336 545.096 231.92 542.116 231.92C539.136 231.92 536.72 234.336 536.72 237.316C536.72 240.296 539.136 242.712 542.116 242.712Z" fill="white"/>
<path opacity="0.27" d="M633.853 863.281C636.834 863.281 639.25 860.865 639.25 857.884C639.25 854.904 636.834 852.488 633.853 852.488C630.873 852.488 628.457 854.904 628.457 857.884C628.457 860.865 630.873 863.281 633.853 863.281Z" fill="white"/>
<path opacity="0.82" d="M446.782 848.891C449.762 848.891 452.178 846.475 452.178 843.495C452.178 840.515 449.762 838.099 446.782 838.099C443.802 838.099 441.386 840.515 441.386 843.495C441.386 846.475 443.802 848.891 446.782 848.891Z" fill="white"/>
<path opacity="0.89" d="M301.086 730.173C304.066 730.173 306.482 727.757 306.482 724.777C306.482 721.797 304.066 719.381 301.086 719.381C298.105 719.381 295.689 721.797 295.689 724.777C295.689 727.757 298.105 730.173 301.086 730.173Z" fill="white"/>
<path opacity="0.83" d="M245.323 550.298C248.303 550.298 250.719 547.882 250.719 544.902C250.719 541.922 248.303 539.506 245.323 539.506C242.343 539.506 239.927 541.922 239.927 544.902C239.927 547.882 242.343 550.298 245.323 550.298Z" fill="white"/>
<path opacity="0.99" d="M302.884 368.624C305.864 368.624 308.28 366.208 308.28 363.228C308.28 360.248 305.864 357.832 302.884 357.832C299.903 357.832 297.487 360.248 297.487 363.228C297.487 366.208 299.903 368.624 302.884 368.624Z" fill="white"/>
<path opacity="0.62" d="M452.178 251.706C455.159 251.706 457.575 249.29 457.575 246.31C457.575 243.329 455.159 240.913 452.178 240.913C449.198 240.913 446.782 243.329 446.782 246.31C446.782 249.29 449.198 251.706 452.178 251.706Z" fill="white"/>
<path opacity="0.69" d="M642.847 240.913C645.828 240.913 648.244 238.497 648.244 235.517C648.244 232.537 645.828 230.121 642.847 230.121C639.867 230.121 637.451 232.537 637.451 235.517C637.451 238.497 639.867 240.913 642.847 240.913Z" fill="white"/>
<path opacity="0.74" d="M533.124 881.268C536.104 881.268 538.52 878.852 538.52 875.872C538.52 872.892 536.104 870.476 533.124 870.476C530.144 870.476 527.728 872.892 527.728 875.872C527.728 878.852 530.144 881.268 533.124 881.268Z" fill="white"/>
<path opacity="0.85" d="M353.249 805.721C356.229 805.721 358.645 803.305 358.645 800.324C358.645 797.344 356.229 794.928 353.249 794.928C350.269 794.928 347.853 797.344 347.853 800.324C347.853 803.305 350.269 805.721 353.249 805.721Z" fill="white"/>
<path opacity="0.76" d="M247.121 642.035C250.101 642.035 252.517 639.619 252.517 636.639C252.517 633.658 250.101 631.242 247.121 631.242C244.141 631.242 241.725 633.658 241.725 636.639C241.725 639.619 244.141 642.035 247.121 642.035Z" fill="white"/>
<path opacity="0.67" d="M252.519 445.971C255.5 445.971 257.916 443.555 257.916 440.574C257.916 437.594 255.5 435.178 252.519 435.178C249.539 435.178 247.123 437.594 247.123 440.574C247.123 443.555 249.539 445.971 252.519 445.971Z" fill="white"/>
<path opacity="0.72" d="M365.839 287.681C368.819 287.681 371.235 285.265 371.235 282.285C371.235 279.304 368.819 276.888 365.839 276.888C362.858 276.888 360.442 279.304 360.442 282.285C360.442 285.265 362.858 287.681 365.839 287.681Z" fill="white"/>
<path opacity="0.95" d="M551.11 221.127C554.09 221.127 556.506 218.711 556.506 215.731C556.506 212.75 554.09 210.334 551.11 210.334C548.13 210.334 545.714 212.75 545.714 215.731C545.714 218.711 548.13 221.127 551.11 221.127Z" fill="white"/>
<path opacity="0.51" d="M626.657 886.665C629.637 886.665 632.053 884.249 632.053 881.268C632.053 878.288 629.637 875.872 626.657 875.872C623.677 875.872 621.261 878.288 621.261 881.268C621.261 884.249 623.677 886.665 626.657 886.665Z" fill="white"/>
<path opacity="0.57" d="M426.998 865.08C429.978 865.08 432.394 862.664 432.394 859.683C432.394 856.703 429.978 854.287 426.998 854.287C424.018 854.287 421.602 856.703 421.602 859.683C421.602 862.664 424.018 865.08 426.998 865.08Z" fill="white"/>
<path opacity="0.42" d="M275.901 733.771C278.881 733.771 281.297 731.355 281.297 728.375C281.297 725.394 278.881 722.979 275.901 722.979C272.921 722.979 270.505 725.394 270.505 728.375C270.505 731.355 272.921 733.771 275.901 733.771Z" fill="white"/>
<path opacity="0.22" d="M223.738 537.707C226.718 537.707 229.134 535.291 229.134 532.311C229.134 529.331 226.718 526.915 223.738 526.915C220.758 526.915 218.342 529.331 218.342 532.311C218.342 535.291 220.758 537.707 223.738 537.707Z" fill="white"/>
<path opacity="0.89" d="M290.292 347.04C293.272 347.04 295.688 344.624 295.688 341.643C295.688 338.663 293.272 336.247 290.292 336.247C287.311 336.247 284.896 338.663 284.896 341.643C284.896 344.624 287.311 347.04 290.292 347.04Z" fill="white"/>
<path opacity="0.79" d="M455.776 226.523C458.756 226.523 461.172 224.107 461.172 221.127C461.172 218.147 458.756 215.731 455.776 215.731C452.796 215.731 450.38 218.147 450.38 221.127C450.38 224.107 452.796 226.523 455.776 226.523Z" fill="white"/>
<path opacity="0.45" d="M659.034 221.127C662.014 221.127 664.43 218.711 664.43 215.731C664.43 212.75 662.014 210.334 659.034 210.334C656.054 210.334 653.638 212.75 653.638 215.731C653.638 218.711 656.054 221.127 659.034 221.127Z" fill="white"/>
<path opacity="0.17" d="M518.733 901.955C522.21 901.955 525.029 899.136 525.029 895.659C525.029 892.182 522.21 889.363 518.733 889.363C515.256 889.363 512.438 892.182 512.438 895.659C512.438 899.136 515.256 901.955 518.733 901.955Z" fill="white"/>
<path opacity="0.85" d="M329.864 815.614C333.341 815.614 336.16 812.795 336.16 809.318C336.16 805.841 333.341 803.023 329.864 803.023C326.387 803.023 323.568 805.841 323.568 809.318C323.568 812.795 326.387 815.614 329.864 815.614Z" fill="white"/>
<path opacity="0.72" d="M221.94 637.538C225.417 637.538 228.236 634.719 228.236 631.242C228.236 627.765 225.417 624.946 221.94 624.946C218.463 624.946 215.645 627.765 215.645 631.242C215.645 634.719 218.463 637.538 221.94 637.538Z" fill="white"/>
<path opacity="0.86" d="M234.532 428.883C238.009 428.883 240.828 426.064 240.828 422.587C240.828 419.11 238.009 416.291 234.532 416.291C231.055 416.291 228.236 419.11 228.236 422.587C228.236 426.064 231.055 428.883 234.532 428.883Z" fill="white"/>
<path opacity="0.56" d="M362.24 263.398C365.717 263.398 368.536 260.579 368.536 257.102C368.536 253.625 365.717 250.807 362.24 250.807C358.763 250.807 355.944 253.625 355.944 257.102C355.944 260.579 358.763 263.398 362.24 263.398Z" fill="white"/>
<path opacity="0.29" d="M561.901 198.643C565.378 198.643 568.197 195.825 568.197 192.348C568.197 188.871 565.378 186.052 561.901 186.052C558.424 186.052 555.605 188.871 555.605 192.348C555.605 195.825 558.424 198.643 561.901 198.643Z" fill="white"/>
<path opacity="0.78" d="M619.463 912.746C622.94 912.746 625.758 909.927 625.758 906.45C625.758 902.973 622.94 900.155 619.463 900.155C615.986 900.155 613.167 902.973 613.167 906.45C613.167 909.927 615.986 912.746 619.463 912.746Z" fill="white"/>
<path opacity="0.63" d="M407.209 882.168C410.686 882.168 413.504 879.349 413.504 875.872C413.504 872.395 410.686 869.576 407.209 869.576C403.732 869.576 400.913 872.395 400.913 875.872C400.913 879.349 403.732 882.168 407.209 882.168Z" fill="white"/>
<path opacity="0.65" d="M248.921 736.469C252.398 736.469 255.216 733.651 255.216 730.174C255.216 726.697 252.398 723.878 248.921 723.878C245.444 723.878 242.625 726.697 242.625 730.174C242.625 733.651 245.444 736.469 248.921 736.469Z" fill="white"/>
<path opacity="0.15" d="M202.153 526.016C205.63 526.016 208.449 523.197 208.449 519.72C208.449 516.243 205.63 513.424 202.153 513.424C198.676 513.424 195.857 516.243 195.857 519.72C195.857 523.197 198.676 526.016 202.153 526.016Z" fill="white"/>
<path opacity="0.92" d="M281.299 324.555C284.776 324.555 287.594 321.737 287.594 318.26C287.594 314.783 284.776 311.964 281.299 311.964C277.822 311.964 275.003 314.783 275.003 318.26C275.003 321.737 277.822 324.555 281.299 324.555Z" fill="white"/>
<path opacity="0.97" d="M459.376 202.24C462.853 202.24 465.671 199.422 465.671 195.945C465.671 192.468 462.853 189.649 459.376 189.649C455.899 189.649 453.08 192.468 453.08 195.945C453.08 199.422 455.899 202.24 459.376 202.24Z" fill="white"/>
<path opacity="0.65" d="M677.021 204.039C680.498 204.039 683.317 201.22 683.317 197.743C683.317 194.266 680.498 191.448 677.021 191.448C673.544 191.448 670.726 194.266 670.726 197.743C670.726 201.22 673.544 204.039 677.021 204.039Z" fill="white"/>
<path opacity="0.12" d="M502.543 923.539C506.02 923.539 508.838 920.72 508.838 917.243C508.838 913.766 506.02 910.948 502.543 910.948C499.066 910.948 496.247 913.766 496.247 917.243C496.247 920.72 499.066 923.539 502.543 923.539Z" fill="white"/>
<path opacity="0.33" d="M304.681 824.608C308.158 824.608 310.977 821.789 310.977 818.312C310.977 814.835 308.158 812.016 304.681 812.016C301.204 812.016 298.386 814.835 298.386 818.312C298.386 821.789 301.204 824.608 304.681 824.608Z" fill="white"/>
<path opacity="0.35" d="M196.758 630.343C200.235 630.343 203.053 627.524 203.053 624.047C203.053 620.57 200.235 617.752 196.758 617.752C193.281 617.752 190.462 620.57 190.462 624.047C190.462 627.524 193.281 630.343 196.758 630.343Z" fill="white"/>
<path opacity="0.2" d="M218.342 409.097C221.819 409.097 224.637 406.278 224.637 402.801C224.637 399.324 221.819 396.505 218.342 396.505C214.865 396.505 212.046 399.324 212.046 402.801C212.046 406.278 214.865 409.097 218.342 409.097Z" fill="white"/>
<path opacity="0.59" d="M360.444 238.215C363.921 238.215 366.74 235.397 366.74 231.92C366.74 228.443 363.921 225.624 360.444 225.624C356.967 225.624 354.148 228.443 354.148 231.92C354.148 235.397 356.967 238.215 360.444 238.215Z" fill="white"/>
<path opacity="0.3" d="M574.494 175.259C577.971 175.259 580.789 172.44 580.789 168.963C580.789 165.486 577.971 162.667 574.494 162.667C571.017 162.667 568.198 165.486 568.198 168.963C568.198 172.44 571.017 175.259 574.494 175.259Z" fill="white"/>
<path opacity="0.15" d="M610.468 936.13C613.945 936.13 616.764 933.311 616.764 929.834C616.764 926.357 613.945 923.539 610.468 923.539C606.991 923.539 604.173 926.357 604.173 929.834C604.173 933.311 606.991 936.13 610.468 936.13Z" fill="white"/>
<path opacity="0.46" d="M385.625 896.557C389.102 896.557 391.92 893.739 391.92 890.262C391.92 886.785 389.102 883.966 385.625 883.966C382.148 883.966 379.329 886.785 379.329 890.262C379.329 893.739 382.148 896.557 385.625 896.557Z" fill="white"/>
<path opacity="0.12" d="M223.738 736.469C227.215 736.469 230.034 733.651 230.034 730.174C230.034 726.697 227.215 723.878 223.738 723.878C220.261 723.878 217.442 726.697 217.442 730.174C217.442 733.651 220.261 736.469 223.738 736.469Z" fill="white"/>
<path opacity="0.53" d="M180.567 511.625C184.044 511.625 186.863 508.807 186.863 505.33C186.863 501.853 184.044 499.034 180.567 499.034C177.09 499.034 174.271 501.853 174.271 505.33C174.271 508.807 177.09 511.625 180.567 511.625Z" fill="white"/>
<path opacity="0.49" d="M272.302 301.172C275.779 301.172 278.598 298.353 278.598 294.876C278.598 291.399 275.779 288.581 272.302 288.581C268.825 288.581 266.007 291.399 266.007 294.876C266.007 298.353 268.825 301.172 272.302 301.172Z" fill="white"/>
<path opacity="0.85" d="M466.57 177.058C470.047 177.058 472.866 174.239 472.866 170.762C472.866 167.285 470.047 164.467 466.57 164.467C463.093 164.467 460.274 167.285 460.274 170.762C460.274 174.239 463.093 177.058 466.57 177.058Z" fill="white"/>
<path opacity="0.73" d="M696.807 186.051C700.284 186.051 703.103 183.233 703.103 179.756C703.103 176.279 700.284 173.46 696.807 173.46C693.33 173.46 690.512 176.279 690.512 179.756C690.512 183.233 693.33 186.051 696.807 186.051Z" fill="white"/>
<path opacity="0.95" d="M486.356 943.326C489.833 943.326 492.652 940.507 492.652 937.03C492.652 933.553 489.833 930.734 486.356 930.734C482.879 930.734 480.061 933.553 480.061 937.03C480.061 940.507 482.879 943.326 486.356 943.326Z" fill="white"/>
<path opacity="0.37" d="M279.501 831.803C282.978 831.803 285.796 828.984 285.796 825.507C285.796 822.03 282.978 819.211 279.501 819.211C276.024 819.211 273.205 822.03 273.205 825.507C273.205 828.984 276.024 831.803 279.501 831.803Z" fill="white"/>
<path opacity="0.79" d="M173.373 621.349C176.85 621.349 179.668 618.531 179.668 615.054C179.668 611.577 176.85 608.758 173.373 608.758C169.896 608.758 167.077 611.577 167.077 615.054C167.077 618.531 169.896 621.349 173.373 621.349Z" fill="white"/>
<path opacity="0.35" d="M202.153 387.511C205.63 387.511 208.449 384.693 208.449 381.216C208.449 377.739 205.63 374.92 202.153 374.92C198.676 374.92 195.857 377.739 195.857 381.216C195.857 384.693 198.676 387.511 202.153 387.511Z" fill="white"/>
<path opacity="0.15" d="M358.644 211.234C362.121 211.234 364.94 208.416 364.94 204.939C364.94 201.462 362.121 198.643 358.644 198.643C355.167 198.643 352.349 201.462 352.349 204.939C352.349 208.416 355.167 211.234 358.644 211.234Z" fill="white"/>
<path opacity="0.68" d="M588.884 153.675C592.36 153.675 595.179 150.856 595.179 147.379C595.179 143.902 592.36 141.083 588.884 141.083C585.407 141.083 582.588 143.902 582.588 147.379C582.588 150.856 585.407 153.675 588.884 153.675Z" fill="white"/>
<path opacity="0.11" d="M364.04 910.049C368.013 910.049 371.235 906.827 371.235 902.854C371.235 898.88 368.013 895.659 364.04 895.659C360.066 895.659 356.845 898.88 356.845 902.854C356.845 906.827 360.066 910.049 364.04 910.049Z" fill="white"/>
<path opacity="0.74" d="M196.757 735.57C200.73 735.57 203.952 732.349 203.952 728.375C203.952 724.401 200.73 721.18 196.757 721.18C192.783 721.18 189.562 724.401 189.562 728.375C189.562 732.349 192.783 735.57 196.757 735.57Z" fill="white"/>
<path opacity="0.68" d="M158.982 496.336C162.956 496.336 166.177 493.114 166.177 489.141C166.177 485.167 162.956 481.946 158.982 481.946C155.008 481.946 151.787 485.167 151.787 489.141C151.787 493.114 155.008 496.336 158.982 496.336Z" fill="white"/>
<path opacity="0.93" d="M263.31 276.888C267.284 276.888 270.505 273.667 270.505 269.693C270.505 265.72 267.284 262.498 263.31 262.498C259.337 262.498 256.115 265.72 256.115 269.693C256.115 273.667 259.337 276.888 263.31 276.888Z" fill="white"/>
<path opacity="0.31" d="M473.765 152.775C477.739 152.775 480.96 149.553 480.96 145.58C480.96 141.606 477.739 138.385 473.765 138.385C469.792 138.385 466.57 141.606 466.57 145.58C466.57 149.553 469.792 152.775 473.765 152.775Z" fill="white"/>
<path opacity="0.54" d="M254.318 838.098C258.292 838.098 261.513 834.877 261.513 830.903C261.513 826.93 258.292 823.708 254.318 823.708C250.344 823.708 247.123 826.93 247.123 830.903C247.123 834.877 250.344 838.098 254.318 838.098Z" fill="white"/>
<path opacity="0.18" d="M148.19 613.255C152.164 613.255 155.385 610.033 155.385 606.06C155.385 602.086 152.164 598.865 148.19 598.865C144.216 598.865 140.995 602.086 140.995 606.06C140.995 610.033 144.216 613.255 148.19 613.255Z" fill="white"/>
<path opacity="0.73" d="M187.762 366.826C191.736 366.826 194.957 363.604 194.957 359.631C194.957 355.657 191.736 352.436 187.762 352.436C183.789 352.436 180.567 355.657 180.567 359.631C180.567 363.604 183.789 366.826 187.762 366.826Z" fill="white"/>
<path opacity="0.19" d="M360.443 185.152C364.417 185.152 367.638 181.931 367.638 177.957C367.638 173.984 364.417 170.762 360.443 170.762C356.469 170.762 353.248 173.984 353.248 177.957C353.248 181.931 356.469 185.152 360.443 185.152Z" fill="white"/>
<path opacity="0.36" d="M605.074 132.989C609.048 132.989 612.269 129.768 612.269 125.794C612.269 121.82 609.048 118.599 605.074 118.599C601.1 118.599 597.879 121.82 597.879 125.794C597.879 129.768 601.1 132.989 605.074 132.989Z" fill="white"/>
<path opacity="0.53" d="M338.859 922.64C342.833 922.64 346.054 919.419 346.054 915.445C346.054 911.471 342.833 908.25 338.859 908.25C334.885 908.25 331.664 911.471 331.664 915.445C331.664 919.419 334.885 922.64 338.859 922.64Z" fill="white"/>
<path opacity="0.99" d="M171.572 731.972C175.546 731.972 178.767 728.751 178.767 724.777C178.767 720.804 175.546 717.582 171.572 717.582C167.598 717.582 164.377 720.804 164.377 724.777C164.377 728.751 167.598 731.972 171.572 731.972Z" fill="white"/>
<path opacity="0.96" d="M139.196 478.348C143.17 478.348 146.391 475.127 146.391 471.153C146.391 467.18 143.17 463.958 139.196 463.958C135.222 463.958 132.001 467.18 132.001 471.153C132.001 475.127 135.222 478.348 139.196 478.348Z" fill="white"/>
<path opacity="0.17" d="M256.114 249.907C260.088 249.907 263.309 246.686 263.309 242.712C263.309 238.738 260.088 235.517 256.114 235.517C252.14 235.517 248.919 238.738 248.919 242.712C248.919 246.686 252.14 249.907 256.114 249.907Z" fill="white"/>
<path opacity="0.45" d="M482.759 127.592C486.733 127.592 489.954 124.371 489.954 120.397C489.954 116.423 486.733 113.202 482.759 113.202C478.786 113.202 475.564 116.423 475.564 120.397C475.564 124.371 478.786 127.592 482.759 127.592Z" fill="white"/>
<path opacity="0.94" d="M227.336 841.696C231.309 841.696 234.531 838.474 234.531 834.501C234.531 830.527 231.309 827.306 227.336 827.306C223.362 827.306 220.141 830.527 220.141 834.501C220.141 838.474 223.362 841.696 227.336 841.696Z" fill="white"/>
<path opacity="0.11" d="M123.009 600.664C126.983 600.664 130.204 597.442 130.204 593.469C130.204 589.495 126.983 586.274 123.009 586.274C119.036 586.274 115.814 589.495 115.814 593.469C115.814 597.442 119.036 600.664 123.009 600.664Z" fill="white"/>
<path opacity="0.26" d="M175.173 343.442C179.146 343.442 182.368 340.221 182.368 336.247C182.368 332.274 179.146 329.052 175.173 329.052C171.199 329.052 167.978 332.274 167.978 336.247C167.978 340.221 171.199 343.442 175.173 343.442Z" fill="white"/>
<path opacity="0.56" d="M362.242 158.171C366.216 158.171 369.437 154.95 369.437 150.976C369.437 147.003 366.216 143.781 362.242 143.781C358.268 143.781 355.047 147.003 355.047 150.976C355.047 154.95 358.268 158.171 362.242 158.171Z" fill="white"/>
<path opacity="0.74" d="M621.259 111.403C625.233 111.403 628.454 108.182 628.454 104.208C628.454 100.235 625.233 97.0134 621.259 97.0134C617.286 97.0134 614.064 100.235 614.064 104.208C614.064 108.182 617.286 111.403 621.259 111.403Z" fill="white"/>
<path opacity="0.88" d="M315.474 933.432C319.448 933.432 322.669 930.211 322.669 926.237C322.669 922.264 319.448 919.042 315.474 919.042C311.501 919.042 308.279 922.264 308.279 926.237C308.279 930.211 311.501 933.432 315.474 933.432Z" fill="white"/>
<path opacity="0.87" d="M144.591 726.576C148.565 726.576 151.786 723.354 151.786 719.381C151.786 715.407 148.565 712.186 144.591 712.186C140.618 712.186 137.396 715.407 137.396 719.381C137.396 723.354 140.618 726.576 144.591 726.576Z" fill="white"/>
<path opacity="0.16" d="M119.412 458.562C123.385 458.562 126.607 455.341 126.607 451.367C126.607 447.393 123.385 444.172 119.412 444.172C115.438 444.172 112.217 447.393 112.217 451.367C112.217 455.341 115.438 458.562 119.412 458.562Z" fill="white"/>
<path opacity="0.54" d="M252.517 222.926C256.491 222.926 259.712 219.705 259.712 215.731C259.712 211.758 256.491 208.536 252.517 208.536C248.544 208.536 245.322 211.758 245.322 215.731C245.322 219.705 248.544 222.926 252.517 222.926Z" fill="white"/>
<path opacity="0.97" d="M493.549 104.208C497.523 104.208 500.744 100.987 500.744 97.0134C500.744 93.0397 497.523 89.8184 493.549 89.8184C489.576 89.8184 486.354 93.0397 486.354 97.0134C486.354 100.987 489.576 104.208 493.549 104.208Z" fill="white"/>
<path opacity="0.43" d="M200.355 845.293C204.329 845.293 207.55 842.072 207.55 838.098C207.55 834.125 204.329 830.903 200.355 830.903C196.381 830.903 193.16 834.125 193.16 838.098C193.16 842.072 196.381 845.293 200.355 845.293Z" fill="white"/>
<path opacity="0.34" d="M99.6227 588.072C103.596 588.072 106.818 584.851 106.818 580.877C106.818 576.903 103.596 573.682 99.6227 573.682C95.649 573.682 92.4277 576.903 92.4277 580.877C92.4277 584.851 95.649 588.072 99.6227 588.072Z" fill="white"/>
<path opacity="0.66" d="M162.58 318.259C166.553 318.259 169.775 315.038 169.775 311.064C169.775 307.091 166.553 303.869 162.58 303.869C158.606 303.869 155.385 307.091 155.385 311.064C155.385 315.038 158.606 318.259 162.58 318.259Z" fill="white"/>
<path opacity="0.2" d="M365.84 131.19C369.813 131.19 373.035 127.968 373.035 123.995C373.035 120.021 369.813 116.8 365.84 116.8C361.866 116.8 358.645 120.021 358.645 123.995C358.645 127.968 361.866 131.19 365.84 131.19Z" fill="white"/>
<path opacity="0.5" d="M641.049 92.5169C645.52 92.5169 649.144 88.8929 649.144 84.4225C649.144 79.9521 645.52 76.3281 641.049 76.3281C636.579 76.3281 632.955 79.9521 632.955 84.4225C632.955 88.8929 636.579 92.5169 641.049 92.5169Z" fill="white"/>
<path opacity="0.71" d="M288.494 945.124C292.964 945.124 296.588 941.5 296.588 937.029C296.588 932.559 292.964 928.935 288.494 928.935C284.023 928.935 280.399 932.559 280.399 937.029C280.399 941.5 284.023 945.124 288.494 945.124Z" fill="white"/>
<path opacity="0.58" d="M117.611 722.079C122.081 722.079 125.705 718.455 125.705 713.985C125.705 709.515 122.081 705.891 117.611 705.891C113.141 705.891 109.517 709.515 109.517 713.985C109.517 718.455 113.141 722.079 117.611 722.079Z" fill="white"/>
<path opacity="0.72" d="M101.424 439.676C105.895 439.676 109.519 436.052 109.519 431.581C109.519 427.111 105.895 423.487 101.424 423.487C96.9541 423.487 93.3301 427.111 93.3301 431.581C93.3301 436.052 96.9541 439.676 101.424 439.676Z" fill="white"/>
<path opacity="0.72" d="M248.921 196.844C253.391 196.844 257.015 193.22 257.015 188.75C257.015 184.279 253.391 180.655 248.921 180.655C244.45 180.655 240.826 184.279 240.826 188.75C240.826 193.22 244.45 196.844 248.921 196.844Z" fill="white"/>
<path opacity="0.59" d="M506.143 79.9251C510.614 79.9251 514.238 76.3011 514.238 71.8307C514.238 67.3603 510.614 63.7363 506.143 63.7363C501.673 63.7363 498.049 67.3603 498.049 71.8307C498.049 76.3011 501.673 79.9251 506.143 79.9251Z" fill="white"/>
<path opacity="0.45" d="M173.372 846.192C177.842 846.192 181.466 842.568 181.466 838.098C181.466 833.628 177.842 830.004 173.372 830.004C168.901 830.004 165.277 833.628 165.277 838.098C165.277 842.568 168.901 846.192 173.372 846.192Z" fill="white"/>
<path opacity="0.47" d="M76.2399 574.582C80.7103 574.582 84.3343 570.958 84.3343 566.487C84.3343 562.017 80.7103 558.393 76.2399 558.393C71.7695 558.393 68.1455 562.017 68.1455 566.487C68.1455 570.958 71.7695 574.582 76.2399 574.582Z" fill="white"/>
<path opacity="0.12" d="M151.788 293.976C156.258 293.976 159.882 290.352 159.882 285.882C159.882 281.412 156.258 277.788 151.788 277.788C147.317 277.788 143.693 281.412 143.693 285.882C143.693 290.352 147.317 293.976 151.788 293.976Z" fill="white"/>
<path opacity="0.91" d="M371.237 105.108C375.707 105.108 379.331 101.484 379.331 97.0133C379.331 92.5429 375.707 88.9189 371.237 88.9189C366.767 88.9189 363.143 92.5429 363.143 97.0133C363.143 101.484 366.767 105.108 371.237 105.108Z" fill="white"/>
<path opacity="0.77" d="M660.834 72.7305C665.304 72.7305 668.928 69.1065 668.928 64.6361C668.928 60.1657 665.304 56.5417 660.834 56.5417C656.363 56.5417 652.739 60.1657 652.739 64.6361C652.739 69.1065 656.363 72.7305 660.834 72.7305Z" fill="white"/>
<path opacity="0.72" d="M263.311 952.319C267.782 952.319 271.406 948.695 271.406 944.225C271.406 939.754 267.782 936.13 263.311 936.13C258.841 936.13 255.217 939.754 255.217 944.225C255.217 948.695 258.841 952.319 263.311 952.319Z" fill="white"/>
<path opacity="0.27" d="M90.6305 713.085C95.1009 713.085 98.7249 709.461 98.7249 704.991C98.7249 700.52 95.1009 696.896 90.6305 696.896C86.1601 696.896 82.5361 700.52 82.5361 704.991C82.5361 709.461 86.1601 713.085 90.6305 713.085Z" fill="white"/>
<path d="M83.4342 418.09C87.9046 418.09 91.5286 414.466 91.5286 409.996C91.5286 405.526 87.9046 401.902 83.4342 401.902C78.9638 401.902 75.3398 405.526 75.3398 409.996C75.3398 414.466 78.9638 418.09 83.4342 418.09Z" fill="white"/>
<path opacity="0.65" d="M245.323 169.863C249.793 169.863 253.417 166.239 253.417 161.769C253.417 157.298 249.793 153.674 245.323 153.674C240.852 153.674 237.229 157.298 237.229 161.769C237.229 166.239 240.852 169.863 245.323 169.863Z" fill="white"/>
<path opacity="0.81" d="M520.532 54.7427C525.002 54.7427 528.626 51.1187 528.626 46.6483C528.626 42.1779 525.002 38.554 520.532 38.554C516.061 38.554 512.438 42.1779 512.438 46.6483C512.438 51.1187 516.061 54.7427 520.532 54.7427Z" fill="white"/>
<path opacity="0.21" d="M144.591 846.192C149.062 846.192 152.686 842.568 152.686 838.098C152.686 833.628 149.062 830.004 144.591 830.004C140.121 830.004 136.497 833.628 136.497 838.098C136.497 842.568 140.121 846.192 144.591 846.192Z" fill="white"/>
<path opacity="0.84" d="M52.858 556.594C57.3284 556.594 60.9524 552.97 60.9524 548.5C60.9524 544.029 57.3284 540.405 52.858 540.405C48.3876 540.405 44.7637 544.029 44.7637 548.5C44.7637 552.97 48.3876 556.594 52.858 556.594Z" fill="white"/>
<path opacity="0.44" d="M140.995 266.995C145.465 266.995 149.089 263.371 149.089 258.901C149.089 254.431 145.465 250.807 140.995 250.807C136.524 250.807 132.9 254.431 132.9 258.901C132.9 263.371 136.524 266.995 140.995 266.995Z" fill="white"/>
<path opacity="0.15" d="M378.431 78.126C382.902 78.126 386.526 74.502 386.526 70.0316C386.526 65.5612 382.902 61.9373 378.431 61.9373C373.961 61.9373 370.337 65.5612 370.337 70.0316C370.337 74.502 373.961 78.126 378.431 78.126Z" fill="white"/>
<path opacity="0.17" d="M682.421 54.7427C686.891 54.7427 690.515 51.1187 690.515 46.6483C690.515 42.1779 686.891 38.554 682.421 38.554C677.95 38.554 674.326 42.1779 674.326 46.6483C674.326 51.1187 677.95 54.7427 682.421 54.7427Z" fill="white"/>
<path opacity="0.96" d="M234.529 959.514C238.999 959.514 242.623 955.89 242.623 951.42C242.623 946.949 238.999 943.325 234.529 943.325C230.059 943.325 226.435 946.949 226.435 951.42C226.435 955.89 230.059 959.514 234.529 959.514Z" fill="white"/>
<path opacity="0.71" d="M63.65 704.092C68.1204 704.092 71.7444 700.468 71.7444 695.997C71.7444 691.527 68.1204 687.903 63.65 687.903C59.1796 687.903 55.5557 691.527 55.5557 695.997C55.5557 700.468 59.1796 704.092 63.65 704.092Z" fill="white"/>
<path opacity="0.49" d="M67.2457 394.707C71.7161 394.707 75.3401 391.083 75.3401 386.612C75.3401 382.142 71.7161 378.518 67.2457 378.518C62.7753 378.518 59.1514 382.142 59.1514 386.612C59.1514 391.083 62.7753 394.707 67.2457 394.707Z" fill="white"/>
<path opacity="0.52" d="M245.323 141.083C249.793 141.083 253.417 137.459 253.417 132.988C253.417 128.518 249.793 124.894 245.323 124.894C240.852 124.894 237.229 128.518 237.229 132.988C237.229 137.459 240.852 141.083 245.323 141.083Z" fill="white"/>
<path opacity="0.73" d="M536.719 31.3589C541.19 31.3589 544.814 27.7349 544.814 23.2645C544.814 18.7941 541.19 15.1702 536.719 15.1702C532.249 15.1702 528.625 18.7941 528.625 23.2645C528.625 27.7349 532.249 31.3589 536.719 31.3589Z" fill="white"/>
<path opacity="0.75" d="M115.812 845.293C120.779 845.293 124.806 841.267 124.806 836.299C124.806 831.332 120.779 827.306 115.812 827.306C110.845 827.306 106.818 831.332 106.818 836.299C106.818 841.267 110.845 845.293 115.812 845.293Z" fill="white"/>
<path opacity="0.91" d="M31.273 541.305C36.2402 541.305 40.2668 537.278 40.2668 532.311C40.2668 527.344 36.2402 523.318 31.273 523.318C26.3059 523.318 22.2793 527.344 22.2793 532.311C22.2793 537.278 26.3059 541.305 31.273 541.305Z" fill="white"/>
<path opacity="0.2" d="M133.8 240.914C138.768 240.914 142.794 236.887 142.794 231.92C142.794 226.953 138.768 222.926 133.8 222.926C128.833 222.926 124.807 226.953 124.807 231.92C124.807 236.887 128.833 240.914 133.8 240.914Z" fill="white"/>
<path opacity="0.25" d="M387.422 52.0449C392.39 52.0449 396.416 48.0182 396.416 43.0511C396.416 38.084 392.39 34.0574 387.422 34.0574C382.455 34.0574 378.429 38.084 378.429 43.0511C378.429 48.0182 382.455 52.0449 387.422 52.0449Z" fill="white"/>
<path opacity="0.11" d="M704.004 37.6547C708.971 37.6547 712.997 33.6281 712.997 28.661C712.997 23.6939 708.971 19.6672 704.004 19.6672C699.036 19.6672 695.01 23.6939 695.01 28.661C695.01 33.6281 699.036 37.6547 704.004 37.6547Z" fill="white"/>
<path opacity="0.67" d="M36.6686 692.4C41.6357 692.4 45.6623 688.373 45.6623 683.406C45.6623 678.439 41.6357 674.412 36.6686 674.412C31.7014 674.412 27.6748 678.439 27.6748 683.406C27.6748 688.373 31.7014 692.4 36.6686 692.4Z" fill="white"/>
<path opacity="0.49" d="M51.0572 370.423C56.0243 370.423 60.051 366.397 60.051 361.43C60.051 356.462 56.0243 352.436 51.0572 352.436C46.0901 352.436 42.0635 356.462 42.0635 361.43C42.0635 366.397 46.0901 370.423 51.0572 370.423Z" fill="white"/>
<path opacity="0.16" d="M247.123 113.202C252.09 113.202 256.116 109.175 256.116 104.208C256.116 99.241 252.09 95.2144 247.123 95.2144C242.156 95.2144 238.129 99.241 238.129 104.208C238.129 109.175 242.156 113.202 247.123 113.202Z" fill="white"/>
<path opacity="0.42" d="M552.91 8.87471C557.877 8.87471 561.904 4.84807 561.904 -0.119042C561.904 -5.08615 557.877 -9.11279 552.91 -9.11279C547.943 -9.11279 543.916 -5.08615 543.916 -0.119042C543.916 4.84807 547.943 8.87471 552.91 8.87471Z" fill="white"/>
<path opacity="0.43" d="M87.0338 841.696C92.0009 841.696 96.0275 837.669 96.0275 832.702C96.0275 827.735 92.0009 823.708 87.0338 823.708C82.0667 823.708 78.04 827.735 78.04 832.702C78.04 837.669 82.0667 841.696 87.0338 841.696Z" fill="white"/>
<path opacity="0.93" d="M9.68613 521.519C14.6532 521.519 18.6799 517.492 18.6799 512.525C18.6799 507.558 14.6532 503.531 9.68613 503.531C4.71902 503.531 0.692383 507.558 0.692383 512.525C0.692383 517.492 4.71902 521.519 9.68613 521.519Z" fill="white"/>
<path opacity="0.55" d="M126.606 212.133C131.573 212.133 135.6 208.107 135.6 203.14C135.6 198.173 131.573 194.146 126.606 194.146C121.639 194.146 117.612 198.173 117.612 203.14C117.612 208.107 121.639 212.133 126.606 212.133Z" fill="white"/>
<path opacity="0.97" d="M398.214 23.2648C403.182 23.2648 407.208 19.2382 407.208 14.2711C407.208 9.30398 403.182 5.27734 398.214 5.27734C393.247 5.27734 389.221 9.30398 389.221 14.2711C389.221 19.2382 393.247 23.2648 398.214 23.2648Z" fill="white"/>
</svg>
