<svg width="183" height="372" viewBox="0 0 183 372" fill="none" xmlns="http://www.w3.org/2000/svg">
<g opacity="0.2">
<circle cx="11.2086" cy="11.2086" r="11.2086" fill="#00587E"/>
<circle cx="58.0206" cy="11.2086" r="11.2086" fill="#00587E"/>
<circle cx="104.833" cy="11.2086" r="11.2086" fill="#00587E"/>
<circle cx="151.645" cy="11.2086" r="11.2086" fill="#00587E"/>
<circle cx="11.2086" cy="61.149" r="11.2086" fill="#00587E"/>
<circle cx="58.0206" cy="61.149" r="11.2086" fill="#00587E"/>
<circle cx="104.833" cy="61.149" r="11.2086" fill="#00587E"/>
<circle cx="151.645" cy="61.149" r="11.2086" fill="#00587E"/>
<circle cx="11.2086" cy="111.089" r="11.2086" fill="#00587E"/>
<circle cx="58.0206" cy="111.089" r="11.2086" fill="#00587E"/>
<circle cx="104.833" cy="111.089" r="11.2086" fill="#00587E"/>
<circle cx="151.645" cy="111.089" r="11.2086" fill="#00587E"/>
<circle cx="11.2086" cy="161.03" r="11.2086" fill="#00587E"/>
<circle cx="58.0206" cy="161.03" r="11.2086" fill="#00587E"/>
<circle cx="104.833" cy="161.03" r="11.2086" fill="#00587E"/>
<circle cx="151.645" cy="161.03" r="11.2086" fill="#00587E"/>
<circle cx="11.2086" cy="210.97" r="11.2086" fill="#00587E"/>
<circle cx="58.0206" cy="210.97" r="11.2086" fill="#00587E"/>
<circle cx="104.833" cy="210.97" r="11.2086" fill="#00587E"/>
<circle cx="151.645" cy="210.97" r="11.2086" fill="#00587E"/>
<circle cx="11.2086" cy="260.911" r="11.2086" fill="#00587E"/>
<circle cx="58.0206" cy="260.911" r="11.2086" fill="#00587E"/>
<circle cx="104.833" cy="260.911" r="11.2086" fill="#00587E"/>
<circle cx="151.645" cy="260.911" r="11.2086" fill="#00587E"/>
<circle cx="11.2086" cy="310.851" r="11.2086" fill="#00587E"/>
<circle cx="58.0206" cy="310.851" r="11.2086" fill="#00587E"/>
<circle cx="104.833" cy="310.851" r="11.2086" fill="#00587E"/>
<circle cx="151.645" cy="310.851" r="11.2086" fill="#00587E"/>
<circle cx="11.2086" cy="360.791" r="11.2086" fill="#00587E"/>
<circle cx="58.0206" cy="360.791" r="11.2086" fill="#00587E"/>
<circle cx="104.833" cy="360.791" r="11.2086" fill="#00587E"/>
<circle cx="151.645" cy="360.791" r="11.2086" fill="#00587E"/>
</g>
</svg>
