<svg width="522" height="602" viewBox="0 0 522 602" fill="none" xmlns="http://www.w3.org/2000/svg">
<path d="M468.143 462.942C468.463 462.942 468.721 462.683 468.721 462.364C468.721 462.045 468.463 461.786 468.143 461.786C467.824 461.786 467.565 462.045 467.565 462.364C467.565 462.683 467.824 462.942 468.143 462.942Z" fill="#00587E" fill-opacity="0.1"/>
<path d="M468.143 466.41C468.463 466.41 468.721 466.151 468.721 465.832C468.721 465.513 468.463 465.254 468.143 465.254C467.824 465.254 467.565 465.513 467.565 465.832C467.565 466.151 467.824 466.41 468.143 466.41Z" fill="#00587E" fill-opacity="0.1"/>
<path d="M464.676 469.879C464.995 469.879 465.254 469.62 465.254 469.301C465.254 468.981 464.995 468.723 464.676 468.723C464.356 468.723 464.098 468.981 464.098 469.301C464.098 469.62 464.356 469.879 464.676 469.879Z" fill="#00587E" fill-opacity="0.1"/>
<path d="M460.053 471.033C460.372 471.033 460.631 470.774 460.631 470.455C460.631 470.136 460.372 469.877 460.053 469.877C459.733 469.877 459.475 470.136 459.475 470.455C459.475 470.774 459.733 471.033 460.053 471.033Z" fill="#00587E" fill-opacity="0.1"/>
<path d="M456.584 468.722C456.903 468.722 457.162 468.464 457.162 468.144C457.162 467.825 456.903 467.566 456.584 467.566C456.265 467.566 456.006 467.825 456.006 468.144C456.006 468.464 456.265 468.722 456.584 468.722Z" fill="#00587E" fill-opacity="0.1"/>
<path d="M453.117 464.097C453.436 464.097 453.695 463.839 453.695 463.519C453.695 463.2 453.436 462.941 453.117 462.941C452.798 462.941 452.539 463.2 452.539 463.519C452.539 463.839 452.798 464.097 453.117 464.097Z" fill="#00587E" fill-opacity="0.1"/>
<path d="M453.117 458.318C453.436 458.318 453.695 458.059 453.695 457.74C453.695 457.421 453.436 457.162 453.117 457.162C452.798 457.162 452.539 457.421 452.539 457.74C452.539 458.059 452.798 458.318 453.117 458.318Z" fill="#00587E" fill-opacity="0.1"/>
<path d="M456.584 453.695C456.903 453.695 457.162 453.436 457.162 453.117C457.162 452.798 456.903 452.539 456.584 452.539C456.265 452.539 456.006 452.798 456.006 453.117C456.006 453.436 456.265 453.695 456.584 453.695Z" fill="#00587E" fill-opacity="0.1"/>
<path d="M463.519 451.382C463.839 451.382 464.097 451.124 464.097 450.805C464.097 450.485 463.839 450.227 463.519 450.227C463.2 450.227 462.941 450.485 462.941 450.805C462.941 451.124 463.2 451.382 463.519 451.382Z" fill="#00587E" fill-opacity="0.1"/>
<path d="M470.455 453.695C470.774 453.695 471.033 453.436 471.033 453.117C471.033 452.798 470.774 452.539 470.455 452.539C470.136 452.539 469.877 452.798 469.877 453.117C469.877 453.436 470.136 453.695 470.455 453.695Z" fill="#00587E" fill-opacity="0.1"/>
<path d="M475.079 459.474C475.398 459.474 475.657 459.216 475.657 458.896C475.657 458.577 475.398 458.318 475.079 458.318C474.76 458.318 474.501 458.577 474.501 458.896C474.501 459.216 474.76 459.474 475.079 459.474Z" fill="#00587E" fill-opacity="0.1"/>
<path d="M475.079 467.565C475.398 467.565 475.657 467.306 475.657 466.987C475.657 466.668 475.398 466.409 475.079 466.409C474.76 466.409 474.501 466.668 474.501 466.987C474.501 467.306 474.76 467.565 475.079 467.565Z" fill="#00587E" fill-opacity="0.1"/>
<path d="M470.455 474.502C470.774 474.502 471.033 474.243 471.033 473.924C471.033 473.604 470.774 473.346 470.455 473.346C470.136 473.346 469.877 473.604 469.877 473.924C469.877 474.243 470.136 474.502 470.455 474.502Z" fill="#00587E" fill-opacity="0.1"/>
<path d="M463.519 477.968C463.839 477.968 464.097 477.71 464.097 477.39C464.097 477.071 463.839 476.812 463.519 476.812C463.2 476.812 462.941 477.071 462.941 477.39C462.941 477.71 463.2 477.968 463.519 477.968Z" fill="#00587E" fill-opacity="0.1"/>
<path d="M454.272 475.657C454.591 475.657 454.85 475.398 454.85 475.079C454.85 474.76 454.591 474.501 454.272 474.501C453.953 474.501 453.694 474.76 453.694 475.079C453.694 475.398 453.953 475.657 454.272 475.657Z" fill="#00587E" fill-opacity="0.1"/>
<path d="M447.337 469.878C447.656 469.878 447.915 469.619 447.915 469.3C447.915 468.98 447.656 468.722 447.337 468.722C447.018 468.722 446.759 468.98 446.759 469.3C446.759 469.619 447.018 469.878 447.337 469.878Z" fill="#00587E" fill-opacity="0.1"/>
<path d="M446.181 459.474C446.501 459.474 446.759 459.216 446.759 458.896C446.759 458.577 446.501 458.318 446.181 458.318C445.862 458.318 445.604 458.577 445.604 458.896C445.604 459.216 445.862 459.474 446.181 459.474Z" fill="#00587E" fill-opacity="0.1"/>
<path d="M449.648 450.228C449.967 450.228 450.226 449.969 450.226 449.65C450.226 449.331 449.967 449.072 449.648 449.072C449.329 449.072 449.07 449.331 449.07 449.65C449.07 449.969 449.329 450.228 449.648 450.228Z" fill="#00587E" fill-opacity="0.1"/>
<path d="M458.896 445.603C459.216 445.603 459.474 445.344 459.474 445.025C459.474 444.706 459.216 444.447 458.896 444.447C458.577 444.447 458.318 444.706 458.318 445.025C458.318 445.344 458.577 445.603 458.896 445.603Z" fill="#00587E" fill-opacity="0.1"/>
<path d="M469.299 445.603C469.618 445.603 469.877 445.344 469.877 445.025C469.877 444.706 469.618 444.447 469.299 444.447C468.979 444.447 468.721 444.706 468.721 445.025C468.721 445.344 468.979 445.603 469.299 445.603Z" fill="#00587E" fill-opacity="0.1"/>
<path d="M478.547 452.539C478.866 452.539 479.125 452.28 479.125 451.961C479.125 451.642 478.866 451.383 478.547 451.383C478.228 451.383 477.969 451.642 477.969 451.961C477.969 452.28 478.228 452.539 478.547 452.539Z" fill="#00587E" fill-opacity="0.1"/>
<path d="M483.17 464.097C483.489 464.097 483.748 463.839 483.748 463.519C483.748 463.2 483.489 462.941 483.17 462.941C482.851 462.941 482.592 463.2 482.592 463.519C482.592 463.839 482.851 464.097 483.17 464.097Z" fill="#00587E" fill-opacity="0.1"/>
<path d="M479.703 475.658C480.022 475.658 480.281 475.399 480.281 475.08C480.281 474.761 480.022 474.502 479.703 474.502C479.384 474.502 479.125 474.761 479.125 475.08C479.125 475.399 479.384 475.658 479.703 475.658Z" fill="#00587E" fill-opacity="0.1"/>
<path d="M469.299 483.748C469.618 483.748 469.877 483.489 469.877 483.17C469.877 482.851 469.618 482.592 469.299 482.592C468.979 482.592 468.721 482.851 468.721 483.17C468.721 483.489 468.979 483.748 469.299 483.748Z" fill="#00587E" fill-opacity="0.1"/>
<path d="M456.584 484.904C456.903 484.904 457.162 484.645 457.162 484.326C457.162 484.007 456.903 483.748 456.584 483.748C456.265 483.748 456.006 484.007 456.006 484.326C456.006 484.645 456.265 484.904 456.584 484.904Z" fill="#00587E" fill-opacity="0.1"/>
<path d="M445.025 477.968C445.344 477.968 445.603 477.71 445.603 477.39C445.603 477.071 445.344 476.812 445.025 476.812C444.706 476.812 444.447 477.071 444.447 477.39C444.447 477.71 444.706 477.968 445.025 477.968Z" fill="#00587E" fill-opacity="0.1"/>
<path d="M439.246 465.254C439.565 465.254 439.824 464.995 439.824 464.676C439.824 464.356 439.565 464.098 439.246 464.098C438.927 464.098 438.668 464.356 438.668 464.676C438.668 464.995 438.927 465.254 439.246 465.254Z" fill="#00587E" fill-opacity="0.1"/>
<path d="M440.401 451.383C440.72 451.383 440.979 451.125 440.979 450.805C440.979 450.486 440.72 450.228 440.401 450.228C440.082 450.228 439.823 450.486 439.823 450.805C439.823 451.125 440.082 451.383 440.401 451.383Z" fill="#00587E" fill-opacity="0.1"/>
<path d="M450.805 440.98C451.124 440.98 451.382 440.721 451.382 440.402C451.382 440.083 451.124 439.824 450.805 439.824C450.485 439.824 450.227 440.083 450.227 440.402C450.227 440.721 450.485 440.98 450.805 440.98Z" fill="#00587E" fill-opacity="0.1"/>
<path d="M465.832 438.09C466.47 438.09 466.988 437.573 466.988 436.934C466.988 436.296 466.47 435.778 465.832 435.778C465.193 435.778 464.676 436.296 464.676 436.934C464.676 437.573 465.193 438.09 465.832 438.09Z" fill="#00587E" fill-opacity="0.1"/>
<path d="M479.703 443.869C480.341 443.869 480.859 443.352 480.859 442.714C480.859 442.075 480.341 441.558 479.703 441.558C479.064 441.558 478.547 442.075 478.547 442.714C478.547 443.352 479.064 443.869 479.703 443.869Z" fill="#00587E" fill-opacity="0.1"/>
<path d="M488.95 456.585C489.588 456.585 490.106 456.068 490.106 455.429C490.106 454.791 489.588 454.273 488.95 454.273C488.311 454.273 487.794 454.791 487.794 455.429C487.794 456.068 488.311 456.585 488.95 456.585Z" fill="#00587E" fill-opacity="0.1"/>
<path d="M488.95 472.767C489.588 472.767 490.106 472.249 490.106 471.611C490.106 470.973 489.588 470.455 488.95 470.455C488.311 470.455 487.794 470.973 487.794 471.611C487.794 472.249 488.311 472.767 488.95 472.767Z" fill="#00587E" fill-opacity="0.1"/>
<path d="M478.547 486.638C479.185 486.638 479.702 486.12 479.702 485.482C479.702 484.844 479.185 484.326 478.547 484.326C477.908 484.326 477.391 484.844 477.391 485.482C477.391 486.12 477.908 486.638 478.547 486.638Z" fill="#00587E" fill-opacity="0.1"/>
<path d="M463.52 492.417C464.159 492.417 464.676 491.9 464.676 491.261C464.676 490.623 464.159 490.105 463.52 490.105C462.882 490.105 462.364 490.623 462.364 491.261C462.364 491.9 462.882 492.417 463.52 492.417Z" fill="#00587E" fill-opacity="0.1"/>
<path d="M446.181 488.95C446.82 488.95 447.337 488.433 447.337 487.795C447.337 487.156 446.82 486.639 446.181 486.639C445.543 486.639 445.025 487.156 445.025 487.795C445.025 488.433 445.543 488.95 446.181 488.95Z" fill="#00587E" fill-opacity="0.1"/>
<path d="M433.465 475.079C434.104 475.079 434.621 474.562 434.621 473.923C434.621 473.285 434.104 472.768 433.465 472.768C432.827 472.768 432.31 473.285 432.31 473.923C432.31 474.562 432.827 475.079 433.465 475.079Z" fill="#00587E" fill-opacity="0.1"/>
<path d="M431.154 456.585C431.792 456.585 432.31 456.068 432.31 455.429C432.31 454.791 431.792 454.273 431.154 454.273C430.516 454.273 429.998 454.791 429.998 455.429C429.998 456.068 430.516 456.585 431.154 456.585Z" fill="#00587E" fill-opacity="0.1"/>
<path d="M440.401 440.402C441.039 440.402 441.557 439.884 441.557 439.246C441.557 438.607 441.039 438.09 440.401 438.09C439.763 438.09 439.245 438.607 439.245 439.246C439.245 439.884 439.763 440.402 440.401 440.402Z" fill="#00587E" fill-opacity="0.1"/>
<path d="M456.585 431.155C457.223 431.155 457.741 430.637 457.741 429.999C457.741 429.36 457.223 428.843 456.585 428.843C455.946 428.843 455.429 429.36 455.429 429.999C455.429 430.637 455.946 431.155 456.585 431.155Z" fill="#00587E" fill-opacity="0.1"/>
<path d="M476.235 433.466C476.873 433.466 477.391 432.949 477.391 432.31C477.391 431.672 476.873 431.154 476.235 431.154C475.597 431.154 475.079 431.672 475.079 432.31C475.079 432.949 475.597 433.466 476.235 433.466Z" fill="#00587E" fill-opacity="0.1"/>
<path d="M491.261 446.181C491.9 446.181 492.417 445.663 492.417 445.025C492.417 444.387 491.9 443.869 491.261 443.869C490.623 443.869 490.105 444.387 490.105 445.025C490.105 445.663 490.623 446.181 491.261 446.181Z" fill="#00587E" fill-opacity="0.1"/>
<path d="M497.042 465.832C497.68 465.832 498.198 465.315 498.198 464.676C498.198 464.038 497.68 463.521 497.042 463.521C496.403 463.521 495.886 464.038 495.886 464.676C495.886 465.315 496.403 465.832 497.042 465.832Z" fill="#00587E" fill-opacity="0.1"/>
<path d="M490.106 485.482C490.744 485.482 491.262 484.964 491.262 484.326C491.262 483.687 490.744 483.17 490.106 483.17C489.468 483.17 488.95 483.687 488.95 484.326C488.95 484.964 489.468 485.482 490.106 485.482Z" fill="#00587E" fill-opacity="0.1"/>
<path d="M472.767 498.197C473.406 498.197 473.923 497.679 473.923 497.041C473.923 496.402 473.406 495.885 472.767 495.885C472.129 495.885 471.611 496.402 471.611 497.041C471.611 497.679 472.129 498.197 472.767 498.197Z" fill="#00587E" fill-opacity="0.1"/>
<path d="M451.961 499.353C452.599 499.353 453.117 498.835 453.117 498.197C453.117 497.559 452.599 497.041 451.961 497.041C451.322 497.041 450.805 497.559 450.805 498.197C450.805 498.835 451.322 499.353 451.961 499.353Z" fill="#00587E" fill-opacity="0.1"/>
<path d="M433.465 486.638C434.104 486.638 434.621 486.12 434.621 485.482C434.621 484.844 434.104 484.326 433.465 484.326C432.827 484.326 432.31 484.844 432.31 485.482C432.31 486.12 432.827 486.638 433.465 486.638Z" fill="#00587E" fill-opacity="0.1"/>
<path d="M424.218 465.832C424.857 465.832 425.374 465.315 425.374 464.676C425.374 464.038 424.857 463.521 424.218 463.521C423.58 463.521 423.062 464.038 423.062 464.676C423.062 465.315 423.58 465.832 424.218 465.832Z" fill="#00587E" fill-opacity="0.1"/>
<path d="M428.842 443.869C429.481 443.869 429.998 443.352 429.998 442.714C429.998 442.075 429.481 441.558 428.842 441.558C428.204 441.558 427.687 442.075 427.687 442.714C427.687 443.352 428.204 443.869 428.842 443.869Z" fill="#00587E" fill-opacity="0.1"/>
<path d="M445.025 427.687C445.663 427.687 446.181 427.169 446.181 426.531C446.181 425.893 445.663 425.375 445.025 425.375C444.387 425.375 443.869 425.893 443.869 426.531C443.869 427.169 444.387 427.687 445.025 427.687Z" fill="#00587E" fill-opacity="0.1"/>
<path d="M468.143 423.064C468.782 423.064 469.299 422.546 469.299 421.908C469.299 421.269 468.782 420.752 468.143 420.752C467.505 420.752 466.987 421.269 466.987 421.908C466.987 422.546 467.505 423.064 468.143 423.064Z" fill="#00587E" fill-opacity="0.1"/>
<path d="M490.106 433.466C490.744 433.466 491.262 432.949 491.262 432.31C491.262 431.672 490.744 431.154 490.106 431.154C489.468 431.154 488.95 431.672 488.95 432.31C488.95 432.949 489.468 433.466 490.106 433.466Z" fill="#00587E" fill-opacity="0.1"/>
<path d="M502.821 454.273C503.459 454.273 503.977 453.755 503.977 453.117C503.977 452.478 503.459 451.961 502.821 451.961C502.183 451.961 501.665 452.478 501.665 453.117C501.665 453.755 502.183 454.273 502.821 454.273Z" fill="#00587E" fill-opacity="0.1"/>
<path d="M501.665 479.702C502.303 479.702 502.821 479.185 502.821 478.547C502.821 477.908 502.303 477.391 501.665 477.391C501.026 477.391 500.509 477.908 500.509 478.547C500.509 479.185 501.026 479.702 501.665 479.702Z" fill="#00587E" fill-opacity="0.1"/>
<path d="M486.637 499.353C487.276 499.353 487.793 498.835 487.793 498.197C487.793 497.559 487.276 497.041 486.637 497.041C485.999 497.041 485.481 497.559 485.481 498.197C485.481 498.835 485.999 499.353 486.637 499.353Z" fill="#00587E" fill-opacity="0.1"/>
<path d="M461.208 507.445C461.846 507.445 462.364 506.927 462.364 506.289C462.364 505.65 461.846 505.133 461.208 505.133C460.569 505.133 460.052 505.65 460.052 506.289C460.052 506.927 460.569 507.445 461.208 507.445Z" fill="#00587E" fill-opacity="0.1"/>
<path d="M436.934 500.509C437.573 500.509 438.09 499.992 438.09 499.353C438.09 498.715 437.573 498.197 436.934 498.197C436.296 498.197 435.778 498.715 435.778 499.353C435.778 499.992 436.296 500.509 436.934 500.509Z" fill="#00587E" fill-opacity="0.1"/>
<path d="M419.594 479.702C420.233 479.702 420.75 479.185 420.75 478.547C420.75 477.908 420.233 477.391 419.594 477.391C418.956 477.391 418.438 477.908 418.438 478.547C418.438 479.185 418.956 479.702 419.594 479.702Z" fill="#00587E" fill-opacity="0.1"/>
<path d="M417.284 451.961C417.922 451.961 418.44 451.444 418.44 450.805C418.44 450.167 417.922 449.649 417.284 449.649C416.645 449.649 416.128 450.167 416.128 450.805C416.128 451.444 416.645 451.961 417.284 451.961Z" fill="#00587E" fill-opacity="0.1"/>
<path d="M431.154 428.843C431.792 428.843 432.31 428.326 432.31 427.687C432.31 427.049 431.792 426.531 431.154 426.531C430.516 426.531 429.998 427.049 429.998 427.687C429.998 428.326 430.516 428.843 431.154 428.843Z" fill="#00587E" fill-opacity="0.1"/>
<path d="M456.585 416.128C457.223 416.128 457.741 415.611 457.741 414.972C457.741 414.334 457.223 413.816 456.585 413.816C455.946 413.816 455.429 414.334 455.429 414.972C455.429 415.611 455.946 416.128 456.585 416.128Z" fill="#00587E" fill-opacity="0.1"/>
<path d="M484.326 420.751C484.964 420.751 485.482 420.234 485.482 419.595C485.482 418.957 484.964 418.439 484.326 418.439C483.687 418.439 483.17 418.957 483.17 419.595C483.17 420.234 483.687 420.751 484.326 420.751Z" fill="#00587E" fill-opacity="0.1"/>
<path d="M505.132 440.402C505.771 440.402 506.288 439.884 506.288 439.246C506.288 438.607 505.771 438.09 505.132 438.09C504.494 438.09 503.977 438.607 503.977 439.246C503.977 439.884 504.494 440.402 505.132 440.402Z" fill="#00587E" fill-opacity="0.1"/>
<path d="M512.068 468.144C512.706 468.144 513.224 467.626 513.224 466.988C513.224 466.35 512.706 465.832 512.068 465.832C511.43 465.832 510.912 466.35 510.912 466.988C510.912 467.626 511.43 468.144 512.068 468.144Z" fill="#00587E" fill-opacity="0.1"/>
<path d="M500.508 495.886C501.147 495.886 501.664 495.369 501.664 494.73C501.664 494.092 501.147 493.574 500.508 493.574C499.87 493.574 499.353 494.092 499.353 494.73C499.353 495.369 499.87 495.886 500.508 495.886Z" fill="#00587E" fill-opacity="0.1"/>
<path d="M476.235 512.068C476.873 512.068 477.391 511.55 477.391 510.912C477.391 510.273 476.873 509.756 476.235 509.756C475.597 509.756 475.079 510.273 475.079 510.912C475.079 511.55 475.597 512.068 476.235 512.068Z" fill="#00587E" fill-opacity="0.1"/>
<path d="M446.181 512.068C446.82 512.068 447.337 511.55 447.337 510.912C447.337 510.273 446.82 509.756 446.181 509.756C445.543 509.756 445.025 510.273 445.025 510.912C445.025 511.55 445.543 512.068 446.181 512.068Z" fill="#00587E" fill-opacity="0.1"/>
<path d="M420.751 494.73C421.389 494.73 421.907 494.212 421.907 493.574C421.907 492.935 421.389 492.418 420.751 492.418C420.112 492.418 419.595 492.935 419.595 493.574C419.595 494.212 420.112 494.73 420.751 494.73Z" fill="#00587E" fill-opacity="0.1"/>
<path d="M409.192 465.831C409.83 465.831 410.348 465.314 410.348 464.675C410.348 464.037 409.83 463.52 409.192 463.52C408.554 463.52 408.036 464.037 408.036 464.675C408.036 465.314 408.554 465.831 409.192 465.831Z" fill="#00587E" fill-opacity="0.1"/>
<path d="M417.284 434.622C417.922 434.622 418.44 434.105 418.44 433.466C418.44 432.828 417.922 432.311 417.284 432.311C416.645 432.311 416.128 432.828 416.128 433.466C416.128 434.105 416.645 434.622 417.284 434.622Z" fill="#00587E" fill-opacity="0.1"/>
<path d="M440.401 413.816C441.039 413.816 441.557 413.298 441.557 412.66C441.557 412.021 441.039 411.504 440.401 411.504C439.763 411.504 439.245 412.021 439.245 412.66C439.245 413.298 439.763 413.816 440.401 413.816Z" fill="#00587E" fill-opacity="0.1"/>
<path d="M472.767 409.193C473.406 409.193 473.923 408.675 473.923 408.037C473.923 407.398 473.406 406.881 472.767 406.881C472.129 406.881 471.611 407.398 471.611 408.037C471.611 408.675 472.129 409.193 472.767 409.193Z" fill="#00587E" fill-opacity="0.1"/>
<path d="M501.665 424.219C502.303 424.219 502.821 423.702 502.821 423.063C502.821 422.425 502.303 421.907 501.665 421.907C501.026 421.907 500.509 422.425 500.509 423.063C500.509 423.702 501.026 424.219 501.665 424.219Z" fill="#00587E" fill-opacity="0.1"/>
<path d="M517.847 453.117C518.486 453.117 519.003 452.599 519.003 451.961C519.003 451.322 518.486 450.805 517.847 450.805C517.209 450.805 516.691 451.322 516.691 451.961C516.691 452.599 517.209 453.117 517.847 453.117Z" fill="#00587E" fill-opacity="0.1"/>
<path d="M514.38 486.638C515.018 486.638 515.535 486.12 515.535 485.482C515.535 484.844 515.018 484.326 514.38 484.326C513.741 484.326 513.224 484.844 513.224 485.482C513.224 486.12 513.741 486.638 514.38 486.638Z" fill="#00587E" fill-opacity="0.1"/>
<path d="M492.418 513.224C493.056 513.224 493.574 512.706 493.574 512.068C493.574 511.43 493.056 510.912 492.418 510.912C491.779 510.912 491.262 511.43 491.262 512.068C491.262 512.706 491.779 513.224 492.418 513.224Z" fill="#00587E" fill-opacity="0.1"/>
<path d="M460.051 522.472C460.69 522.472 461.207 521.954 461.207 521.316C461.207 520.678 460.69 520.16 460.051 520.16C459.413 520.16 458.896 520.678 458.896 521.316C458.896 521.954 459.413 522.472 460.051 522.472Z" fill="#00587E" fill-opacity="0.1"/>
<path d="M426.53 510.912C427.168 510.912 427.686 510.395 427.686 509.756C427.686 509.118 427.168 508.601 426.53 508.601C425.892 508.601 425.374 509.118 425.374 509.756C425.374 510.395 425.892 510.912 426.53 510.912Z" fill="#00587E" fill-opacity="0.1"/>
<path d="M405.724 482.015C406.363 482.015 406.88 481.497 406.88 480.859C406.88 480.221 406.363 479.703 405.724 479.703C405.086 479.703 404.568 480.221 404.568 480.859C404.568 481.497 405.086 482.015 405.724 482.015Z" fill="#00587E" fill-opacity="0.1"/>
<path d="M404.568 447.337C405.206 447.337 405.724 446.82 405.724 446.181C405.724 445.543 405.206 445.025 404.568 445.025C403.93 445.025 403.412 445.543 403.412 446.181C403.412 446.82 403.93 447.337 404.568 447.337Z" fill="#00587E" fill-opacity="0.1"/>
<path d="M423.063 416.128C423.702 416.128 424.219 415.611 424.219 414.972C424.219 414.334 423.702 413.816 423.063 413.816C422.425 413.816 421.907 414.334 421.907 414.972C421.907 415.611 422.425 416.128 423.063 416.128Z" fill="#00587E" fill-opacity="0.1"/>
<path d="M456.585 402.257C457.223 402.257 457.741 401.74 457.741 401.101C457.741 400.463 457.223 399.945 456.585 399.945C455.946 399.945 455.429 400.463 455.429 401.101C455.429 401.74 455.946 402.257 456.585 402.257Z" fill="#00587E" fill-opacity="0.1"/>
<path d="M492.418 409.193C493.056 409.193 493.574 408.675 493.574 408.037C493.574 407.398 493.056 406.881 492.418 406.881C491.779 406.881 491.262 407.398 491.262 408.037C491.262 408.675 491.779 409.193 492.418 409.193Z" fill="#00587E" fill-opacity="0.1"/>
<path d="M519.004 434.622C519.642 434.622 520.159 434.105 520.159 433.466C520.159 432.828 519.642 432.311 519.004 432.311C518.365 432.311 517.848 432.828 517.848 433.466C517.848 434.105 518.365 434.622 519.004 434.622Z" fill="#00587E" fill-opacity="0.1"/>
<path d="M510.912 507.445C511.55 507.445 512.068 506.927 512.068 506.289C512.068 505.65 511.55 505.133 510.912 505.133C510.273 505.133 509.756 505.65 509.756 506.289C509.756 506.927 510.273 507.445 510.912 507.445Z" fill="#00587E" fill-opacity="0.1"/>
<path d="M477.39 527.673C478.348 527.673 479.124 526.897 479.124 525.939C479.124 524.981 478.348 524.205 477.39 524.205C476.433 524.205 475.656 524.981 475.656 525.939C475.656 526.897 476.433 527.673 477.39 527.673Z" fill="#00587E" fill-opacity="0.1"/>
<path d="M439.246 525.361C440.203 525.361 440.979 524.585 440.979 523.627C440.979 522.67 440.203 521.894 439.246 521.894C438.288 521.894 437.512 522.67 437.512 523.627C437.512 524.585 438.288 525.361 439.246 525.361Z" fill="#00587E" fill-opacity="0.1"/>
<path d="M408.036 502.243C408.993 502.243 409.769 501.467 409.769 500.509C409.769 499.552 408.993 498.775 408.036 498.775C407.078 498.775 406.302 499.552 406.302 500.509C406.302 501.467 407.078 502.243 408.036 502.243Z" fill="#00587E" fill-opacity="0.1"/>
<path d="M395.321 464.098C396.278 464.098 397.055 463.321 397.055 462.364C397.055 461.406 396.278 460.63 395.321 460.63C394.363 460.63 393.587 461.406 393.587 462.364C393.587 463.321 394.363 464.098 395.321 464.098Z" fill="#00587E" fill-opacity="0.1"/>
<path d="M405.724 425.953C406.682 425.953 407.458 425.177 407.458 424.219C407.458 423.262 406.682 422.485 405.724 422.485C404.767 422.485 403.99 423.262 403.99 424.219C403.99 425.177 404.767 425.953 405.724 425.953Z" fill="#00587E" fill-opacity="0.1"/>
<path d="M436.934 400.523C437.892 400.523 438.668 399.747 438.668 398.79C438.668 397.832 437.892 397.056 436.934 397.056C435.976 397.056 435.2 397.832 435.2 398.79C435.2 399.747 435.976 400.523 436.934 400.523Z" fill="#00587E" fill-opacity="0.1"/>
<path d="M477.39 395.899C478.348 395.899 479.124 395.123 479.124 394.166C479.124 393.208 478.348 392.432 477.39 392.432C476.433 392.432 475.656 393.208 475.656 394.166C475.656 395.123 476.433 395.899 477.39 395.899Z" fill="#00587E" fill-opacity="0.1"/>
<path d="M514.38 416.706C515.338 416.706 516.114 415.93 516.114 414.972C516.114 414.015 515.338 413.238 514.38 413.238C513.423 413.238 512.646 414.015 512.646 414.972C512.646 415.93 513.423 416.706 514.38 416.706Z" fill="#00587E" fill-opacity="0.1"/>
<path d="M498.197 526.517C499.154 526.517 499.931 525.74 499.931 524.783C499.931 523.825 499.154 523.049 498.197 523.049C497.239 523.049 496.463 523.825 496.463 524.783C496.463 525.74 497.239 526.517 498.197 526.517Z" fill="#00587E" fill-opacity="0.1"/>
<path d="M456.584 536.92C457.542 536.92 458.318 536.144 458.318 535.186C458.318 534.228 457.542 533.452 456.584 533.452C455.627 533.452 454.851 534.228 454.851 535.186C454.851 536.144 455.627 536.92 456.584 536.92Z" fill="#00587E" fill-opacity="0.1"/>
<path d="M416.127 521.894C417.085 521.894 417.861 521.117 417.861 520.16C417.861 519.202 417.085 518.426 416.127 518.426C415.17 518.426 414.394 519.202 414.394 520.16C414.394 521.117 415.17 521.894 416.127 521.894Z" fill="#00587E" fill-opacity="0.1"/>
<path d="M390.697 484.903C391.654 484.903 392.431 484.127 392.431 483.169C392.431 482.212 391.654 481.436 390.697 481.436C389.739 481.436 388.963 482.212 388.963 483.169C388.963 484.127 389.739 484.903 390.697 484.903Z" fill="#00587E" fill-opacity="0.1"/>
<path d="M390.697 440.979C391.654 440.979 392.431 440.203 392.431 439.246C392.431 438.288 391.654 437.512 390.697 437.512C389.739 437.512 388.963 438.288 388.963 439.246C388.963 440.203 389.739 440.979 390.697 440.979Z" fill="#00587E" fill-opacity="0.1"/>
<path d="M416.127 403.99C417.085 403.99 417.861 403.214 417.861 402.256C417.861 401.299 417.085 400.522 416.127 400.522C415.17 400.522 414.394 401.299 414.394 402.256C414.394 403.214 415.17 403.99 416.127 403.99Z" fill="#00587E" fill-opacity="0.1"/>
<path d="M457.74 387.808C458.697 387.808 459.474 387.031 459.474 386.074C459.474 385.116 458.697 384.34 457.74 384.34C456.782 384.34 456.006 385.116 456.006 386.074C456.006 387.031 456.782 387.808 457.74 387.808Z" fill="#00587E" fill-opacity="0.1"/>
<path d="M501.665 398.211C502.622 398.211 503.398 397.435 503.398 396.477C503.398 395.519 502.622 394.743 501.665 394.743C500.707 394.743 499.931 395.519 499.931 396.477C499.931 397.435 500.707 398.211 501.665 398.211Z" fill="#00587E" fill-opacity="0.1"/>
<path d="M519.003 519.581C519.961 519.581 520.737 518.805 520.737 517.847C520.737 516.89 519.961 516.113 519.003 516.113C518.046 516.113 517.27 516.89 517.27 517.847C517.27 518.805 518.046 519.581 519.003 519.581Z" fill="#00587E" fill-opacity="0.1"/>
<path d="M478.546 542.699C479.504 542.699 480.28 541.923 480.28 540.965C480.28 540.008 479.504 539.231 478.546 539.231C477.589 539.231 476.812 540.008 476.812 540.965C476.812 541.923 477.589 542.699 478.546 542.699Z" fill="#00587E" fill-opacity="0.1"/>
<path d="M431.154 538.076C432.111 538.076 432.888 537.3 432.888 536.342C432.888 535.385 432.111 534.608 431.154 534.608C430.196 534.608 429.42 535.385 429.42 536.342C429.42 537.3 430.196 538.076 431.154 538.076Z" fill="#00587E" fill-opacity="0.1"/>
<path d="M394.166 508.022C395.123 508.022 395.899 507.246 395.899 506.289C395.899 505.331 395.123 504.555 394.166 504.555C393.208 504.555 392.432 505.331 392.432 506.289C392.432 507.246 393.208 508.022 394.166 508.022Z" fill="#00587E" fill-opacity="0.1"/>
<path d="M380.294 461.786C381.252 461.786 382.028 461.01 382.028 460.052C382.028 459.095 381.252 458.318 380.294 458.318C379.337 458.318 378.561 459.095 378.561 460.052C378.561 461.01 379.337 461.786 380.294 461.786Z" fill="#00587E" fill-opacity="0.1"/>
<path d="M395.321 415.55C396.278 415.55 397.055 414.773 397.055 413.816C397.055 412.858 396.278 412.082 395.321 412.082C394.363 412.082 393.587 412.858 393.587 413.816C393.587 414.773 394.363 415.55 395.321 415.55Z" fill="#00587E" fill-opacity="0.1"/>
<path d="M434.622 385.497C435.579 385.497 436.355 384.721 436.355 383.763C436.355 382.806 435.579 382.029 434.622 382.029C433.664 382.029 432.888 382.806 432.888 383.763C432.888 384.721 433.664 385.497 434.622 385.497Z" fill="#00587E" fill-opacity="0.1"/>
<path d="M483.17 383.185C484.128 383.185 484.904 382.408 484.904 381.451C484.904 380.493 484.128 379.717 483.17 379.717C482.213 379.717 481.437 380.493 481.437 381.451C481.437 382.408 482.213 383.185 483.17 383.185Z" fill="#00587E" fill-opacity="0.1"/>
<path d="M502.821 540.389C503.778 540.389 504.555 539.612 504.555 538.655C504.555 537.697 503.778 536.921 502.821 536.921C501.863 536.921 501.087 537.697 501.087 538.655C501.087 539.612 501.863 540.389 502.821 540.389Z" fill="#00587E" fill-opacity="0.1"/>
<path d="M451.96 550.791C452.918 550.791 453.694 550.015 453.694 549.057C453.694 548.1 452.918 547.323 451.96 547.323C451.003 547.323 450.227 548.1 450.227 549.057C450.227 550.015 451.003 550.791 451.96 550.791Z" fill="#00587E" fill-opacity="0.1"/>
<path d="M404.568 531.141C405.525 531.141 406.302 530.364 406.302 529.407C406.302 528.449 405.525 527.673 404.568 527.673C403.61 527.673 402.834 528.449 402.834 529.407C402.834 530.364 403.61 531.141 404.568 531.141Z" fill="#00587E" fill-opacity="0.1"/>
<path d="M376.827 487.216C377.784 487.216 378.561 486.439 378.561 485.482C378.561 484.524 377.784 483.748 376.827 483.748C375.869 483.748 375.093 484.524 375.093 485.482C375.093 486.439 375.869 487.216 376.827 487.216Z" fill="#00587E" fill-opacity="0.1"/>
<path d="M377.982 434.045C378.939 434.045 379.716 433.269 379.716 432.311C379.716 431.353 378.939 430.577 377.982 430.577C377.024 430.577 376.248 431.353 376.248 432.311C376.248 433.269 377.024 434.045 377.982 434.045Z" fill="#00587E" fill-opacity="0.1"/>
<path d="M409.192 391.276C410.149 391.276 410.926 390.5 410.926 389.542C410.926 388.585 410.149 387.809 409.192 387.809C408.234 387.809 407.458 388.585 407.458 389.542C407.458 390.5 408.234 391.276 409.192 391.276Z" fill="#00587E" fill-opacity="0.1"/>
<path d="M460.052 372.781C461.01 372.781 461.786 372.005 461.786 371.047C461.786 370.09 461.01 369.313 460.052 369.313C459.095 369.313 458.318 370.09 458.318 371.047C458.318 372.005 459.095 372.781 460.052 372.781Z" fill="#00587E" fill-opacity="0.1"/>
<path d="M512.068 386.652C513.025 386.652 513.802 385.876 513.802 384.918C513.802 383.961 513.025 383.185 512.068 383.185C511.11 383.185 510.334 383.961 510.334 384.918C510.334 385.876 511.11 386.652 512.068 386.652Z" fill="#00587E" fill-opacity="0.1"/>
<path d="M478.546 557.727C479.504 557.727 480.28 556.95 480.28 555.993C480.28 555.035 479.504 554.259 478.546 554.259C477.589 554.259 476.812 555.035 476.812 555.993C476.812 556.95 477.589 557.727 478.546 557.727Z" fill="#00587E" fill-opacity="0.1"/>
<path d="M423.063 550.791C424.021 550.791 424.797 550.015 424.797 549.057C424.797 548.1 424.021 547.323 423.063 547.323C422.105 547.323 421.329 548.1 421.329 549.057C421.329 550.015 422.105 550.791 423.063 550.791Z" fill="#00587E" fill-opacity="0.1"/>
<path d="M380.294 513.802C381.252 513.802 382.028 513.025 382.028 512.068C382.028 511.11 381.252 510.334 380.294 510.334C379.337 510.334 378.561 511.11 378.561 512.068C378.561 513.025 379.337 513.802 380.294 513.802Z" fill="#00587E" fill-opacity="0.1"/>
<path d="M366.423 458.318C367.381 458.318 368.157 457.542 368.157 456.584C368.157 455.627 367.381 454.851 366.423 454.851C365.466 454.851 364.689 455.627 364.689 456.584C364.689 457.542 365.466 458.318 366.423 458.318Z" fill="#00587E" fill-opacity="0.1"/>
<path d="M384.917 403.991C385.875 403.991 386.651 403.215 386.651 402.257C386.651 401.3 385.875 400.523 384.917 400.523C383.96 400.523 383.184 401.3 383.184 402.257C383.184 403.215 383.96 403.991 384.917 403.991Z" fill="#00587E" fill-opacity="0.1"/>
<path d="M432.31 370.47C433.268 370.47 434.044 369.693 434.044 368.736C434.044 367.778 433.268 367.002 432.31 367.002C431.352 367.002 430.576 367.778 430.576 368.736C430.576 369.693 431.352 370.47 432.31 370.47Z" fill="#00587E" fill-opacity="0.1"/>
<path d="M490.106 369.313C491.064 369.313 491.84 368.537 491.84 367.58C491.84 366.622 491.064 365.846 490.106 365.846C489.148 365.846 488.372 366.622 488.372 367.58C488.372 368.537 489.148 369.313 490.106 369.313Z" fill="#00587E" fill-opacity="0.1"/>
<path d="M506.289 555.415C507.246 555.415 508.022 554.639 508.022 553.681C508.022 552.724 507.246 551.947 506.289 551.947C505.331 551.947 504.555 552.724 504.555 553.681C504.555 554.639 505.331 555.415 506.289 555.415Z" fill="#00587E" fill-opacity="0.1"/>
<path d="M447.337 564.662C448.295 564.662 449.071 563.886 449.071 562.928C449.071 561.971 448.295 561.194 447.337 561.194C446.38 561.194 445.604 561.971 445.604 562.928C445.604 563.886 446.38 564.662 447.337 564.662Z" fill="#00587E" fill-opacity="0.1"/>
<path d="M391.853 539.232C392.811 539.232 393.587 538.456 393.587 537.499C393.587 536.541 392.811 535.765 391.853 535.765C390.895 535.765 390.119 536.541 390.119 537.499C390.119 538.456 390.895 539.232 391.853 539.232Z" fill="#00587E" fill-opacity="0.1"/>
<path d="M361.799 487.217C362.757 487.217 363.533 486.44 363.533 485.483C363.533 484.525 362.757 483.749 361.799 483.749C360.842 483.749 360.065 484.525 360.065 485.483C360.065 486.44 360.842 487.217 361.799 487.217Z" fill="#00587E" fill-opacity="0.1"/>
<path d="M365.268 425.953C366.226 425.953 367.002 425.177 367.002 424.219C367.002 423.262 366.226 422.485 365.268 422.485C364.31 422.485 363.534 423.262 363.534 424.219C363.534 425.177 364.31 425.953 365.268 425.953Z" fill="#00587E" fill-opacity="0.1"/>
<path d="M403.412 377.983C404.689 377.983 405.724 376.948 405.724 375.671C405.724 374.394 404.689 373.359 403.412 373.359C402.136 373.359 401.101 374.394 401.101 375.671C401.101 376.948 402.136 377.983 403.412 377.983Z" fill="#00587E" fill-opacity="0.1"/>
<path d="M463.52 359.488C464.797 359.488 465.832 358.453 465.832 357.176C465.832 355.899 464.797 354.864 463.52 354.864C462.243 354.864 461.208 355.899 461.208 357.176C461.208 358.453 462.243 359.488 463.52 359.488Z" fill="#00587E" fill-opacity="0.1"/>
<path d="M522.471 376.827C523.748 376.827 524.783 375.792 524.783 374.515C524.783 373.238 523.748 372.203 522.471 372.203C521.194 372.203 520.159 373.238 520.159 374.515C520.159 375.792 521.194 376.827 522.471 376.827Z" fill="#00587E" fill-opacity="0.1"/>
<path d="M477.391 573.332C478.668 573.332 479.703 572.297 479.703 571.02C479.703 569.743 478.668 568.708 477.391 568.708C476.114 568.708 475.079 569.743 475.079 571.02C475.079 572.297 476.114 573.332 477.391 573.332Z" fill="#00587E" fill-opacity="0.1"/>
<path d="M412.659 562.928C413.936 562.928 414.971 561.893 414.971 560.617C414.971 559.34 413.936 558.305 412.659 558.305C411.383 558.305 410.348 559.34 410.348 560.617C410.348 561.893 411.383 562.928 412.659 562.928Z" fill="#00587E" fill-opacity="0.1"/>
<path d="M365.267 517.848C366.544 517.848 367.579 516.813 367.579 515.536C367.579 514.26 366.544 513.225 365.267 513.225C363.99 513.225 362.955 514.26 362.955 515.536C362.955 516.813 363.99 517.848 365.267 517.848Z" fill="#00587E" fill-opacity="0.1"/>
<path d="M351.397 454.273C352.674 454.273 353.709 453.238 353.709 451.961C353.709 450.684 352.674 449.649 351.397 449.649C350.12 449.649 349.085 450.684 349.085 451.961C349.085 453.238 350.12 454.273 351.397 454.273Z" fill="#00587E" fill-opacity="0.1"/>
<path d="M376.826 393.009C378.103 393.009 379.138 391.974 379.138 390.698C379.138 389.421 378.103 388.386 376.826 388.386C375.55 388.386 374.515 389.421 374.515 390.698C374.515 391.974 375.55 393.009 376.826 393.009Z" fill="#00587E" fill-opacity="0.1"/>
<path d="M431.155 356.02C432.431 356.02 433.466 354.985 433.466 353.708C433.466 352.432 432.431 351.396 431.155 351.396C429.878 351.396 428.843 352.432 428.843 353.708C428.843 354.985 429.878 356.02 431.155 356.02Z" fill="#00587E" fill-opacity="0.1"/>
<path d="M498.198 357.176C499.474 357.176 500.509 356.141 500.509 354.865C500.509 353.588 499.474 352.553 498.198 352.553C496.921 352.553 495.886 353.588 495.886 354.865C495.886 356.141 496.921 357.176 498.198 357.176Z" fill="#00587E" fill-opacity="0.1"/>
<path d="M509.756 571.02C511.033 571.02 512.068 569.985 512.068 568.708C512.068 567.432 511.033 566.396 509.756 566.396C508.479 566.396 507.444 567.432 507.444 568.708C507.444 569.985 508.479 571.02 509.756 571.02Z" fill="#00587E" fill-opacity="0.1"/>
<path d="M441.557 579.111C442.834 579.111 443.869 578.076 443.869 576.799C443.869 575.522 442.834 574.487 441.557 574.487C440.28 574.487 439.245 575.522 439.245 576.799C439.245 578.076 440.28 579.111 441.557 579.111Z" fill="#00587E" fill-opacity="0.1"/>
<path d="M379.138 547.901C380.415 547.901 381.45 546.866 381.45 545.589C381.45 544.312 380.415 543.277 379.138 543.277C377.861 543.277 376.826 544.312 376.826 545.589C376.826 546.866 377.861 547.901 379.138 547.901Z" fill="#00587E" fill-opacity="0.1"/>
<path d="M346.773 486.638C348.05 486.638 349.085 485.603 349.085 484.326C349.085 483.05 348.05 482.015 346.773 482.015C345.496 482.015 344.461 483.05 344.461 484.326C344.461 485.603 345.496 486.638 346.773 486.638Z" fill="#00587E" fill-opacity="0.1"/>
<path d="M353.708 417.284C354.985 417.284 356.02 416.249 356.02 414.972C356.02 413.695 354.985 412.66 353.708 412.66C352.432 412.66 351.396 413.695 351.396 414.972C351.396 416.249 352.432 417.284 353.708 417.284Z" fill="#00587E" fill-opacity="0.1"/>
<path d="M398.788 362.957C400.065 362.957 401.1 361.922 401.1 360.645C401.1 359.368 400.065 358.333 398.788 358.333C397.512 358.333 396.477 359.368 396.477 360.645C396.477 361.922 397.512 362.957 398.788 362.957Z" fill="#00587E" fill-opacity="0.1"/>
<path d="M466.988 344.462C468.264 344.462 469.299 343.426 469.299 342.15C469.299 340.873 468.264 339.838 466.988 339.838C465.711 339.838 464.676 340.873 464.676 342.15C464.676 343.426 465.711 344.462 466.988 344.462Z" fill="#00587E" fill-opacity="0.1"/>
<path d="M475.078 587.202C476.355 587.202 477.39 586.167 477.39 584.89C477.39 583.613 476.355 582.578 475.078 582.578C473.802 582.578 472.767 583.613 472.767 584.89C472.767 586.167 473.802 587.202 475.078 587.202Z" fill="#00587E" fill-opacity="0.1"/>
<path d="M403.412 574.488C404.689 574.488 405.724 573.453 405.724 572.176C405.724 570.899 404.689 569.864 403.412 569.864C402.136 569.864 401.101 570.899 401.101 572.176C401.101 573.453 402.136 574.488 403.412 574.488Z" fill="#00587E" fill-opacity="0.1"/>
<path d="M351.397 521.316C352.674 521.316 353.709 520.281 353.709 519.004C353.709 517.727 352.674 516.692 351.397 516.692C350.12 516.692 349.085 517.727 349.085 519.004C349.085 520.281 350.12 521.316 351.397 521.316Z" fill="#00587E" fill-opacity="0.1"/>
<path d="M337.526 448.493C338.802 448.493 339.838 447.458 339.838 446.181C339.838 444.904 338.802 443.869 337.526 443.869C336.249 443.869 335.214 444.904 335.214 446.181C335.214 447.458 336.249 448.493 337.526 448.493Z" fill="#00587E" fill-opacity="0.1"/>
<path d="M367.579 380.295C368.856 380.295 369.891 379.259 369.891 377.983C369.891 376.706 368.856 375.671 367.579 375.671C366.303 375.671 365.268 376.706 365.268 377.983C365.268 379.259 366.303 380.295 367.579 380.295Z" fill="#00587E" fill-opacity="0.1"/>
<path d="M431.155 340.993C432.431 340.993 433.466 339.958 433.466 338.681C433.466 337.404 432.431 336.369 431.155 336.369C429.878 336.369 428.843 337.404 428.843 338.681C428.843 339.958 429.878 340.993 431.155 340.993Z" fill="#00587E" fill-opacity="0.1"/>
<path d="M507.444 344.462C508.72 344.462 509.755 343.426 509.755 342.15C509.755 340.873 508.72 339.838 507.444 339.838C506.167 339.838 505.132 340.873 505.132 342.15C505.132 343.426 506.167 344.462 507.444 344.462Z" fill="#00587E" fill-opacity="0.1"/>
<path d="M510.912 586.046C512.189 586.046 513.224 585.011 513.224 583.735C513.224 582.458 512.189 581.423 510.912 581.423C509.636 581.423 508.601 582.458 508.601 583.735C508.601 585.011 509.636 586.046 510.912 586.046Z" fill="#00587E" fill-opacity="0.1"/>
<path d="M434.621 592.982C435.898 592.982 436.933 591.947 436.933 590.67C436.933 589.393 435.898 588.358 434.621 588.358C433.345 588.358 432.31 589.393 432.31 590.67C432.31 591.947 433.345 592.982 434.621 592.982Z" fill="#00587E" fill-opacity="0.1"/>
<path d="M366.423 554.837C367.7 554.837 368.735 553.801 368.735 552.525C368.735 551.248 367.7 550.213 366.423 550.213C365.146 550.213 364.111 551.248 364.111 552.525C364.111 553.801 365.146 554.837 366.423 554.837Z" fill="#00587E" fill-opacity="0.1"/>
<path d="M331.746 485.482C333.023 485.482 334.058 484.447 334.058 483.17C334.058 481.893 333.023 480.858 331.746 480.858C330.47 480.858 329.435 481.893 329.435 483.17C329.435 484.447 330.47 485.482 331.746 485.482Z" fill="#00587E" fill-opacity="0.1"/>
<path d="M342.15 406.88C343.426 406.88 344.462 405.845 344.462 404.569C344.462 403.292 343.426 402.257 342.15 402.257C340.873 402.257 339.838 403.292 339.838 404.569C339.838 405.845 340.873 406.88 342.15 406.88Z" fill="#00587E" fill-opacity="0.1"/>
<path d="M395.321 349.085C396.597 349.085 397.632 348.05 397.632 346.773C397.632 345.496 396.597 344.461 395.321 344.461C394.044 344.461 393.009 345.496 393.009 346.773C393.009 348.05 394.044 349.085 395.321 349.085Z" fill="#00587E" fill-opacity="0.1"/>
<path d="M472.767 330.59C474.044 330.59 475.079 329.555 475.079 328.279C475.079 327.002 474.044 325.967 472.767 325.967C471.49 325.967 470.455 327.002 470.455 328.279C470.455 329.555 471.49 330.59 472.767 330.59Z" fill="#00587E" fill-opacity="0.1"/>
<path d="M471.612 602.229C472.888 602.229 473.923 601.194 473.923 599.917C473.923 598.641 472.888 597.605 471.612 597.605C470.335 597.605 469.3 598.641 469.3 599.917C469.3 601.194 470.335 602.229 471.612 602.229Z" fill="#00587E" fill-opacity="0.1"/>
<path d="M391.853 584.891C393.13 584.891 394.165 583.856 394.165 582.579C394.165 581.303 393.13 580.268 391.853 580.268C390.576 580.268 389.541 581.303 389.541 582.579C389.541 583.856 390.576 584.891 391.853 584.891Z" fill="#00587E" fill-opacity="0.1"/>
<path d="M336.369 523.628C337.646 523.628 338.681 522.593 338.681 521.316C338.681 520.039 337.646 519.004 336.369 519.004C335.093 519.004 334.058 520.039 334.058 521.316C334.058 522.593 335.093 523.628 336.369 523.628Z" fill="#00587E" fill-opacity="0.1"/>
<path d="M323.655 442.713C324.931 442.713 325.966 441.678 325.966 440.402C325.966 439.125 324.931 438.09 323.655 438.09C322.378 438.09 321.343 439.125 321.343 440.402C321.343 441.678 322.378 442.713 323.655 442.713Z" fill="#00587E" fill-opacity="0.1"/>
<path d="M360.644 367.58C361.921 367.58 362.956 366.545 362.956 365.268C362.956 363.991 361.921 362.956 360.644 362.956C359.367 362.956 358.332 363.991 358.332 365.268C358.332 366.545 359.367 367.58 360.644 367.58Z" fill="#00587E" fill-opacity="0.1"/>
<path d="M432.31 325.966C433.587 325.966 434.622 324.931 434.622 323.655C434.622 322.378 433.587 321.343 432.31 321.343C431.033 321.343 429.998 322.378 429.998 323.655C429.998 324.931 431.033 325.966 432.31 325.966Z" fill="#00587E" fill-opacity="0.1"/>
<path d="M516.692 332.903C517.968 332.903 519.004 331.868 519.004 330.591C519.004 329.314 517.968 328.279 516.692 328.279C515.415 328.279 514.38 329.314 514.38 330.591C514.38 331.868 515.415 332.903 516.692 332.903Z" fill="#00587E" fill-opacity="0.1"/>
<path d="M512.068 601.651C513.663 601.651 514.957 600.357 514.957 598.761C514.957 597.165 513.663 595.871 512.068 595.871C510.472 595.871 509.178 597.165 509.178 598.761C509.178 600.357 510.472 601.651 512.068 601.651Z" fill="#00587E" fill-opacity="0.1"/>
<path d="M426.53 606.275C428.126 606.275 429.42 604.981 429.42 603.385C429.42 601.789 428.126 600.495 426.53 600.495C424.934 600.495 423.641 601.789 423.641 603.385C423.641 604.981 424.934 606.275 426.53 606.275Z" fill="#00587E" fill-opacity="0.1"/>
<path d="M352.553 562.35C354.149 562.35 355.443 561.056 355.443 559.46C355.443 557.864 354.149 556.57 352.553 556.57C350.957 556.57 349.663 557.864 349.663 559.46C349.663 561.056 350.957 562.35 352.553 562.35Z" fill="#00587E" fill-opacity="0.1"/>
<path d="M316.719 483.748C318.315 483.748 319.609 482.455 319.609 480.859C319.609 479.263 318.315 477.969 316.719 477.969C315.123 477.969 313.829 479.263 313.829 480.859C313.829 482.455 315.123 483.748 316.719 483.748Z" fill="#00587E" fill-opacity="0.1"/>
<path d="M330.59 397.055C332.186 397.055 333.48 395.761 333.48 394.165C333.48 392.569 332.186 391.275 330.59 391.275C328.994 391.275 327.7 392.569 327.7 394.165C327.7 395.761 328.994 397.055 330.59 397.055Z" fill="#00587E" fill-opacity="0.1"/>
<path d="M391.853 334.637C393.449 334.637 394.742 333.343 394.742 331.747C394.742 330.151 393.449 328.857 391.853 328.857C390.257 328.857 388.963 330.151 388.963 331.747C388.963 333.343 390.257 334.637 391.853 334.637Z" fill="#00587E" fill-opacity="0.1"/>
<path d="M478.546 317.297C480.142 317.297 481.436 316.003 481.436 314.407C481.436 312.811 480.142 311.518 478.546 311.518C476.95 311.518 475.656 312.811 475.656 314.407C475.656 316.003 476.95 317.297 478.546 317.297Z" fill="#00587E" fill-opacity="0.1"/>
<path d="M380.294 594.716C381.89 594.716 383.184 593.422 383.184 591.826C383.184 590.23 381.89 588.937 380.294 588.937C378.698 588.937 377.404 590.23 377.404 591.826C377.404 593.422 378.698 594.716 380.294 594.716Z" fill="#00587E" fill-opacity="0.1"/>
<path d="M320.187 526.517C321.783 526.517 323.076 525.223 323.076 523.627C323.076 522.031 321.783 520.737 320.187 520.737C318.591 520.737 317.297 522.031 317.297 523.627C317.297 525.223 318.591 526.517 320.187 526.517Z" fill="#00587E" fill-opacity="0.1"/>
<path d="M310.94 435.2C312.536 435.2 313.829 433.907 313.829 432.311C313.829 430.715 312.536 429.421 310.94 429.421C309.344 429.421 308.05 430.715 308.05 432.311C308.05 433.907 309.344 435.2 310.94 435.2Z" fill="#00587E" fill-opacity="0.1"/>
<path d="M353.708 354.287C355.304 354.287 356.598 352.994 356.598 351.398C356.598 349.802 355.304 348.508 353.708 348.508C352.112 348.508 350.818 349.802 350.818 351.398C350.818 352.994 352.112 354.287 353.708 354.287Z" fill="#00587E" fill-opacity="0.1"/>
<path d="M434.622 311.518C436.218 311.518 437.512 310.224 437.512 308.628C437.512 307.032 436.218 305.738 434.622 305.738C433.026 305.738 431.732 307.032 431.732 308.628C431.732 310.224 433.026 311.518 434.622 311.518Z" fill="#00587E" fill-opacity="0.1"/>
<path d="M337.526 568.13C339.121 568.13 340.415 566.836 340.415 565.24C340.415 563.644 339.121 562.351 337.526 562.351C335.93 562.351 334.636 563.644 334.636 565.24C334.636 566.836 335.93 568.13 337.526 568.13Z" fill="#00587E" fill-opacity="0.1"/>
<path d="M301.693 479.124C303.288 479.124 304.582 477.83 304.582 476.235C304.582 474.639 303.288 473.345 301.693 473.345C300.097 473.345 298.803 474.639 298.803 476.235C298.803 477.83 300.097 479.124 301.693 479.124Z" fill="#00587E" fill-opacity="0.1"/>
<path d="M320.187 385.496C321.783 385.496 323.076 384.203 323.076 382.607C323.076 381.011 321.783 379.717 320.187 379.717C318.591 379.717 317.297 381.011 317.297 382.607C317.297 384.203 318.591 385.496 320.187 385.496Z" fill="#00587E" fill-opacity="0.1"/>
<path d="M389.541 318.453C391.137 318.453 392.431 317.16 392.431 315.564C392.431 313.968 391.137 312.674 389.541 312.674C387.945 312.674 386.651 313.968 386.651 315.564C386.651 317.16 387.945 318.453 389.541 318.453Z" fill="#00587E" fill-opacity="0.1"/>
<path d="M485.482 303.426C487.078 303.426 488.371 302.132 488.371 300.536C488.371 298.94 487.078 297.646 485.482 297.646C483.886 297.646 482.592 298.94 482.592 300.536C482.592 302.132 483.886 303.426 485.482 303.426Z" fill="#00587E" fill-opacity="0.1"/>
<path d="M367.579 603.963C369.175 603.963 370.469 602.669 370.469 601.073C370.469 599.477 369.175 598.184 367.579 598.184C365.983 598.184 364.689 599.477 364.689 601.073C364.689 602.669 365.983 603.963 367.579 603.963Z" fill="#00587E" fill-opacity="0.1"/>
<path d="M305.16 526.517C306.756 526.517 308.05 525.223 308.05 523.627C308.05 522.031 306.756 520.737 305.16 520.737C303.564 520.737 302.271 522.031 302.271 523.627C302.271 525.223 303.564 526.517 305.16 526.517Z" fill="#00587E" fill-opacity="0.1"/>
<path d="M297.068 427.11C298.664 427.11 299.958 425.816 299.958 424.22C299.958 422.624 298.664 421.33 297.068 421.33C295.473 421.33 294.179 422.624 294.179 424.22C294.179 425.816 295.473 427.11 297.068 427.11Z" fill="#00587E" fill-opacity="0.1"/>
<path d="M346.774 340.416C348.37 340.416 349.663 339.122 349.663 337.526C349.663 335.931 348.37 334.637 346.774 334.637C345.178 334.637 343.884 335.931 343.884 337.526C343.884 339.122 345.178 340.416 346.774 340.416Z" fill="#00587E" fill-opacity="0.1"/>
<path d="M438.09 296.491C439.686 296.491 440.98 295.198 440.98 293.602C440.98 292.006 439.686 290.712 438.09 290.712C436.494 290.712 435.2 292.006 435.2 293.602C435.2 295.198 436.494 296.491 438.09 296.491Z" fill="#00587E" fill-opacity="0.1"/>
<path d="M322.498 572.753C324.094 572.753 325.388 571.459 325.388 569.863C325.388 568.267 324.094 566.974 322.498 566.974C320.902 566.974 319.608 568.267 319.608 569.863C319.608 571.459 320.902 572.753 322.498 572.753Z" fill="#00587E" fill-opacity="0.1"/>
<path d="M286.666 474.502C288.262 474.502 289.556 473.208 289.556 471.612C289.556 470.016 288.262 468.723 286.666 468.723C285.07 468.723 283.776 470.016 283.776 471.612C283.776 473.208 285.07 474.502 286.666 474.502Z" fill="#00587E" fill-opacity="0.1"/>
<path d="M310.94 373.938C312.536 373.938 313.829 372.644 313.829 371.048C313.829 369.452 312.536 368.158 310.94 368.158C309.344 368.158 308.05 369.452 308.05 371.048C308.05 372.644 309.344 373.938 310.94 373.938Z" fill="#00587E" fill-opacity="0.1"/>
<path d="M388.386 303.426C389.982 303.426 391.276 302.132 391.276 300.536C391.276 298.94 389.982 297.646 388.386 297.646C386.79 297.646 385.496 298.94 385.496 300.536C385.496 302.132 386.79 303.426 388.386 303.426Z" fill="#00587E" fill-opacity="0.1"/>
<path d="M493.573 289.555C495.169 289.555 496.463 288.261 496.463 286.665C496.463 285.069 495.169 283.775 493.573 283.775C491.977 283.775 490.684 285.069 490.684 286.665C490.684 288.261 491.977 289.555 493.573 289.555Z" fill="#00587E" fill-opacity="0.1"/>
<path d="M288.977 527.096C290.893 527.096 292.445 525.543 292.445 523.628C292.445 521.713 290.893 520.16 288.977 520.16C287.062 520.16 285.51 521.713 285.51 523.628C285.51 525.543 287.062 527.096 288.977 527.096Z" fill="#00587E" fill-opacity="0.1"/>
<path d="M284.353 418.439C286.269 418.439 287.821 416.887 287.821 414.972C287.821 413.056 286.269 411.504 284.353 411.504C282.438 411.504 280.886 413.056 280.886 414.972C280.886 416.887 282.438 418.439 284.353 418.439Z" fill="#00587E" fill-opacity="0.1"/>
<path d="M342.149 325.967C344.065 325.967 345.617 324.414 345.617 322.499C345.617 320.584 344.065 319.031 342.149 319.031C340.234 319.031 338.682 320.584 338.682 322.499C338.682 324.414 340.234 325.967 342.149 325.967Z" fill="#00587E" fill-opacity="0.1"/>
<path d="M442.713 282.043C444.628 282.043 446.181 280.49 446.181 278.575C446.181 276.66 444.628 275.107 442.713 275.107C440.798 275.107 439.245 276.66 439.245 278.575C439.245 280.49 440.798 282.043 442.713 282.043Z" fill="#00587E" fill-opacity="0.1"/>
<path d="M307.472 576.799C309.387 576.799 310.939 575.246 310.939 573.331C310.939 571.416 309.387 569.863 307.472 569.863C305.556 569.863 304.004 571.416 304.004 573.331C304.004 575.246 305.556 576.799 307.472 576.799Z" fill="#00587E" fill-opacity="0.1"/>
<path d="M271.639 470.455C273.554 470.455 275.106 468.902 275.106 466.987C275.106 465.072 273.554 463.52 271.639 463.52C269.723 463.52 268.171 465.072 268.171 466.987C268.171 468.902 269.723 470.455 271.639 470.455Z" fill="#00587E" fill-opacity="0.1"/>
<path d="M301.692 360.644C303.608 360.644 305.16 359.092 305.16 357.177C305.16 355.262 303.608 353.709 301.692 353.709C299.777 353.709 298.225 355.262 298.225 357.177C298.225 359.092 299.777 360.644 301.692 360.644Z" fill="#00587E" fill-opacity="0.1"/>
<path d="M388.386 287.822C390.301 287.822 391.853 286.27 391.853 284.354C391.853 282.439 390.301 280.887 388.386 280.887C386.471 280.887 384.918 282.439 384.918 284.354C384.918 286.27 386.471 287.822 388.386 287.822Z" fill="#00587E" fill-opacity="0.1"/>
<path d="M501.665 277.419C503.58 277.419 505.133 275.866 505.133 273.951C505.133 272.036 503.58 270.483 501.665 270.483C499.75 270.483 498.197 272.036 498.197 273.951C498.197 275.866 499.75 277.419 501.665 277.419Z" fill="#00587E" fill-opacity="0.1"/>
<path d="M273.95 524.783C275.865 524.783 277.418 523.231 277.418 521.315C277.418 519.4 275.865 517.848 273.95 517.848C272.035 517.848 270.482 519.4 270.482 521.315C270.482 523.231 272.035 524.783 273.95 524.783Z" fill="#00587E" fill-opacity="0.1"/>
<path d="M272.795 408.037C274.71 408.037 276.263 406.484 276.263 404.569C276.263 402.654 274.71 401.102 272.795 401.102C270.88 401.102 269.327 402.654 269.327 404.569C269.327 406.484 270.88 408.037 272.795 408.037Z" fill="#00587E" fill-opacity="0.1"/>
<path d="M337.525 309.784C339.441 309.784 340.993 308.232 340.993 306.316C340.993 304.401 339.441 302.849 337.525 302.849C335.61 302.849 334.058 304.401 334.058 306.316C334.058 308.232 335.61 309.784 337.525 309.784Z" fill="#00587E" fill-opacity="0.1"/>
<path d="M447.337 265.859C449.252 265.859 450.805 264.307 450.805 262.392C450.805 260.476 449.252 258.924 447.337 258.924C445.422 258.924 443.869 260.476 443.869 262.392C443.869 264.307 445.422 265.859 447.337 265.859Z" fill="#00587E" fill-opacity="0.1"/>
<path d="M292.445 579.111C294.36 579.111 295.913 577.559 295.913 575.644C295.913 573.728 294.36 572.176 292.445 572.176C290.53 572.176 288.978 573.728 288.978 575.644C288.978 577.559 290.53 579.111 292.445 579.111Z" fill="#00587E" fill-opacity="0.1"/>
<path d="M256.612 463.519C258.527 463.519 260.08 461.967 260.08 460.052C260.08 458.137 258.527 456.584 256.612 456.584C254.697 456.584 253.145 458.137 253.145 460.052C253.145 461.967 254.697 463.519 256.612 463.519Z" fill="#00587E" fill-opacity="0.1"/>
<path d="M293.601 346.773C295.516 346.773 297.068 345.221 297.068 343.306C297.068 341.39 295.516 339.838 293.601 339.838C291.685 339.838 290.133 341.39 290.133 343.306C290.133 345.221 291.685 346.773 293.601 346.773Z" fill="#00587E" fill-opacity="0.1"/>
<path d="M389.542 271.639C391.457 271.639 393.01 270.086 393.01 268.171C393.01 266.256 391.457 264.703 389.542 264.703C387.627 264.703 386.074 266.256 386.074 268.171C386.074 270.086 387.627 271.639 389.542 271.639Z" fill="#00587E" fill-opacity="0.1"/>
<path d="M512.068 264.703C513.983 264.703 515.536 263.15 515.536 261.235C515.536 259.32 513.983 257.768 512.068 257.768C510.153 257.768 508.601 259.32 508.601 261.235C508.601 263.15 510.153 264.703 512.068 264.703Z" fill="#00587E" fill-opacity="0.1"/>
<path d="M257.768 522.472C259.683 522.472 261.235 520.919 261.235 519.004C261.235 517.089 259.683 515.536 257.768 515.536C255.852 515.536 254.3 517.089 254.3 519.004C254.3 520.919 255.852 522.472 257.768 522.472Z" fill="#00587E" fill-opacity="0.1"/>
<path d="M261.235 396.477C263.15 396.477 264.703 394.925 264.703 393.01C264.703 391.095 263.15 389.542 261.235 389.542C259.32 389.542 257.768 391.095 257.768 393.01C257.768 394.925 259.32 396.477 261.235 396.477Z" fill="#00587E" fill-opacity="0.1"/>
<path d="M334.058 294.758C335.973 294.758 337.525 293.205 337.525 291.29C337.525 289.375 335.973 287.822 334.058 287.822C332.142 287.822 330.59 289.375 330.59 291.29C330.59 293.205 332.142 294.758 334.058 294.758Z" fill="#00587E" fill-opacity="0.1"/>
<path d="M453.117 251.988C455.032 251.988 456.585 250.436 456.585 248.52C456.585 246.605 455.032 245.053 453.117 245.053C451.202 245.053 449.649 246.605 449.649 248.52C449.649 250.436 451.202 251.988 453.117 251.988Z" fill="#00587E" fill-opacity="0.1"/>
<path d="M276.263 581.423C278.178 581.423 279.73 579.87 279.73 577.955C279.73 576.04 278.178 574.487 276.263 574.487C274.347 574.487 272.795 576.04 272.795 577.955C272.795 579.87 274.347 581.423 276.263 581.423Z" fill="#00587E" fill-opacity="0.1"/>
<path d="M242.741 455.429C244.656 455.429 246.209 453.876 246.209 451.961C246.209 450.046 244.656 448.493 242.741 448.493C240.826 448.493 239.273 450.046 239.273 451.961C239.273 453.876 240.826 455.429 242.741 455.429Z" fill="#00587E" fill-opacity="0.1"/>
<path d="M285.51 332.902C287.425 332.902 288.977 331.35 288.977 329.435C288.977 327.519 287.425 325.967 285.51 325.967C283.595 325.967 282.042 327.519 282.042 329.435C282.042 331.35 283.595 332.902 285.51 332.902Z" fill="#00587E" fill-opacity="0.1"/>
<path d="M391.853 255.456C393.769 255.456 395.321 253.903 395.321 251.988C395.321 250.073 393.769 248.521 391.853 248.521C389.938 248.521 388.386 250.073 388.386 251.988C388.386 253.903 389.938 255.456 391.853 255.456Z" fill="#00587E" fill-opacity="0.1"/>
<path d="M522.471 251.988C524.386 251.988 525.938 250.436 525.938 248.52C525.938 246.605 524.386 245.053 522.471 245.053C520.555 245.053 519.003 246.605 519.003 248.52C519.003 250.436 520.555 251.988 522.471 251.988Z" fill="#00587E" fill-opacity="0.1"/>
<path d="M241.585 519.582C243.819 519.582 245.63 517.77 245.63 515.536C245.63 513.302 243.819 511.49 241.585 511.49C239.35 511.49 237.539 513.302 237.539 515.536C237.539 517.77 239.35 519.582 241.585 519.582Z" fill="#00587E" fill-opacity="0.1"/>
<path d="M249.677 385.497C251.911 385.497 253.722 383.685 253.722 381.451C253.722 379.217 251.911 377.405 249.677 377.405C247.442 377.405 245.631 379.217 245.631 381.451C245.631 383.685 247.442 385.497 249.677 385.497Z" fill="#00587E" fill-opacity="0.1"/>
<path d="M331.746 279.152C333.98 279.152 335.792 277.341 335.792 275.106C335.792 272.872 333.98 271.061 331.746 271.061C329.512 271.061 327.7 272.872 327.7 275.106C327.7 277.341 329.512 279.152 331.746 279.152Z" fill="#00587E" fill-opacity="0.1"/>
<path d="M460.052 237.54C462.286 237.54 464.097 235.728 464.097 233.494C464.097 231.26 462.286 229.448 460.052 229.448C457.817 229.448 456.006 231.26 456.006 233.494C456.006 235.728 457.817 237.54 460.052 237.54Z" fill="#00587E" fill-opacity="0.1"/>
<path d="M258.924 583.157C261.158 583.157 262.969 581.345 262.969 579.111C262.969 576.877 261.158 575.065 258.924 575.065C256.689 575.065 254.878 576.877 254.878 579.111C254.878 581.345 256.689 583.157 258.924 583.157Z" fill="#00587E" fill-opacity="0.1"/>
<path d="M228.87 447.915C231.104 447.915 232.916 446.103 232.916 443.869C232.916 441.635 231.104 439.823 228.87 439.823C226.636 439.823 224.824 441.635 224.824 443.869C224.824 446.103 226.636 447.915 228.87 447.915Z" fill="#00587E" fill-opacity="0.1"/>
<path d="M279.73 318.454C281.965 318.454 283.776 316.642 283.776 314.408C283.776 312.174 281.965 310.362 279.73 310.362C277.496 310.362 275.685 312.174 275.685 314.408C275.685 316.642 277.496 318.454 279.73 318.454Z" fill="#00587E" fill-opacity="0.1"/>
<path d="M394.165 239.851C396.399 239.851 398.211 238.04 398.211 235.805C398.211 233.571 396.399 231.76 394.165 231.76C391.93 231.76 390.119 233.571 390.119 235.805C390.119 238.04 391.93 239.851 394.165 239.851Z" fill="#00587E" fill-opacity="0.1"/>
<path d="M225.402 514.959C227.636 514.959 229.448 513.147 229.448 510.913C229.448 508.679 227.636 506.867 225.402 506.867C223.168 506.867 221.356 508.679 221.356 510.913C221.356 513.147 223.168 514.959 225.402 514.959Z" fill="#00587E" fill-opacity="0.1"/>
<path d="M239.273 372.781C241.508 372.781 243.319 370.97 243.319 368.735C243.319 366.501 241.508 364.689 239.273 364.689C237.039 364.689 235.228 366.501 235.228 368.735C235.228 370.97 237.039 372.781 239.273 372.781Z" fill="#00587E" fill-opacity="0.1"/>
<path d="M330.59 262.969C332.824 262.969 334.635 261.158 334.635 258.924C334.635 256.689 332.824 254.878 330.59 254.878C328.355 254.878 326.544 256.689 326.544 258.924C326.544 261.158 328.355 262.969 330.59 262.969Z" fill="#00587E" fill-opacity="0.1"/>
<path d="M468.143 222.513C470.378 222.513 472.189 220.702 472.189 218.468C472.189 216.233 470.378 214.422 468.143 214.422C465.909 214.422 464.098 216.233 464.098 218.468C464.098 220.702 465.909 222.513 468.143 222.513Z" fill="#00587E" fill-opacity="0.1"/>
<path d="M242.741 583.157C244.975 583.157 246.787 581.345 246.787 579.111C246.787 576.877 244.975 575.065 242.741 575.065C240.507 575.065 238.695 576.877 238.695 579.111C238.695 581.345 240.507 583.157 242.741 583.157Z" fill="#00587E" fill-opacity="0.1"/>
<path d="M214.999 438.669C217.233 438.669 219.044 436.857 219.044 434.623C219.044 432.388 217.233 430.577 214.999 430.577C212.764 430.577 210.953 432.388 210.953 434.623C210.953 436.857 212.764 438.669 214.999 438.669Z" fill="#00587E" fill-opacity="0.1"/>
<path d="M273.951 303.426C276.185 303.426 277.997 301.615 277.997 299.381C277.997 297.146 276.185 295.335 273.951 295.335C271.717 295.335 269.905 297.146 269.905 299.381C269.905 301.615 271.717 303.426 273.951 303.426Z" fill="#00587E" fill-opacity="0.1"/>
<path d="M398.789 223.669C401.023 223.669 402.835 221.857 402.835 219.623C402.835 217.388 401.023 215.577 398.789 215.577C396.554 215.577 394.743 217.388 394.743 219.623C394.743 221.857 396.554 223.669 398.789 223.669Z" fill="#00587E" fill-opacity="0.1"/>
<path d="M210.375 509.179C212.609 509.179 214.42 507.368 214.42 505.134C214.42 502.899 212.609 501.088 210.375 501.088C208.14 501.088 206.329 502.899 206.329 505.134C206.329 507.368 208.14 509.179 210.375 509.179Z" fill="#00587E" fill-opacity="0.1"/>
<path d="M228.87 358.91C231.104 358.91 232.916 357.098 232.916 354.864C232.916 352.63 231.104 350.818 228.87 350.818C226.636 350.818 224.824 352.63 224.824 354.864C224.824 357.098 226.636 358.91 228.87 358.91Z" fill="#00587E" fill-opacity="0.1"/>
<path d="M329.434 245.63C331.669 245.63 333.48 243.819 333.48 241.585C333.48 239.35 331.669 237.539 329.434 237.539C327.2 237.539 325.389 239.35 325.389 241.585C325.389 243.819 327.2 245.63 329.434 245.63Z" fill="#00587E" fill-opacity="0.1"/>
<path d="M477.39 208.642C479.625 208.642 481.436 206.831 481.436 204.596C481.436 202.362 479.625 200.551 477.39 200.551C475.156 200.551 473.345 202.362 473.345 204.596C473.345 206.831 475.156 208.642 477.39 208.642Z" fill="#00587E" fill-opacity="0.1"/>
<path d="M225.402 582.579C227.956 582.579 230.026 580.509 230.026 577.956C230.026 575.402 227.956 573.332 225.402 573.332C222.848 573.332 220.778 575.402 220.778 577.956C220.778 580.509 222.848 582.579 225.402 582.579Z" fill="#00587E" fill-opacity="0.1"/>
<path d="M201.128 428.843C203.681 428.843 205.751 426.773 205.751 424.219C205.751 421.666 203.681 419.596 201.128 419.596C198.574 419.596 196.504 421.666 196.504 424.219C196.504 426.773 198.574 428.843 201.128 428.843Z" fill="#00587E" fill-opacity="0.1"/>
<path d="M268.171 287.821C270.724 287.821 272.794 285.751 272.794 283.198C272.794 280.644 270.724 278.574 268.171 278.574C265.617 278.574 263.547 280.644 263.547 283.198C263.547 285.751 265.617 287.821 268.171 287.821Z" fill="#00587E" fill-opacity="0.1"/>
<path d="M403.412 208.065C405.965 208.065 408.035 205.995 408.035 203.441C408.035 200.887 405.965 198.817 403.412 198.817C400.858 198.817 398.788 200.887 398.788 203.441C398.788 205.995 400.858 208.065 403.412 208.065Z" fill="#00587E" fill-opacity="0.1"/>
<path d="M194.193 503.977C196.747 503.977 198.817 501.907 198.817 499.353C198.817 496.8 196.747 494.729 194.193 494.729C191.639 494.729 189.569 496.8 189.569 499.353C189.569 501.907 191.639 503.977 194.193 503.977Z" fill="#00587E" fill-opacity="0.1"/>
<path d="M219.623 345.617C222.176 345.617 224.246 343.547 224.246 340.994C224.246 338.44 222.176 336.37 219.623 336.37C217.069 336.37 214.999 338.44 214.999 340.994C214.999 343.547 217.069 345.617 219.623 345.617Z" fill="#00587E" fill-opacity="0.1"/>
<path d="M330.59 228.87C333.144 228.87 335.214 226.8 335.214 224.247C335.214 221.693 333.144 219.623 330.59 219.623C328.037 219.623 325.967 221.693 325.967 224.247C325.967 226.8 328.037 228.87 330.59 228.87Z" fill="#00587E" fill-opacity="0.1"/>
<path d="M487.794 195.349C490.347 195.349 492.417 193.279 492.417 190.725C492.417 188.172 490.347 186.102 487.794 186.102C485.24 186.102 483.17 188.172 483.17 190.725C483.17 193.279 485.24 195.349 487.794 195.349Z" fill="#00587E" fill-opacity="0.1"/>
<path d="M209.219 580.267C211.773 580.267 213.843 578.197 213.843 575.643C213.843 573.09 211.773 571.02 209.219 571.02C206.666 571.02 204.596 573.09 204.596 575.643C204.596 578.197 206.666 580.267 209.219 580.267Z" fill="#00587E" fill-opacity="0.1"/>
<path d="M188.414 417.283C190.967 417.283 193.037 415.213 193.037 412.66C193.037 410.106 190.967 408.036 188.414 408.036C185.86 408.036 183.79 410.106 183.79 412.66C183.79 415.213 185.86 417.283 188.414 417.283Z" fill="#00587E" fill-opacity="0.1"/>
<path d="M263.547 270.484C266.101 270.484 268.171 268.414 268.171 265.86C268.171 263.306 266.101 261.236 263.547 261.236C260.994 261.236 258.924 263.306 258.924 265.86C258.924 268.414 260.994 270.484 263.547 270.484Z" fill="#00587E" fill-opacity="0.1"/>
<path d="M409.192 191.881C411.746 191.881 413.816 189.811 413.816 187.257C413.816 184.704 411.746 182.634 409.192 182.634C406.638 182.634 404.568 184.704 404.568 187.257C404.568 189.811 406.638 191.881 409.192 191.881Z" fill="#00587E" fill-opacity="0.1"/>
<path d="M178.01 495.886C180.564 495.886 182.634 493.816 182.634 491.262C182.634 488.709 180.564 486.639 178.01 486.639C175.457 486.639 173.387 488.709 173.387 491.262C173.387 493.816 175.457 495.886 178.01 495.886Z" fill="#00587E" fill-opacity="0.1"/>
<path d="M211.532 330.59C214.085 330.59 216.155 328.52 216.155 325.966C216.155 323.413 214.085 321.343 211.532 321.343C208.978 321.343 206.908 323.413 206.908 325.966C206.908 328.52 208.978 330.59 211.532 330.59Z" fill="#00587E" fill-opacity="0.1"/>
<path d="M331.747 211.532C334.3 211.532 336.37 209.462 336.37 206.909C336.37 204.355 334.3 202.285 331.747 202.285C329.193 202.285 327.123 204.355 327.123 206.909C327.123 209.462 329.193 211.532 331.747 211.532Z" fill="#00587E" fill-opacity="0.1"/>
<path d="M498.197 181.478C500.75 181.478 502.821 179.408 502.821 176.854C502.821 174.301 500.75 172.23 498.197 172.23C495.643 172.23 493.573 174.301 493.573 176.854C493.573 179.408 495.643 181.478 498.197 181.478Z" fill="#00587E" fill-opacity="0.1"/>
<path d="M191.88 576.799C194.434 576.799 196.504 574.729 196.504 572.175C196.504 569.622 194.434 567.552 191.88 567.552C189.327 567.552 187.257 569.622 187.257 572.175C187.257 574.729 189.327 576.799 191.88 576.799Z" fill="#00587E" fill-opacity="0.1"/>
<path d="M175.699 404.569C178.252 404.569 180.322 402.498 180.322 399.945C180.322 397.391 178.252 395.321 175.699 395.321C173.145 395.321 171.075 397.391 171.075 399.945C171.075 402.498 173.145 404.569 175.699 404.569Z" fill="#00587E" fill-opacity="0.1"/>
<path d="M261.235 253.145C263.789 253.145 265.859 251.075 265.859 248.521C265.859 245.968 263.789 243.897 261.235 243.897C258.681 243.897 256.611 245.968 256.611 248.521C256.611 251.075 258.681 253.145 261.235 253.145Z" fill="#00587E" fill-opacity="0.1"/>
<path d="M416.128 176.855C418.681 176.855 420.751 174.785 420.751 172.231C420.751 169.677 418.681 167.607 416.128 167.607C413.574 167.607 411.504 169.677 411.504 172.231C411.504 174.785 413.574 176.855 416.128 176.855Z" fill="#00587E" fill-opacity="0.1"/>
<path d="M162.983 487.794C165.537 487.794 167.607 485.724 167.607 483.171C167.607 480.617 165.537 478.547 162.983 478.547C160.429 478.547 158.359 480.617 158.359 483.171C158.359 485.724 160.429 487.794 162.983 487.794Z" fill="#00587E" fill-opacity="0.1"/>
<path d="M203.44 314.408C205.994 314.408 208.064 312.338 208.064 309.785C208.064 307.231 205.994 305.161 203.44 305.161C200.886 305.161 198.816 307.231 198.816 309.785C198.816 312.338 200.886 314.408 203.44 314.408Z" fill="#00587E" fill-opacity="0.1"/>
<path d="M334.058 194.194C336.612 194.194 338.682 192.123 338.682 189.57C338.682 187.016 336.612 184.946 334.058 184.946C331.505 184.946 329.435 187.016 329.435 189.57C329.435 192.123 331.505 194.194 334.058 194.194Z" fill="#00587E" fill-opacity="0.1"/>
<path d="M510.913 169.341C513.785 169.341 516.114 167.012 516.114 164.139C516.114 161.266 513.785 158.938 510.913 158.938C508.04 158.938 505.711 161.266 505.711 164.139C505.711 167.012 508.04 169.341 510.913 169.341Z" fill="#00587E" fill-opacity="0.1"/>
<path d="M174.542 573.909C177.415 573.909 179.744 571.58 179.744 568.707C179.744 565.835 177.415 563.506 174.542 563.506C171.67 563.506 169.341 565.835 169.341 568.707C169.341 571.58 171.67 573.909 174.542 573.909Z" fill="#00587E" fill-opacity="0.1"/>
<path d="M164.139 392.432C167.012 392.432 169.341 390.104 169.341 387.231C169.341 384.358 167.012 382.029 164.139 382.029C161.266 382.029 158.938 384.358 158.938 387.231C158.938 390.104 161.266 392.432 164.139 392.432Z" fill="#00587E" fill-opacity="0.1"/>
<path d="M258.923 236.384C261.796 236.384 264.125 234.055 264.125 231.182C264.125 228.309 261.796 225.98 258.923 225.98C256.051 225.98 253.722 228.309 253.722 231.182C253.722 234.055 256.051 236.384 258.923 236.384Z" fill="#00587E" fill-opacity="0.1"/>
<path d="M424.219 161.25C427.092 161.25 429.421 158.921 429.421 156.048C429.421 153.176 427.092 150.847 424.219 150.847C421.346 150.847 419.018 153.176 419.018 156.048C419.018 158.921 421.346 161.25 424.219 161.25Z" fill="#00587E" fill-opacity="0.1"/>
<path d="M147.956 479.125C150.829 479.125 153.158 476.796 153.158 473.923C153.158 471.051 150.829 468.722 147.956 468.722C145.084 468.722 142.755 471.051 142.755 473.923C142.755 476.796 145.084 479.125 147.956 479.125Z" fill="#00587E" fill-opacity="0.1"/>
<path d="M196.504 298.804C199.377 298.804 201.706 296.475 201.706 293.602C201.706 290.729 199.377 288.4 196.504 288.4C193.632 288.4 191.303 290.729 191.303 293.602C191.303 296.475 193.632 298.804 196.504 298.804Z" fill="#00587E" fill-opacity="0.1"/>
<path d="M337.526 177.432C340.399 177.432 342.727 175.104 342.727 172.231C342.727 169.358 340.399 167.029 337.526 167.029C334.653 167.029 332.324 169.358 332.324 172.231C332.324 175.104 334.653 177.432 337.526 177.432Z" fill="#00587E" fill-opacity="0.1"/>
<path d="M523.627 156.626C526.5 156.626 528.829 154.297 528.829 151.424C528.829 148.551 526.5 146.223 523.627 146.223C520.755 146.223 518.426 148.551 518.426 151.424C518.426 154.297 520.755 156.626 523.627 156.626Z" fill="#00587E" fill-opacity="0.1"/>
<path d="M157.204 568.13C160.076 568.13 162.405 565.801 162.405 562.928C162.405 560.055 160.076 557.727 157.204 557.727C154.331 557.727 152.002 560.055 152.002 562.928C152.002 565.801 154.331 568.13 157.204 568.13Z" fill="#00587E" fill-opacity="0.1"/>
<path d="M152.58 378.561C155.453 378.561 157.782 376.233 157.782 373.36C157.782 370.487 155.453 368.158 152.58 368.158C149.708 368.158 147.379 370.487 147.379 373.36C147.379 376.233 149.708 378.561 152.58 378.561Z" fill="#00587E" fill-opacity="0.1"/>
<path d="M256.612 219.045C259.485 219.045 261.813 216.716 261.813 213.843C261.813 210.97 259.485 208.642 256.612 208.642C253.739 208.642 251.41 210.97 251.41 213.843C251.41 216.716 253.739 219.045 256.612 219.045Z" fill="#00587E" fill-opacity="0.1"/>
<path d="M433.466 145.066C436.339 145.066 438.668 142.737 438.668 139.865C438.668 136.992 436.339 134.663 433.466 134.663C430.593 134.663 428.265 136.992 428.265 139.865C428.265 142.737 430.593 145.066 433.466 145.066Z" fill="#00587E" fill-opacity="0.1"/>
<path d="M132.93 467.565C135.803 467.565 138.132 465.236 138.132 462.364C138.132 459.491 135.803 457.162 132.93 457.162C130.057 457.162 127.729 459.491 127.729 462.364C127.729 465.236 130.057 467.565 132.93 467.565Z" fill="#00587E" fill-opacity="0.1"/>
<path d="M189.569 281.465C192.442 281.465 194.77 279.136 194.77 276.263C194.77 273.39 192.442 271.062 189.569 271.062C186.696 271.062 184.367 273.39 184.367 276.263C184.367 279.136 186.696 281.465 189.569 281.465Z" fill="#00587E" fill-opacity="0.1"/>
<path d="M342.15 160.094C345.023 160.094 347.351 157.765 347.351 154.892C347.351 152.019 345.023 149.69 342.15 149.69C339.277 149.69 336.948 152.019 336.948 154.892C336.948 157.765 339.277 160.094 342.15 160.094Z" fill="#00587E" fill-opacity="0.1"/>
<path d="M139.866 562.35C142.738 562.35 145.067 560.022 145.067 557.149C145.067 554.276 142.738 551.947 139.866 551.947C136.993 551.947 134.664 554.276 134.664 557.149C134.664 560.022 136.993 562.35 139.866 562.35Z" fill="#00587E" fill-opacity="0.1"/>
<path d="M142.177 363.534C145.05 363.534 147.379 361.205 147.379 358.332C147.379 355.46 145.05 353.131 142.177 353.131C139.304 353.131 136.976 355.46 136.976 358.332C136.976 361.205 139.304 363.534 142.177 363.534Z" fill="#00587E" fill-opacity="0.1"/>
<path d="M256.612 200.551C259.485 200.551 261.813 198.222 261.813 195.349C261.813 192.476 259.485 190.147 256.612 190.147C253.739 190.147 251.41 192.476 251.41 195.349C251.41 198.222 253.739 200.551 256.612 200.551Z" fill="#00587E" fill-opacity="0.1"/>
<path d="M443.87 130.04C446.742 130.04 449.071 127.711 449.071 124.838C449.071 121.966 446.742 119.637 443.87 119.637C440.997 119.637 438.668 121.966 438.668 124.838C438.668 127.711 440.997 130.04 443.87 130.04Z" fill="#00587E" fill-opacity="0.1"/>
<path d="M119.059 457.741C122.251 457.741 124.838 455.153 124.838 451.961C124.838 448.769 122.251 446.182 119.059 446.182C115.867 446.182 113.279 448.769 113.279 451.961C113.279 455.153 115.867 457.741 119.059 457.741Z" fill="#00587E" fill-opacity="0.1"/>
<path d="M184.946 264.704C188.138 264.704 190.725 262.116 190.725 258.924C190.725 255.732 188.138 253.145 184.946 253.145C181.754 253.145 179.166 255.732 179.166 258.924C179.166 262.116 181.754 264.704 184.946 264.704Z" fill="#00587E" fill-opacity="0.1"/>
<path d="M347.929 143.334C351.121 143.334 353.709 140.746 353.709 137.554C353.709 134.362 351.121 131.774 347.929 131.774C344.737 131.774 342.149 134.362 342.149 137.554C342.149 140.746 344.737 143.334 347.929 143.334Z" fill="#00587E" fill-opacity="0.1"/>
<path d="M122.527 554.836C125.719 554.836 128.306 552.249 128.306 549.057C128.306 545.865 125.719 543.277 122.527 543.277C119.335 543.277 116.747 545.865 116.747 549.057C116.747 552.249 119.335 554.836 122.527 554.836Z" fill="#00587E" fill-opacity="0.1"/>
<path d="M131.774 347.929C134.966 347.929 137.553 345.342 137.553 342.15C137.553 338.958 134.966 336.37 131.774 336.37C128.582 336.37 125.994 338.958 125.994 342.15C125.994 345.342 128.582 347.929 131.774 347.929Z" fill="#00587E" fill-opacity="0.1"/>
<path d="M257.768 182.634C260.96 182.634 263.547 180.047 263.547 176.855C263.547 173.663 260.96 171.075 257.768 171.075C254.576 171.075 251.988 173.663 251.988 176.855C251.988 180.047 254.576 182.634 257.768 182.634Z" fill="#00587E" fill-opacity="0.1"/>
<path d="M454.273 115.591C457.465 115.591 460.052 113.004 460.052 109.812C460.052 106.62 457.465 104.032 454.273 104.032C451.081 104.032 448.493 106.62 448.493 109.812C448.493 113.004 451.081 115.591 454.273 115.591Z" fill="#00587E" fill-opacity="0.1"/>
<path d="M105.188 445.026C108.38 445.026 110.967 442.438 110.967 439.246C110.967 436.054 108.38 433.467 105.188 433.467C101.996 433.467 99.4082 436.054 99.4082 439.246C99.4082 442.438 101.996 445.026 105.188 445.026Z" fill="#00587E" fill-opacity="0.1"/>
<path d="M180.322 246.209C183.513 246.209 186.101 243.621 186.101 240.429C186.101 237.237 183.513 234.649 180.322 234.649C177.13 234.649 174.542 237.237 174.542 240.429C174.542 243.621 177.13 246.209 180.322 246.209Z" fill="#00587E" fill-opacity="0.1"/>
<path d="M354.865 124.838C358.056 124.838 360.644 122.251 360.644 119.059C360.644 115.867 358.056 113.279 354.865 113.279C351.673 113.279 349.085 115.867 349.085 119.059C349.085 122.251 351.673 124.838 354.865 124.838Z" fill="#00587E" fill-opacity="0.1"/>
</svg>
