<svg width="1920" height="1207" viewBox="0 0 1920 1207" fill="none" xmlns="http://www.w3.org/2000/svg">
<g opacity="0.1">
<mask id="mask0_224_17204" style="mask-type:luminance" maskUnits="userSpaceOnUse" x="-97" y="286" width="2113" height="455">
<path d="M-96.2461 324.387C-3.69455 341.931 81.7044 404.1 180.385 538.671C218.179 590.206 261.306 630.547 307.77 661.04C406.303 725.703 519.893 746.101 629.599 735.119C739.334 724.136 845.192 681.752 928.219 620.865C975.32 586.324 1015.07 545.827 1044.01 501.734C1121.82 383.165 1192.27 299.785 1272.16 287.71C1352.08 275.632 1441.17 334.917 1556.07 501.713C1607.32 576.106 1669.3 622.709 1735.54 647.833C1806.32 674.684 1881.99 677.017 1954.65 662.531C1975.4 658.39 1995.92 652.876 2016 646.17V648.38C1996.04 655.013 1975.67 660.473 1955.05 664.583C1882.04 679.142 1805.98 676.791 1734.8 649.792C1668.18 624.526 1605.86 577.672 1554.35 502.902C1439.98 336.876 1351.56 277.829 1272.47 289.783C1193.34 301.744 1123.26 384.78 1045.76 502.881C1016.68 547.185 976.757 587.864 929.456 622.552C846.143 683.65 739.923 726.176 629.804 737.201C519.652 748.226 405.585 727.737 306.623 662.793C259.957 632.17 216.649 591.657 178.698 539.908C80.6512 406.207 -4.2559 344.279 -96.2461 326.675V324.387Z" fill="white"/>
</mask>
<g mask="url(#mask0_224_17204)">
<path d="M-96.2383 748.241H2016V275.629H-96.2383V748.241Z" fill="url(#paint0_linear_224_17204)"/>
</g>
<mask id="mask1_224_17204" style="mask-type:luminance" maskUnits="userSpaceOnUse" x="-97" y="294" width="2113" height="479">
<path d="M-96.2461 377.782C-0.0488663 389.935 89.4907 448.773 195.677 583.823C235.179 634.066 279.634 672.937 327.097 701.855C427.743 763.171 541.951 779.746 651.225 765.091C760.532 750.426 864.905 704.514 945.844 640.878C991.759 604.774 1030.14 562.963 1057.57 517.926C1131.36 396.816 1198.97 311.121 1278.41 296.372C1357.88 281.615 1448.91 337.878 1569.35 500.724C1623.06 573.354 1686.57 617.854 1753.61 640.739C1825.26 665.199 1900.97 664.991 1973.09 648.072C1987.56 644.68 2001.88 640.615 2016 635.94V638.143C2002.03 642.746 1987.87 646.757 1973.57 650.113C1901.09 667.113 1824.99 667.315 1752.94 642.722C1685.51 619.704 1621.66 574.969 1567.67 501.967C1447.79 339.876 1357.43 283.824 1278.79 298.428C1200.11 313.034 1132.86 398.376 1059.35 519.016C1031.79 564.27 993.247 606.268 947.135 642.522C865.922 706.379 761.19 752.448 651.503 767.161C541.782 781.876 427.094 765.226 326.008 703.639C278.336 674.597 233.695 635.563 194.03 585.118C88.4828 450.879 -0.580032 392.283 -96.2461 380.063V377.782Z" fill="white"/>
</mask>
<g mask="url(#mask1_224_17204)">
<path d="M-96.2383 781.891H2016V281.605H-96.2383V781.891Z" fill="url(#paint1_linear_224_17204)"/>
</g>
<mask id="mask2_224_17204" style="mask-type:luminance" maskUnits="userSpaceOnUse" x="-97" y="302" width="2113" height="503">
<path d="M-96.2461 432.119C3.67226 438.324 97.3736 493.423 211.488 628.941C252.656 677.829 298.39 715.185 346.795 742.491C449.439 800.4 564.142 813.13 672.867 794.814C781.625 776.492 884.401 727.106 963.155 660.786C1007.84 623.162 1044.78 580.089 1070.69 534.159C1140.37 410.637 1205.08 322.721 1283.97 305.314C1362.9 287.9 1455.77 341.077 1581.6 499.788C1637.72 570.577 1702.69 612.922 1770.46 633.543C1842.88 655.583 1918.54 652.834 1990.06 633.504C1998.77 631.15 2007.42 628.549 2016 625.718V627.921C2007.6 630.682 1999.13 633.223 1990.6 635.529C1918.74 654.95 1842.69 657.705 1769.86 635.541C1701.69 614.799 1636.37 572.234 1579.96 501.088C1454.71 343.111 1362.53 290.121 1284.42 307.354C1206.27 324.596 1141.92 412.146 1072.51 535.182C1046.47 581.336 1009.37 624.604 964.498 662.386C885.47 728.932 782.34 778.493 673.214 796.875C564.052 815.266 448.872 802.473 345.772 744.311C297.153 716.884 251.226 679.368 209.892 630.284C96.4139 495.523 3.17129 440.645 -96.2461 434.374V432.119Z" fill="white"/>
</mask>
<g mask="url(#mask2_224_17204)">
<path d="M-96.2383 815.27H2016V287.913H-96.2383V815.27Z" fill="url(#paint2_linear_224_17204)"/>
</g>
<mask id="mask3_224_17204" style="mask-type:luminance" maskUnits="userSpaceOnUse" x="-97" y="310" width="2113" height="528">
<path d="M-96.2461 487.49C7.46583 487.122 105.326 538.047 227.834 673.999C270.616 721.475 317.579 757.277 366.874 782.944C471.41 837.373 586.475 846.252 694.518 824.296C802.597 802.338 903.653 749.53 980.14 680.603C1023.53 641.502 1059.01 597.214 1083.37 550.435C1148.86 424.65 1210.58 334.612 1288.85 314.567C1367.15 294.513 1461.75 344.544 1592.84 498.946C1651.31 567.807 1717.65 607.945 1786.08 626.282C1859.21 645.881 1934.73 640.597 2005.56 618.882C2009.05 617.81 2012.53 616.698 2016 615.548V617.751C2012.73 618.829 2009.46 619.872 2006.17 620.88C1934.99 642.703 1859.07 648.012 1785.54 628.307C1716.72 609.865 1650.01 569.512 1591.24 500.298C1460.76 346.609 1366.85 296.746 1289.37 316.589C1211.85 336.444 1150.47 426.105 1085.23 551.404C1060.76 598.403 1025.12 642.89 981.54 682.16C904.794 751.319 803.384 804.308 694.928 826.346C586.442 848.389 470.897 839.471 365.908 784.803C316.399 759.024 269.237 723.071 226.279 675.4C104.409 540.156 6.99503 489.433 -96.2461 489.738V487.49Z" fill="white"/>
</mask>
<g mask="url(#mask3_224_17204)">
<path d="M-96.2383 848.377H2016V294.522H-96.2383V848.377Z" fill="url(#paint3_linear_224_17204)"/>
</g>
<mask id="mask4_224_17204" style="mask-type:luminance" maskUnits="userSpaceOnUse" x="-97" y="318" width="2113" height="553">
<path d="M-96.2461 544.028C11.3228 536.399 113.299 582.658 244.701 718.988C289.056 765.002 337.192 799.211 387.317 823.207C493.613 874.095 608.91 879.105 716.162 853.534C823.448 827.96 922.675 771.793 996.802 700.343C1038.86 659.803 1072.84 614.349 1095.61 566.783C1156.85 438.867 1215.5 346.808 1293.06 324.149C1370.64 301.478 1466.87 348.308 1603.06 498.221C1663.8 565.084 1731.46 602.975 1800.47 619.006C1872.96 635.846 1946.96 628.579 2016 605.452V607.658C1946.8 630.725 1872.66 637.925 1800 621.046C1730.6 604.921 1662.57 566.832 1601.51 499.631C1465.95 350.408 1370.42 303.72 1293.64 326.156C1216.82 348.6 1158.49 440.271 1097.49 567.686C1074.6 615.484 1040.48 661.143 998.253 701.849C923.864 773.549 824.296 829.913 716.645 855.574C608.965 881.248 493.187 876.205 386.418 825.09C336.067 800.988 287.725 766.638 243.192 720.436C112.421 584.764 10.8791 538.698 -96.2461 546.273V544.028Z" fill="white"/>
</mask>
<g mask="url(#mask4_224_17204)">
<path d="M-96.2383 881.242H2016V301.494H-96.2383V881.242Z" fill="url(#paint4_linear_224_17204)"/>
</g>
<mask id="mask5_224_17204" style="mask-type:luminance" maskUnits="userSpaceOnUse" x="-97" y="327" width="2113" height="578">
<path d="M-96.2461 601.921C15.2371 586.255 121.246 627.254 262.084 763.883C307.957 808.383 357.213 840.955 408.117 863.255C516.066 910.552 631.467 911.69 737.798 882.537C844.16 853.377 941.45 793.908 1013.14 720.008C1053.81 678.082 1086.24 631.516 1107.4 583.213C1164.32 453.308 1219.86 359.335 1296.6 334.087C1373.38 308.824 1471.12 352.397 1612.27 497.66C1675.23 562.444 1744.12 598.043 1813.62 611.751C1882.17 625.268 1951.33 617.503 2016 595.457V597.672C1951.2 619.652 1881.92 627.351 1813.22 613.806C1743.32 600.017 1674.05 564.233 1610.77 499.115C1470.28 354.528 1373.23 311.078 1297.25 336.076C1221.23 361.086 1166.01 454.657 1109.32 584.046C1088.06 632.584 1055.48 679.365 1014.64 721.466C942.705 795.617 845.08 855.291 738.347 884.553C631.587 913.824 515.704 912.674 407.284 865.171C356.154 842.772 306.687 810.064 260.627 765.383C120.413 629.358 14.8236 588.549 -96.2461 604.17V601.921Z" fill="white"/>
</mask>
<g mask="url(#mask5_224_17204)">
<path d="M-96.2383 913.836H2016V308.827H-96.2383V913.836Z" fill="url(#paint5_linear_224_17204)"/>
</g>
<mask id="mask6_224_17204" style="mask-type:luminance" maskUnits="userSpaceOnUse" x="-97" y="336" width="2113" height="602">
<path d="M-96.2461 661.294C19.2087 636.731 129.113 671.833 279.987 808.67C327.323 851.609 377.648 882.507 429.273 903.089C538.746 946.735 654.122 944.001 759.416 911.295C864.742 878.578 959.98 815.883 1029.15 739.619C1068.39 696.354 1099.24 648.724 1118.77 599.737C1171.29 467.997 1223.64 372.21 1299.49 344.4C1375.39 316.574 1474.53 356.846 1620.48 497.286C1685.57 559.927 1755.62 593.194 1825.55 604.56C1890.47 615.113 1955.32 606.793 2016 585.586V587.798C1955.2 608.939 1890.26 617.199 1825.21 606.624C1754.89 595.192 1684.45 561.753 1619.03 498.795C1473.76 359.004 1375.31 318.835 1300.22 346.365C1225.08 373.915 1173.02 469.289 1120.71 600.503C1101.09 649.729 1070.1 697.573 1030.69 741.019C961.284 817.549 865.72 880.464 760.031 913.293C654.316 946.128 538.456 948.869 428.503 905.03C376.655 884.36 326.116 853.329 278.584 810.218C128.329 673.936 18.8314 639.025 -96.2461 663.564V661.294Z" fill="white"/>
</mask>
<g mask="url(#mask6_224_17204)">
<path d="M-96.2383 948.875H2016V316.583H-96.2383V948.875Z" fill="url(#paint6_linear_224_17204)"/>
</g>
<mask id="mask7_224_17204" style="mask-type:luminance" maskUnits="userSpaceOnUse" x="-97" y="345" width="2113" height="628">
<path d="M-96.2461 722.317C23.2467 687.876 136.848 716.396 298.405 853.329C347.164 894.657 398.493 923.853 450.776 942.688C561.649 982.637 676.869 976.03 781.003 939.812C885.171 903.581 978.254 837.724 1044.82 759.178C1082.59 714.618 1111.83 665.981 1129.7 616.369C1177.77 482.942 1226.88 385.45 1301.76 355.111C1376.68 324.756 1477.12 361.678 1627.7 497.142C1694.85 557.561 1765.98 588.459 1836.25 597.473C1897.89 605.381 1958.9 596.45 2016 575.841V578.065C1958.81 598.593 1897.73 607.463 1835.98 599.544C1765.31 590.478 1693.79 559.42 1626.3 498.699C1476.41 363.86 1376.68 327.017 1302.54 357.054C1228.37 387.107 1179.55 484.174 1131.67 617.072C1113.71 666.932 1084.34 715.789 1046.42 760.53C979.621 839.344 886.218 905.428 781.691 941.786C677.134 978.152 561.432 984.776 450.07 944.656C397.551 925.733 346.002 896.417 297.053 854.929C136.1 718.505 22.8996 690.176 -96.2461 724.611V722.317Z" fill="white"/>
</mask>
<g mask="url(#mask7_224_17204)">
<path d="M-96.2383 984.788H2016V324.762H-96.2383V984.788Z" fill="url(#paint7_linear_224_17204)"/>
</g>
<mask id="mask8_224_17204" style="mask-type:luminance" maskUnits="userSpaceOnUse" x="-97" y="354" width="2113" height="653">
<path d="M-96.2461 785.283C27.3572 739.881 144.375 760.962 317.328 897.853C367.438 937.518 419.721 964.972 472.614 982.045C584.77 1018.25 699.7 1007.78 802.56 968.087C905.457 928.383 996.277 859.435 1060.17 778.704C1096.42 732.904 1124.01 683.313 1140.21 633.124C1183.77 498.161 1229.58 399.079 1303.4 366.244C1377.25 333.393 1478.88 366.92 1633.92 497.256C1703.06 555.385 1775.19 583.88 1845.72 590.529C1904.45 596.067 1962.08 586.467 2016 566.231V568.459C1962.02 588.612 1904.32 598.152 1845.52 592.608C1774.59 585.92 1702.07 557.28 1632.57 498.853C1478.25 369.123 1377.33 335.645 1304.25 368.151C1231.13 400.679 1185.59 499.329 1142.2 633.764C1125.92 684.191 1098.21 734.005 1061.81 779.999C997.689 861.01 906.559 930.197 803.315 970.036C700.035 1009.89 584.619 1020.4 471.974 984.034C418.855 966.889 366.355 939.32 316.033 899.492C143.672 763.068 27.0463 742.187 -96.2461 787.613V785.283Z" fill="white"/>
</mask>
<g mask="url(#mask8_224_17204)">
<path d="M-96.2383 1020.4H2016V333.394H-96.2383V1020.4Z" fill="url(#paint8_linear_224_17204)"/>
</g>
<mask id="mask9_224_17204" style="mask-type:luminance" maskUnits="userSpaceOnUse" x="-97" y="364" width="2113" height="677">
<path d="M-96.2461 850.372C31.5672 792.762 151.624 805.528 336.761 942.214C388.171 980.171 441.345 1005.86 494.781 1021.15C608.087 1053.56 722.603 1039.25 824.072 996.127C925.575 952.988 1014.03 881.034 1075.18 798.203C1109.88 751.214 1135.78 700.726 1150.29 650.022C1189.3 513.671 1231.76 413.11 1304.43 377.812C1377.15 342.501 1479.84 372.6 1639.16 497.657C1710.22 553.435 1783.26 579.492 1853.97 583.772C1910.15 587.173 1964.88 576.83 2016 556.737V558.982C1964.83 578.985 1910.07 589.264 1853.85 585.86C1782.73 581.557 1709.29 555.364 1637.87 499.305C1479.28 374.824 1377.3 344.753 1305.35 379.695C1233.36 414.655 1191.16 514.781 1152.3 650.592C1137.73 701.535 1111.71 752.255 1076.87 799.447C1015.5 882.564 926.743 954.766 824.893 998.049C723.007 1041.35 608.011 1055.72 494.207 1023.16C440.545 1007.8 387.145 982.012 335.514 943.892C150.957 807.634 31.2956 795.095 -96.2461 852.762V850.372Z" fill="white"/>
</mask>
<g mask="url(#mask9_224_17204)">
<path d="M-96.2383 1055.71H2016V342.507H-96.2383V1055.71Z" fill="url(#paint9_linear_224_17204)"/>
</g>
<mask id="mask10_224_17204" style="mask-type:luminance" maskUnits="userSpaceOnUse" x="-97" y="373" width="2113" height="703">
<path d="M-96.2461 917.946C35.9131 846.729 158.502 850.112 356.685 986.396C409.342 1022.61 463.349 1046.49 517.27 1059.98C631.602 1088.58 745.569 1070.43 845.536 1023.92C945.536 977.403 1031.52 902.521 1089.86 817.687C1122.96 769.562 1147.15 718.233 1159.95 667.067C1194.37 529.484 1233.42 427.556 1304.88 389.841C1376.36 352.11 1480.01 378.744 1643.44 498.387C1716.33 551.751 1790.2 575.339 1861.01 577.246C1915.03 578.698 1967.3 567.535 2016 547.348V549.608C1967.27 569.693 1915 580.787 1860.97 579.332C1789.74 577.416 1715.46 553.706 1642.2 500.074C1479.53 380.986 1376.59 354.353 1305.85 391.691C1235.08 429.047 1196.26 530.532 1161.98 667.574C1149.12 718.976 1124.82 770.537 1091.58 818.873C1033.04 904.003 946.758 979.144 846.414 1025.82C746.04 1072.52 631.593 1090.74 516.763 1062.01C462.615 1048.47 408.38 1024.48 355.499 988.117C157.875 852.215 35.6837 849.073 -96.2461 920.394V917.946Z" fill="white"/>
</mask>
<g mask="url(#mask10_224_17204)">
<path d="M-96.2383 1090.75H2016V352.104H-96.2383V1090.75Z" fill="url(#paint10_linear_224_17204)"/>
</g>
<mask id="mask11_224_17204" style="mask-type:luminance" maskUnits="userSpaceOnUse" x="-97" y="384" width="2113" height="727">
<path d="M-96.2461 988.352C40.4551 901.924 164.918 894.732 377.105 1030.39C430.945 1064.81 485.724 1086.87 540.065 1098.54C655.293 1123.29 768.59 1101.32 866.939 1051.49C965.325 1001.64 1048.75 923.916 1104.21 837.171C1135.67 787.963 1158.13 735.849 1169.2 684.285C1198.98 545.625 1234.6 442.441 1304.74 402.35C1374.92 362.239 1479.4 385.384 1646.76 499.474C1721.4 550.36 1796.02 571.458 1866.86 570.988C1919.12 570.638 1969.34 558.551 2016 538.026V540.313C1969.33 560.721 1919.12 572.726 1866.87 573.076C1795.62 573.547 1720.59 552.343 1645.58 501.201C1479 387.641 1375.23 364.478 1305.78 404.167C1236.3 443.878 1200.91 546.606 1171.25 684.719C1160.12 736.525 1137.57 788.872 1105.97 838.294C1050.32 925.344 966.601 1003.34 867.881 1053.36C769.134 1103.39 655.363 1125.45 539.63 1100.59C485.06 1088.87 430.052 1066.72 375.982 1032.15C164.333 896.833 40.274 904.296 -96.2461 990.881V988.352Z" fill="white"/>
</mask>
<g mask="url(#mask11_224_17204)">
<path d="M-96.2383 1125.45H2016V362.245H-96.2383V1125.45Z" fill="url(#paint11_linear_224_17204)"/>
</g>
<mask id="mask12_224_17204" style="mask-type:luminance" maskUnits="userSpaceOnUse" x="-97" y="394" width="2113" height="753">
<path d="M-96.2461 1061.98C45.2808 958.514 170.764 939.407 398.01 1074.17C452.985 1106.77 508.47 1126.98 563.164 1136.82C679.153 1157.69 791.651 1131.93 888.276 1078.82C984.929 1025.7 1065.7 945.22 1118.22 856.661C1148.02 806.418 1168.71 753.577 1178.05 701.677C1203.16 562.097 1235.29 457.778 1304.05 415.358C1372.84 372.913 1478.04 392.536 1649.13 500.947C1725.44 549.298 1800.73 567.882 1871.51 565.033C1922.42 562.984 1971.01 549.85 2016 528.733V531.042C1971.02 552.026 1922.47 565.072 1871.59 567.122C1800.4 569.986 1724.7 551.311 1648.01 502.715C1477.71 394.806 1373.22 375.138 1305.15 417.135C1237.04 459.154 1205.12 563.014 1180.11 702.048C1170.72 754.204 1149.94 807.278 1120.02 857.726C1067.32 946.593 986.266 1027.35 889.281 1080.66C792.269 1133.98 679.301 1159.83 562.796 1138.88C507.854 1128.99 452.134 1108.7 396.945 1075.97C170.215 941.514 45.151 960.949 -96.2461 1064.64V1061.98Z" fill="white"/>
</mask>
<g mask="url(#mask12_224_17204)">
<path d="M-96.2383 1159.83H2016V372.928H-96.2383V1159.83Z" fill="url(#paint12_linear_224_17204)"/>
</g>
<mask id="mask13_224_17204" style="mask-type:luminance" maskUnits="userSpaceOnUse" x="-97" y="405" width="2113" height="777">
<path d="M-96.2461 1139.38C50.5169 1016.77 175.928 984.178 419.392 1117.73C475.43 1148.46 531.56 1166.8 586.557 1174.8C703.185 1191.76 814.753 1162.24 909.541 1105.92C1004.36 1049.59 1082.38 966.442 1131.89 876.172C1159.99 824.96 1178.9 771.458 1186.49 719.272C1206.9 578.925 1235.51 473.583 1302.81 428.878C1370.14 384.152 1475.94 400.235 1650.57 502.842C1728.46 548.606 1804.32 564.65 1874.98 559.426C1924.96 555.732 1972.35 541.387 2016 519.399V521.744C1972.37 543.584 1925.05 557.823 1875.13 561.514C1804.08 566.765 1727.8 550.64 1649.51 504.644C1475.69 402.51 1370.6 386.361 1303.97 430.622C1237.31 474.905 1208.89 579.776 1188.56 719.564C1180.93 772.007 1161.94 825.751 1133.73 877.18C1084.04 967.761 1005.75 1051.2 910.603 1107.72C815.435 1164.27 703.4 1193.91 586.261 1176.87C531.02 1168.83 474.651 1150.42 418.387 1119.56C175.418 986.285 50.4535 1019.24 -96.2461 1142.14V1139.38Z" fill="white"/>
</mask>
<g mask="url(#mask13_224_17204)">
<path d="M-96.2383 1193.9H2016V384.155H-96.2383V1193.9Z" fill="url(#paint13_linear_224_17204)"/>
</g>
<mask id="mask14_224_17204" style="mask-type:luminance" maskUnits="userSpaceOnUse" x="-82" y="416" width="2098" height="791">
<path d="M747.873 1207C813.55 1194.46 875.285 1168.3 930.719 1132.8C1023.59 1073.31 1098.78 987.595 1145.24 895.716C1171.6 843.587 1188.71 789.481 1194.54 737.065C1210.23 596.115 1235.29 489.874 1301.05 442.936C1366.84 395.973 1473.12 408.498 1651.1 505.19C1730.47 548.311 1806.84 561.801 1877.28 554.211C1926.77 548.878 1973.35 533.133 2016 509.949V512.331C1973.39 535.339 1926.89 550.969 1877.5 556.29C1806.66 563.922 1729.88 550.369 1650.1 507.025C1472.95 410.782 1367.37 398.167 1302.27 444.641C1237.13 491.132 1212.25 596.9 1196.62 737.295C1190.76 789.961 1173.58 844.308 1147.11 896.655C1100.49 988.856 1025.04 1074.87 931.85 1134.56C879.069 1168.37 820.591 1193.73 758.436 1207H747.873ZM-81.1465 1207C64.7262 1073.9 188.945 1033.47 441.246 1161.04C485.912 1183.63 530.387 1198.61 574.105 1207H563.603C522.96 1198.27 481.714 1183.85 440.304 1162.91C190.261 1036.48 66.4887 1075.81 -78.0199 1207H-81.1465Z" fill="white"/>
</mask>
<g mask="url(#mask14_224_17204)">
<path d="M-81.1465 1207H2016V395.986H-81.1465V1207Z" fill="url(#paint14_linear_224_17204)"/>
</g>
<mask id="mask15_224_17204" style="mask-type:luminance" maskUnits="userSpaceOnUse" x="12" y="427" width="2004" height="780">
<path d="M868.172 1207C897.449 1193.65 925.414 1177.63 951.809 1159.45C1042.63 1096.88 1114.91 1008.69 1158.26 915.297C1182.85 862.316 1198.13 807.664 1202.2 755.085C1213.15 613.688 1234.64 506.666 1298.79 457.543C1362.96 408.404 1469.6 417.352 1650.72 508.015C1731.49 548.452 1808.27 559.371 1878.42 549.421C1927.87 542.407 1974.04 525.015 2016 500.283V502.706C1974.09 527.239 1928.03 544.496 1878.7 551.491C1808.17 561.499 1730.97 550.526 1649.78 509.883C1469.5 419.643 1363.56 410.577 1300.05 459.208C1236.52 507.858 1215.19 614.398 1204.29 755.239C1200.2 808.075 1184.85 862.968 1160.15 916.172C1116.66 1009.89 1044.13 1098.38 952.995 1161.17C927.741 1178.56 901.056 1193.98 873.167 1207H868.172ZM12.4258 1207C128.692 1119.36 249.61 1104.79 463.552 1204.1C465.671 1205.08 467.789 1206.05 469.905 1207H464.847L462.677 1206C251.315 1107.89 131.089 1121.45 16.0594 1207H12.4258Z" fill="white"/>
</mask>
<g mask="url(#mask15_224_17204)">
<path d="M12.4375 1207H2016V408.389H12.4375V1207Z" fill="url(#paint15_linear_224_17204)"/>
</g>
<mask id="mask16_224_17204" style="mask-type:luminance" maskUnits="userSpaceOnUse" x="131" y="439" width="1885" height="768">
<path d="M942.195 1207C952.631 1200.29 962.841 1193.24 972.803 1185.87C1061.47 1120.29 1130.75 1029.72 1170.94 934.935C1193.74 881.158 1207.18 826.026 1209.49 773.335C1215.69 631.649 1233.57 523.968 1296.03 472.723C1358.52 421.454 1465.4 426.823 1649.46 511.356C1731.55 549.056 1808.65 557.392 1878.42 545.094C1928.3 536.302 1974.44 516.96 2016 490.264V492.747C1974.51 519.215 1928.5 538.394 1878.78 547.158C1808.62 559.526 1731.1 551.148 1648.59 513.254C1465.38 429.111 1359.2 423.606 1297.36 474.338C1235.49 525.097 1217.75 632.294 1211.57 773.426C1209.26 826.364 1195.76 881.743 1172.87 935.747C1132.53 1030.87 1063.02 1121.75 974.047 1187.55C964.914 1194.31 955.574 1200.79 946.04 1207H942.195ZM131.881 1207C198.991 1180.55 275.418 1178.57 375.366 1207H367.538C274.44 1181.65 202.018 1183.35 138.228 1207H131.881Z" fill="white"/>
</mask>
<g mask="url(#mask16_224_17204)">
<path d="M131.891 1207H2016V421.458H131.891V1207Z" fill="url(#paint16_linear_224_17204)"/>
</g>
<mask id="mask17_224_17204" style="mask-type:luminance" maskUnits="userSpaceOnUse" x="1000" y="451" width="1016" height="756">
<path d="M1000.01 1207C1083.34 1139 1147.22 1048.36 1183.3 954.635C1204.29 900.122 1215.86 844.568 1216.4 791.832C1217.84 650.018 1232.1 541.798 1292.81 488.485C1353.54 435.149 1460.54 436.924 1647.33 515.231C1730.65 550.16 1807.98 555.904 1877.3 541.273C1928.09 530.55 1974.6 508.881 2016 479.736V482.287C1974.67 511.162 1928.32 532.638 1877.72 543.319C1808.01 558.037 1730.26 552.27 1646.53 517.165C1460.6 439.217 1354.29 437.277 1294.18 490.058C1234.05 542.86 1219.93 650.595 1218.49 791.85C1217.95 844.836 1206.32 900.638 1185.25 955.381C1149.33 1048.7 1085.96 1138.96 1003.31 1207H1000.01Z" fill="white"/>
</mask>
<g mask="url(#mask17_224_17204)">
<path d="M1000.01 1207H2016V435.158H1000.01V1207Z" fill="url(#paint17_linear_224_17204)"/>
</g>
<mask id="mask18_224_17204" style="mask-type:luminance" maskUnits="userSpaceOnUse" x="1048" y="464" width="968" height="743">
<path d="M1048.28 1207C1115.51 1140.23 1166.28 1058.16 1195.33 974.409C1214.47 919.223 1224.18 863.309 1222.95 810.583C1219.63 668.802 1230.25 560.165 1289.13 504.849C1348.04 449.503 1455.04 447.686 1644.36 519.682C1728.79 551.793 1806.28 554.941 1875.06 537.992C1927.3 525.118 1974.53 500.654 2016 468.483V471.13C1974.62 502.981 1927.56 527.209 1875.56 540.023C1806.39 557.072 1728.48 553.915 1643.62 521.641C1455.18 449.977 1348.86 451.606 1290.56 506.373C1232.24 561.167 1221.73 669.315 1225.04 810.54C1226.28 863.512 1216.53 919.67 1197.3 975.088C1168.36 1058.51 1117.95 1140.28 1051.24 1207H1048.28Z" fill="white"/>
</mask>
<g mask="url(#mask18_224_17204)">
<path d="M1048.29 1207H2016V447.683H1048.29V1207Z" fill="url(#paint18_linear_224_17204)"/>
</g>
<mask id="mask19_224_17204" style="mask-type:luminance" maskUnits="userSpaceOnUse" x="1089" y="456" width="927" height="751">
<path d="M1089.85 1207C1143.69 1143.18 1183.87 1069.09 1207.04 994.271C1224.32 938.472 1232.15 882.265 1229.14 829.611C1221.07 688.021 1228.04 579.088 1285.03 521.825C1342.05 464.532 1448.93 459.13 1640.55 524.731C1726.02 553.991 1803.57 554.537 1871.75 535.288C1925.99 519.972 1974.32 492.126 2016 456.245V458.997C1974.4 494.507 1926.27 522.067 1872.31 537.301C1803.75 556.658 1725.78 556.121 1639.88 526.714C1449.14 461.412 1342.94 466.609 1286.51 523.298C1230.06 580.02 1223.19 688.458 1231.23 829.496C1234.25 882.398 1226.39 938.852 1209.04 994.883C1185.95 1069.44 1146.04 1143.26 1092.59 1207H1089.85Z" fill="white"/>
</mask>
<g mask="url(#mask19_224_17204)">
<path d="M1089.85 1207H2016V456.254H1089.85V1207Z" fill="url(#paint19_linear_224_17204)"/>
</g>
<mask id="mask20_224_17204" style="mask-type:luminance" maskUnits="userSpaceOnUse" x="1126" y="442" width="890" height="765">
<path d="M1126.26 1207C1168.82 1147.26 1200.23 1080.81 1218.43 1014.23C1233.82 957.88 1239.76 901.444 1235 848.92C1222.18 707.68 1225.48 598.572 1280.52 539.429C1335.59 480.259 1442.22 471.271 1635.94 530.408C1722.34 556.782 1799.86 554.724 1867.36 533.2C1924.24 515.059 1974.01 483.084 2016 442.646V445.546C1974.1 485.534 1924.54 517.15 1867.99 535.189C1800.11 556.836 1722.17 558.913 1635.33 532.406C1442.51 473.544 1336.54 482.299 1282.05 540.856C1227.53 599.441 1224.31 708.048 1237.07 848.733C1241.86 901.505 1235.9 958.194 1220.44 1014.77C1202.3 1081.14 1171.09 1147.37 1128.82 1207H1126.26Z" fill="white"/>
</mask>
<g mask="url(#mask20_224_17204)">
<path d="M1126.27 1207H2016V442.643H1126.27V1207Z" fill="url(#paint20_linear_224_17204)"/>
</g>
<mask id="mask21_224_17204" style="mask-type:luminance" maskUnits="userSpaceOnUse" x="1158" y="427" width="858" height="780">
<path d="M1158.42 1207C1191.42 1152.17 1215.52 1093.11 1229.49 1034.29C1242.99 977.458 1247.03 920.853 1240.51 868.519C1222.95 727.791 1222.6 618.635 1275.62 557.675C1328.67 496.692 1434.95 484.128 1630.54 536.731C1717.78 560.192 1795.19 555.533 1861.92 531.754C1922.17 510.288 1973.74 473.23 2016 427.212V430.285C1973.8 475.774 1922.48 512.397 1862.62 533.728C1795.5 557.642 1717.68 562.332 1630 538.753C1435.31 486.394 1329.7 498.705 1277.2 559.052C1224.68 619.432 1225.1 728.087 1242.59 868.265C1249.14 920.85 1245.09 977.702 1231.53 1034.77C1217.61 1093.41 1193.64 1152.28 1160.86 1207H1158.42Z" fill="white"/>
</mask>
<g mask="url(#mask21_224_17204)">
<path d="M1158.41 1207H2015.99V427.221H1158.41V1207Z" fill="url(#paint21_linear_224_17204)"/>
</g>
<mask id="mask22_224_17204" style="mask-type:luminance" maskUnits="userSpaceOnUse" x="1186" y="409" width="830" height="798">
<path d="M1186.94 1207C1211.85 1157.68 1229.86 1105.86 1240.26 1054.47C1251.84 997.219 1253.98 940.512 1245.71 888.425C1223.44 748.365 1219.42 639.281 1270.37 576.58C1321.34 513.846 1427.14 497.727 1624.38 543.735C1712.36 564.254 1789.57 557.002 1855.46 530.997C1919.96 505.546 1973.64 462.124 2016 409.201V412.539C1973.68 464.813 1920.25 507.677 1856.23 532.946C1789.95 559.097 1712.33 566.4 1623.91 545.776C1427.57 499.978 1322.43 515.822 1271.99 577.899C1221.52 640.005 1225.59 748.585 1247.77 888.099C1256.08 940.433 1253.94 997.391 1242.31 1054.88C1231.94 1106.12 1214.03 1157.79 1189.29 1207H1186.94Z" fill="white"/>
</mask>
<g mask="url(#mask22_224_17204)">
<path d="M1186.94 1207H2016V409.204H1186.94V1207Z" fill="url(#paint22_linear_224_17204)"/>
</g>
<mask id="mask23_224_17204" style="mask-type:luminance" maskUnits="userSpaceOnUse" x="1212" y="387" width="804" height="820">
<path d="M1212.25 1207C1230.36 1163.65 1243.3 1118.97 1250.71 1074.78C1260.37 1017.17 1260.6 960.424 1250.58 908.645C1223.63 769.412 1215.95 660.527 1264.77 596.148C1313.61 531.739 1418.8 512.077 1617.48 551.44C1706.1 568.999 1783.02 559.16 1848 530.957C1917.45 500.823 1973.3 449.708 2015.25 388.652L2016 387.553V391.235C1973.95 451.977 1918.13 502.803 1848.83 532.874C1783.47 561.239 1706.13 571.141 1617.07 553.495C1419.31 514.313 1314.76 533.679 1266.43 597.413C1218.08 661.176 1225.79 769.56 1252.63 908.253C1262.7 960.276 1262.47 1017.28 1252.77 1075.12C1245.39 1119.19 1232.51 1163.75 1214.51 1207H1212.25Z" fill="white"/>
</mask>
<g mask="url(#mask23_224_17204)">
<path d="M1212.26 1207H2016V387.565H1212.26V1207Z" fill="url(#paint23_linear_224_17204)"/>
</g>
<mask id="mask24_224_17204" style="mask-type:luminance" maskUnits="userSpaceOnUse" x="1227" y="360" width="789" height="847">
<path d="M1234.61 1207C1247.09 1169.98 1255.91 1132.37 1260.86 1095.23C1268.58 1037.33 1266.9 980.611 1255.15 929.194C1223.54 790.942 1212.21 682.374 1258.84 616.399C1305.49 550.387 1409.96 527.206 1609.85 559.878C1699.01 574.452 1775.56 562.036 1839.56 531.666C1907.96 499.217 1962.06 446.261 2001.94 383.835C2006.84 376.16 2011.52 368.347 2016 360.407V364.635C2012.06 371.508 2007.96 378.281 2003.7 384.955C1963.62 447.698 1909.23 500.929 1840.46 533.559C1776.09 564.097 1699.13 576.589 1609.52 561.943C1410.56 529.418 1306.71 552.282 1260.55 617.603C1214.36 682.953 1225.71 791.017 1257.19 928.727C1269 980.382 1270.68 1037.36 1262.93 1095.5C1257.99 1132.55 1249.22 1170.07 1236.81 1207H1234.61Z" fill="white"/>
</mask>
<g mask="url(#mask24_224_17204)">
<path d="M1212.22 1207H2016V360.403H1212.22V1207Z" fill="url(#paint24_linear_224_17204)"/>
</g>
<mask id="mask25_224_17204" style="mask-type:luminance" maskUnits="userSpaceOnUse" x="1225" y="324" width="791" height="883">
<path d="M1254.24 1207C1262.2 1176.59 1267.71 1146.01 1270.71 1115.83C1276.48 1057.7 1272.91 1001.07 1259.43 950.075C1223.2 812.964 1208.24 704.839 1252.63 637.331C1297.04 569.792 1400.67 543.119 1601.54 569.068C1691.14 580.639 1767.22 565.661 1830.18 533.163C1897.45 498.436 1949.74 443.693 1987.5 379.96C1998.15 361.979 2007.65 343.283 2016 324.119V329.297C2008.09 347.022 1999.19 364.33 1989.3 381.025C1951.35 445.075 1898.78 500.102 1831.13 535.022C1767.83 567.704 1691.33 582.772 1601.28 571.138C1401.34 545.31 1298.32 571.645 1254.37 638.478C1210.41 705.343 1225.37 812.967 1261.46 949.544C1274.99 1000.77 1278.58 1057.66 1272.79 1116.03C1269.8 1146.15 1264.31 1176.66 1256.4 1207H1254.24Z" fill="white"/>
</mask>
<g mask="url(#mask25_224_17204)">
<path d="M1208.24 1207H2016V324.128H1208.24V1207Z" fill="url(#paint25_linear_224_17204)"/>
</g>
</g>
<defs>
<linearGradient id="paint0_linear_224_17204" x1="538748" y1="1.14662e+06" x2="1.45447e+07" y2="-5.42263e+06" gradientUnits="userSpaceOnUse">
<stop stop-color="#0131B8"/>
<stop offset="0.45" stop-color="#39D4FF"/>
<stop offset="1" stop-color="#FA00FF"/>
</linearGradient>
<linearGradient id="paint1_linear_224_17204" x1="557695" y1="1.18701e+06" x2="1.45637e+07" y2="-5.38226e+06" gradientUnits="userSpaceOnUse">
<stop stop-color="#0131B8"/>
<stop offset="0.45" stop-color="#39D4FF"/>
<stop offset="1" stop-color="#FA00FF"/>
</linearGradient>
<linearGradient id="paint2_linear_224_17204" x1="577379" y1="1.22898e+06" x2="1.45833e+07" y2="-5.34026e+06" gradientUnits="userSpaceOnUse">
<stop stop-color="#0131B8"/>
<stop offset="0.45" stop-color="#39D4FF"/>
<stop offset="1" stop-color="#FA00FF"/>
</linearGradient>
<linearGradient id="paint3_linear_224_17204" x1="597759" y1="1.27243e+06" x2="1.46038e+07" y2="-5.29683e+06" gradientUnits="userSpaceOnUse">
<stop stop-color="#0131B8"/>
<stop offset="0.45" stop-color="#39D4FF"/>
<stop offset="1" stop-color="#FA00FF"/>
</linearGradient>
<linearGradient id="paint4_linear_224_17204" x1="618956" y1="1.31762e+06" x2="1.4625e+07" y2="-5.25166e+06" gradientUnits="userSpaceOnUse">
<stop stop-color="#0131B8"/>
<stop offset="0.45" stop-color="#39D4FF"/>
<stop offset="1" stop-color="#FA00FF"/>
</linearGradient>
<linearGradient id="paint5_linear_224_17204" x1="640972" y1="1.36456e+06" x2="1.4647e+07" y2="-5.2047e+06" gradientUnits="userSpaceOnUse">
<stop stop-color="#0131B8"/>
<stop offset="0.45" stop-color="#39D4FF"/>
<stop offset="1" stop-color="#FA00FF"/>
</linearGradient>
<linearGradient id="paint6_linear_224_17204" x1="664710" y1="1.41518e+06" x2="1.46706e+07" y2="-5.15406e+06" gradientUnits="userSpaceOnUse">
<stop stop-color="#0131B8"/>
<stop offset="0.45" stop-color="#39D4FF"/>
<stop offset="1" stop-color="#FA00FF"/>
</linearGradient>
<linearGradient id="paint7_linear_224_17204" x1="689765" y1="1.46859e+06" x2="1.46957e+07" y2="-5.10066e+06" gradientUnits="userSpaceOnUse">
<stop stop-color="#0131B8"/>
<stop offset="0.45" stop-color="#39D4FF"/>
<stop offset="1" stop-color="#FA00FF"/>
</linearGradient>
<linearGradient id="paint8_linear_224_17204" x1="715886" y1="1.52428e+06" x2="1.47219e+07" y2="-5.04497e+06" gradientUnits="userSpaceOnUse">
<stop stop-color="#0131B8"/>
<stop offset="0.45" stop-color="#39D4FF"/>
<stop offset="1" stop-color="#FA00FF"/>
</linearGradient>
<linearGradient id="paint9_linear_224_17204" x1="743150" y1="1.58241e+06" x2="1.47491e+07" y2="-4.98685e+06" gradientUnits="userSpaceOnUse">
<stop stop-color="#0131B8"/>
<stop offset="0.45" stop-color="#39D4FF"/>
<stop offset="1" stop-color="#FA00FF"/>
</linearGradient>
<linearGradient id="paint10_linear_224_17204" x1="771561" y1="1.64299e+06" x2="1.47775e+07" y2="-4.92627e+06" gradientUnits="userSpaceOnUse">
<stop stop-color="#0131B8"/>
<stop offset="0.45" stop-color="#39D4FF"/>
<stop offset="1" stop-color="#FA00FF"/>
</linearGradient>
<linearGradient id="paint11_linear_224_17204" x1="801259" y1="1.7063e+06" x2="1.48072e+07" y2="-4.86296e+06" gradientUnits="userSpaceOnUse">
<stop stop-color="#0131B8"/>
<stop offset="0.45" stop-color="#39D4FF"/>
<stop offset="1" stop-color="#FA00FF"/>
</linearGradient>
<linearGradient id="paint12_linear_224_17204" x1="832249" y1="1.77238e+06" x2="1.48382e+07" y2="-4.79689e+06" gradientUnits="userSpaceOnUse">
<stop stop-color="#0131B8"/>
<stop offset="0.45" stop-color="#39D4FF"/>
<stop offset="1" stop-color="#FA00FF"/>
</linearGradient>
<linearGradient id="paint13_linear_224_17204" x1="864537" y1="1.84122e+06" x2="1.48705e+07" y2="-4.72805e+06" gradientUnits="userSpaceOnUse">
<stop stop-color="#0131B8"/>
<stop offset="0.45" stop-color="#39D4FF"/>
<stop offset="1" stop-color="#FA00FF"/>
</linearGradient>
<linearGradient id="paint14_linear_224_17204" x1="993504" y1="1.85592e+06" x2="1.48994e+07" y2="-4.66641e+06" gradientUnits="userSpaceOnUse">
<stop stop-color="#0131B8"/>
<stop offset="0.45" stop-color="#39D4FF"/>
<stop offset="1" stop-color="#FA00FF"/>
</linearGradient>
<linearGradient id="paint15_linear_224_17204" x1="1.65041e+06" y1="1.64233e+06" x2="1.49358e+07" y2="-4.58895e+06" gradientUnits="userSpaceOnUse">
<stop stop-color="#0131B8"/>
<stop offset="0.45" stop-color="#39D4FF"/>
<stop offset="1" stop-color="#FA00FF"/>
</linearGradient>
<linearGradient id="paint16_linear_224_17204" x1="2.48542e+06" y1="1.36238e+06" x2="1.49788e+07" y2="-4.4974e+06" gradientUnits="userSpaceOnUse">
<stop stop-color="#0131B8"/>
<stop offset="0.45" stop-color="#39D4FF"/>
<stop offset="1" stop-color="#FA00FF"/>
</linearGradient>
<linearGradient id="paint17_linear_224_17204" x1="8.49664e+06" y1="-794194" x2="1.52336e+07" y2="-3.95404e+06" gradientUnits="userSpaceOnUse">
<stop stop-color="#0131B8"/>
<stop offset="0.45" stop-color="#39D4FF"/>
<stop offset="1" stop-color="#FA00FF"/>
</linearGradient>
<linearGradient id="paint18_linear_224_17204" x1="8.86669e+06" y1="-837980" x2="1.52834e+07" y2="-3.84764e+06" gradientUnits="userSpaceOnUse">
<stop stop-color="#0131B8"/>
<stop offset="0.45" stop-color="#39D4FF"/>
<stop offset="1" stop-color="#FA00FF"/>
</linearGradient>
<linearGradient id="paint19_linear_224_17204" x1="9.18194e+06" y1="-882655" x2="1.53231e+07" y2="-3.76307e+06" gradientUnits="userSpaceOnUse">
<stop stop-color="#0131B8"/>
<stop offset="0.45" stop-color="#39D4FF"/>
<stop offset="1" stop-color="#FA00FF"/>
</linearGradient>
<linearGradient id="paint20_linear_224_17204" x1="9.41111e+06" y1="-1.02233e+06" x2="1.53108e+07" y2="-3.78946e+06" gradientUnits="userSpaceOnUse">
<stop stop-color="#0131B8"/>
<stop offset="0.45" stop-color="#39D4FF"/>
<stop offset="1" stop-color="#FA00FF"/>
</linearGradient>
<linearGradient id="paint21_linear_224_17204" x1="9.60483e+06" y1="-1.16366e+06" x2="1.52914e+07" y2="-3.83083e+06" gradientUnits="userSpaceOnUse">
<stop stop-color="#0131B8"/>
<stop offset="0.45" stop-color="#39D4FF"/>
<stop offset="1" stop-color="#FA00FF"/>
</linearGradient>
<linearGradient id="paint22_linear_224_17204" x1="9.76521e+06" y1="-1.31361e+06" x2="1.52626e+07" y2="-3.89208e+06" gradientUnits="userSpaceOnUse">
<stop stop-color="#0131B8"/>
<stop offset="0.45" stop-color="#39D4FF"/>
<stop offset="1" stop-color="#FA00FF"/>
</linearGradient>
<linearGradient id="paint23_linear_224_17204" x1="9.89183e+06" y1="-1.48041e+06" x2="1.52214e+07" y2="-3.98013e+06" gradientUnits="userSpaceOnUse">
<stop stop-color="#0131B8"/>
<stop offset="0.45" stop-color="#39D4FF"/>
<stop offset="1" stop-color="#FA00FF"/>
</linearGradient>
<linearGradient id="paint24_linear_224_17204" x1="9.81986e+06" y1="-1.63323e+06" x2="1.51496e+07" y2="-4.13303e+06" gradientUnits="userSpaceOnUse">
<stop stop-color="#0131B8"/>
<stop offset="0.45" stop-color="#39D4FF"/>
<stop offset="1" stop-color="#FA00FF"/>
</linearGradient>
<linearGradient id="paint25_linear_224_17204" x1="9.69232e+06" y1="-1.83649e+06" x2="1.50485e+07" y2="-4.34869e+06" gradientUnits="userSpaceOnUse">
<stop stop-color="#0131B8"/>
<stop offset="0.45" stop-color="#39D4FF"/>
<stop offset="1" stop-color="#FA00FF"/>
</linearGradient>
</defs>
</svg>
