<svg width="1919" height="1889" viewBox="0 0 1919 1889" fill="none" xmlns="http://www.w3.org/2000/svg">
<g opacity="0.1">
<mask id="mask0_27_2811" style="mask-type:luminance" maskUnits="userSpaceOnUse" x="0" y="448" width="1919" height="711">
<path d="M1919 507.943C1834.91 535.384 1757.33 632.629 1667.68 843.122C1633.34 923.732 1594.16 986.833 1551.95 1034.53C1462.43 1135.67 1359.23 1167.58 1259.56 1150.4C1159.86 1133.22 1063.69 1066.93 988.261 971.689C945.469 917.661 909.356 854.315 883.068 785.347C812.375 599.882 748.369 469.461 675.79 450.573C603.18 431.681 522.244 524.413 417.848 785.313C371.291 901.677 314.979 974.573 254.801 1013.87C190.494 1055.87 121.748 1059.52 55.7408 1036.86C36.8824 1030.39 18.2462 1021.76 0.00195312 1011.27V1014.73C18.131 1025.1 36.6384 1033.64 55.3707 1040.07C121.701 1062.84 190.807 1059.17 255.473 1016.94C315.994 977.415 372.616 904.127 419.411 787.173C523.318 527.477 603.654 435.118 675.507 453.816C747.393 472.524 811.061 602.408 881.474 787.14C907.889 856.439 944.164 920.069 987.137 974.328C1062.83 1069.9 1159.33 1136.42 1259.37 1153.66C1359.45 1170.9 1463.08 1138.86 1552.99 1037.27C1595.38 989.372 1634.73 926.003 1669.21 845.058C1758.29 635.924 1835.42 539.057 1919 511.521V507.943Z" fill="white"/>
</mask>
<g mask="url(#mask0_27_2811)">
<path d="M1918.99 1170.93L0.00244141 1170.93V431.677L1918.99 431.677V1170.93Z" fill="url(#paint0_linear_27_2811)"/>
</g>
<mask id="mask1_27_2811" style="mask-type:luminance" maskUnits="userSpaceOnUse" x="0" y="460" width="1919" height="749">
<path d="M1919 591.462C1831.6 610.472 1750.26 702.505 1653.78 913.749C1617.9 992.338 1577.51 1053.14 1534.39 1098.37C1442.95 1194.28 1339.19 1220.21 1239.91 1197.28C1140.61 1174.35 1045.78 1102.53 972.249 1002.99C930.534 946.52 895.669 881.12 870.743 810.674C803.708 621.235 742.279 487.193 670.109 464.123C597.905 441.039 515.205 529.046 405.789 783.766C356.987 897.373 299.291 966.979 238.381 1002.78C173.292 1041.04 104.51 1040.71 38.9827 1014.25C25.8383 1008.94 12.8282 1002.58 0.00195312 995.27V998.716C12.6885 1005.91 25.5559 1012.19 38.5494 1017.44C104.4 1044.03 173.539 1044.35 238.989 1005.88C300.25 969.873 358.265 899.899 407.316 785.711C516.228 532.171 598.316 444.494 669.766 467.338C741.246 490.186 802.345 623.676 869.123 812.378C894.167 883.164 929.183 948.856 971.075 1005.57C1044.86 1105.45 1140.01 1177.51 1239.66 1200.52C1339.34 1223.54 1443.54 1197.5 1535.38 1101.16C1578.69 1055.74 1619.24 994.68 1655.28 915.774C1751.17 705.8 1832.09 614.145 1919 595.031V591.462Z" fill="white"/>
</mask>
<g mask="url(#mask1_27_2811)">
<path d="M1918.99 1223.56L0.00244141 1223.56V441.025L1918.99 441.025V1223.56Z" fill="url(#paint1_linear_27_2811)"/>
</g>
<mask id="mask2_27_2811" style="mask-type:luminance" maskUnits="userSpaceOnUse" x="0" y="473" width="1919" height="787">
<path d="M1919 676.457C1828.22 686.163 1743.09 772.347 1639.42 984.323C1602.02 1060.79 1560.47 1119.22 1516.49 1161.94C1423.24 1252.52 1319.03 1272.43 1220.25 1243.78C1121.44 1215.12 1028.07 1137.87 956.523 1034.13C915.93 975.283 882.364 907.91 858.822 836.067C795.516 642.856 736.734 505.339 665.059 478.11C593.346 450.872 508.977 534.05 394.656 782.303C343.668 893.03 284.645 959.266 223.074 991.522C157.278 1026 88.5426 1021.7 23.5636 991.46C15.6506 987.778 7.79248 983.709 0.00292969 979.281V982.727C7.63342 987.047 15.3243 991.021 23.0728 994.628C88.3644 1025.01 157.456 1029.32 223.622 994.647C285.552 962.202 344.902 895.622 396.144 784.338C509.936 537.231 593.686 454.347 664.65 481.301C735.65 508.27 794.115 645.216 857.172 837.667C880.826 909.859 914.539 977.539 955.302 1036.64C1027.1 1140.73 1120.79 1218.25 1219.94 1247C1319.11 1275.77 1423.75 1255.76 1517.42 1164.78C1561.59 1121.88 1603.32 1063.2 1640.87 986.424C1743.97 775.633 1828.68 689.793 1919 679.983V676.457Z" fill="white"/>
</mask>
<g mask="url(#mask2_27_2811)">
<path d="M1918.99 1275.77L0.00341797 1275.77V450.89L1918.99 450.89V1275.77Z" fill="url(#paint2_linear_27_2811)"/>
</g>
<mask id="mask3_27_2811" style="mask-type:luminance" maskUnits="userSpaceOnUse" x="0" y="486" width="1919" height="825">
<path d="M1919 763.067C1824.78 762.491 1735.87 842.147 1624.57 1054.8C1585.7 1129.06 1543.03 1185.06 1498.25 1225.21C1403.28 1310.35 1298.74 1324.24 1200.58 1289.89C1102.39 1255.55 1010.58 1172.95 941.09 1065.13C901.671 1003.97 869.438 934.695 847.308 861.525C787.802 664.774 731.737 523.939 660.625 492.584C589.485 461.216 503.542 539.474 384.444 780.987C331.329 888.697 271.05 951.482 208.881 980.164C142.443 1010.82 73.8315 1002.55 9.48877 968.589C6.31555 966.912 3.1532 965.173 0.00195312 963.373V966.819C2.96863 968.506 5.94531 970.138 8.93201 971.714C73.5984 1005.85 142.57 1014.15 209.372 983.332C271.897 954.484 332.508 891.365 385.897 783.102C504.444 542.703 589.759 464.709 660.156 495.747C730.583 526.804 786.344 667.049 845.617 863.041C867.85 936.555 900.229 1006.14 939.818 1067.57C1009.54 1175.74 1101.67 1258.63 1200.21 1293.1C1298.77 1327.58 1403.74 1313.63 1499.13 1228.12C1544.11 1187.8 1586.95 1131.56 1625.98 1056.99C1736.7 845.447 1825.2 766.107 1919 766.584V763.067Z" fill="white"/>
</mask>
<g mask="url(#mask3_27_2811)">
<path d="M1918.99 1327.56L0.00244141 1327.56V461.23L1918.99 461.23V1327.56Z" fill="url(#paint3_linear_27_2811)"/>
</g>
<mask id="mask4_27_2811" style="mask-type:luminance" maskUnits="userSpaceOnUse" x="0" y="499" width="1919" height="864">
<path d="M1919 851.502C1821.27 839.569 1728.63 911.926 1609.25 1125.17C1568.95 1197.15 1525.22 1250.66 1479.68 1288.19C1383.11 1367.79 1278.36 1375.62 1180.92 1335.63C1083.45 1295.62 993.299 1207.77 925.954 1096.01C887.743 1032.6 856.876 961.498 836.188 887.096C780.551 687.012 727.26 543.014 656.803 507.571C586.313 472.11 498.895 545.36 375.161 779.852C319.976 884.438 258.504 943.706 195.814 968.782C129.955 995.123 62.728 983.756 0.00292969 947.581V951.032C62.8679 987.112 130.227 998.375 196.237 971.973C259.291 946.751 321.1 887.171 376.568 782.057C499.731 548.645 586.522 475.617 656.277 510.71C726.062 545.818 779.059 689.207 834.478 888.507C855.269 963.273 886.268 1034.69 924.635 1098.36C992.219 1210.52 1082.68 1298.68 1180.48 1338.82C1278.31 1378.98 1383.49 1371.09 1480.49 1291.14C1526.24 1253.44 1570.16 1199.71 1610.62 1127.44C1729.42 915.221 1821.68 843.166 1919 855.014V851.502Z" fill="white"/>
</mask>
<g mask="url(#mask4_27_2811)">
<path d="M1918.99 1378.97L0.00341797 1378.97V472.133L1918.99 472.133V1378.97Z" fill="url(#paint4_linear_27_2811)"/>
</g>
<mask id="mask5_27_2811" style="mask-type:luminance" maskUnits="userSpaceOnUse" x="0" y="512" width="1919" height="903">
<path d="M1919 942.058C1817.72 917.553 1721.41 981.683 1593.45 1195.4C1551.78 1265 1507.03 1315.95 1460.78 1350.83C1362.71 1424.81 1257.86 1426.59 1161.26 1380.99C1064.63 1335.38 976.242 1242.36 911.109 1126.77C874.16 1061.19 844.696 988.348 825.471 912.795C773.762 709.6 723.307 562.609 653.587 523.116C583.826 483.599 495.032 551.756 366.793 778.974C309.598 880.307 247.007 935.992 183.863 957.433C121.587 978.577 58.7496 966.43 0.00292969 931.946V935.411C58.8702 969.792 121.818 981.834 184.227 960.648C247.734 939.079 310.667 883.107 368.156 781.249C495.797 555.089 583.961 487.126 652.989 526.227C722.054 565.347 772.227 711.71 823.729 914.098C843.049 990.02 872.641 1063.19 909.747 1129.05C975.101 1245.03 1063.79 1338.37 1160.76 1384.15C1257.76 1429.93 1363.04 1428.13 1461.54 1353.83C1507.99 1318.79 1552.93 1267.63 1594.78 1197.74C1722.16 984.973 1818.09 921.141 1919 945.575V942.058Z" fill="white"/>
</mask>
<g mask="url(#mask5_27_2811)">
<path d="M1918.99 1429.95L0.00341797 1429.95V483.604L1918.99 483.604V1429.95Z" fill="url(#paint5_linear_27_2811)"/>
</g>
<mask id="mask6_27_2811" style="mask-type:luminance" maskUnits="userSpaceOnUse" x="0" y="526" width="1919" height="942">
<path d="M1919 1034.93C1814.11 996.506 1714.26 1051.41 1577.19 1265.45C1534.18 1332.62 1488.46 1380.95 1441.56 1413.14C1342.1 1481.41 1237.28 1477.13 1141.62 1425.98C1045.93 1374.8 959.406 1276.73 896.566 1157.44C860.916 1089.77 832.889 1015.27 815.144 938.641C767.427 732.575 719.865 582.747 650.954 539.247C582.005 495.722 491.927 558.714 359.334 778.389C300.198 876.371 236.554 928.406 173.029 946.184C114.041 962.692 55.1322 949.677 0.00195312 916.505V919.966C55.2363 953.034 114.235 965.954 173.33 949.413C237.224 931.531 301.213 879.227 360.65 780.749C492.629 562.09 582.071 499.258 650.296 542.32C718.562 585.414 765.854 734.596 813.381 939.84C831.208 1016.84 859.359 1091.67 895.162 1159.63C958.221 1279.34 1045.04 1377.75 1141.06 1429.1C1237.11 1480.46 1342.36 1484.75 1442.26 1416.18C1489.36 1383.84 1535.28 1335.31 1578.46 1267.87C1714.97 1054.7 1814.45 1000.09 1919 1038.48V1034.93Z" fill="white"/>
</mask>
<g mask="url(#mask6_27_2811)">
<path d="M1918.99 1484.76L0.00244141 1484.76V495.737L1918.99 495.737V1484.76Z" fill="url(#paint6_linear_27_2811)"/>
</g>
<mask id="mask7_27_2811" style="mask-type:luminance" maskUnits="userSpaceOnUse" x="0" y="540" width="1919" height="981">
<path d="M1919 1130.38C1810.44 1076.51 1707.23 1121.12 1560.45 1335.3C1516.16 1399.95 1469.52 1445.62 1422.02 1475.08C1321.29 1537.57 1216.62 1527.23 1122.01 1470.58C1027.37 1413.91 942.805 1310.89 882.325 1188.04C848.011 1118.34 821.451 1042.26 805.214 964.655C761.539 755.951 716.924 603.456 648.896 555.999C580.832 508.519 489.581 566.271 352.78 778.162C291.765 872.669 227.145 920.999 163.31 935.099C107.302 947.467 51.8785 933.499 0.00292969 901.262V904.741C51.9608 936.85 107.453 950.724 163.548 938.337C227.757 924.157 292.73 875.577 354.052 780.597C490.22 569.684 580.832 512.055 648.183 559.039C715.569 606.047 759.927 757.877 803.426 965.755C819.746 1043.74 846.421 1120.17 880.872 1190.15C941.563 1313.43 1026.42 1416.8 1121.38 1473.67C1216.38 1530.55 1321.49 1540.91 1422.67 1478.16C1470.38 1448.56 1517.21 1402.7 1561.68 1337.81C1707.91 1124.42 1810.75 1080.1 1919 1133.97V1130.38Z" fill="white"/>
</mask>
<g mask="url(#mask7_27_2811)">
<path d="M1918.99 1540.93L0.00341797 1540.93V508.528L1918.99 508.528V1540.93Z" fill="url(#paint7_linear_27_2811)"/>
</g>
<mask id="mask8_27_2811" style="mask-type:luminance" maskUnits="userSpaceOnUse" x="0" y="555" width="1919" height="1020">
<path d="M1919 1228.87C1806.7 1157.85 1700.39 1190.83 1543.26 1404.95C1497.74 1466.99 1450.24 1509.94 1402.18 1536.64C1300.29 1593.27 1195.87 1576.9 1102.42 1514.81C1008.94 1452.7 926.43 1344.86 868.379 1218.58C835.444 1146.94 810.387 1069.37 795.668 990.865C756.087 779.758 714.472 624.775 647.406 573.415C580.308 522.03 487.979 574.472 347.127 778.342C284.306 869.266 218.779 913.838 154.702 924.238C101.346 932.9 48.9822 917.884 0.00195312 886.232V889.716C49.0453 921.24 101.464 936.162 154.88 927.49C219.322 917.03 285.206 872.231 348.348 780.839C488.549 577.918 580.236 525.552 646.633 576.398C713.062 627.277 754.434 781.585 793.859 991.866C808.648 1070.74 833.818 1148.66 866.893 1220.6C925.147 1347.32 1007.94 1455.54 1101.74 1517.86C1195.57 1580.2 1300.43 1596.63 1402.76 1539.75C1451.02 1512.93 1498.72 1469.81 1544.44 1407.51C1701.03 1194.12 1806.99 1161.46 1919 1232.51V1228.87Z" fill="white"/>
</mask>
<g mask="url(#mask8_27_2811)">
<path d="M1918.99 1596.64L0.00244141 1596.64V522.03L1918.99 522.03V1596.64Z" fill="url(#paint8_linear_27_2811)"/>
</g>
<mask id="mask9_27_2811" style="mask-type:luminance" maskUnits="userSpaceOnUse" x="0" y="569" width="1919" height="1060">
<path d="M1919 1330.68C1802.88 1240.57 1693.81 1260.54 1525.61 1474.34C1478.9 1533.71 1430.59 1573.89 1382.05 1597.8C1279.11 1648.51 1175.07 1626.12 1082.88 1558.67C990.664 1491.19 910.3 1378.64 854.742 1249.08C823.225 1175.58 799.692 1096.61 786.512 1017.3C751.068 804.018 712.496 646.722 646.467 591.509C580.407 536.278 487.108 583.357 342.363 778.97C277.804 866.217 211.448 906.975 147.204 913.669C96.1621 918.989 46.4415 902.811 0.00292969 871.381V874.893C46.4854 906.182 96.2388 922.26 147.317 916.935C211.928 910.204 278.651 869.233 343.537 781.548C487.615 586.836 580.27 539.799 645.639 594.455C711.037 649.139 749.376 805.755 784.68 1018.19C797.923 1097.87 821.561 1177.21 853.215 1251.02C908.965 1381.04 989.603 1493.97 1082.13 1561.67C1174.7 1629.4 1279.17 1651.89 1382.57 1600.95C1431.32 1576.93 1479.83 1536.59 1526.74 1476.96C1694.41 1263.83 1803.13 1244.22 1919 1334.42V1330.68Z" fill="white"/>
</mask>
<g mask="url(#mask9_27_2811)">
<path d="M1918.99 1651.87L0.00341797 1651.87V536.287L1918.99 536.287V1651.87Z" fill="url(#paint9_linear_27_2811)"/>
</g>
<mask id="mask10_27_2811" style="mask-type:luminance" maskUnits="userSpaceOnUse" x="0" y="585" width="1919" height="1099">
<path d="M1919 1436.38C1798.93 1324.98 1687.56 1330.27 1507.51 1543.45C1459.67 1600.09 1410.6 1637.45 1361.61 1658.55C1257.74 1703.28 1154.2 1674.89 1063.38 1602.15C972.528 1529.38 894.408 1412.25 841.405 1279.56C811.338 1204.28 789.357 1123.99 777.729 1043.96C746.463 828.753 710.978 669.319 646.062 610.325C581.119 551.308 486.956 592.967 338.477 780.112C272.253 863.582 205.141 900.479 140.807 903.462C91.7275 905.733 44.2471 888.271 0.00195312 856.695V860.231C44.2745 891.646 91.7605 909 140.85 906.724C205.561 903.727 273.043 866.641 339.601 782.751C487.392 596.475 580.911 554.815 645.177 613.219C709.473 671.651 744.741 830.391 775.883 1044.75C787.566 1125.15 809.646 1205.8 839.845 1281.41C893.029 1414.57 971.418 1532.1 1062.58 1605.12C1153.77 1678.16 1257.75 1706.65 1362.07 1661.73C1411.27 1640.54 1460.54 1603.02 1508.58 1546.14C1688.13 1333.56 1799.14 1328.65 1919 1440.21V1436.38Z" fill="white"/>
</mask>
<g mask="url(#mask10_27_2811)">
<path d="M1918.99 1706.67L0.00341797 1706.67V551.298L1918.99 551.298V1706.67Z" fill="url(#paint10_linear_27_2811)"/>
</g>
<mask id="mask11_27_2811" style="mask-type:luminance" maskUnits="userSpaceOnUse" x="0" y="601" width="1919" height="1138">
<path d="M1919 1546.51C1794.81 1411.32 1681.73 1400.07 1488.96 1612.26C1440.04 1666.1 1390.27 1700.61 1340.9 1718.86C1236.22 1757.57 1133.29 1723.21 1043.94 1645.27C954.551 1567.29 878.758 1445.72 828.374 1310.03C799.791 1233.06 779.386 1151.54 769.326 1070.89C742.272 853.999 709.913 692.6 646.187 629.891C582.428 567.149 487.505 603.352 335.462 781.811C267.648 861.405 199.853 894.407 135.494 893.671C88.0189 893.123 42.3945 874.217 0.00292969 842.112V845.69C42.4028 877.611 88.016 896.39 135.486 896.938C200.215 897.674 268.38 864.507 336.534 784.511C487.87 606.883 582.151 570.652 645.241 632.733C708.366 694.847 740.517 855.533 767.464 1071.57C777.573 1152.6 798.069 1234.48 826.773 1311.79C877.335 1447.95 953.391 1569.95 1043.08 1648.19C1132.79 1726.45 1236.15 1760.95 1341.3 1722.07C1390.88 1703.74 1440.85 1669.08 1489.98 1615.01C1682.26 1403.35 1794.97 1415.03 1919 1550.46V1546.51Z" fill="white"/>
</mask>
<g mask="url(#mask11_27_2811)">
<path d="M1918.99 1760.96L0.00341797 1760.96V567.159L1918.99 567.159V1760.96Z" fill="url(#paint11_linear_27_2811)"/>
</g>
<mask id="mask12_27_2811" style="mask-type:luminance" maskUnits="userSpaceOnUse" x="0" y="617" width="1919" height="1177">
<path d="M1919 1661.68C1790.42 1499.83 1676.42 1469.95 1469.96 1680.74C1420.02 1731.74 1369.61 1763.35 1319.92 1778.74C1214.54 1811.38 1112.33 1771.09 1024.55 1688.02C936.739 1604.93 863.356 1479.04 815.643 1340.52C788.573 1261.93 769.769 1179.27 761.286 1098.09C738.474 879.765 709.281 716.591 646.814 650.238C584.313 583.847 488.741 614.541 333.306 784.115C263.978 859.745 195.578 888.814 131.268 884.358C85.0155 881.153 40.8691 860.609 0.00195312 827.578V831.19C40.8608 864.012 84.9772 884.419 131.196 887.625C195.874 892.105 264.647 862.893 334.323 786.882C489.04 618.091 583.971 587.326 645.816 653.019C707.694 718.744 736.697 881.2 759.419 1098.67C767.943 1180.26 786.829 1263.27 814.009 1342.18C861.887 1481.19 935.524 1607.51 1023.64 1690.89C1111.77 1774.29 1214.41 1814.73 1320.25 1781.95C1370.17 1766.49 1420.79 1734.75 1470.93 1683.56C1676.92 1473.24 1790.54 1503.64 1919 1665.83V1661.68Z" fill="white"/>
</mask>
<g mask="url(#mask12_27_2811)">
<path d="M1918.99 1814.73L0.00244141 1814.73V583.871L1918.99 583.871V1814.73Z" fill="url(#paint12_linear_27_2811)"/>
</g>
<mask id="mask13_27_2811" style="mask-type:luminance" maskUnits="userSpaceOnUse" x="0" y="634" width="1919" height="1215">
<path d="M1919 1782.74C1785.66 1590.95 1671.73 1539.98 1450.54 1748.87C1399.63 1796.95 1348.63 1825.63 1298.67 1838.14C1192.71 1864.67 1091.35 1818.5 1005.23 1730.41C919.091 1642.29 848.206 1512.24 803.221 1371.04C777.697 1290.93 760.516 1207.25 753.62 1125.62C735.077 906.088 709.082 741.314 647.939 671.388C586.768 601.428 490.65 626.584 331.999 787.081C261.238 858.665 192.31 883.759 128.118 875.588C82.7078 869.81 39.6582 847.373 0.00292969 812.978V816.646C39.6362 850.809 82.6338 873.081 127.984 878.855C192.535 887.069 261.835 861.846 332.959 789.899C490.878 630.143 586.357 604.883 646.889 674.116C707.448 743.382 733.268 907.419 751.74 1126.07C758.668 1208.1 775.923 1292.17 801.553 1372.61C846.695 1514.3 917.827 1644.81 1004.27 1733.23C1090.73 1821.67 1192.51 1868.03 1298.93 1841.38C1349.12 1828.82 1400.33 1800.02 1451.45 1751.74C1672.19 1543.27 1785.72 1594.83 1919 1787.06V1782.74Z" fill="white"/>
</mask>
<g mask="url(#mask13_27_2811)">
<path d="M1918.99 1868.03L0.00341797 1868.03V601.432L1918.99 601.432V1868.03Z" fill="url(#paint13_linear_27_2811)"/>
</g>
<mask id="mask14_27_2811" style="mask-type:luminance" maskUnits="userSpaceOnUse" x="0" y="652" width="1906" height="1237">
<path d="M1152.11 1888.51C1092.44 1868.89 1036.35 1827.98 985.99 1772.45C901.612 1679.4 833.302 1545.32 791.094 1401.61C767.146 1320.07 751.603 1235.44 746.306 1153.45C732.048 932.975 709.28 766.795 649.535 693.375C589.766 619.917 493.212 639.507 331.517 790.752C259.404 858.2 190.024 879.302 126.03 867.429C81.066 859.088 38.7484 834.46 0.000732422 798.196V801.921C38.7101 837.911 80.9536 862.359 125.829 870.682C190.186 882.62 259.941 861.42 332.427 793.622C493.368 643.081 589.286 623.349 648.433 696.042C707.61 768.763 730.217 934.202 744.414 1153.81C749.741 1236.19 765.351 1321.2 789.397 1403.07C831.75 1547.29 900.299 1681.84 984.961 1775.2C1032.91 1828.08 1086.04 1867.75 1142.51 1888.51H1152.11ZM1905.28 1888.51C1772.75 1680.32 1659.9 1617.08 1430.68 1816.62C1390.1 1851.95 1349.7 1875.38 1309.98 1888.51H1319.52C1356.44 1874.86 1393.92 1852.3 1431.54 1819.54C1658.7 1621.78 1771.15 1683.31 1902.44 1888.51H1905.28Z" fill="white"/>
</mask>
<g mask="url(#mask14_27_2811)">
<path d="M1905.28 1888.51L0.000732422 1888.51V619.937L1905.28 619.937V1888.51Z" fill="url(#paint14_linear_27_2811)"/>
</g>
<mask id="mask15_27_2811" style="mask-type:luminance" maskUnits="userSpaceOnUse" x="0" y="669" width="1821" height="1220">
<path d="M1042.81 1888.51C1016.22 1867.62 990.81 1842.58 966.829 1814.13C884.319 1716.27 818.655 1578.31 779.271 1432.23C756.93 1349.36 743.046 1263.88 739.347 1181.63C729.397 960.464 709.878 793.061 651.597 716.223C593.294 639.361 496.414 653.358 331.865 795.171C258.477 858.422 188.722 875.502 124.996 859.938C80.0652 848.967 38.1232 821.762 0.00341797 783.076V786.867C38.0739 825.241 79.9226 852.234 124.735 863.176C188.82 878.83 258.949 861.666 332.712 798.093C496.499 656.941 592.746 642.76 650.445 718.829C708.169 794.925 727.541 961.573 737.45 1181.88C741.168 1264.52 755.11 1350.38 777.546 1433.6C817.064 1580.19 882.954 1718.62 965.752 1816.82C988.696 1844.03 1012.94 1868.15 1038.28 1888.51H1042.81ZM1820.27 1888.51C1714.64 1751.42 1604.79 1728.63 1410.42 1883.97C1408.49 1885.51 1406.57 1887.02 1404.64 1888.51H1409.24L1411.21 1886.94C1603.24 1733.48 1712.46 1754.7 1816.97 1888.51H1820.27Z" fill="white"/>
</mask>
<g mask="url(#mask15_27_2811)">
<path d="M1820.26 1888.51L0.00378418 1888.51V639.338L1820.26 639.338V1888.51Z" fill="url(#paint15_linear_27_2811)"/>
</g>
<mask id="mask16_27_2811" style="mask-type:luminance" maskUnits="userSpaceOnUse" x="0" y="688" width="1712" height="1201">
<path d="M975.565 1888.51C966.083 1878.02 956.808 1866.99 947.757 1855.47C867.199 1752.88 804.26 1611.22 767.747 1462.95C747.032 1378.83 734.823 1292.6 732.728 1210.18C727.093 988.556 710.851 820.124 654.103 739.968C597.327 659.774 500.228 668.172 333.008 800.397C258.43 859.367 188.384 872.405 124.995 853.169C79.6782 839.417 37.7582 809.163 0.00292969 767.404V771.289C37.6924 812.689 79.5 842.689 124.666 856.398C188.411 875.743 258.836 862.638 333.798 803.366C500.244 671.75 596.713 663.14 652.896 742.493C709.107 821.89 725.218 989.567 730.83 1210.32C732.936 1293.13 745.195 1379.75 765.997 1464.22C802.639 1613.01 865.792 1755.16 946.627 1858.09C954.924 1868.66 963.41 1878.8 972.072 1888.51H975.565ZM1711.74 1888.51C1650.77 1847.14 1581.34 1844.04 1490.53 1888.51H1497.65C1582.23 1848.86 1648.02 1851.52 1705.98 1888.51H1711.74Z" fill="white"/>
</mask>
<g mask="url(#mask16_27_2811)">
<path d="M1711.74 1888.51L0.0032959 1888.51V659.779L1711.74 659.779V1888.51Z" fill="url(#paint16_linear_27_2811)"/>
</g>
<mask id="mask17_27_2811" style="mask-type:luminance" maskUnits="userSpaceOnUse" x="0" y="707" width="924" height="1182">
<path d="M923.044 1888.51C847.331 1782.15 789.297 1640.38 756.518 1493.77C737.454 1408.5 726.934 1321.6 726.446 1239.11C725.138 1017.29 712.185 848.015 657.03 764.625C601.851 681.197 504.641 683.973 334.94 806.459C259.249 861.096 188.989 870.079 126.015 847.193C79.8667 830.421 37.6177 796.527 0.00231934 750.94V754.928C37.5464 800.096 79.6584 833.688 125.628 850.394C188.959 873.416 259.6 864.395 335.67 809.485C504.592 687.56 601.176 684.525 655.78 767.084C710.411 849.676 723.243 1018.19 724.548 1239.14C725.039 1322.02 735.603 1409.31 754.75 1494.94C787.383 1640.9 844.954 1782.08 920.039 1888.51H923.044Z" fill="white"/>
</mask>
<g mask="url(#mask17_27_2811)">
<path d="M923.044 1888.51L0.00231934 1888.51V681.211L923.044 681.211V1888.51Z" fill="url(#paint17_linear_27_2811)"/>
</g>
<mask id="mask18_27_2811" style="mask-type:luminance" maskUnits="userSpaceOnUse" x="0" y="726" width="880" height="1163">
<path d="M879.182 1888.51C818.11 1784.08 771.981 1655.69 745.588 1524.7C728.197 1438.38 719.373 1350.92 720.495 1268.44C723.508 1046.67 713.862 876.743 660.369 790.219C606.845 703.647 509.636 700.805 337.643 813.42C260.932 863.648 190.532 868.572 128.043 842.061C80.5868 821.922 37.6741 783.657 0.0012207 733.335V737.475C37.5946 787.296 80.3482 825.194 127.587 845.238C190.436 871.904 261.214 866.967 338.315 816.484C509.515 704.388 606.102 706.937 659.066 792.603C712.058 878.31 721.6 1047.47 718.6 1268.38C717.473 1351.23 726.332 1439.07 743.795 1525.76C770.086 1656.25 815.889 1784.15 876.495 1888.51H879.182Z" fill="white"/>
</mask>
<g mask="url(#mask18_27_2811)">
<path d="M879.174 1888.51L0.00164795 1888.51V700.801L879.174 700.801V1888.51Z" fill="url(#paint18_linear_27_2811)"/>
</g>
<mask id="mask19_27_2811" style="mask-type:luminance" maskUnits="userSpaceOnUse" x="0" y="714" width="842" height="1175">
<path d="M841.416 1888.51C792.502 1788.68 756.005 1672.8 734.953 1555.76C719.253 1468.48 712.141 1380.57 714.869 1298.21C722.203 1076.73 715.875 906.342 664.095 816.773C612.288 727.156 515.191 718.706 341.101 821.319C263.452 867.085 193 867.94 131.056 837.831C81.7745 813.874 37.8721 770.317 0.00170898 714.193V718.499C37.7925 774.042 81.5195 817.15 130.544 840.98C192.836 871.258 263.671 870.418 341.71 824.42C515 722.275 611.485 730.404 662.749 819.076C714.038 907.801 720.279 1077.42 712.972 1298.03C710.233 1380.78 717.372 1469.08 733.138 1556.72C754.116 1673.35 790.371 1788.82 838.932 1888.51H841.416Z" fill="white"/>
</mask>
<g mask="url(#mask19_27_2811)">
<path d="M841.418 1888.51L0.0010376 1888.51V714.207L841.418 714.207V1888.51Z" fill="url(#paint19_linear_27_2811)"/>
</g>
<mask id="mask20_27_2811" style="mask-type:luminance" maskUnits="userSpaceOnUse" x="0" y="692" width="809" height="1197">
<path d="M808.339 1888.51C769.673 1795.07 741.139 1691.13 724.606 1586.98C710.617 1498.84 705.224 1410.57 709.553 1328.41C721.2 1107.48 718.198 936.818 668.195 844.308C618.165 751.755 521.287 737.697 345.291 830.198C266.795 871.452 196.365 868.232 135.046 834.565C83.3707 806.189 38.1495 756.174 0.00494385 692.922V697.459C38.07 760.007 83.0939 809.46 134.473 837.676C196.14 871.537 266.951 874.785 345.842 833.323C521.024 741.252 617.295 754.947 666.805 846.541C716.336 938.178 719.265 1108.06 707.664 1328.12C703.313 1410.66 708.728 1499.33 722.777 1587.84C739.255 1691.64 767.614 1795.25 806.014 1888.51H808.339Z" fill="white"/>
</mask>
<g mask="url(#mask20_27_2811)">
<path d="M808.326 1888.51L0.00317383 1888.51V692.917L808.326 692.917V1888.51Z" fill="url(#paint20_linear_27_2811)"/>
</g>
<mask id="mask21_27_2811" style="mask-type:luminance" maskUnits="userSpaceOnUse" x="0" y="668" width="780" height="1221">
<path d="M779.123 1888.51C749.144 1802.75 727.242 1710.37 714.55 1618.36C702.286 1529.47 698.614 1440.92 704.545 1359.06C720.491 1138.94 720.815 968.201 672.641 872.849C624.445 777.459 527.893 757.807 350.195 840.087C270.936 876.786 200.608 869.497 139.98 832.303C85.2448 798.725 38.3976 740.761 0.00360107 668.78V673.586C38.3373 744.74 84.9651 802.025 139.35 835.39C200.323 872.797 271.029 880.133 350.685 843.25C527.562 761.352 623.513 780.607 671.204 875.001C718.923 969.447 718.539 1139.4 702.656 1358.67C696.698 1440.92 700.38 1529.85 712.696 1619.11C725.35 1710.84 747.123 1802.93 776.908 1888.51H779.123Z" fill="white"/>
</mask>
<g mask="url(#mask21_27_2811)">
<path d="M779.128 1888.51L0.0055542 1888.51V668.795L779.128 668.795V1888.51Z" fill="url(#paint21_linear_27_2811)"/>
</g>
<mask id="mask22_27_2811" style="mask-type:luminance" maskUnits="userSpaceOnUse" x="0" y="640" width="754" height="1249">
<path d="M753.208 1888.51C730.577 1811.37 714.213 1730.31 704.771 1649.93C694.245 1560.38 692.301 1471.68 699.822 1390.2C720.051 1171.12 723.703 1000.5 677.415 902.419C631.105 804.291 534.99 779.078 355.791 851.045C275.864 883.14 205.719 871.796 145.851 831.119C87.258 791.31 38.4861 723.389 0.00158691 640.608V645.829C38.4504 727.595 86.9866 794.642 145.158 834.168C205.368 875.073 275.891 886.497 356.222 854.236C534.595 782.6 630.116 807.383 675.943 904.482C721.792 1001.63 718.099 1171.47 697.949 1389.69C690.392 1471.55 692.342 1560.65 702.909 1650.57C712.327 1730.72 728.597 1811.54 751.08 1888.51H753.208Z" fill="white"/>
</mask>
<g mask="url(#mask22_27_2811)">
<path d="M753.214 1888.51L0.00195313 1888.51L0.00195312 640.613L753.214 640.613L753.214 1888.51Z" fill="url(#paint22_linear_27_2811)"/>
</g>
<mask id="mask23_27_2811" style="mask-type:luminance" maskUnits="userSpaceOnUse" x="0" y="606" width="731" height="1283">
<path d="M730.219 1888.51C713.765 1820.71 702.002 1750.81 695.271 1681.7C686.5 1591.59 686.286 1502.82 695.395 1421.83C719.879 1204.04 726.854 1033.73 682.502 933.027C638.128 832.28 542.564 801.525 362.063 863.096C281.552 890.561 211.668 875.171 152.627 831.057C89.5322 783.921 38.7944 703.968 0.682739 608.465L-6.10352e-05 606.747V612.506C38.2048 707.518 88.9153 787.018 151.873 834.055C211.256 878.424 281.516 893.912 362.428 866.311C542.098 805.023 637.084 835.315 680.992 935.005C724.921 1034.74 717.919 1204.27 693.527 1421.22C684.378 1502.59 684.589 1591.75 693.399 1682.23C700.108 1751.16 711.813 1820.87 728.165 1888.51H730.219Z" fill="white"/>
</mask>
<g mask="url(#mask23_27_2811)">
<path d="M730.21 1888.51L0.00213623 1888.51L0.00213623 606.766L730.21 606.766L730.21 1888.51Z" fill="url(#paint23_linear_27_2811)"/>
</g>
<mask id="mask24_27_2811" style="mask-type:luminance" maskUnits="userSpaceOnUse" x="0" y="564" width="717" height="1325">
<path d="M709.907 1888.51C698.564 1830.61 690.555 1771.77 686.055 1713.68C679.044 1623.12 680.563 1534.4 691.243 1453.97C719.958 1237.72 730.254 1067.9 687.89 964.703C645.506 861.449 550.592 825.19 368.989 876.295C287.992 899.091 218.448 879.671 160.296 832.167C98.1575 781.41 49.0073 698.578 12.7766 600.931C8.32379 588.927 4.06842 576.705 0.00500488 564.285V570.899C3.58221 581.649 7.30658 592.244 11.178 602.683C47.5897 700.825 97.0004 784.087 159.484 835.127C217.965 882.895 287.885 902.433 369.293 879.524C550.054 828.65 644.396 864.413 686.335 966.587C728.296 1068.81 717.992 1237.84 689.389 1453.24C678.661 1534.04 677.133 1623.16 684.172 1714.11C688.66 1772.05 696.625 1830.75 707.902 1888.51H709.907Z" fill="white"/>
</mask>
<g mask="url(#mask24_27_2811)">
<path d="M730.242 1888.51L0.00708008 1888.51V564.28L730.242 564.28V1888.51Z" fill="url(#paint24_linear_27_2811)"/>
</g>
<mask id="mask25_27_2811" style="mask-type:luminance" maskUnits="userSpaceOnUse" x="0" y="507" width="719" height="1382">
<path d="M692.068 1888.51C684.838 1840.95 679.829 1793.11 677.103 1745.9C671.864 1654.98 675.11 1566.4 687.352 1486.64C720.265 1272.17 733.862 1103.04 693.535 997.446C653.186 891.803 559.034 850.082 376.54 890.67C295.145 908.769 226.018 885.341 168.826 834.509C107.71 780.189 60.2021 694.561 25.8962 594.871C16.2175 566.745 7.58887 537.501 0.00219727 507.525V515.626C7.19135 543.35 15.2716 570.423 24.2593 596.537C58.738 696.723 106.498 782.794 167.954 837.417C225.469 888.537 294.967 912.107 376.778 893.909C558.431 853.51 652.024 894.702 691.95 999.24C731.894 1103.83 718.3 1272.17 685.513 1485.81C673.215 1565.94 669.953 1654.92 675.214 1746.22C677.931 1793.33 682.921 1841.06 690.108 1888.51H692.068Z" fill="white"/>
</mask>
<g mask="url(#mask25_27_2811)">
<path d="M733.854 1888.51L6.10352e-05 1888.51V507.539L733.854 507.539V1888.51Z" fill="url(#paint25_linear_27_2811)"/>
</g>
</g>
<defs>
<linearGradient id="paint0_linear_27_2811" x1="-487627" y1="1.79352e+06" x2="-1.4939e+07" y2="-2.14338e+06" gradientUnits="userSpaceOnUse">
<stop stop-color="#0131B8"/>
<stop offset="0.45" stop-color="#39D4FF"/>
<stop offset="1" stop-color="#FA00FF"/>
</linearGradient>
<linearGradient id="paint1_linear_27_2811" x1="-504840" y1="1.85671e+06" x2="-1.49563e+07" y2="-2.0802e+06" gradientUnits="userSpaceOnUse">
<stop stop-color="#0131B8"/>
<stop offset="0.45" stop-color="#39D4FF"/>
<stop offset="1" stop-color="#FA00FF"/>
</linearGradient>
<linearGradient id="paint2_linear_27_2811" x1="-522724" y1="1.92235e+06" x2="-1.49741e+07" y2="-2.01454e+06" gradientUnits="userSpaceOnUse">
<stop stop-color="#0131B8"/>
<stop offset="0.45" stop-color="#39D4FF"/>
<stop offset="1" stop-color="#FA00FF"/>
</linearGradient>
<linearGradient id="paint3_linear_27_2811" x1="-541240" y1="1.99032e+06" x2="-1.49926e+07" y2="-1.94659e+06" gradientUnits="userSpaceOnUse">
<stop stop-color="#0131B8"/>
<stop offset="0.45" stop-color="#39D4FF"/>
<stop offset="1" stop-color="#FA00FF"/>
</linearGradient>
<linearGradient id="paint4_linear_27_2811" x1="-560497" y1="2.06101e+06" x2="-1.50119e+07" y2="-1.87591e+06" gradientUnits="userSpaceOnUse">
<stop stop-color="#0131B8"/>
<stop offset="0.45" stop-color="#39D4FF"/>
<stop offset="1" stop-color="#FA00FF"/>
</linearGradient>
<linearGradient id="paint5_linear_27_2811" x1="-580499" y1="2.13443e+06" x2="-1.50319e+07" y2="-1.80247e+06" gradientUnits="userSpaceOnUse">
<stop stop-color="#0131B8"/>
<stop offset="0.45" stop-color="#39D4FF"/>
<stop offset="1" stop-color="#FA00FF"/>
</linearGradient>
<linearGradient id="paint6_linear_27_2811" x1="-602065" y1="2.2136e+06" x2="-1.50534e+07" y2="-1.72329e+06" gradientUnits="userSpaceOnUse">
<stop stop-color="#0131B8"/>
<stop offset="0.45" stop-color="#39D4FF"/>
<stop offset="1" stop-color="#FA00FF"/>
</linearGradient>
<linearGradient id="paint7_linear_27_2811" x1="-624828" y1="2.29715e+06" x2="-1.50762e+07" y2="-1.63975e+06" gradientUnits="userSpaceOnUse">
<stop stop-color="#0131B8"/>
<stop offset="0.45" stop-color="#39D4FF"/>
<stop offset="1" stop-color="#FA00FF"/>
</linearGradient>
<linearGradient id="paint8_linear_27_2811" x1="-648559" y1="2.38426e+06" x2="-1.50999e+07" y2="-1.55264e+06" gradientUnits="userSpaceOnUse">
<stop stop-color="#0131B8"/>
<stop offset="0.45" stop-color="#39D4FF"/>
<stop offset="1" stop-color="#FA00FF"/>
</linearGradient>
<linearGradient id="paint9_linear_27_2811" x1="-673328" y1="2.47518e+06" x2="-1.51247e+07" y2="-1.46172e+06" gradientUnits="userSpaceOnUse">
<stop stop-color="#0131B8"/>
<stop offset="0.45" stop-color="#39D4FF"/>
<stop offset="1" stop-color="#FA00FF"/>
</linearGradient>
<linearGradient id="paint10_linear_27_2811" x1="-699140" y1="2.56993e+06" x2="-1.51505e+07" y2="-1.36697e+06" gradientUnits="userSpaceOnUse">
<stop stop-color="#0131B8"/>
<stop offset="0.45" stop-color="#39D4FF"/>
<stop offset="1" stop-color="#FA00FF"/>
</linearGradient>
<linearGradient id="paint11_linear_27_2811" x1="-726121" y1="2.66898e+06" x2="-1.51775e+07" y2="-1.26793e+06" gradientUnits="userSpaceOnUse">
<stop stop-color="#0131B8"/>
<stop offset="0.45" stop-color="#39D4FF"/>
<stop offset="1" stop-color="#FA00FF"/>
</linearGradient>
<linearGradient id="paint12_linear_27_2811" x1="-754276" y1="2.77232e+06" x2="-1.52057e+07" y2="-1.16458e+06" gradientUnits="userSpaceOnUse">
<stop stop-color="#0131B8"/>
<stop offset="0.45" stop-color="#39D4FF"/>
<stop offset="1" stop-color="#FA00FF"/>
</linearGradient>
<linearGradient id="paint13_linear_27_2811" x1="-783610" y1="2.88e+06" x2="-1.5235e+07" y2="-1.0569e+06" gradientUnits="userSpaceOnUse">
<stop stop-color="#0131B8"/>
<stop offset="0.45" stop-color="#39D4FF"/>
<stop offset="1" stop-color="#FA00FF"/>
</linearGradient>
<linearGradient id="paint14_linear_27_2811" x1="-900778" y1="2.903e+06" x2="-1.52489e+07" y2="-1.00578e+06" gradientUnits="userSpaceOnUse">
<stop stop-color="#0131B8"/>
<stop offset="0.45" stop-color="#39D4FF"/>
<stop offset="1" stop-color="#FA00FF"/>
</linearGradient>
<linearGradient id="paint15_linear_27_2811" x1="-1.49758e+06" y1="2.56891e+06" x2="-1.52055e+07" y2="-1.16544e+06" gradientUnits="userSpaceOnUse">
<stop stop-color="#0131B8"/>
<stop offset="0.45" stop-color="#39D4FF"/>
<stop offset="1" stop-color="#FA00FF"/>
</linearGradient>
<linearGradient id="paint16_linear_27_2811" x1="-2.2562e+06" y1="2.13102e+06" x2="-1.51468e+07" y2="-1.3807e+06" gradientUnits="userSpaceOnUse">
<stop stop-color="#0131B8"/>
<stop offset="0.45" stop-color="#39D4FF"/>
<stop offset="1" stop-color="#FA00FF"/>
</linearGradient>
<linearGradient id="paint17_linear_27_2811" x1="-7.71746e+06" y1="-1.24227e+06" x2="-1.46687e+07" y2="-3.13594e+06" gradientUnits="userSpaceOnUse">
<stop stop-color="#0131B8"/>
<stop offset="0.45" stop-color="#39D4FF"/>
<stop offset="1" stop-color="#FA00FF"/>
</linearGradient>
<linearGradient id="paint18_linear_27_2811" x1="-8.05366e+06" y1="-1.31075e+06" x2="-1.46745e+07" y2="-3.11442e+06" gradientUnits="userSpaceOnUse">
<stop stop-color="#0131B8"/>
<stop offset="0.45" stop-color="#39D4FF"/>
<stop offset="1" stop-color="#FA00FF"/>
</linearGradient>
<linearGradient id="paint19_linear_27_2811" x1="-8.34007e+06" y1="-1.38064e+06" x2="-1.46766e+07" y2="-3.10685e+06" gradientUnits="userSpaceOnUse">
<stop stop-color="#0131B8"/>
<stop offset="0.45" stop-color="#39D4FF"/>
<stop offset="1" stop-color="#FA00FF"/>
</linearGradient>
<linearGradient id="paint20_linear_27_2811" x1="-8.54826e+06" y1="-1.59911e+06" x2="-1.46355e+07" y2="-3.25743e+06" gradientUnits="userSpaceOnUse">
<stop stop-color="#0131B8"/>
<stop offset="0.45" stop-color="#39D4FF"/>
<stop offset="1" stop-color="#FA00FF"/>
</linearGradient>
<linearGradient id="paint21_linear_27_2811" x1="-8.72426e+06" y1="-1.82018e+06" x2="-1.45916e+07" y2="-3.41859e+06" gradientUnits="userSpaceOnUse">
<stop stop-color="#0131B8"/>
<stop offset="0.45" stop-color="#39D4FF"/>
<stop offset="1" stop-color="#FA00FF"/>
</linearGradient>
<linearGradient id="paint22_linear_27_2811" x1="-8.86997e+06" y1="-2.05473e+06" x2="-1.45422e+07" y2="-3.59998e+06" gradientUnits="userSpaceOnUse">
<stop stop-color="#0131B8"/>
<stop offset="0.45" stop-color="#39D4FF"/>
<stop offset="1" stop-color="#FA00FF"/>
</linearGradient>
<linearGradient id="paint23_linear_27_2811" x1="-8.98501e+06" y1="-2.31563e+06" x2="-1.4484e+07" y2="-3.81369e+06" gradientUnits="userSpaceOnUse">
<stop stop-color="#0131B8"/>
<stop offset="0.45" stop-color="#39D4FF"/>
<stop offset="1" stop-color="#FA00FF"/>
</linearGradient>
<linearGradient id="paint24_linear_27_2811" x1="-8.91962e+06" y1="-2.55467e+06" x2="-1.44188e+07" y2="-4.05278e+06" gradientUnits="userSpaceOnUse">
<stop stop-color="#0131B8"/>
<stop offset="0.45" stop-color="#39D4FF"/>
<stop offset="1" stop-color="#FA00FF"/>
</linearGradient>
<linearGradient id="paint25_linear_27_2811" x1="-8.80375e+06" y1="-2.87261e+06" x2="-1.43302e+07" y2="-4.37815e+06" gradientUnits="userSpaceOnUse">
<stop stop-color="#0131B8"/>
<stop offset="0.45" stop-color="#39D4FF"/>
<stop offset="1" stop-color="#FA00FF"/>
</linearGradient>
</defs>
</svg>
