<svg width="839" height="1328" viewBox="0 0 839 1328" fill="none" xmlns="http://www.w3.org/2000/svg">
<g opacity="0.4" clip-path="url(#clip0_89_1957)">
<path opacity="0.49" d="M75.2655 1193.4C-110.407 929.497 -37.3865 752.948 294.326 663.754C626.038 574.559 674.993 389.885 441.193 109.731" stroke="url(#paint0_linear_89_1957)" stroke-linecap="round"/>
<path opacity="0.75" d="M67.1449 1190.66C-113.113 928.583 -37.3854 752.949 294.327 663.754C626.039 574.559 672.287 388.971 433.072 106.989" stroke="url(#paint1_linear_89_1957)" stroke-linecap="round"/>
<path opacity="0.1" d="M59.0225 1187.91C-115.821 927.669 -37.386 752.949 294.326 663.754C626.038 574.559 669.579 388.057 424.95 104.246" stroke="url(#paint2_linear_89_1957)" stroke-linecap="round"/>
<path opacity="0.61" d="M50.9009 1185.17C-118.528 926.754 -37.3859 752.948 294.326 663.754C626.038 574.559 666.872 387.142 416.828 101.503" stroke="url(#paint3_linear_89_1957)" stroke-linecap="round"/>
<path opacity="0.22" d="M42.7797 1182.43C-121.234 925.841 -37.3853 752.949 294.327 663.754C626.039 574.56 664.165 386.229 408.707 98.7613" stroke="url(#paint4_linear_89_1957)" stroke-linecap="round"/>
<path opacity="0.93" d="M34.6578 1179.69C-123.942 924.926 -37.3855 752.949 294.327 663.754C626.039 574.559 661.458 385.314 400.585 96.0186" stroke="url(#paint5_linear_89_1957)" stroke-linecap="round"/>
<path opacity="0.48" d="M26.5358 1176.94C-126.649 924.012 -37.3857 752.949 294.326 663.754C626.038 574.559 658.751 384.4 392.463 93.2758" stroke="url(#paint6_linear_89_1957)" stroke-linecap="round"/>
<path opacity="0.5" d="M18.4138 1174.2C-129.357 923.098 -37.3861 752.949 294.326 663.754C626.038 574.559 656.043 383.486 384.341 90.5334" stroke="url(#paint7_linear_89_1957)" stroke-linecap="round"/>
<path opacity="0.4" d="M10.2926 1171.46C-132.063 922.184 -37.3855 752.949 294.327 663.754C626.039 574.559 653.336 382.572 376.22 87.7911" stroke="url(#paint8_linear_89_1957)" stroke-linecap="round"/>
<path opacity="0.53" d="M2.17047 1168.72C-134.771 921.27 -37.386 752.949 294.326 663.754C626.038 574.559 650.629 381.657 368.098 85.0485" stroke="url(#paint9_linear_89_1957)" stroke-linecap="round"/>
<path opacity="0.62" d="M-5.95159 1165.97C-137.479 920.356 -37.3863 752.949 294.326 663.754C626.038 574.559 647.921 380.743 359.975 82.3061" stroke="url(#paint10_linear_89_1957)" stroke-linecap="round"/>
<path opacity="0.52" d="M-14.0732 1163.23C-140.186 919.441 -37.3862 752.949 294.326 663.754C626.038 574.559 645.214 379.829 351.854 79.5636" stroke="url(#paint11_linear_89_1957)" stroke-linecap="round"/>
<path opacity="0.31" d="M-22.1951 1160.49C-142.893 918.527 -37.3863 752.949 294.326 663.754C626.038 574.559 642.506 378.915 343.732 76.8211" stroke="url(#paint12_linear_89_1957)" stroke-linecap="round"/>
<path opacity="0.29" d="M-30.3167 1157.75C-145.6 917.613 -37.3862 752.949 294.326 663.754C626.038 574.559 639.799 378.001 335.61 74.0786" stroke="url(#paint13_linear_89_1957)" stroke-linecap="round"/>
<path opacity="0.9" d="M-38.4383 1155C-148.308 916.699 -37.3861 752.949 294.326 663.754C626.038 574.559 637.092 377.087 327.489 71.3362" stroke="url(#paint14_linear_89_1957)" stroke-linecap="round"/>
<path opacity="0.98" d="M-46.5603 1152.26C-151.015 915.785 -37.3864 752.949 294.326 663.754C626.038 574.56 634.385 376.173 319.367 68.5938" stroke="url(#paint15_linear_89_1957)" stroke-linecap="round"/>
<path opacity="0.95" d="M-54.6817 1149.52C-153.722 914.871 -37.3861 752.949 294.326 663.755C626.038 574.56 631.678 375.259 311.245 65.8516" stroke="url(#paint16_linear_89_1957)" stroke-linecap="round"/>
<path opacity="0.28" d="M-62.8035 1146.78C-156.429 913.956 -37.3861 752.949 294.326 663.754C626.038 574.559 628.97 374.344 303.124 63.1085" stroke="url(#paint17_linear_89_1957)" stroke-linecap="round"/>
<path opacity="0.73" d="M-70.9255 1144.03C-159.137 913.042 -37.3864 752.949 294.326 663.754C626.038 574.56 626.263 373.43 295.002 60.3664" stroke="url(#paint18_linear_89_1957)" stroke-linecap="round"/>
<path opacity="0.47" d="M-79.0464 1141.29C-161.843 912.128 -37.3856 752.949 294.326 663.754C626.039 574.559 623.557 372.516 286.881 57.6236" stroke="url(#paint19_linear_89_1957)" stroke-linecap="round"/>
<path opacity="0.46" d="M-87.1686 1138.55C-164.551 911.214 -37.386 752.949 294.326 663.754C626.038 574.559 620.849 371.602 278.758 54.8812" stroke="url(#paint20_linear_89_1957)" stroke-linecap="round"/>
<path opacity="0.62" d="M-95.2903 1135.81C-167.258 910.3 -37.3861 752.949 294.326 663.754C626.038 574.559 618.142 370.688 270.637 52.1388" stroke="url(#paint21_linear_89_1957)" stroke-linecap="round"/>
<path d="M-103.412 1133.06C-169.965 909.386 -37.3857 752.949 294.326 663.754C626.038 574.559 615.435 369.773 262.515 49.3962" stroke="url(#paint22_linear_89_1957)" stroke-linecap="round"/>
<path opacity="0.58" d="M-111.534 1130.32C-172.672 908.472 -37.3859 752.949 294.326 663.754C626.038 574.56 612.727 368.859 254.393 46.6538" stroke="url(#paint23_linear_89_1957)" stroke-linecap="round"/>
<path opacity="0.25" d="M-119.656 1127.58C-175.38 907.557 -37.3861 752.949 294.326 663.754C626.038 574.56 610.02 367.945 246.271 43.9113" stroke="url(#paint24_linear_89_1957)" stroke-linecap="round"/>
<path opacity="0.39" d="M-127.777 1124.84C-178.087 906.643 -37.3859 752.949 294.326 663.754C626.038 574.559 607.313 367.031 238.15 41.1687" stroke="url(#paint25_linear_89_1957)" stroke-linecap="round"/>
<path opacity="0.56" d="M-135.899 1122.09C-180.795 905.729 -37.3862 752.949 294.326 663.754C626.038 574.56 604.605 366.117 230.028 38.4263" stroke="url(#paint26_linear_89_1957)" stroke-linecap="round"/>
<path opacity="0.7" d="M-144.021 1119.35C-183.501 904.815 -37.3859 752.949 294.326 663.754C626.038 574.559 601.898 365.202 221.906 35.6834" stroke="url(#paint27_linear_89_1957)" stroke-linecap="round"/>
<path opacity="0.97" d="M-152.142 1116.61C-186.208 903.901 -37.3856 752.949 294.326 663.754C626.039 574.559 599.191 364.288 213.785 32.9411" stroke="url(#paint28_linear_89_1957)" stroke-linecap="round"/>
<path opacity="0.52" d="M-160.263 1113.87C-188.915 902.986 -37.3853 752.949 294.327 663.754C626.039 574.559 596.484 363.374 205.664 30.1984" stroke="url(#paint29_linear_89_1957)" stroke-linecap="round"/>
<path opacity="0.16" d="M-168.386 1111.12C-191.623 902.072 -37.3859 752.949 294.326 663.754C626.038 574.559 593.777 362.46 197.541 27.456" stroke="url(#paint30_linear_89_1957)" stroke-linecap="round"/>
<path opacity="0.22" d="M-176.507 1108.38C-194.33 901.158 -37.3859 752.949 294.326 663.754C626.038 574.56 591.069 361.546 189.42 24.7137" stroke="url(#paint31_linear_89_1957)" stroke-linecap="round"/>
<path opacity="0.19" d="M-184.63 1105.64C-197.038 900.244 -37.3864 752.949 294.326 663.754C626.038 574.559 588.362 360.632 181.297 21.9712" stroke="url(#paint32_linear_89_1957)" stroke-linecap="round"/>
<path opacity="0.47" d="M-192.751 1102.9C-199.745 899.33 -37.3858 752.949 294.326 663.754C626.038 574.559 585.655 359.718 173.176 19.2286" stroke="url(#paint33_linear_89_1957)" stroke-linecap="round"/>
<path opacity="0.5" d="M-200.872 1100.15C-202.452 898.416 -37.3853 752.949 294.327 663.754C626.039 574.559 582.948 358.803 165.055 16.4861" stroke="url(#paint34_linear_89_1957)" stroke-linecap="round"/>
<path opacity="0.39" d="M-208.995 1097.41C-205.16 897.502 -37.3864 752.949 294.326 663.754C626.038 574.56 580.24 357.889 156.932 13.7439" stroke="url(#paint35_linear_89_1957)" stroke-linecap="round"/>
<path opacity="0.92" d="M-217.116 1094.67C-207.867 896.587 -37.3862 752.949 294.326 663.754C626.038 574.559 577.533 356.975 148.811 11.0011" stroke="url(#paint36_linear_89_1957)" stroke-linecap="round"/>
<path opacity="0.37" d="M-225.238 1091.93C-210.574 895.673 -37.3861 752.949 294.326 663.754C626.038 574.56 574.826 356.061 140.689 8.25886" stroke="url(#paint37_linear_89_1957)" stroke-linecap="round"/>
<path opacity="0.97" d="M-233.36 1089.18C-213.281 894.759 -37.3859 752.949 294.326 663.754C626.038 574.56 572.119 355.147 132.568 5.51632" stroke="url(#paint38_linear_89_1957)" stroke-linecap="round"/>
</g>
<defs>
<linearGradient id="paint0_linear_89_1957" x1="18195.2" y1="-53049.6" x2="58884.2" y2="-39309.9" gradientUnits="userSpaceOnUse">
<stop stop-color="#1F89DB"/>
<stop offset="1" stop-color="#F42A8B"/>
</linearGradient>
<linearGradient id="paint1_linear_89_1957" x1="18193" y1="-53050.3" x2="58922.3" y2="-39297.1" gradientUnits="userSpaceOnUse">
<stop stop-color="#1F89DB"/>
<stop offset="1" stop-color="#F42A8B"/>
</linearGradient>
<linearGradient id="paint2_linear_89_1957" x1="18190.7" y1="-53051.1" x2="58968.7" y2="-39281.4" gradientUnits="userSpaceOnUse">
<stop stop-color="#1F89DB"/>
<stop offset="1" stop-color="#F42A8B"/>
</linearGradient>
<linearGradient id="paint3_linear_89_1957" x1="18188.3" y1="-53051.9" x2="59023.3" y2="-39263" gradientUnits="userSpaceOnUse">
<stop stop-color="#1F89DB"/>
<stop offset="1" stop-color="#F42A8B"/>
</linearGradient>
<linearGradient id="paint4_linear_89_1957" x1="18185.9" y1="-53052.7" x2="59086.2" y2="-39241.7" gradientUnits="userSpaceOnUse">
<stop stop-color="#1F89DB"/>
<stop offset="1" stop-color="#F42A8B"/>
</linearGradient>
<linearGradient id="paint5_linear_89_1957" x1="18183.5" y1="-53053.5" x2="59157.6" y2="-39217.6" gradientUnits="userSpaceOnUse">
<stop stop-color="#1F89DB"/>
<stop offset="1" stop-color="#F42A8B"/>
</linearGradient>
<linearGradient id="paint6_linear_89_1957" x1="18181" y1="-53054.4" x2="59237.5" y2="-39190.7" gradientUnits="userSpaceOnUse">
<stop stop-color="#1F89DB"/>
<stop offset="1" stop-color="#F42A8B"/>
</linearGradient>
<linearGradient id="paint7_linear_89_1957" x1="18178.4" y1="-53055.2" x2="59326" y2="-39160.8" gradientUnits="userSpaceOnUse">
<stop stop-color="#1F89DB"/>
<stop offset="1" stop-color="#F42A8B"/>
</linearGradient>
<linearGradient id="paint8_linear_89_1957" x1="18175.8" y1="-53056.1" x2="59423.2" y2="-39127.9" gradientUnits="userSpaceOnUse">
<stop stop-color="#1F89DB"/>
<stop offset="1" stop-color="#F42A8B"/>
</linearGradient>
<linearGradient id="paint9_linear_89_1957" x1="18173.1" y1="-53057" x2="59529.3" y2="-39092.1" gradientUnits="userSpaceOnUse">
<stop stop-color="#1F89DB"/>
<stop offset="1" stop-color="#F42A8B"/>
</linearGradient>
<linearGradient id="paint10_linear_89_1957" x1="18170.4" y1="-53058" x2="59644.3" y2="-39053.3" gradientUnits="userSpaceOnUse">
<stop stop-color="#1F89DB"/>
<stop offset="1" stop-color="#F42A8B"/>
</linearGradient>
<linearGradient id="paint11_linear_89_1957" x1="18167.6" y1="-53058.9" x2="59768.5" y2="-39011.3" gradientUnits="userSpaceOnUse">
<stop stop-color="#1F89DB"/>
<stop offset="1" stop-color="#F42A8B"/>
</linearGradient>
<linearGradient id="paint12_linear_89_1957" x1="18164.7" y1="-53059.9" x2="59902" y2="-38966.3" gradientUnits="userSpaceOnUse">
<stop stop-color="#1F89DB"/>
<stop offset="1" stop-color="#F42A8B"/>
</linearGradient>
<linearGradient id="paint13_linear_89_1957" x1="18161.8" y1="-53060.9" x2="60044.9" y2="-38918" gradientUnits="userSpaceOnUse">
<stop stop-color="#1F89DB"/>
<stop offset="1" stop-color="#F42A8B"/>
</linearGradient>
<linearGradient id="paint14_linear_89_1957" x1="18158.8" y1="-53061.9" x2="60197.5" y2="-38866.5" gradientUnits="userSpaceOnUse">
<stop stop-color="#1F89DB"/>
<stop offset="1" stop-color="#F42A8B"/>
</linearGradient>
<linearGradient id="paint15_linear_89_1957" x1="18155.7" y1="-53062.9" x2="60360" y2="-38811.6" gradientUnits="userSpaceOnUse">
<stop stop-color="#1F89DB"/>
<stop offset="1" stop-color="#F42A8B"/>
</linearGradient>
<linearGradient id="paint16_linear_89_1957" x1="18152.5" y1="-53064" x2="60532.5" y2="-38753.4" gradientUnits="userSpaceOnUse">
<stop stop-color="#1F89DB"/>
<stop offset="1" stop-color="#F42A8B"/>
</linearGradient>
<linearGradient id="paint17_linear_89_1957" x1="18149.2" y1="-53065.1" x2="60715.3" y2="-38691.6" gradientUnits="userSpaceOnUse">
<stop stop-color="#1F89DB"/>
<stop offset="1" stop-color="#F42A8B"/>
</linearGradient>
<linearGradient id="paint18_linear_89_1957" x1="18145.9" y1="-53066.2" x2="60908.7" y2="-38626.3" gradientUnits="userSpaceOnUse">
<stop stop-color="#1F89DB"/>
<stop offset="1" stop-color="#F42A8B"/>
</linearGradient>
<linearGradient id="paint19_linear_89_1957" x1="18142.5" y1="-53067.4" x2="61113" y2="-38557.4" gradientUnits="userSpaceOnUse">
<stop stop-color="#1F89DB"/>
<stop offset="1" stop-color="#F42A8B"/>
</linearGradient>
<linearGradient id="paint20_linear_89_1957" x1="18139" y1="-53068.6" x2="61328.3" y2="-38484.6" gradientUnits="userSpaceOnUse">
<stop stop-color="#1F89DB"/>
<stop offset="1" stop-color="#F42A8B"/>
</linearGradient>
<linearGradient id="paint21_linear_89_1957" x1="18135.4" y1="-53069.8" x2="61555.1" y2="-38408.1" gradientUnits="userSpaceOnUse">
<stop stop-color="#1F89DB"/>
<stop offset="1" stop-color="#F42A8B"/>
</linearGradient>
<linearGradient id="paint22_linear_89_1957" x1="18131.7" y1="-53071" x2="61793.6" y2="-38327.5" gradientUnits="userSpaceOnUse">
<stop stop-color="#1F89DB"/>
<stop offset="1" stop-color="#F42A8B"/>
</linearGradient>
<linearGradient id="paint23_linear_89_1957" x1="18127.9" y1="-53072.3" x2="62044.3" y2="-38242.9" gradientUnits="userSpaceOnUse">
<stop stop-color="#1F89DB"/>
<stop offset="1" stop-color="#F42A8B"/>
</linearGradient>
<linearGradient id="paint24_linear_89_1957" x1="18124" y1="-53073.6" x2="62307.4" y2="-38154" gradientUnits="userSpaceOnUse">
<stop stop-color="#1F89DB"/>
<stop offset="1" stop-color="#F42A8B"/>
</linearGradient>
<linearGradient id="paint25_linear_89_1957" x1="18119.9" y1="-53075" x2="62583.4" y2="-38060.8" gradientUnits="userSpaceOnUse">
<stop stop-color="#1F89DB"/>
<stop offset="1" stop-color="#F42A8B"/>
</linearGradient>
<linearGradient id="paint26_linear_89_1957" x1="18115.8" y1="-53076.4" x2="62872.8" y2="-37963.1" gradientUnits="userSpaceOnUse">
<stop stop-color="#1F89DB"/>
<stop offset="1" stop-color="#F42A8B"/>
</linearGradient>
<linearGradient id="paint27_linear_89_1957" x1="18111.5" y1="-53077.8" x2="63175.9" y2="-37860.7" gradientUnits="userSpaceOnUse">
<stop stop-color="#1F89DB"/>
<stop offset="1" stop-color="#F42A8B"/>
</linearGradient>
<linearGradient id="paint28_linear_89_1957" x1="18107.2" y1="-53079.3" x2="63493.3" y2="-37753.6" gradientUnits="userSpaceOnUse">
<stop stop-color="#1F89DB"/>
<stop offset="1" stop-color="#F42A8B"/>
</linearGradient>
<linearGradient id="paint29_linear_89_1957" x1="18102.6" y1="-53080.8" x2="63825.5" y2="-37641.4" gradientUnits="userSpaceOnUse">
<stop stop-color="#1F89DB"/>
<stop offset="1" stop-color="#F42A8B"/>
</linearGradient>
<linearGradient id="paint30_linear_89_1957" x1="18098" y1="-53082.4" x2="64173.1" y2="-37524" gradientUnits="userSpaceOnUse">
<stop stop-color="#1F89DB"/>
<stop offset="1" stop-color="#F42A8B"/>
</linearGradient>
<linearGradient id="paint31_linear_89_1957" x1="18093.2" y1="-53084" x2="64536.5" y2="-37401.3" gradientUnits="userSpaceOnUse">
<stop stop-color="#1F89DB"/>
<stop offset="1" stop-color="#F42A8B"/>
</linearGradient>
<linearGradient id="paint32_linear_89_1957" x1="18088.2" y1="-53085.7" x2="64916.6" y2="-37273" gradientUnits="userSpaceOnUse">
<stop stop-color="#1F89DB"/>
<stop offset="1" stop-color="#F42A8B"/>
</linearGradient>
<linearGradient id="paint33_linear_89_1957" x1="18083.1" y1="-53087.4" x2="65313.9" y2="-37138.8" gradientUnits="userSpaceOnUse">
<stop stop-color="#1F89DB"/>
<stop offset="1" stop-color="#F42A8B"/>
</linearGradient>
<linearGradient id="paint34_linear_89_1957" x1="18077.9" y1="-53089.2" x2="65729.2" y2="-36998.6" gradientUnits="userSpaceOnUse">
<stop stop-color="#1F89DB"/>
<stop offset="1" stop-color="#F42A8B"/>
</linearGradient>
<linearGradient id="paint35_linear_89_1957" x1="18072.4" y1="-53091" x2="66163.3" y2="-36852" gradientUnits="userSpaceOnUse">
<stop stop-color="#1F89DB"/>
<stop offset="1" stop-color="#F42A8B"/>
</linearGradient>
<linearGradient id="paint36_linear_89_1957" x1="18066.8" y1="-53092.9" x2="66617" y2="-36698.8" gradientUnits="userSpaceOnUse">
<stop stop-color="#1F89DB"/>
<stop offset="1" stop-color="#F42A8B"/>
</linearGradient>
<linearGradient id="paint37_linear_89_1957" x1="18061" y1="-53094.9" x2="67091.2" y2="-36538.6" gradientUnits="userSpaceOnUse">
<stop stop-color="#1F89DB"/>
<stop offset="1" stop-color="#F42A8B"/>
</linearGradient>
<linearGradient id="paint38_linear_89_1957" x1="18054.9" y1="-53096.9" x2="67586.9" y2="-36371.3" gradientUnits="userSpaceOnUse">
<stop stop-color="#1F89DB"/>
<stop offset="1" stop-color="#F42A8B"/>
</linearGradient>
<clipPath id="clip0_89_1957">
<rect width="1143.78" height="761.979" fill="white" transform="translate(-249.603 1083.7) rotate(-71.3415)"/>
</clipPath>
</defs>
</svg>
