<svg width="1490" height="1272" viewBox="0 0 1490 1272" fill="none" xmlns="http://www.w3.org/2000/svg">
<g opacity="0.1">
<mask id="mask0_27_2677" style="mask-type:luminance" maskUnits="userSpaceOnUse" x="0" y="509" width="1655" height="585">
<path d="M0.303438 647.417C73.7795 661.811 155.16 641.163 267.729 571.013C310.84 544.15 354.58 527.122 397.874 518.346C489.683 499.738 579.526 518.24 657.234 558.751C734.964 599.271 800.556 661.816 843.835 731.271C868.388 770.672 885.756 812.297 894.084 853.381C916.476 963.858 943.831 1046.2 999.214 1078.7C1054.62 1111.23 1137.87 1093.8 1271.93 1004.66C1331.72 964.904 1391.23 948.825 1447.52 949.852C1507.69 950.948 1564.21 971.579 1613.54 1003.73C1627.64 1012.92 1641.15 1023.05 1653.98 1033.93L1654.64 1032.3C1641.87 1021.51 1628.45 1011.46 1614.45 1002.34C1564.88 970.026 1508.05 949.292 1447.56 948.188C1390.94 947.154 1331.11 963.317 1271.01 1003.27C1137.58 1092 1054.88 1109.45 1000.06 1077.27C945.203 1045.07 918.019 963.094 895.716 853.052C887.349 811.772 869.903 769.96 845.247 730.391C801.818 660.696 736.001 597.939 658 557.275C579.976 516.601 489.753 498.025 397.546 516.714C354.064 525.525 310.14 542.627 266.85 569.602C155.005 639.297 74.0589 659.913 0.97919 645.729L0.303438 647.417Z" fill="white"/>
</mask>
<g mask="url(#mask0_27_2677)">
<path d="M125.517 334.658L1684.14 958.609L1544.53 1307.35L-14.0918 683.398L125.517 334.658Z" fill="url(#paint0_linear_27_2677)"/>
</g>
<mask id="mask1_27_2677" style="mask-type:luminance" maskUnits="userSpaceOnUse" x="16" y="487" width="1636" height="605">
<path d="M16.0756 608.018C90.6496 627.466 174.102 610.499 292.35 542.213C336.341 516.808 380.626 501.256 424.192 493.938C516.571 478.424 605.741 499.93 682.045 543.024C758.371 586.134 821.826 650.844 862.752 721.71C885.968 761.915 901.935 804.103 908.876 845.44C927.547 956.604 952.126 1039.81 1006.39 1074.16C1060.67 1108.53 1144.46 1093.9 1281.43 1009.31C1342.53 971.586 1402.53 957.509 1458.76 960.427C1518.86 963.54 1574.66 986.058 1622.88 1019.85C1632.56 1026.63 1641.92 1033.86 1650.96 1041.48L1651.61 1039.85C1642.67 1032.33 1633.4 1025.19 1623.84 1018.48C1575.38 984.528 1519.28 961.899 1458.86 958.766C1402.3 955.832 1341.97 969.979 1280.56 1007.9C1144.22 1092.09 1060.99 1106.76 1007.27 1072.76C953.531 1038.74 929.115 955.896 910.514 845.163C903.541 803.627 887.507 761.252 864.191 720.878C823.127 649.768 759.454 584.836 682.862 541.578C606.246 498.308 516.699 476.716 423.914 492.3C380.159 499.648 335.687 515.264 291.517 540.771C173.98 608.647 90.9512 625.577 16.7495 606.334L16.0756 608.018Z" fill="white"/>
</mask>
<g mask="url(#mask1_27_2677)">
<path d="M135.456 309.828L1694.08 933.778L1546.29 1302.94L-12.3271 678.989L135.456 309.828Z" fill="url(#paint1_linear_27_2677)"/>
</g>
<mask id="mask2_27_2677" style="mask-type:luminance" maskUnits="userSpaceOnUse" x="32" y="464" width="1617" height="625">
<path d="M32.1266 567.921C107.689 592.858 193.108 579.88 317.345 513.591C362.164 489.677 406.946 475.622 450.73 469.771C543.577 457.361 631.977 481.851 706.795 527.484C781.635 573.13 842.885 639.932 881.407 712.133C903.262 753.095 917.801 795.792 923.354 837.338C938.284 949.068 960.057 1033.05 1013.13 1069.2C1066.23 1105.37 1150.47 1093.56 1290.2 1013.62C1352.52 977.965 1412.97 965.91 1469.07 970.713C1529.02 975.843 1584.04 1000.22 1631.1 1035.61C1636.84 1039.92 1642.45 1044.4 1647.94 1049.02L1648.59 1047.39C1643.21 1042.87 1637.71 1038.5 1632.1 1034.28C1584.81 998.717 1529.5 974.219 1469.22 969.06C1412.79 964.23 1352.01 976.341 1289.38 1012.18C1150.29 1091.75 1066.61 1103.62 1014.06 1067.83C961.491 1032.02 939.868 948.41 924.997 837.12C919.419 795.372 904.818 752.482 882.87 711.349C844.213 638.9 782.754 571.865 707.66 526.065C632.542 480.248 543.771 455.664 450.513 468.126C406.535 474.003 361.563 488.119 316.564 512.128C193.02 578.047 108.005 590.998 32.7925 566.258L32.1266 567.921Z" fill="white"/>
</mask>
<g mask="url(#mask2_27_2677)">
<path d="M145.316 285.198L1703.94 909.148L1548.15 1298.29L-10.4639 674.335L145.316 285.198Z" fill="url(#paint2_linear_27_2677)"/>
</g>
<mask id="mask3_27_2677" style="mask-type:luminance" maskUnits="userSpaceOnUse" x="48" y="442" width="1598" height="644">
<path d="M48.4833 527.063C124.904 557.971 212.158 549.302 342.716 485.171C388.31 462.776 433.539 450.231 477.496 445.852C570.712 436.569 658.241 464.007 731.48 512.124C804.745 560.254 863.715 629.072 899.794 702.528C920.261 744.197 933.358 787.358 937.513 829.071C948.688 941.236 967.628 1025.9 1019.46 1063.82C1071.32 1101.75 1155.9 1092.77 1298.25 1017.56C1361.73 984.021 1422.54 974.002 1478.45 980.685C1538.21 987.825 1592.37 1014.03 1638.22 1050.98C1640.48 1052.8 1642.72 1054.65 1644.94 1056.52L1645.59 1054.9C1643.5 1053.14 1641.39 1051.4 1639.26 1049.68C1593.18 1012.55 1538.73 986.212 1478.65 979.031C1422.42 972.31 1361.27 982.38 1297.46 1016.09C1155.78 1090.96 1071.76 1100.01 1020.44 1062.48C969.106 1024.93 950.302 940.637 939.174 828.906C934.998 786.997 921.842 743.642 901.287 701.792C865.086 628.089 805.909 559.032 732.388 510.733C658.848 462.421 570.953 434.87 477.333 444.195C433.185 448.593 387.764 461.191 341.983 483.678C212.104 547.474 125.239 556.126 49.1475 525.404L48.4833 527.063Z" fill="white"/>
</mask>
<g mask="url(#mask3_27_2677)">
<path d="M155.097 260.768L1713.72 884.718L1550.11 1293.41L-8.51074 669.458L155.097 260.768Z" fill="url(#paint3_linear_27_2677)"/>
</g>
<mask id="mask4_27_2677" style="mask-type:luminance" maskUnits="userSpaceOnUse" x="65" y="419" width="1578" height="664">
<path d="M65.1843 485.344C142.306 522.749 231.219 518.738 368.452 456.956C414.774 436.104 460.399 425.081 504.475 422.181C597.943 416.03 684.501 446.392 756.088 496.943C827.7 547.506 884.328 618.263 917.92 692.883C936.979 735.222 948.623 778.798 951.375 820.624C958.778 933.103 974.867 1018.36 1025.4 1057.99C1075.95 1097.64 1160.79 1091.51 1305.57 1021.12C1370.14 989.722 1431.27 981.75 1486.92 990.303C1545.38 999.291 1597.84 1026.51 1641.95 1063.97L1642.61 1062.34C1598.36 1024.88 1545.78 997.668 1487.18 988.661C1431.2 980.057 1369.75 988.067 1304.85 1019.62C1160.73 1089.68 1076.45 1095.92 1026.42 1056.68C976.369 1017.43 960.404 932.553 953.031 820.514C950.263 778.484 938.573 734.713 919.436 692.201C885.724 617.319 828.902 546.316 757.047 495.58C685.174 444.827 598.252 414.348 504.368 420.526C460.094 423.437 414.275 434.504 367.767 455.441C231.193 516.924 142.658 520.921 65.8476 483.687L65.1843 485.344Z" fill="white"/>
</mask>
<g mask="url(#mask4_27_2677)">
<path d="M164.805 236.517L1723.42 860.467L1552.17 1288.26L-6.45215 664.313L164.805 236.517Z" fill="url(#paint4_linear_27_2677)"/>
</g>
<mask id="mask5_27_2677" style="mask-type:luminance" maskUnits="userSpaceOnUse" x="82" y="396" width="1558" height="683">
<path d="M82.2864 442.624C159.922 487.116 250.257 488.178 394.542 428.963C441.537 409.677 487.504 400.192 531.654 398.774C625.281 395.761 710.771 429.011 780.621 481.933C850.492 534.869 904.715 607.49 935.786 683.199C953.412 726.15 963.587 770.091 964.934 811.985C968.558 924.654 981.779 1010.4 1030.95 1051.7C1080.15 1093.03 1165.14 1089.74 1312.2 1024.25C1377.79 995.044 1439.15 989.126 1494.48 999.543C1549.06 1009.82 1597.8 1035.98 1639 1071.35L1639.66 1069.71C1598.34 1034.35 1549.48 1008.21 1494.79 997.908C1439.14 987.434 1377.45 993.376 1311.53 1022.73C1165.14 1087.92 1080.7 1091.32 1032.02 1050.43C983.314 1009.52 970.204 924.158 966.594 811.936C965.241 769.839 955.024 725.697 937.323 682.567C906.146 606.601 851.736 533.729 781.622 480.608C711.49 427.472 625.64 394.089 531.605 397.114C487.259 398.539 441.096 408.062 393.909 427.426C250.264 486.38 160.295 485.302 82.9506 440.965L82.2864 442.624Z" fill="white"/>
</mask>
<g mask="url(#mask5_27_2677)">
<path d="M174.433 212.465L1733.05 836.416L1554.33 1282.85L-4.28516 658.902L174.433 212.465Z" fill="url(#paint5_linear_27_2677)"/>
</g>
<mask id="mask6_27_2677" style="mask-type:luminance" maskUnits="userSpaceOnUse" x="99" y="373" width="1538" height="706">
<path d="M99.825 398.813C177.763 451.044 269.231 457.608 420.982 401.203C468.596 383.501 514.857 375.568 559.032 375.63C652.705 375.762 737.033 411.861 805.068 467.098C873.124 522.354 924.88 596.75 953.391 673.457C969.565 716.974 978.259 761.232 978.201 803.15C978.041 915.875 988.377 1002.02 1036.13 1044.95C1083.91 1087.9 1168.97 1087.47 1318.15 1026.95C1384.68 999.958 1446.2 996.103 1501.16 1008.37C1552.19 1019.76 1597.57 1045.06 1636.09 1078.63L1636.74 1077C1598.12 1043.44 1552.64 1018.16 1501.52 1006.75C1446.25 994.412 1384.4 998.28 1317.53 1025.41C1169.04 1085.65 1084.53 1086.21 1037.25 1043.71C989.938 1001.19 979.701 915.434 979.86 803.157C979.921 761.037 971.19 716.58 954.945 672.88C926.334 595.905 874.403 521.251 806.113 465.806C737.804 410.349 653.121 374.102 559.037 373.971C514.672 373.907 468.213 381.875 420.404 399.646C269.273 455.824 178.162 449.24 100.495 397.139L99.825 398.813Z" fill="white"/>
</mask>
<g mask="url(#mask6_27_2677)">
<path d="M184.784 186.611L1743.4 810.561L1556.62 1277.13L-1.99414 653.179L184.784 186.611Z" fill="url(#paint6_linear_27_2677)"/>
</g>
<mask id="mask7_27_2677" style="mask-type:luminance" maskUnits="userSpaceOnUse" x="117" y="350" width="1517" height="736">
<path d="M117.85 353.785C195.85 414.497 288.102 427.01 447.765 373.69C495.951 357.597 542.452 351.216 586.595 352.762C680.21 356.036 763.278 394.946 829.42 452.433C895.583 509.939 944.815 586.031 970.735 663.655C985.442 707.693 992.647 752.218 991.18 794.106C987.239 906.763 994.677 993.208 1040.97 1037.71C1087.28 1082.24 1172.3 1084.67 1323.43 1029.19C1390.84 1004.45 1452.45 1002.66 1506.96 1016.76C1554.78 1029.14 1597.16 1053.75 1633.21 1085.82L1633.86 1084.18C1597.73 1052.14 1555.28 1027.55 1507.38 1015.16C1452.55 1000.97 1390.6 1002.76 1322.86 1027.63C1172.43 1082.85 1087.95 1080.58 1042.12 1036.51C996.266 992.426 988.912 906.378 992.839 794.169C994.313 752.071 987.08 707.346 972.314 663.13C946.302 585.239 896.902 508.885 830.511 451.18C764.101 393.459 680.681 354.393 586.655 351.102C542.312 349.551 495.614 355.956 447.239 372.11C288.173 425.232 196.273 412.697 118.528 352.092L117.85 353.785Z" fill="white"/>
</mask>
<g mask="url(#mask7_27_2677)">
<path d="M195.391 160.11L1754.01 784.061L1559.04 1271.09L0.420898 647.144L195.391 160.11Z" fill="url(#paint7_linear_27_2677)"/>
</g>
<mask id="mask8_27_2677" style="mask-type:luminance" maskUnits="userSpaceOnUse" x="136" y="305" width="1496" height="788">
<path d="M136.451 307.321C214.246 377.336 306.821 396.348 474.88 346.425C523.574 331.959 570.263 327.145 614.336 330.171C707.79 336.588 789.505 378.261 853.681 437.937C917.88 497.63 964.528 575.335 987.83 653.78C1001.05 698.285 1006.75 743.026 1003.88 784.846C996.162 897.304 1000.69 983.948 1045.47 1029.98C1090.26 1076.04 1175.15 1081.32 1328.06 1030.94C1396.25 1008.48 1457.89 1008.76 1511.9 1024.68C1556.87 1037.95 1596.56 1062.06 1630.37 1092.91L1631.03 1091.27C1597.15 1060.45 1557.39 1036.37 1512.37 1023.09C1458.05 1007.07 1396.08 1006.79 1327.54 1029.37C1175.34 1079.51 1090.98 1074.4 1046.66 1028.83C1002.31 983.226 997.85 896.98 1005.54 784.962C1008.42 742.943 1002.7 698.001 989.419 653.308C966.036 574.589 919.228 496.617 854.813 436.721C790.376 376.803 708.314 334.957 614.451 328.515C570.19 325.475 523.306 330.309 474.409 344.834C306.925 394.585 214.698 375.543 137.139 305.602L136.451 307.321Z" fill="white"/>
</mask>
<g mask="url(#mask8_27_2677)">
<path d="M205.912 133.832L1764.53 757.782L1561.59 1264.72L2.97168 640.774L205.912 133.832Z" fill="url(#paint8_linear_27_2677)"/>
</g>
<mask id="mask9_27_2677" style="mask-type:luminance" maskUnits="userSpaceOnUse" x="155" y="257" width="1474" height="843">
<path d="M155.677 259.293C232.973 339.559 325.334 365.604 502.323 319.432C551.472 306.61 598.296 303.364 642.243 307.867C735.428 317.416 815.7 361.808 877.837 423.601C939.992 485.416 984.009 564.641 1004.67 643.826C1016.38 688.748 1020.58 733.654 1016.31 775.354C1004.82 887.492 1006.44 974.238 1049.65 1021.75C1092.87 1069.29 1177.54 1077.41 1332.04 1032.2C1400.96 1012.03 1462.55 1014.38 1515.99 1032.11C1558.45 1046.19 1595.78 1069.99 1627.56 1099.92L1628.23 1098.26C1596.38 1068.39 1559.01 1044.63 1516.52 1030.53C1462.77 1012.7 1400.84 1010.33 1331.58 1030.6C1177.78 1075.61 1093.65 1067.67 1050.88 1020.63C1008.09 973.572 1006.52 887.223 1017.97 775.529C1022.26 733.632 1018.04 688.52 1006.27 643.405C985.546 563.946 941.379 484.45 879.01 422.425C816.619 360.378 736.009 315.801 642.414 306.212C598.281 301.691 551.258 304.949 501.899 317.825C325.464 363.852 233.462 337.757 156.383 257.529L155.677 259.293Z" fill="white"/>
</mask>
<g mask="url(#mask9_27_2677)">
<path d="M216.342 107.777L1774.96 731.727L1564.28 1258L5.66309 634.049L216.342 107.777Z" fill="url(#paint9_linear_27_2677)"/>
</g>
<mask id="mask10_27_2677" style="mask-type:luminance" maskUnits="userSpaceOnUse" x="175" y="207" width="1451" height="900">
<path d="M175.64 209.429C252.122 301.02 343.58 334.736 530.078 292.715C579.63 281.551 626.537 279.878 670.31 285.854C763.125 298.523 841.858 345.583 901.887 409.428C961.934 473.297 1003.26 553.952 1021.25 633.785C1031.46 679.072 1034.15 724.095 1028.48 765.632C1013.23 877.32 1011.94 964.071 1053.53 1013.01C1095.13 1061.97 1179.48 1072.93 1335.42 1032.92C1404.97 1015.08 1466.44 1019.49 1519.26 1039C1559.55 1053.89 1594.82 1077.56 1624.79 1106.85L1625.46 1105.18C1595.43 1075.96 1560.14 1052.34 1519.84 1037.45C1466.72 1017.82 1404.9 1013.38 1335 1031.31C1179.79 1071.13 1095.96 1060.38 1054.79 1011.93C1013.61 963.46 1014.94 877.107 1030.13 765.858C1035.82 724.13 1033.12 678.903 1022.87 633.417C1004.82 553.307 963.351 472.373 903.096 408.287C842.823 344.181 763.754 296.93 670.537 284.203C626.58 278.203 579.473 279.883 529.711 291.095C343.738 332.999 252.646 299.222 176.363 207.623L175.64 209.429Z" fill="white"/>
</mask>
<g mask="url(#mask10_27_2677)">
<path d="M226.693 81.9218L1785.31 705.872L1567.12 1250.92L8.49902 626.967L226.693 81.9218Z" fill="url(#paint10_linear_27_2677)"/>
</g>
<mask id="mask11_27_2677" style="mask-type:luminance" maskUnits="userSpaceOnUse" x="196" y="155" width="1427" height="959">
<path d="M196.437 157.477C271.778 261.634 361.495 303.707 558.14 266.285C608.037 256.789 654.975 256.693 698.52 264.134C790.858 279.911 867.971 329.587 925.823 395.41C983.695 461.258 1022.3 543.254 1037.59 623.646C1046.27 669.25 1047.45 714.339 1040.39 755.66C1021.4 866.773 1017.21 953.434 1057.12 1003.74C1097.06 1054.07 1180.99 1067.85 1338.19 1033.1C1408.3 1017.6 1469.59 1024.08 1521.73 1045.35C1560.18 1061.04 1593.67 1084.8 1622.04 1113.73L1622.71 1112.04C1594.3 1083.19 1560.8 1059.5 1522.35 1043.81C1469.92 1022.42 1408.29 1015.9 1337.82 1031.48C1181.36 1066.07 1097.95 1052.5 1058.43 1002.7C1018.89 952.877 1023.12 866.62 1042.03 755.945C1049.12 714.43 1047.94 669.139 1039.23 623.338C1023.87 542.664 985.139 460.381 927.069 394.31C868.983 328.222 791.546 278.34 698.805 262.494C655.076 255.021 607.941 255.12 557.831 264.655C361.684 301.984 272.345 259.83 197.184 155.611L196.437 157.477Z" fill="white"/>
</mask>
<g mask="url(#mask11_27_2677)">
<path d="M236.945 56.312L1795.56 680.262L1570.11 1243.44L11.4941 619.485L236.945 56.312Z" fill="url(#paint11_linear_27_2677)"/>
</g>
<mask id="mask12_27_2677" style="mask-type:luminance" maskUnits="userSpaceOnUse" x="218" y="101" width="1402" height="1020">
<path d="M218.188 103.144C292.056 221.301 379.006 272.468 586.499 240.156C636.696 232.338 683.608 233.814 726.874 242.711C818.626 261.576 894.029 313.815 949.641 381.546C1005.27 449.293 1041.1 532.542 1053.69 613.403C1060.84 659.279 1060.5 704.385 1052.06 745.44C1029.35 855.853 1022.25 942.322 1060.46 993.935C1098.68 1045.58 1182.1 1062.17 1340.37 1032.71C1410.96 1019.58 1472.01 1028.1 1523.4 1051.12C1560.36 1067.67 1592.34 1091.71 1619.29 1120.58L1619.97 1118.88C1592.99 1090.11 1561.01 1066.14 1524.07 1049.6C1472.39 1026.46 1411.01 1017.87 1340.07 1031.08C1182.53 1060.4 1099.62 1044.05 1061.79 992.948C1023.95 941.822 1031.07 855.754 1053.68 745.773C1062.17 704.515 1062.51 659.211 1055.33 613.148C1042.7 532.006 1006.74 448.47 950.926 380.486C895.09 312.486 819.369 260.037 727.209 241.085C683.748 232.149 636.637 230.663 586.245 238.512C379.223 270.751 292.679 219.466 218.972 101.186L218.188 103.144Z" fill="white"/>
</mask>
<g mask="url(#mask12_27_2677)">
<path d="M247.1 30.9469L1805.72 654.897L1573.27 1235.55L14.6504 611.601L247.1 30.9469Z" fill="url(#paint12_linear_27_2677)"/>
</g>
<mask id="mask13_27_2677" style="mask-type:luminance" maskUnits="userSpaceOnUse" x="241" y="43" width="1377" height="1085">
<path d="M241.049 46.0359C313.127 179.864 396.041 240.956 615.143 214.331C665.573 208.203 712.408 211.255 755.353 221.597C846.424 243.533 920.03 298.272 973.338 367.829C1026.66 437.406 1059.67 521.808 1069.54 603.045C1075.15 649.133 1073.3 694.199 1063.48 734.949C1037.08 844.541 1027.08 930.724 1063.54 983.593C1100.01 1036.49 1182.83 1055.87 1341.99 1031.74C1412.99 1020.98 1473.71 1031.55 1524.3 1056.28C1560.09 1073.77 1590.82 1098.35 1616.53 1127.47L1617.23 1125.74C1591.49 1096.74 1560.77 1072.25 1525.03 1054.78C1474.15 1029.92 1413.1 1019.28 1341.75 1030.1C1183.31 1054.12 1100.99 1034.99 1064.9 982.647C1028.8 930.28 1038.81 844.501 1065.1 735.345C1074.96 694.394 1076.82 649.127 1071.2 602.844C1061.29 521.326 1028.16 436.632 974.654 366.814C921.132 296.977 847.216 242.013 755.747 219.982C712.611 209.592 665.577 206.527 614.944 212.68C396.287 239.251 313.812 178.017 241.865 43.9983L241.049 46.0359Z" fill="white"/>
</mask>
<g mask="url(#mask13_27_2677)">
<path d="M257.164 5.80495L1815.78 629.755L1576.58 1227.27L17.9658 603.317L257.164 5.80495Z" fill="url(#paint13_linear_27_2677)"/>
</g>
<mask id="mask14_27_2677" style="mask-type:luminance" maskUnits="userSpaceOnUse" x="272" y="0" width="1343" height="1135">
<path d="M883.902 245.491C928.661 274.145 966.49 311.68 996.906 354.255C1047.87 425.585 1078.03 511.046 1085.17 592.567C1089.22 638.819 1085.86 683.798 1074.68 724.198C1044.62 832.841 1031.73 918.639 1066.39 972.701C1101.07 1026.79 1183.19 1048.94 1343.08 1030.17C1414.39 1021.79 1474.72 1034.4 1524.46 1060.81C1559.4 1079.36 1589.12 1104.74 1613.75 1134.44L1614.45 1132.69C1589.81 1103.12 1560.11 1077.85 1525.24 1059.34C1475.22 1032.78 1414.56 1020.1 1342.88 1028.52C1183.74 1047.2 1102.1 1025.33 1067.79 971.801C1033.46 918.253 1046.34 832.858 1076.28 724.644C1087.52 684.049 1090.89 638.871 1086.82 592.426C1079.66 510.62 1049.39 424.861 998.261 353.289C969.301 312.751 933.641 276.763 891.697 248.611L883.902 245.491ZM272.169 0.600101C340.491 141.904 420.209 208.432 644.066 188.826C683.697 185.354 720.941 187.437 755.679 194.16L747.929 191.058C715.362 185.488 680.665 183.951 643.923 187.169C422.069 206.6 342.357 141.012 274.476 1.52369L272.169 0.600101Z" fill="white"/>
</mask>
<g mask="url(#mask14_27_2677)">
<path d="M272.169 0.597583L1819.65 620.09L1580.08 1218.54L32.5967 599.045L272.169 0.597583Z" fill="url(#paint14_linear_27_2677)"/>
</g>
<mask id="mask15_27_2677" style="mask-type:luminance" maskUnits="userSpaceOnUse" x="341" y="28" width="1271" height="1114">
<path d="M972.67 281.027C990.329 299.527 1006.23 319.604 1020.34 340.819C1068.87 413.815 1096.15 500.244 1100.55 581.962C1103.05 628.32 1098.18 673.163 1085.65 713.163C1051.97 820.736 1036.21 906.054 1069.03 961.252C1101.87 1016.47 1183.2 1041.37 1343.63 1027.97C1415.18 1021.99 1475.06 1036.61 1523.88 1064.68C1558.3 1084.46 1587.23 1110.93 1610.89 1141.58L1611.6 1139.79C1587.93 1109.31 1559.04 1082.97 1524.71 1063.23C1475.61 1035.01 1415.41 1020.31 1343.49 1026.31C1183.81 1039.65 1102.96 1015.04 1070.46 960.397C1037.95 905.73 1053.68 820.816 1087.24 713.667C1099.83 673.471 1104.72 628.431 1102.21 581.877C1097.8 499.877 1070.43 413.15 1021.72 339.902C1008.23 319.603 993.09 300.343 976.355 282.502L972.67 281.027ZM341.214 28.2408C401.118 127.256 486.04 173.725 673.244 163.643C675.098 163.543 676.946 163.455 678.788 163.379L675.056 161.885L673.16 161.981C488.214 171.941 403.506 126.416 343.895 29.3142L341.214 28.2408Z" fill="white"/>
</mask>
<g mask="url(#mask15_27_2677)">
<path d="M341.224 28.242L1819.65 620.089L1583.74 1209.38L105.315 617.537L341.224 28.242Z" fill="url(#paint15_linear_27_2677)"/>
</g>
<mask id="mask16_27_2677" style="mask-type:luminance" maskUnits="userSpaceOnUse" x="429" y="63" width="1180" height="1086">
<path d="M1027.29 302.893C1033.01 310.924 1038.46 319.142 1043.64 327.521C1089.69 402.108 1114.06 489.403 1115.72 571.219C1116.65 617.636 1110.29 662.288 1096.42 701.849C1059.14 808.232 1040.53 892.971 1071.48 949.236C1102.45 1005.53 1182.9 1033.14 1343.69 1025.13C1415.4 1021.56 1474.75 1038.18 1522.61 1067.87C1556.82 1089.09 1585.15 1116.99 1607.93 1148.97L1608.66 1147.14C1585.87 1115.35 1557.58 1087.61 1523.48 1066.45C1475.36 1036.6 1415.69 1019.89 1343.61 1023.47C1183.56 1031.44 1103.58 1004.14 1072.94 948.436C1042.28 892.705 1060.86 808.365 1097.99 702.399C1111.92 662.652 1118.32 617.801 1117.38 571.188C1115.71 489.085 1091.27 401.489 1045.05 326.65C1040.31 318.968 1035.33 311.423 1030.13 304.028L1027.29 302.893ZM429.36 63.5274C471.068 102.866 526.878 126.906 609.028 135.453L603.251 133.14C527.066 124.343 474.128 101.696 434.043 65.4022L429.36 63.5274Z" fill="white"/>
</mask>
<g mask="url(#mask16_27_2677)">
<path d="M429.366 63.5276L1819.65 620.09L1587.6 1199.74L197.318 643.18L429.366 63.5276Z" fill="url(#paint16_linear_27_2677)"/>
</g>
<mask id="mask17_27_2677" style="mask-type:luminance" maskUnits="userSpaceOnUse" x="1060" y="319" width="546" height="838">
<path d="M1069.95 319.971C1111.36 394.762 1131.72 480.514 1130.66 560.334C1130.04 606.758 1122.17 651.172 1106.99 690.244C1066.16 795.314 1044.71 879.382 1073.76 936.654C1102.82 993.952 1182.3 1024.25 1343.27 1021.64C1415.06 1020.48 1473.82 1039.09 1520.65 1070.36C1554.97 1093.28 1582.88 1123 1604.82 1156.74L1605.57 1154.86C1583.61 1121.34 1555.75 1091.8 1521.57 1068.98C1474.48 1037.52 1415.4 1018.81 1343.25 1019.98C1183.02 1022.57 1104 992.601 1075.24 935.9C1046.47 879.174 1067.87 795.505 1108.54 690.848C1123.79 651.59 1131.69 606.979 1132.31 560.359C1133.37 480.891 1113.28 395.569 1072.39 320.948L1069.95 319.971Z" fill="white"/>
</mask>
<g mask="url(#mask17_27_2677)">
<path d="M1069.95 319.969L1819.65 620.092L1591.65 1189.63L841.951 889.511L1069.95 319.969Z" fill="url(#paint17_linear_27_2677)"/>
</g>
<mask id="mask18_27_2677" style="mask-type:luminance" maskUnits="userSpaceOnUse" x="1064" y="334" width="539" height="832">
<path d="M1105.57 334.232C1135.45 403.354 1148.68 478.916 1145.37 549.296C1143.2 595.672 1133.85 639.8 1117.36 678.342C1073.03 781.982 1048.77 865.282 1075.88 923.493C1103.01 981.736 1181.42 1014.68 1342.38 1017.48C1414.18 1018.73 1472.28 1039.3 1518.03 1072.12C1552.77 1097.05 1580.4 1129.05 1601.5 1165.04L1602.28 1163.09C1581.15 1127.36 1553.58 1095.58 1519 1070.77C1472.99 1037.75 1414.57 1017.07 1342.42 1015.82C1182.2 1013.03 1104.23 980.425 1077.39 922.792C1050.54 865.129 1074.73 782.224 1118.89 678.99C1135.45 640.269 1144.84 595.949 1147.03 549.378C1150.32 479.27 1137.27 404.042 1107.76 335.106L1105.57 334.232Z" fill="white"/>
</mask>
<g mask="url(#mask18_27_2677)">
<path d="M1105.58 334.232L1819.65 620.09L1595.35 1180.39L881.279 894.532L1105.58 334.232Z" fill="url(#paint18_linear_27_2677)"/>
</g>
<mask id="mask19_27_2677" style="mask-type:luminance" maskUnits="userSpaceOnUse" x="1068" y="346" width="531" height="829">
<path d="M1136.25 346.511C1157.12 409.509 1164.88 476.042 1159.88 538.098C1156.15 584.377 1145.32 628.164 1127.55 666.13C1079.77 768.225 1052.73 850.664 1077.87 909.754C1103.02 968.876 1180.29 1004.43 1341.07 1012.63C1412.78 1016.29 1470.16 1038.79 1514.78 1073.14C1550.29 1100.46 1577.72 1135.28 1597.88 1174.07L1598.69 1172.04C1578.49 1133.55 1551.11 1099 1515.8 1071.82C1470.92 1037.28 1413.23 1014.64 1341.16 1010.97C1181.12 1002.81 1104.29 967.605 1079.4 909.105C1054.5 850.573 1081.46 768.528 1129.06 666.832C1146.91 628.686 1157.79 584.708 1161.53 538.236C1166.52 476.398 1158.88 410.137 1138.26 347.319L1136.25 346.511Z" fill="white"/>
</mask>
<g mask="url(#mask19_27_2677)">
<path d="M1136.25 346.508L1819.65 620.091L1597.88 1174.07L914.477 900.483L1136.25 346.508Z" fill="url(#paint19_linear_27_2677)"/>
</g>
<mask id="mask20_27_2677" style="mask-type:luminance" maskUnits="userSpaceOnUse" x="1071" y="357" width="524" height="828">
<path d="M1163.11 357.267C1176.87 413.916 1180.42 472.229 1174.18 526.738C1168.9 572.864 1156.61 616.261 1137.57 653.612C1086.39 754.046 1056.6 835.533 1079.74 895.432C1102.9 955.361 1178.93 993.492 1339.34 1007.08C1410.89 1013.14 1467.48 1037.56 1510.93 1073.38C1547.54 1103.57 1574.83 1141.87 1593.86 1184.11L1594.72 1181.97C1575.61 1140.08 1548.38 1102.11 1511.98 1072.1C1468.29 1036.07 1411.39 1011.52 1339.48 1005.43C1179.81 991.901 1104.21 954.138 1081.29 894.831C1058.37 835.497 1088.07 754.403 1139.05 654.364C1158.18 616.838 1170.52 573.247 1175.83 526.928C1182.05 472.599 1178.58 414.504 1165 358.023L1163.11 357.267Z" fill="white"/>
</mask>
<g mask="url(#mask20_27_2677)">
<path d="M1163.12 357.268L1819.65 620.09L1593.86 1184.11L937.334 921.287L1163.12 357.268Z" fill="url(#paint20_linear_27_2677)"/>
</g>
<mask id="mask21_27_2677" style="mask-type:luminance" maskUnits="userSpaceOnUse" x="1075" y="366" width="516" height="830">
<path d="M1186.84 366.765C1194.99 416.97 1195.34 467.67 1188.27 515.202C1181.44 561.126 1167.7 604.088 1147.43 640.777C1092.91 739.435 1060.4 819.876 1081.52 880.522C1102.65 941.192 1177.36 981.856 1337.22 1000.82C1408.53 1009.28 1464.27 1035.58 1506.49 1072.84C1544.61 1106.48 1571.71 1149.06 1589.3 1195.5L1590.21 1193.23C1572.51 1147.2 1545.46 1105.01 1507.59 1071.59C1465.13 1034.12 1409.09 1007.67 1337.42 999.167C1178.3 980.292 1104 940.01 1083.09 879.973C1062.17 819.903 1094.58 739.851 1148.89 641.578C1169.26 604.713 1183.06 561.565 1189.92 515.449C1196.96 468.065 1196.67 417.542 1188.64 367.485L1186.84 366.765Z" fill="white"/>
</mask>
<g mask="url(#mask21_27_2677)">
<path d="M1186.84 366.761L1819.65 620.089L1589.3 1195.49L956.493 942.16L1186.84 366.761Z" fill="url(#paint21_linear_27_2677)"/>
</g>
<mask id="mask22_27_2677" style="mask-type:luminance" maskUnits="userSpaceOnUse" x="1078" y="375" width="507" height="834">
<path d="M1207.89 375.192C1211.71 418.941 1209.69 462.5 1202.18 503.489C1193.81 549.159 1178.64 591.635 1157.15 627.625C1099.34 724.398 1064.15 803.703 1083.23 865.021C1102.31 926.37 1175.61 969.515 1334.75 993.831C1405.73 1004.68 1460.56 1032.84 1501.5 1071.49C1541.57 1109.32 1568.36 1157.22 1583.99 1208.79L1584.97 1206.32C1569.18 1155.25 1542.42 1107.84 1502.64 1070.28C1461.46 1031.41 1406.34 1003.09 1335 992.186C1176.6 967.982 1103.7 925.233 1084.81 864.526C1065.92 803.79 1100.99 724.87 1158.57 628.474C1180.17 592.314 1195.41 549.651 1203.81 503.791C1211.3 462.92 1213.35 419.502 1209.62 375.884L1207.89 375.192Z" fill="white"/>
</mask>
<g mask="url(#mask22_27_2677)">
<path d="M1207.89 375.188L1819.65 620.091L1583.98 1208.78L972.22 963.881L1207.89 375.188Z" fill="url(#paint22_linear_27_2677)"/>
</g>
<mask id="mask23_27_2677" style="mask-type:luminance" maskUnits="userSpaceOnUse" x="1080" y="382" width="499" height="843">
<path d="M1226.56 382.665C1227.12 419.999 1223.47 456.798 1215.89 491.591C1206 536.951 1189.41 578.896 1166.71 614.142C1105.7 708.921 1067.87 786.999 1084.87 848.925C1101.89 910.881 1173.7 956.462 1331.93 986.105C1402.51 999.326 1456.36 1029.31 1495.98 1069.32C1538.33 1112.07 1564.44 1166.28 1577.36 1223.73L1577.59 1224.76L1578.68 1222.04C1565.59 1164.8 1539.42 1110.81 1497.16 1068.15C1457.31 1027.91 1403.17 997.757 1332.24 984.47C1174.74 954.963 1103.31 909.789 1086.47 848.484C1069.63 787.149 1107.33 709.45 1168.11 615.039C1190.91 579.625 1207.58 537.496 1217.51 491.946C1225.08 457.249 1228.74 420.56 1228.23 383.333L1226.56 382.665Z" fill="white"/>
</mask>
<g mask="url(#mask23_27_2677)">
<path d="M1226.57 382.666L1819.65 620.09L1577.59 1224.75L984.511 987.327L1226.57 382.666Z" fill="url(#paint23_linear_27_2677)"/>
</g>
<mask id="mask24_27_2677" style="mask-type:luminance" maskUnits="userSpaceOnUse" x="1083" y="389" width="488" height="856">
<path d="M1243.06 389.27C1241.34 420.269 1236.73 450.632 1229.42 479.498C1218.01 524.499 1200.02 565.861 1176.16 600.329C1111.99 693.009 1071.56 769.773 1086.48 832.231C1101.41 894.722 1171.65 942.688 1328.8 977.627C1398.89 993.209 1451.71 1024.98 1489.97 1066.3C1530.85 1110.45 1555.13 1165.51 1566.11 1223.35C1567.46 1230.46 1568.61 1237.61 1569.57 1244.79L1570.82 1241.67C1569.94 1235.44 1568.92 1229.23 1567.74 1223.04C1556.7 1164.91 1532.3 1109.56 1491.19 1065.17C1452.71 1023.62 1399.61 991.667 1329.16 976.005C1172.74 941.231 1102.87 893.685 1088.1 831.848C1073.32 769.982 1113.61 693.592 1177.52 601.277C1201.5 566.649 1219.57 525.103 1231.03 479.91C1238.32 451.115 1242.94 420.837 1244.69 389.922L1243.06 389.27Z" fill="white"/>
</mask>
<g mask="url(#mask24_27_2677)">
<path d="M1226.55 382.657L1819.65 620.09L1569.57 1244.79L976.464 1007.36L1226.55 382.657Z" fill="url(#paint24_linear_27_2677)"/>
</g>
<mask id="mask25_27_2677" style="mask-type:luminance" maskUnits="userSpaceOnUse" x="1085" y="395" width="476" height="877">
<path d="M1257.55 395.071C1254.44 419.856 1249.48 444.053 1242.77 467.211C1229.86 511.805 1210.49 552.541 1185.49 586.187C1118.25 676.66 1075.27 752.024 1088.08 814.951C1100.9 877.907 1169.49 928.202 1325.38 968.392C1394.91 986.318 1446.63 1019.85 1483.48 1062.42C1522.86 1107.92 1545.28 1163.76 1554.32 1221.94C1556.87 1238.36 1558.35 1254.96 1558.85 1271.57L1560.38 1267.75C1559.78 1252.33 1558.33 1236.93 1555.96 1221.69C1546.88 1163.22 1524.34 1107.08 1484.74 1061.33C1447.68 1018.52 1395.69 984.802 1325.8 966.786C1170.63 926.781 1102.39 876.917 1089.71 814.62C1077.02 752.292 1119.85 677.297 1186.82 587.177C1211.95 553.373 1231.4 512.458 1244.37 467.674C1251.06 444.57 1256.02 420.43 1259.14 395.709L1257.55 395.071Z" fill="white"/>
</mask>
<g mask="url(#mask25_27_2677)">
<path d="M1223.61 381.482L1819.65 620.091L1558.86 1271.56L962.812 1032.95L1223.61 381.482Z" fill="url(#paint25_linear_27_2677)"/>
</g>
</g>
<defs>
<linearGradient id="paint0_linear_27_2677" x1="736227" y1="-686029" x2="9.13069e+06" y2="8.29876e+06" gradientUnits="userSpaceOnUse">
<stop stop-color="#0131B8"/>
<stop offset="0.45" stop-color="#39D4FF"/>
<stop offset="1" stop-color="#FA00FF"/>
</linearGradient>
<linearGradient id="paint1_linear_27_2677" x1="762140" y1="-710240" x2="9.15663e+06" y2="8.27458e+06" gradientUnits="userSpaceOnUse">
<stop stop-color="#0131B8"/>
<stop offset="0.45" stop-color="#39D4FF"/>
<stop offset="1" stop-color="#FA00FF"/>
</linearGradient>
<linearGradient id="paint2_linear_27_2677" x1="789063" y1="-735394" x2="9.18351e+06" y2="8.24938e+06" gradientUnits="userSpaceOnUse">
<stop stop-color="#0131B8"/>
<stop offset="0.45" stop-color="#39D4FF"/>
<stop offset="1" stop-color="#FA00FF"/>
</linearGradient>
<linearGradient id="paint3_linear_27_2677" x1="816937" y1="-761436" x2="9.21142e+06" y2="8.22338e+06" gradientUnits="userSpaceOnUse">
<stop stop-color="#0131B8"/>
<stop offset="0.45" stop-color="#39D4FF"/>
<stop offset="1" stop-color="#FA00FF"/>
</linearGradient>
<linearGradient id="paint4_linear_27_2677" x1="845927" y1="-788522" x2="9.24043e+06" y2="8.19631e+06" gradientUnits="userSpaceOnUse">
<stop stop-color="#0131B8"/>
<stop offset="0.45" stop-color="#39D4FF"/>
<stop offset="1" stop-color="#FA00FF"/>
</linearGradient>
<linearGradient id="paint5_linear_27_2677" x1="876039" y1="-816656" x2="9.27052e+06" y2="8.16815e+06" gradientUnits="userSpaceOnUse">
<stop stop-color="#0131B8"/>
<stop offset="0.45" stop-color="#39D4FF"/>
<stop offset="1" stop-color="#FA00FF"/>
</linearGradient>
<linearGradient id="paint6_linear_27_2677" x1="908506" y1="-846989" x2="9.30295e+06" y2="8.13778e+06" gradientUnits="userSpaceOnUse">
<stop stop-color="#0131B8"/>
<stop offset="0.45" stop-color="#39D4FF"/>
<stop offset="1" stop-color="#FA00FF"/>
</linearGradient>
<linearGradient id="paint7_linear_27_2677" x1="942773" y1="-879005" x2="9.33724e+06" y2="8.10579e+06" gradientUnits="userSpaceOnUse">
<stop stop-color="#0131B8"/>
<stop offset="0.45" stop-color="#39D4FF"/>
<stop offset="1" stop-color="#FA00FF"/>
</linearGradient>
<linearGradient id="paint8_linear_27_2677" x1="978499" y1="-912383" x2="9.37297e+06" y2="8.07242e+06" gradientUnits="userSpaceOnUse">
<stop stop-color="#0131B8"/>
<stop offset="0.45" stop-color="#39D4FF"/>
<stop offset="1" stop-color="#FA00FF"/>
</linearGradient>
<linearGradient id="paint9_linear_27_2677" x1="1.01579e+06" y1="-947222" x2="9.41026e+06" y2="8.03758e+06" gradientUnits="userSpaceOnUse">
<stop stop-color="#0131B8"/>
<stop offset="0.45" stop-color="#39D4FF"/>
<stop offset="1" stop-color="#FA00FF"/>
</linearGradient>
<linearGradient id="paint10_linear_27_2677" x1="1.05465e+06" y1="-983527" x2="9.44912e+06" y2="8.00128e+06" gradientUnits="userSpaceOnUse">
<stop stop-color="#0131B8"/>
<stop offset="0.45" stop-color="#39D4FF"/>
<stop offset="1" stop-color="#FA00FF"/>
</linearGradient>
<linearGradient id="paint11_linear_27_2677" x1="1.09526e+06" y1="-1.02148e+06" x2="9.48974e+06" y2="7.96333e+06" gradientUnits="userSpaceOnUse">
<stop stop-color="#0131B8"/>
<stop offset="0.45" stop-color="#39D4FF"/>
<stop offset="1" stop-color="#FA00FF"/>
</linearGradient>
<linearGradient id="paint12_linear_27_2677" x1="1.13765e+06" y1="-1.06108e+06" x2="9.53212e+06" y2="7.92373e+06" gradientUnits="userSpaceOnUse">
<stop stop-color="#0131B8"/>
<stop offset="0.45" stop-color="#39D4FF"/>
<stop offset="1" stop-color="#FA00FF"/>
</linearGradient>
<linearGradient id="paint13_linear_27_2677" x1="1.18181e+06" y1="-1.10234e+06" x2="9.57629e+06" y2="7.88247e+06" gradientUnits="userSpaceOnUse">
<stop stop-color="#0131B8"/>
<stop offset="0.45" stop-color="#39D4FF"/>
<stop offset="1" stop-color="#FA00FF"/>
</linearGradient>
<linearGradient id="paint14_linear_27_2677" x1="1.28132e+06" y1="-1.07509e+06" x2="9.61582e+06" y2="7.84552e+06" gradientUnits="userSpaceOnUse">
<stop stop-color="#0131B8"/>
<stop offset="0.45" stop-color="#39D4FF"/>
<stop offset="1" stop-color="#FA00FF"/>
</linearGradient>
<linearGradient id="paint15_linear_27_2677" x1="1.70296e+06" y1="-723436" x2="9.66555e+06" y2="7.79911e+06" gradientUnits="userSpaceOnUse">
<stop stop-color="#0131B8"/>
<stop offset="0.45" stop-color="#39D4FF"/>
<stop offset="1" stop-color="#FA00FF"/>
</linearGradient>
<linearGradient id="paint16_linear_27_2677" x1="2.23641e+06" y1="-270201" x2="9.72428e+06" y2="7.74424e+06" gradientUnits="userSpaceOnUse">
<stop stop-color="#0131B8"/>
<stop offset="0.45" stop-color="#39D4FF"/>
<stop offset="1" stop-color="#FA00FF"/>
</linearGradient>
<linearGradient id="paint17_linear_27_2677" x1="6.03505e+06" y1="3.09684e+06" x2="1.00728e+07" y2="7.41858e+06" gradientUnits="userSpaceOnUse">
<stop stop-color="#0131B8"/>
<stop offset="0.45" stop-color="#39D4FF"/>
<stop offset="1" stop-color="#FA00FF"/>
</linearGradient>
<linearGradient id="paint18_linear_27_2677" x1="6.29517e+06" y1="3.23847e+06" x2="1.0141e+07" y2="7.35479e+06" gradientUnits="userSpaceOnUse">
<stop stop-color="#0131B8"/>
<stop offset="0.45" stop-color="#39D4FF"/>
<stop offset="1" stop-color="#FA00FF"/>
</linearGradient>
<linearGradient id="paint19_linear_27_2677" x1="6.5146e+06" y1="3.36456e+06" x2="1.01953e+07" y2="7.30412e+06" gradientUnits="userSpaceOnUse">
<stop stop-color="#0131B8"/>
<stop offset="0.45" stop-color="#39D4FF"/>
<stop offset="1" stop-color="#FA00FF"/>
</linearGradient>
<linearGradient id="paint20_linear_27_2677" x1="6.64244e+06" y1="3.53532e+06" x2="1.01784e+07" y2="7.31993e+06" gradientUnits="userSpaceOnUse">
<stop stop-color="#0131B8"/>
<stop offset="0.45" stop-color="#39D4FF"/>
<stop offset="1" stop-color="#FA00FF"/>
</linearGradient>
<linearGradient id="paint21_linear_27_2677" x1="6.74364e+06" y1="3.69683e+06" x2="1.01518e+07" y2="7.34472e+06" gradientUnits="userSpaceOnUse">
<stop stop-color="#0131B8"/>
<stop offset="0.45" stop-color="#39D4FF"/>
<stop offset="1" stop-color="#FA00FF"/>
</linearGradient>
<linearGradient id="paint22_linear_27_2677" x1="6.81769e+06" y1="3.85486e+06" x2="1.01126e+07" y2="7.38143e+06" gradientUnits="userSpaceOnUse">
<stop stop-color="#0131B8"/>
<stop offset="0.45" stop-color="#39D4FF"/>
<stop offset="1" stop-color="#FA00FF"/>
</linearGradient>
<linearGradient id="paint23_linear_27_2677" x1="6.86185e+06" y1="4.01534e+06" x2="1.00561e+07" y2="7.43421e+06" gradientUnits="userSpaceOnUse">
<stop stop-color="#0131B8"/>
<stop offset="0.45" stop-color="#39D4FF"/>
<stop offset="1" stop-color="#FA00FF"/>
</linearGradient>
<linearGradient id="paint24_linear_27_2677" x1="6.7636e+06" y1="4.10684e+06" x2="9.95796e+06" y2="7.52584e+06" gradientUnits="userSpaceOnUse">
<stop stop-color="#0131B8"/>
<stop offset="0.45" stop-color="#39D4FF"/>
<stop offset="1" stop-color="#FA00FF"/>
</linearGradient>
<linearGradient id="paint25_linear_27_2677" x1="6.60945e+06" y1="4.21916e+06" x2="9.81964e+06" y2="7.6551e+06" gradientUnits="userSpaceOnUse">
<stop stop-color="#0131B8"/>
<stop offset="0.45" stop-color="#39D4FF"/>
<stop offset="1" stop-color="#FA00FF"/>
</linearGradient>
</defs>
</svg>
