<svg width="24" height="25" viewBox="0 0 24 25" fill="none" xmlns="http://www.w3.org/2000/svg">
<path d="M18 8.33898C18 6.74768 17.3679 5.22156 16.2426 4.09634C15.1174 2.97112 13.5913 2.33898 12 2.33898C10.4087 2.33898 8.88258 2.97112 7.75736 4.09634C6.63214 5.22156 6 6.74768 6 8.33898C6 15.339 3 17.339 3 17.339H21C21 17.339 18 15.339 18 8.33898Z" stroke="white" stroke-width="2" stroke-linecap="round" stroke-linejoin="round"/>
<path d="M13.73 21.339C13.5542 21.6421 13.3019 21.8936 12.9982 22.0685C12.6946 22.2434 12.3504 22.3354 12 22.3354C11.6496 22.3354 11.3054 22.2434 11.0018 22.0685C10.6982 21.8936 10.4458 21.6421 10.27 21.339" stroke="white" stroke-width="2" stroke-linecap="round" stroke-linejoin="round"/>
</svg>
