<svg width="19" height="19" viewBox="0 0 19 19" fill="none" xmlns="http://www.w3.org/2000/svg">
<g clip-path="url(#clip0_320_319)">
<path d="M17.4166 13.395V15.77C17.4175 15.9905 17.3724 16.2087 17.284 16.4107C17.1957 16.6127 17.0662 16.7941 16.9037 16.9431C16.7412 17.0922 16.5494 17.2057 16.3406 17.2763C16.1317 17.3469 15.9104 17.3732 15.6908 17.3533C13.2547 17.0886 10.9147 16.2562 8.85872 14.9229C6.94591 13.7074 5.32419 12.0857 4.10872 10.1729C2.77078 8.1076 1.93816 5.75618 1.6783 3.30915C1.65852 3.09022 1.68454 2.86958 1.7547 2.66127C1.82486 2.45295 1.93763 2.26153 2.08582 2.09918C2.23402 1.93683 2.4144 1.80713 2.61547 1.71831C2.81654 1.62949 3.0339 1.58352 3.25372 1.58331H5.62872C6.01292 1.57953 6.38539 1.71558 6.6767 1.96611C6.96801 2.21664 7.15828 2.56454 7.21205 2.94498C7.31229 3.70503 7.4982 4.45131 7.76622 5.16956C7.87273 5.45292 7.89578 5.76087 7.83264 6.05693C7.7695 6.35298 7.62282 6.62473 7.40997 6.83998L6.40455 7.8454C7.53153 9.82737 9.17258 11.4684 11.1546 12.5954L12.16 11.59C12.3752 11.3771 12.647 11.2304 12.943 11.1673C13.2391 11.1042 13.547 11.1272 13.8304 11.2337C14.5486 11.5017 15.2949 11.6877 16.055 11.7879C16.4395 11.8422 16.7907 12.0359 17.0418 12.3322C17.2929 12.6285 17.4263 13.0067 17.4166 13.395Z" stroke="#00587E" stroke-width="1.58333" stroke-linecap="round" stroke-linejoin="round"/>
</g>
<defs>
<clipPath id="clip0_320_319">
<rect width="19" height="19" fill="white"/>
</clipPath>
</defs>
</svg>
