<svg width="142" height="142" viewBox="0 0 142 142" fill="none" xmlns="http://www.w3.org/2000/svg">
<path d="M77.5192 36.0566H51.3287C50.1233 36.0566 49.1465 37.0335 49.1465 38.2389C49.1465 39.4443 50.1233 40.4212 51.3287 40.4212H77.5192C78.7246 40.4212 79.7026 39.4443 79.7026 38.2389C79.7026 37.0335 78.7246 36.0566 77.5192 36.0566Z" fill="#00587E"/>
<path d="M51.3307 53.515H60.0608C61.2662 53.515 62.2441 52.5371 62.2441 51.3317C62.2441 50.1263 61.2662 49.1494 60.0608 49.1494H51.3307C50.1253 49.1494 49.1484 50.1263 49.1484 51.3317C49.1484 52.5371 50.1253 53.515 51.3307 53.515Z" fill="#00587E"/>
<path d="M108.076 100.44C106.87 100.44 105.892 101.418 105.892 102.623V118.992H40.4168V36.0549C40.4168 32.8286 39.219 29.7184 37.0563 27.3249H97.1614C99.4769 27.3249 101.698 28.2443 103.335 29.8819C104.972 31.5194 105.892 33.7395 105.892 36.0551V46.9674C105.892 48.1728 106.87 49.1497 108.075 49.1497C109.28 49.1497 110.257 48.1728 110.257 46.9674V36.0551C110.257 32.582 108.877 29.2506 106.421 26.7955C103.966 24.3392 100.635 22.9595 97.1616 22.9595H27.3222C23.8491 22.9595 20.5188 24.3392 18.0626 26.7955C15.6063 29.2507 14.2266 32.582 14.2266 36.0551V55.6978C14.2266 56.2761 14.4572 56.8317 14.8666 57.241C15.276 57.6504 15.8305 57.88 16.4099 57.88H36.0525V121.174C36.0525 121.753 36.2821 122.307 36.6915 122.717C37.1009 123.126 37.6565 123.356 38.2348 123.356H108.077C108.655 123.356 109.211 123.126 109.62 122.717C110.03 122.307 110.259 121.753 110.259 121.174V102.623C110.259 102.043 110.03 101.489 109.62 101.079C109.211 100.67 108.655 100.439 108.077 100.439L108.076 100.44ZM18.593 36.0566C18.593 32.9375 20.2565 30.0555 22.9575 28.496C25.6585 26.9364 28.9866 26.9364 31.6876 28.496C34.3886 30.0555 36.0532 32.9375 36.0532 36.0566V53.517H18.5928L18.593 36.0566Z" fill="#00587E"/>
<path d="M51.3307 105.896C50.1253 105.896 49.1484 106.874 49.1484 108.079C49.1484 109.285 50.1253 110.262 51.3307 110.262H65.5182C66.7236 110.262 67.7004 109.285 67.7004 108.079C67.7004 106.874 66.7236 105.896 65.5182 105.896H51.3307Z" fill="#00587E"/>
<path d="M131.439 66.3268L115.998 50.8854C115.146 50.0395 113.772 50.0395 112.92 50.8854L78.9592 84.8458C78.7014 85.11 78.5108 85.4317 78.4036 85.7847L72.2381 107.392H72.237C72.0042 108.166 72.2186 109.006 72.7937 109.574C73.202 109.985 73.7543 110.215 74.3327 110.219C74.5363 110.216 74.7377 110.186 74.9327 110.131L96.5399 103.965C96.8951 103.862 97.2178 103.671 97.4789 103.409L131.439 69.4483C132.285 68.5971 132.285 67.2217 131.439 66.3703L131.439 66.3268ZM81.5895 90.5527L91.7709 100.734L77.5186 104.805L81.5895 90.5527ZM95.9394 98.7371L83.5865 86.3842L114.458 55.5235L126.8 67.8656L95.9394 98.7371Z" fill="#00587E"/>
<path d="M79.7045 64.4274C79.7045 63.848 79.4738 63.2935 79.0645 62.8841C78.6551 62.4747 78.1006 62.2451 77.5212 62.2451H51.3307C50.1253 62.2451 49.1484 63.222 49.1484 64.4274C49.1484 65.6328 50.1253 66.6096 51.3307 66.6096H77.5212C78.1006 66.6096 78.6551 66.3801 79.0645 65.9707C79.4738 65.5613 79.7045 65.0057 79.7045 64.4274Z" fill="#00587E"/>
</svg>
