<svg width="143" height="143" viewBox="0 0 143 143" fill="none" xmlns="http://www.w3.org/2000/svg">
<path d="M69.3804 110.896C70.4981 110.896 71.476 111.874 71.476 112.992C71.476 114.11 70.4981 115.088 69.3804 115.088H41.4447C40.327 115.088 39.349 114.11 39.349 112.992C39.349 111.874 40.327 110.896 41.4447 110.896H69.3804ZM35.8581 80.1659C34.7404 80.1659 33.7625 81.1439 33.7625 82.2616C33.7625 83.3792 34.7404 84.3572 35.8581 84.3572C36.9758 84.3572 37.9537 83.3792 37.9537 82.2616C37.9526 81.1439 36.9758 80.1659 35.8581 80.1659ZM35.8581 100.699C34.7404 100.699 33.7625 101.677 33.7625 102.794C33.7625 103.912 34.7404 104.89 35.8581 104.89C36.9758 104.89 37.9537 103.912 37.9537 102.794C37.9526 101.677 36.9758 100.699 35.8581 100.699ZM35.8581 110.896C34.7404 110.896 33.7625 111.874 33.7625 112.992C33.7625 114.11 34.7404 115.088 35.8581 115.088C36.9758 115.088 37.9537 114.11 37.9537 112.992C37.9526 111.873 36.9758 110.896 35.8581 110.896ZM35.8581 90.3626C34.7404 90.3626 33.7625 91.3406 33.7625 92.4583C33.7625 93.576 34.7404 94.5539 35.8581 94.5539C36.9758 94.5539 37.9537 93.576 37.9537 92.4583C37.9526 91.3406 36.9758 90.3626 35.8581 90.3626ZM81.2551 115.087C82.3727 115.087 83.3507 114.109 83.3507 112.991C83.3507 111.873 82.3727 110.895 81.2551 110.895C80.1374 110.895 79.1594 111.873 79.1594 112.991C79.1594 114.109 79.9977 115.087 81.2551 115.087ZM73.5722 112.991C73.5722 114.109 74.5501 115.087 75.6678 115.087C76.7855 115.087 77.7634 114.109 77.7634 112.991C77.7634 111.873 76.7855 110.895 75.6678 110.895C74.5501 110.897 73.5722 111.873 73.5722 112.991ZM88.6574 113.969C87.5397 113.271 86.422 112.293 85.4451 111.454C85.026 111.873 84.6069 112.432 84.6069 113.131C84.6069 114.248 85.5848 115.226 86.7025 115.226C87.6805 115.087 88.379 114.668 88.6574 113.969ZM41.4444 100.699C40.3267 100.699 39.3488 101.677 39.3488 102.795C39.3488 103.912 40.3267 104.89 41.4444 104.89H80.4147C79.7162 103.493 79.0176 102.096 78.5985 100.7L41.4444 100.699ZM41.4444 94.5529H77.2042C77.0644 93.7147 77.0644 92.7367 77.0644 91.8985C77.0644 91.3396 77.0644 90.9205 77.2042 90.3617L41.4444 90.3628C40.3267 90.3628 39.3488 91.3407 39.3488 92.4584C39.3488 93.5761 40.187 94.5529 41.4444 94.5529ZM39.3488 82.2619C39.3488 83.3795 40.3267 84.3575 41.4444 84.3575L78.0414 84.3564C78.4606 82.9593 79.0194 81.5623 79.7179 80.1663H41.4463C40.1889 80.1663 39.3507 81.1443 39.3507 82.2619L39.3488 82.2619ZM101.087 118.299C99.9692 122.07 96.4776 124.864 92.4272 124.864H30.9664C25.9379 124.864 21.8875 120.814 21.8875 115.785L21.8865 26.3887C21.8865 21.3602 25.9368 17.3098 30.9653 17.3098H92.4262C97.4547 17.3098 101.505 21.3602 101.505 26.3887V65.5004C102.204 65.5004 102.902 65.3607 103.601 65.3607C104.299 65.3607 104.998 65.3607 105.696 65.5004V26.3887C105.696 19.125 99.6899 13.1187 92.4262 13.1187H30.9654C23.7017 13.1187 17.6953 19.125 17.6953 26.3887V115.785C17.6953 123.049 23.7017 129.055 30.9654 129.055H92.4262C98.8518 129.055 104.299 124.446 105.417 118.44C104.858 118.44 104.159 118.579 103.601 118.579C102.763 118.439 101.925 118.439 101.087 118.299ZM126.649 91.8994C126.649 104.611 116.313 114.947 103.602 114.947C90.8902 114.947 80.554 104.611 80.554 91.8994C80.554 79.188 90.8902 68.8518 103.602 68.8518C116.313 68.8518 126.649 79.188 126.649 91.8994ZM122.459 91.8994C122.459 81.5632 113.939 73.0419 103.602 73.0419C93.2654 73.0419 84.7441 81.5618 84.7441 91.8994C84.7441 102.236 93.264 110.757 103.602 110.757C113.938 110.757 122.459 102.376 122.459 91.8994ZM109.468 83.0989L98.2939 94.2735V89.5244C98.2939 88.4068 97.3159 87.4288 96.1982 87.4288C95.0806 87.4288 94.1026 88.4068 94.1026 89.5244V99.4417V99.5814C94.1026 100.001 94.2423 100.42 94.5217 100.699L94.8011 100.978C95.2203 101.258 95.6394 101.537 96.1982 101.537H105.976C107.093 101.537 108.071 100.559 108.071 99.4417C108.071 98.324 107.093 97.346 105.976 97.346H101.087L112.262 86.1715C113.1 85.3332 113.1 84.0758 112.262 83.2387C111.423 82.4015 110.307 82.2617 109.468 83.0989ZM61.6982 47.7605C56.111 47.7605 51.5018 43.291 51.5018 37.7038C51.5018 32.1167 56.111 27.6471 61.6982 27.6471C67.2853 27.6471 71.8946 32.1167 71.8946 37.7038C71.8946 43.291 67.2853 47.7605 61.6982 47.7605ZM61.6982 43.5693C65.0502 43.5693 67.7045 40.9149 67.7045 37.7027C67.7045 34.4905 64.9115 31.9769 61.6982 31.9769C58.486 31.9769 55.6918 34.6314 55.6918 37.8436C55.6918 41.0557 58.3463 43.5693 61.6982 43.5693ZM61.1394 50.4141H62.1173C70.6372 50.4141 77.6217 57.3983 77.6217 65.9185V69.6905H45.4939V65.9193C45.6336 57.3983 52.4782 50.4138 61.1381 50.4138L61.1394 50.4141ZM49.8251 65.5004H73.571C73.2916 59.4941 68.263 54.6053 62.2567 54.6053H61.2787C54.9929 54.6053 49.9645 59.4941 49.8251 65.5004Z" fill="#00587E"/>
</svg>
