<svg width="143" height="142" viewBox="0 0 143 142" fill="none" xmlns="http://www.w3.org/2000/svg">
<path d="M94.512 27.3982H84.7199C83.9805 23.5181 80.6553 20.5625 76.5908 20.5625H69.2001C68.2764 15.5743 63.8421 11.8784 58.6695 11.8784C53.4959 11.8784 49.0617 15.5743 48.1379 20.5625H40.7472C36.6827 20.5625 33.3566 23.519 32.6181 27.3982H22.8259C21.7169 27.3982 20.9785 28.1375 20.9785 29.2456V128.278C20.9785 129.387 21.7179 130.126 22.8259 130.126H94.3266C95.4357 130.126 96.1741 129.386 96.1741 128.278V29.2456C96.3594 28.1375 95.4357 27.3982 94.511 27.3982H94.512ZM36.1299 28.8769C36.1299 26.29 38.1626 24.2583 40.7484 24.2583L49.8021 24.2574C50.9112 24.2574 51.6496 23.518 51.6496 22.4099C51.6496 18.5298 54.7905 15.5743 58.6706 15.5743C62.5508 15.5743 65.5063 18.7152 65.5063 22.4099C65.5063 23.519 66.2457 24.2574 67.3537 24.2574H76.4065C78.9934 24.2574 81.0251 26.2901 81.0251 28.876V33.4955H36.1293L36.1299 28.8769ZM92.6653 126.431H24.6742V31.094H32.4344V35.3439C32.4344 36.453 33.1738 37.1914 34.2818 37.1914L83.0575 37.1904C84.1665 37.1904 84.9049 36.4511 84.9049 35.343V31.093H92.6652L92.6653 126.431Z" fill="#00587E"/>
<path d="M46.2893 44.9509C42.5943 46.614 39.2682 49.9391 37.0512 54.0037L35.0184 51.7865C34.2791 51.0472 33.171 51.0472 32.4315 51.7865C31.692 52.5259 31.6922 53.634 32.4315 54.3735L36.4961 58.438C37.4198 59.3617 39.083 58.9921 39.4526 57.884C41.3 53.4498 44.4408 50.1237 47.9513 48.2762C48.875 47.9066 49.2447 46.7985 48.875 45.8747C48.3209 44.951 47.2129 44.397 46.2891 44.951L46.2893 44.9509Z" fill="#00587E"/>
<path d="M46.2893 84.6719C42.5943 86.335 39.2682 89.6601 37.0511 93.7246L35.0184 91.5085C34.279 90.7691 33.1709 90.7691 32.4315 91.5085C31.6921 92.2478 31.6921 93.3559 32.4315 94.0954L36.496 98.1599C37.4197 99.0837 39.0829 98.714 39.4525 97.6059C41.3 93.1717 44.4407 89.8456 47.9512 87.9982C48.875 87.6285 49.2446 86.5204 48.875 85.5967C48.3209 84.672 47.2128 84.3033 46.289 84.672L46.2893 84.6719Z" fill="#00587E"/>
<path d="M83.6133 49.3853H58.117C57.0079 49.3853 56.2695 50.1246 56.2695 51.2327C56.2695 52.3417 57.0089 53.0801 58.117 53.0801H83.7997C84.9087 53.0801 85.6471 52.3408 85.6471 51.2327C85.4628 50.309 84.7234 49.3853 83.6153 49.3853H83.6133Z" fill="#00587E"/>
<path d="M83.6133 69.5229H58.117C57.0079 69.5229 56.2695 70.2623 56.2695 71.3704C56.2695 72.4794 57.0089 73.2178 58.117 73.2178H83.7997C84.9087 73.2178 85.6471 72.4785 85.6471 71.3704C85.4628 70.4467 84.7234 69.5229 83.6153 69.5229H83.6133Z" fill="#00587E"/>
<path d="M83.6133 89.6631H58.117C57.0079 89.6631 56.2695 90.4024 56.2695 91.5105C56.2695 92.6195 57.0089 93.358 58.117 93.358H83.7997C84.9087 93.358 85.6471 92.6186 85.6471 91.5105C85.4628 90.5868 84.7234 89.6631 83.6153 89.6631H83.6133Z" fill="#00587E"/>
<path d="M83.6133 109.8H58.117C57.0079 109.8 56.2695 110.54 56.2695 111.648C56.2695 112.757 57.0089 113.495 58.117 113.495H83.7997C84.9087 113.495 85.6471 112.756 85.6471 111.648C85.4628 110.724 84.7234 109.8 83.6153 109.8H83.6133Z" fill="#00587E"/>
<path d="M33.1737 76.9146C33.913 77.6539 35.0211 77.6539 35.7606 76.9146L38.5317 74.1435L41.3028 76.9146C42.0421 77.6539 43.1502 77.6539 43.8897 76.9146C44.629 76.1752 44.629 75.0672 43.8897 74.3277L41.1186 71.5566L43.8897 68.7855C44.629 68.0461 44.629 66.938 43.8897 66.1986C43.1503 65.4592 42.0423 65.4592 41.3028 66.1986L38.5317 68.9697L35.7606 66.1986C35.0212 65.4592 33.9131 65.4592 33.1737 66.1986C32.4343 66.9379 32.4343 68.046 33.1737 68.7855L35.9448 71.5566L33.1737 74.3277C32.4343 75.067 32.4343 76.1751 33.1737 76.9146Z" fill="#00587E"/>
<path d="M44.0731 106.291C43.3338 105.551 42.2257 105.551 41.4862 106.291L38.7151 109.062L35.944 106.291C35.2047 105.551 34.0966 105.551 33.3571 106.291C32.6177 107.03 32.6177 108.138 33.3571 108.878L36.1282 111.649L33.1717 114.605C32.4323 115.345 32.4323 116.453 33.1717 117.192C33.9111 117.932 35.0191 117.932 35.7586 117.192L38.5297 114.421L41.3008 117.192C42.0402 117.932 43.1482 117.932 43.8877 117.192C44.6271 116.453 44.6271 115.345 43.8877 114.605L41.1166 111.649L43.8877 108.878C44.8114 108.138 44.8115 107.03 44.0731 106.291Z" fill="#00587E"/>
<path d="M118.902 27.3979H106.339C104.122 27.3979 102.459 29.061 102.459 31.0929C102.459 31.2773 102.459 118.299 102.643 112.573L110.958 129.202C111.697 130.495 113.545 130.495 114.284 129.202C123.337 111.095 122.783 112.388 122.783 111.834L122.782 31.0951C122.967 29.0624 121.12 27.3992 118.903 27.3992L118.902 27.3979ZM114.652 109.8V43.2878H119.271V109.8H114.652ZM106.338 109.8V43.2878H110.956V109.8H106.338ZM106.523 31.0939H119.086H119.271V39.5926H106.338V31.0939C106.338 31.2782 106.338 31.0939 106.523 31.0939ZM112.805 124.213L107.447 113.498H118.163L112.805 124.213Z" fill="#00587E"/>
</svg>
