<svg width="21" height="21" viewBox="0 0 21 21" fill="none" xmlns="http://www.w3.org/2000/svg">
<g clip-path="url(#clip0_328_348)">
<path d="M10.3399 2.33253C12.9483 2.33253 13.2572 2.34397 14.2831 2.38973C15.2365 2.43168 15.7513 2.59185 16.0945 2.72532C16.5483 2.90075 16.8763 3.11431 17.2157 3.45371C17.5589 3.79693 17.7687 4.12109 17.9441 4.5749C18.0776 4.91812 18.2377 5.43676 18.2797 6.38634C18.3255 7.416 18.3369 7.7249 18.3369 10.3296C18.3369 12.938 18.3255 13.2469 18.2797 14.2728C18.2377 15.2262 18.0776 15.741 17.9441 16.0842C17.7687 16.538 17.5551 16.866 17.2157 17.2054C16.8725 17.5486 16.5483 17.7584 16.0945 17.9338C15.7513 18.0673 15.2327 18.2274 14.2831 18.2694C13.2534 18.3152 12.9445 18.3266 10.3399 18.3266C7.73139 18.3266 7.42249 18.3152 6.39664 18.2694C5.44325 18.2274 4.92842 18.0673 4.5852 17.9338C4.13139 17.7584 3.80342 17.5448 3.46401 17.2054C3.12079 16.8622 2.91105 16.538 2.73562 16.0842C2.60215 15.741 2.44198 15.2224 2.40003 14.2728C2.35427 13.2431 2.34283 12.9342 2.34283 10.3296C2.34283 7.72109 2.35427 7.41219 2.40003 6.38634C2.44198 5.43295 2.60215 4.91812 2.73562 4.5749C2.91105 4.12109 3.12461 3.79312 3.46401 3.45371C3.80723 3.11049 4.13139 2.90075 4.5852 2.72532C4.92842 2.59185 5.44706 2.43168 6.39664 2.38973C7.42249 2.34397 7.73139 2.33253 10.3399 2.33253ZM10.3399 0.574476C7.68944 0.574476 7.35766 0.585917 6.31656 0.63168C5.27927 0.677442 4.56613 0.845239 3.94834 1.08549C3.30384 1.33719 2.7585 1.66897 2.21698 2.21431C1.67164 2.75583 1.33986 3.30117 1.08817 3.94185C0.847911 4.56346 0.680115 5.27278 0.634352 6.31007C0.588589 7.35498 0.577148 7.68676 0.577148 10.3372C0.577148 12.9876 0.588589 13.3194 0.634352 14.3605C0.680115 15.3978 0.847911 16.1109 1.08817 16.7287C1.33986 17.3732 1.67164 17.9185 2.21698 18.4601C2.7585 19.0016 3.30384 19.3372 3.94452 19.5851C4.56613 19.8253 5.27545 19.9931 6.31274 20.0389C7.35384 20.0846 7.68562 20.0961 10.336 20.0961C12.9865 20.0961 13.3183 20.0846 14.3594 20.0389C15.3966 19.9931 16.1098 19.8253 16.7276 19.5851C17.3683 19.3372 17.9136 19.0016 18.4551 18.4601C18.9966 17.9185 19.3322 17.3732 19.5801 16.7325C19.8204 16.1109 19.9882 15.4016 20.0339 14.3643C20.0797 13.3232 20.0911 12.9914 20.0911 10.341C20.0911 7.69058 20.0797 7.3588 20.0339 6.3177C19.9882 5.28041 19.8204 4.56727 19.5801 3.94948C19.3399 3.30117 19.0081 2.75583 18.4627 2.21431C17.9212 1.67278 17.3759 1.33719 16.7352 1.08931C16.1136 0.849053 15.4043 0.681256 14.367 0.635493C13.3221 0.585917 12.9903 0.574476 10.3399 0.574476Z" fill="white"/>
<path d="M10.34 5.32236C7.57138 5.32236 5.3252 7.56854 5.3252 10.3372C5.3252 13.1058 7.57138 15.352 10.34 15.352C13.1087 15.352 15.3549 13.1058 15.3549 10.3372C15.3549 7.56854 13.1087 5.32236 10.34 5.32236ZM10.34 13.5902C8.54384 13.5902 7.08706 12.1334 7.08706 10.3372C7.08706 8.541 8.54384 7.08422 10.34 7.08422C12.1362 7.08422 13.593 8.541 13.593 10.3372C13.593 12.1334 12.1362 13.5902 10.34 13.5902Z" fill="white"/>
<path d="M16.7238 5.12402C16.7238 5.77232 16.1976 6.29478 15.5531 6.29478C14.9048 6.29478 14.3823 5.76851 14.3823 5.12402C14.3823 4.47571 14.9086 3.95325 15.5531 3.95325C16.1976 3.95325 16.7238 4.47952 16.7238 5.12402Z" fill="white"/>
</g>
<defs>
<clipPath id="clip0_328_348">
<rect width="19.5254" height="19.5254" fill="white" transform="translate(0.577148 0.574476)"/>
</clipPath>
</defs>
</svg>
