<svg width="20" height="21" viewBox="0 0 20 21" fill="none" xmlns="http://www.w3.org/2000/svg">
<g clip-path="url(#clip0_328_354)">
<path d="M19.348 6.43319C19.348 6.43319 19.1573 5.087 18.5701 4.4959C17.8264 3.71793 16.9951 3.71412 16.6137 3.66836C13.8832 3.47005 9.78362 3.47005 9.78362 3.47005H9.77599C9.77599 3.47005 5.67641 3.47005 2.9459 3.66836C2.56455 3.71412 1.73319 3.71793 0.989547 4.4959C0.402259 5.087 0.215395 6.43319 0.215395 6.43319C0.215395 6.43319 0.0170898 8.01582 0.0170898 9.59463V11.0743C0.0170898 12.6531 0.211581 14.2357 0.211581 14.2357C0.211581 14.2357 0.402259 15.5819 0.985734 16.173C1.72938 16.951 2.70565 16.9243 3.14039 17.0082C4.70395 17.1569 9.7798 17.2027 9.7798 17.2027C9.7798 17.2027 13.8832 17.1951 16.6137 17.0006C16.9951 16.9548 17.8264 16.951 18.5701 16.173C19.1573 15.5819 19.348 14.2357 19.348 14.2357C19.348 14.2357 19.5425 12.6569 19.5425 11.0743V9.59463C19.5425 8.01582 19.348 6.43319 19.348 6.43319ZM7.76243 12.8705V7.38276L13.0366 10.1362L7.76243 12.8705Z" fill="white"/>
</g>
<defs>
<clipPath id="clip0_328_354">
<rect width="19.5254" height="19.5254" fill="white" transform="translate(0.0170898 0.576183)"/>
</clipPath>
</defs>
</svg>
