<svg width="20" height="21" viewBox="0 0 20 21" fill="none" xmlns="http://www.w3.org/2000/svg">
<g clip-path="url(#clip0_328_358)">
<path d="M10.2212 0.574417C4.82946 0.574417 0.458496 4.94538 0.458496 10.3371C0.458496 14.9155 3.61068 18.7573 7.86293 19.8124V13.3206H5.84986V10.3371H7.86293V9.05158C7.86293 5.72874 9.36678 4.18857 12.6291 4.18857C13.2477 4.18857 14.3149 4.31002 14.7515 4.43108V7.13535C14.5211 7.11114 14.1208 7.09903 13.6237 7.09903C12.023 7.09903 11.4044 7.70549 11.4044 9.28198V10.3371H14.5933L14.0455 13.3206H11.4044V20.0284C16.2386 19.4446 19.9843 15.3286 19.9843 10.3371C19.9839 4.94538 15.613 0.574417 10.2212 0.574417Z" fill="white"/>
</g>
<defs>
<clipPath id="clip0_328_358">
<rect width="19.5254" height="19.5254" fill="white" transform="translate(0.458496 0.574417)"/>
</clipPath>
</defs>
</svg>
